<svg xmlns="http://www.w3.org/2000/svg" xmlns:xlink="http://www.w3.org/1999/xlink" version="1.1" width="2544" height="1266" viewBox="0 0 2544 1266" xml:space="preserve">
<desc>Created with Fabric.js 3.5.0</desc>
<defs>
</defs>
<rect x="0" y="0" width="100%" height="100%" fill="rgba(186,160,160,0.65)"/>
<g transform="matrix(0.8118 0 0 0.8118 1227.4711 675.6436)" id="26142">
<g style="" vector-effect="non-scaling-stroke">
		<g transform="matrix(8 0 0 8 76 136)" id="760753">
<path style="stroke: rgb(0,0,0); stroke-width: 1; stroke-dasharray: none; stroke-linecap: butt; stroke-dashoffset: 0; stroke-linejoin: miter; stroke-miterlimit: 4; is-custom-font: none; font-file-url: none; fill: rgb(153,153,153); fill-opacity: 0; fill-rule: nonzero; opacity: 1;" transform=" translate(-60, -67.5)" d="m 95 95 l -70 0 l 0 -30 l 50 0 l 0 -25 l 20 0 z" stroke-linecap="round"/>
</g>
		<g transform="matrix(8 0 0 8 276 -112)" id="229135">
<path style="stroke: rgb(0,0,0); stroke-width: 1; stroke-dasharray: none; stroke-linecap: butt; stroke-dashoffset: 0; stroke-linejoin: miter; stroke-miterlimit: 4; is-custom-font: none; font-file-url: none; fill: rgb(102,102,102); fill-opacity: 0; fill-rule: nonzero; opacity: 1;" transform=" translate(-85, -36.5)" d="m 95 40 l 0 -7 l -20 0 l 0 7 z" stroke-linecap="round"/>
</g>
		<g transform="matrix(8 0 0 8 -84 -104)" id="923631">
<path style="stroke: rgb(0,0,0); stroke-width: 1; stroke-dasharray: none; stroke-linecap: butt; stroke-dashoffset: 0; stroke-linejoin: miter; stroke-miterlimit: 4; is-custom-font: none; font-file-url: none; fill: rgb(204,204,204); fill-opacity: 0; fill-rule: nonzero; opacity: 1;" transform=" translate(-40, -37.5)" d="m 5 65 l 0 -55 l 70 0 l 0 55 z" stroke-linecap="round"/>
</g>
		<g transform="matrix(8 0 0 8 -84 -352)" id="738877">
<path style="stroke: rgb(0,0,0); stroke-width: 1; stroke-dasharray: none; stroke-linecap: butt; stroke-dashoffset: 0; stroke-linejoin: miter; stroke-miterlimit: 4; is-custom-font: none; font-file-url: none; fill: rgb(78,80,80); fill-opacity: 0; fill-rule: nonzero; opacity: 1;" transform=" translate(-40, -6.5)" d="m 5 10 l 0 -7 l 70 0 l 0 7 z" stroke-linecap="round"/>
</g>
</g>
</g>
<g transform="matrix(0.295 0 0 0.295 2063.7373 388.2741)" id="669783">
<g style="" vector-effect="non-scaling-stroke">
		<g transform="matrix(1.6364 0 0 1.6364 222.1279 -138.7757)" id="29844">
<path style="stroke: none; stroke-width: 1; stroke-dasharray: none; stroke-linecap: butt; stroke-dashoffset: 0; stroke-linejoin: miter; stroke-miterlimit: 4; is-custom-font: none; font-file-url: none; fill: rgb(73,67,67); fill-opacity: 0.6; fill-rule: nonzero; opacity: 1;" transform=" translate(-380.1841, -159.6343)" d="M 414.184 67.071 h -67.9 c -41.3 0 -74.8 33.5 -74.8 74.8 c 0 33 21.5 61 51.2 70.9 v 35.7 c 0 3.3 4 5 6.3 2.6 l 34.4 -34.4 h 50.7 c 41.3 0 74.8 -33.5 74.8 -74.8 C 488.984 100.571 455.484 67.071 414.184 67.071 z M 408.084 157.671 l -12.1 12.1 l -15.7 -15.7 l -15.8 15.7 l -12.1 -12.1 l 15.7 -15.7 l -15.7 -15.7 l 12.1 -12.1 l 15.7 15.7 l 15.7 -15.7 l 12.1 12.1 l -15.7 15.7 L 408.084 157.671 z" stroke-linecap="round"/>
</g>
		<g transform="matrix(1.6364 0 0 1.6364 -143.2759 -6.8693)" id="539006">
<path style="stroke: none; stroke-width: 1; stroke-dasharray: none; stroke-linecap: butt; stroke-dashoffset: 0; stroke-linejoin: miter; stroke-miterlimit: 4; is-custom-font: none; font-file-url: none; fill: rgb(73,67,67); fill-opacity: 0.6; fill-rule: nonzero; opacity: 1;" transform=" translate(-156.884, -240.2419)" d="M 200.084 294.171 L 200.084 294.171 v -15.4 c 0 0 48.7 1.5 71.8 -22.1 c 0 0 -33.6 -9.5 -27.6 -70.8 s -7.5 -115 -56.8 -110.5 c 0 0 -21.3 -25.7 -63.8 -9.5 c -14.5 5.5 -53.6 19.6 -51.6 104.4 s -30.2 85.3 -30.2 85.3 s 16.6 24.1 72.8 23.6 v 15.8 l 42.8 125 l 42.7 -124.6 L 200.084 294.171 z" stroke-linecap="round"/>
</g>
		<g transform="matrix(1.6364 0 0 1.6364 -142.2912 201.8143)" id="279114">
<path style="stroke: none; stroke-width: 1; stroke-dasharray: none; stroke-linecap: butt; stroke-dashoffset: 0; stroke-linejoin: miter; stroke-miterlimit: 4; is-custom-font: none; font-file-url: none; fill: rgb(73,67,67); fill-opacity: 0.6; fill-rule: nonzero; opacity: 1;" transform=" translate(-157.4852, -367.771)" d="M 306.284 374.271 c -2.8 -15.4 -12.7 -28.6 -26.8 -35.5 l -53.8 -26.5 c -3.1 -1.5 -6.1 -3.2 -9.1 -4.9 l 17 50.1 l -23.7 -1.8 l -52.4 64.3 l -52.4 -64.5 l -23.7 1.8 l 17.3 -50.1 l -10.8 5.5 l -52.4 26 c -14 6.9 -24 20.1 -26.8 35.5 l -8.6 47.5 c -0.6 3.5 2.1 6.7 5.6 6.7 h 149.8 h 4 h 149.8 c 3.6 0 6.2 -3.2 5.6 -6.7 L 306.284 374.271 z" stroke-linecap="round"/>
</g>
</g>
</g>
<g transform="matrix(0.295 0 0 0.295 2350.4766 646.1935)" id="536910">
<g style="" vector-effect="non-scaling-stroke">
		<g transform="matrix(1.638 0 0 1.638 228.0916 -133.4304)" id="287497">
<path style="stroke: none; stroke-width: 1; stroke-dasharray: none; stroke-linecap: butt; stroke-dashoffset: 0; stroke-linejoin: miter; stroke-miterlimit: 4; is-custom-font: none; font-file-url: none; fill: rgb(73,67,67); fill-opacity: 0.6; fill-rule: nonzero; opacity: 1;" transform=" translate(-383.45, -162.7408)" d="M 416.2 73.398 h -65.5 c -39.9 0 -72.2 32.3 -72.2 72.2 c 0 31.9 20.7 58.9 49.4 68.5 v 34.4 c 0 3.2 3.9 4.8 6.1 2.5 l 33.2 -33.2 h 49 c 39.9 0 72.2 -32.3 72.2 -72.2 C 488.4 105.798 456 73.398 416.2 73.398 z M 362.7 154.598 h -17.9 v -17.9 h 17.9 V 154.598 z M 392.4 154.598 h -17.9 v -17.9 h 17.9 V 154.598 z M 422 154.598 h -17.9 v -17.9 H 422 V 154.598 z" stroke-linecap="round"/>
</g>
		<g transform="matrix(1.638 0 0 1.638 -120.3115 -0.0007)" id="169584">
<path style="stroke: none; stroke-width: 1; stroke-dasharray: none; stroke-linecap: butt; stroke-dashoffset: 0; stroke-linejoin: miter; stroke-miterlimit: 4; is-custom-font: none; font-file-url: none; fill: rgb(73,67,67); fill-opacity: 0.6; fill-rule: nonzero; opacity: 1;" transform=" translate(-170.75, -244.1998)" d="M 329.1 347.598 c -43.5 -35.8 -90.5 -59.6 -100.1 -64.2 c -1.1 -0.5 -1.7 -1.6 -1.7 -2.8 v -33.2 c 5.1 -8.8 8.4 -18.1 9.7 -26.6 c 3.7 -0.3 8.6 -5.5 13.9 -24.1 c 6.8 -23.9 0.5 -28.7 -5.7 -28.7 c 0.6 -2 1.1 -4.1 1.4 -6.1 c 11 -65.9 -21.5 -68.2 -21.5 -68.2 s -5.4 -10.3 -19.5 -18.2 c -9.5 -5.6 -22.7 -10 -40.1 -8.5 c -5.6 0.3 -11 1.4 -16 3 l 0 0 c -6.4 2.2 -12.3 5.3 -17.6 9 c -6.5 4.1 -12.7 9.2 -18.1 15 c -8.6 8.8 -16.2 20.1 -19.6 34.3 c -2.8 10.6 -2.2 21.6 0.2 33.5 l 0 0 c 0.4 2 0.9 4.1 1.4 6.1 c -6.1 0.1 -12.1 5.1 -5.4 28.6 c 5.3 18.6 10.2 23.8 13.9 24.1 c 1.3 8.4 4.6 17.7 9.7 26.6 v 33.2 c 0 1.2 -0.7 2.3 -1.7 2.8 c -9.5 4.7 -56.5 28.4 -100.1 64.2 c -7.8 6.4 -12.2 16.1 -12.2 26.2 v 48.1 h 341.5 v -48.1 C 341.3 363.698 336.9 354.098 329.1 347.598 z" stroke-linecap="round"/>
</g>
</g>
</g>
<g transform="matrix(0.295 0 0 0.295 366.2522 967.641)" id="869834">
<g style="" vector-effect="non-scaling-stroke">
		<g transform="matrix(1.635 0 0 1.635 228.1639 -133.2655)" id="355742">
<path style="stroke: none; stroke-width: 1; stroke-dasharray: none; stroke-linecap: butt; stroke-dashoffset: 0; stroke-linejoin: miter; stroke-miterlimit: 4; is-custom-font: none; font-file-url: none; fill: rgb(73,67,67); fill-opacity: 0.6; fill-rule: nonzero; opacity: 1;" transform=" translate(-384.2, -163.1408)" d="M 417 73.648 h -65.6 c -39.9 0 -72.3 32.4 -72.3 72.3 c 0 31.9 20.7 59 49.5 68.6 v 34.5 c 0 3.2 3.9 4.8 6.1 2.5 l 33.3 -33.3 h 49 c 39.9 0 72.3 -32.4 72.3 -72.3 S 457 73.648 417 73.648 z M 410.4 151.548 l -24.2 24.2 c -0.5 0.5 -1.2 0.8 -1.9 0.8 c -0.7 0 -1.4 -0.3 -1.9 -0.8 l -24.2 -24.2 c -3.4 -3.4 -5.2 -7.8 -5.2 -12.6 s 1.8 -9.2 5.2 -12.6 c 3.4 -3.4 7.8 -5.2 12.6 -5.2 c 4.8 0 9.2 1.9 12.6 5.2 l 1 1 l 1 -1 c 3.4 -3.4 7.8 -5.2 12.6 -5.2 c 4.7 0 9.2 1.8 12.6 5.2 s 5.2 7.8 5.2 12.6 C 415.6 143.748 413.7 148.248 410.4 151.548 z" stroke-linecap="round"/>
</g>
		<g transform="matrix(1.635 0 0 1.635 -120.8238 0.0016)" id="691770">
<path style="stroke: none; stroke-width: 1; stroke-dasharray: none; stroke-linecap: butt; stroke-dashoffset: 0; stroke-linejoin: miter; stroke-miterlimit: 4; is-custom-font: none; font-file-url: none; fill: rgb(73,67,67); fill-opacity: 0.6; fill-rule: nonzero; opacity: 1;" transform=" translate(-170.75, -244.6498)" d="M 329.1 348.048 c -43.5 -35.8 -90.5 -59.5 -100.1 -64.2 c -1.1 -0.5 -1.7 -1.6 -1.7 -2.8 v -33.2 c 5.1 -8.8 8.4 -18.1 9.7 -26.6 c 3.7 -0.3 8.6 -5.5 13.9 -24.1 c 6.8 -23.9 0.5 -28.7 -5.7 -28.7 c 0.6 -2 1.1 -4.1 1.4 -6.1 c 11 -65.9 -21.5 -68.2 -21.5 -68.2 s -5.4 -10.3 -19.5 -18.2 c -9.5 -5.6 -22.7 -10 -40.1 -8.5 c -5.6 0.3 -11 1.4 -16 3 l 0 0 c -6.4 2.2 -12.3 5.3 -17.6 9 c -6.5 4.1 -12.7 9.2 -18.1 15 c -8.6 8.8 -16.2 20.1 -19.6 34.3 c -2.8 10.6 -2.2 21.6 0.2 33.5 l 0 0 c 0.4 2 0.9 4.1 1.4 6.1 c -6.1 0.1 -12.1 5.1 -5.4 28.6 c 5.3 18.6 10.2 23.8 13.9 24.1 c 1.3 8.4 4.6 17.7 9.7 26.6 v 33.2 c 0 1.2 -0.7 2.3 -1.7 2.8 c -9.5 4.7 -56.5 28.4 -100.1 64.2 c -7.8 6.4 -12.2 16.1 -12.2 26.2 v 48.1 h 341.5 v -48.1 C 341.3 364.148 336.9 354.548 329.1 348.048 z" stroke-linecap="round"/>
</g>
</g>
</g>
<g transform="matrix(0.295 0 0 0.295 148.0125 650.4641)" id="703382">
<g style="" vector-effect="non-scaling-stroke">
		<g transform="matrix(1.639 0 0 1.639 227.9852 -133.4311)" id="614503">
<path style="stroke: none; stroke-width: 1; stroke-dasharray: none; stroke-linecap: butt; stroke-dashoffset: 0; stroke-linejoin: miter; stroke-miterlimit: 4; is-custom-font: none; font-file-url: none; fill: rgb(73,67,67); fill-opacity: 0.6; fill-rule: nonzero; opacity: 1;" transform=" translate(-383.15, -162.6408)" d="M 415.9 73.298 h -65.5 c -39.9 0 -72.2 32.3 -72.2 72.2 c 0 31.9 20.7 58.9 49.4 68.5 v 34.4 c 0 3.2 3.9 4.8 6.1 2.5 l 33.2 -33.2 h 49 c 39.9 0 72.2 -32.3 72.2 -72.2 C 488.1 105.698 455.8 73.298 415.9 73.298 z M 412.9 153.898 h -21.5 v 21.5 h -16.6 v -21.5 h -21.5 v -16.6 h 21.5 v -21.5 h 16.6 v 21.5 h 21.5 V 153.898 z" stroke-linecap="round"/>
</g>
		<g transform="matrix(1.639 0 0 1.639 -120.2227 -0.0019)" id="370947">
<path style="stroke: none; stroke-width: 1; stroke-dasharray: none; stroke-linecap: butt; stroke-dashoffset: 0; stroke-linejoin: miter; stroke-miterlimit: 4; is-custom-font: none; font-file-url: none; fill: rgb(73,67,67); fill-opacity: 0.6; fill-rule: nonzero; opacity: 1;" transform=" translate(-170.7, -244.0498)" d="M 329.1 347.498 c -43.5 -35.8 -90.5 -59.6 -100.1 -64.2 c -1.1 -0.5 -1.7 -1.6 -1.7 -2.8 v -33.2 c 5.1 -8.8 8.4 -18.1 9.7 -26.6 c 3.7 -0.3 8.6 -5.5 13.9 -24.1 c 6.8 -23.9 0.4 -28.7 -5.7 -28.7 c 0.6 -2 1.1 -4.1 1.4 -6.1 c 11 -65.9 -21.5 -68.2 -21.5 -68.2 s -5.4 -10.3 -19.5 -18.2 c -9.5 -5.6 -22.7 -10 -40.1 -8.5 c -5.6 0.3 -11 1.4 -16 3 l 0 0 c -6.4 2.2 -12.3 5.3 -17.6 9 c -6.5 4.1 -12.7 9.2 -18.1 15 c -8.6 8.8 -16.2 20.1 -19.6 34.3 c -2.8 10.6 -2.2 21.6 0.2 33.5 l 0 0 c 0.4 2 0.9 4.1 1.4 6.1 c -6.1 0.1 -12.1 5.1 -5.4 28.6 c 5.3 18.6 10.2 23.8 13.9 24.1 c 1.3 8.4 4.6 17.7 9.7 26.6 v 33.1 c 0 1.2 -0.7 2.3 -1.7 2.8 c -9.5 4.7 -56.5 28.4 -100.1 64.2 c -7.8 6.4 -12.2 16.1 -12.2 26.2 v 48.1 h 148.3 l 14.6 -66.9 c -29.6 -41.3 2.2 -43.3 7.8 -43.3 l 0 0 l 0 0 c 5.5 0 37.3 2 7.8 43.3 l 14.6 66.9 h 148.3 v -48.1 C 341.3 363.598 336.9 353.898 329.1 347.498 z" stroke-linecap="round"/>
</g>
</g>
</g>
<g transform="matrix(0.295 0 0 0.295 624.662 646.1935)" id="103290">
<g style="" vector-effect="non-scaling-stroke">
		<g transform="matrix(1.6353 0 0 1.6353 227.9616 -136.8179)" id="790893">
<path style="stroke: none; stroke-width: 1; stroke-dasharray: none; stroke-linecap: butt; stroke-dashoffset: 0; stroke-linejoin: miter; stroke-miterlimit: 4; is-custom-font: none; font-file-url: none; fill: rgb(73,67,67); fill-opacity: 0.6; fill-rule: nonzero; opacity: 1;" transform=" translate(-384, -160.9371)" d="M 334.4 249.446 l 33.3 -33.3 h 49.1 c 40 0 72.4 -32.4 72.4 -72.4 s -32.4 -72.4 -72.4 -72.4 h -65.6 c -40 0 -72.4 32.4 -72.4 72.4 c 0 32 20.8 59.1 49.5 68.6 v 34.5 C 328.3 250.146 332.2 251.746 334.4 249.446 z M 338.5 118.546 c 0 -3.6 2.9 -6.5 6.5 -6.5 h 81.3 c 3.6 0 6.5 2.9 6.5 6.5 l 0 0 c 0 3.6 -2.9 6.5 -6.5 6.5 H 345 C 341.4 125.046 338.5 122.146 338.5 118.546 L 338.5 118.546 z M 338.5 143.746 c 0 -3.6 2.9 -6.5 6.5 -6.5 h 81.3 c 3.6 0 6.5 2.9 6.5 6.5 l 0 0 c 0 3.6 -2.9 6.5 -6.5 6.5 H 345 C 341.4 150.246 338.5 147.346 338.5 143.746 L 338.5 143.746 z M 345 162.446 h 81.3 c 3.6 0 6.5 2.9 6.5 6.5 s -2.9 6.5 -6.5 6.5 H 345 c -3.6 0 -6.5 -2.9 -6.5 -6.5 C 338.5 165.346 341.4 162.446 345 162.446 z" stroke-linecap="round"/>
</g>
		<g transform="matrix(1.6353 0 0 1.6353 -120.8543 -0.0034)" id="909833">
<path style="stroke: none; stroke-width: 1; stroke-dasharray: none; stroke-linecap: butt; stroke-dashoffset: 0; stroke-linejoin: miter; stroke-miterlimit: 4; is-custom-font: none; font-file-url: none; fill: rgb(73,67,67); fill-opacity: 0.6; fill-rule: nonzero; opacity: 1;" transform=" translate(-170.7, -244.6004)" d="M 341.2 372.746 c 0 -10.1 -4.4 -19.8 -12.2 -26.2 c -43.5 -35.8 -90.5 -59.6 -100.1 -64.2 c -1.1 -0.5 -1.7 -1.6 -1.7 -2.8 v -32.4 c 5.1 -8.8 8.4 -18.1 9.7 -26.6 c 3.7 -0.3 8.6 -5.5 13.9 -24.1 c 6.9 -24.6 0.1 -28.9 -6.2 -28.6 c 15.7 -72 -24.7 -72.2 -24.7 -72.2 c -3.4 -15.1 -24.8 -30.8 -44.8 -26.6 c -20 4.1 -61.2 -0.5 -61.2 -0.5 c -0.6 8.7 6.9 14.8 6.9 14.8 c -36.2 22.1 -27.9 70.7 -24.6 84.6 c -6.2 0 -12.5 4.7 -5.8 28.7 c 5.3 18.6 10.2 23.8 13.9 24.1 c 1.3 8.4 4.6 17.7 9.7 26.6 v 32.2 c 0 1.2 -0.7 2.3 -1.7 2.8 c -9.5 4.7 -56.5 28.4 -100.1 64.2 c -7.8 6.4 -12.2 16.1 -12.2 26.2 v 48.1 h 341.4 v -48.1 H 341.2 z" stroke-linecap="round"/>
</g>
</g>
</g>
<g transform="matrix(0.295 0 0 0.295 2063.7373 963.0131)" id="60676">
<g style="" vector-effect="non-scaling-stroke">
		<g transform="matrix(1.639 0 0 1.639 218.8894 -152.5131)" id="588860">
<path style="stroke: none; stroke-width: 1; stroke-dasharray: none; stroke-linecap: butt; stroke-dashoffset: 0; stroke-linejoin: miter; stroke-miterlimit: 4; is-custom-font: none; font-file-url: none; fill: rgb(73,67,67); fill-opacity: 0.6; fill-rule: nonzero; opacity: 1;" transform=" translate(-377.6, -150.998)" d="M 361.6 145.398 c 0 11.9 9.7 21.6 21.6 21.6 c 3.7 0 7.2 -0.9 10.4 -2.7 l -29.3 -29.3 C 362.5 138.198 361.6 141.798 361.6 145.398 z" stroke-linecap="round"/>
</g>
		<g transform="matrix(1.639 0 0 1.639 237.2463 -170.7061)" id="708939">
<path style="stroke: none; stroke-width: 1; stroke-dasharray: none; stroke-linecap: butt; stroke-dashoffset: 0; stroke-linejoin: miter; stroke-miterlimit: 4; is-custom-font: none; font-file-url: none; fill: rgb(73,67,67); fill-opacity: 0.6; fill-rule: nonzero; opacity: 1;" transform=" translate(-388.8, -139.898)" d="M 383.2 123.898 c -3.7 0 -7.2 0.9 -10.4 2.7 l 29.3 29.3 c 1.8 -3.2 2.7 -6.8 2.7 -10.4 C 404.7 133.498 395.1 123.898 383.2 123.898 z" stroke-linecap="round"/>
</g>
		<g transform="matrix(1.639 0 0 1.639 227.9852 -133.4311)" id="531868">
<path style="stroke: none; stroke-width: 1; stroke-dasharray: none; stroke-linecap: butt; stroke-dashoffset: 0; stroke-linejoin: miter; stroke-miterlimit: 4; is-custom-font: none; font-file-url: none; fill: rgb(73,67,67); fill-opacity: 0.6; fill-rule: nonzero; opacity: 1;" transform=" translate(-383.15, -162.6408)" d="M 415.9 73.298 h -65.5 c -39.9 0 -72.2 32.3 -72.2 72.2 c 0 31.9 20.7 58.9 49.4 68.5 v 34.4 c 0 3.2 3.9 4.8 6.1 2.5 l 33.2 -33.2 h 49 c 39.9 0 72.2 -32.3 72.2 -72.2 C 488.1 105.698 455.8 73.298 415.9 73.298 z M 383.2 179.098 c -18.5 0 -33.6 -15.1 -33.6 -33.6 s 15.1 -33.6 33.6 -33.6 s 33.6 15.1 33.6 33.6 C 416.8 163.998 401.7 179.098 383.2 179.098 z" stroke-linecap="round"/>
</g>
		<g transform="matrix(1.639 0 0 1.639 -120.2227 -0.0019)" id="19312">
<path style="stroke: none; stroke-width: 1; stroke-dasharray: none; stroke-linecap: butt; stroke-dashoffset: 0; stroke-linejoin: miter; stroke-miterlimit: 4; is-custom-font: none; font-file-url: none; fill: rgb(73,67,67); fill-opacity: 0.6; fill-rule: nonzero; opacity: 1;" transform=" translate(-170.7, -244.0498)" d="M 329.1 347.498 c -43.5 -35.8 -90.5 -59.6 -100.1 -64.2 c -1.1 -0.5 -1.7 -1.6 -1.7 -2.8 v -33.2 c 5.1 -8.8 8.4 -18.1 9.7 -26.6 c 3.7 -0.3 8.6 -5.5 13.9 -24.1 c 6.8 -23.9 0.4 -28.7 -5.7 -28.7 c 0.6 -2 1.1 -4.1 1.4 -6.1 c 11 -65.9 -21.5 -68.2 -21.5 -68.2 s -5.4 -10.3 -19.5 -18.2 c -9.5 -5.6 -22.7 -10 -40.1 -8.5 c -5.6 0.3 -11 1.4 -16 3 l 0 0 c -6.4 2.2 -12.3 5.3 -17.6 9 c -6.5 4.1 -12.7 9.2 -18.1 15 c -8.6 8.8 -16.2 20.1 -19.6 34.3 c -2.8 10.6 -2.2 21.6 0.2 33.5 l 0 0 c 0.4 2 0.9 4.1 1.4 6.1 c -6.1 0.1 -12.1 5.1 -5.4 28.6 c 5.3 18.6 10.2 23.8 13.9 24.1 c 1.3 8.4 4.6 17.7 9.7 26.6 v 33.1 c 0 1.2 -0.7 2.3 -1.7 2.8 c -9.5 4.7 -56.5 28.4 -100.1 64.2 c -7.8 6.4 -12.2 16.1 -12.2 26.2 v 48.1 h 148.3 l 14.6 -66.9 c -29.6 -41.3 2.2 -43.3 7.8 -43.3 l 0 0 l 0 0 c 5.5 0 37.3 2 7.8 43.3 l 14.6 66.9 h 148.3 v -48.1 C 341.3 363.598 336.9 353.898 329.1 347.498 z" stroke-linecap="round"/>
</g>
</g>
</g>
<g transform="matrix(0.295 0 0 0.295 386.3012 375.0806)" id="393188">
<g style="" vector-effect="non-scaling-stroke">
		<g transform="matrix(1.6333 0 0 1.6333 -132.4655 2.3581)" id="831828">
<path style="stroke: none; stroke-width: 1; stroke-dasharray: none; stroke-linecap: butt; stroke-dashoffset: 0; stroke-linejoin: miter; stroke-miterlimit: 4; is-custom-font: none; font-file-url: none; fill: rgb(73,67,67); fill-opacity: 0.6; fill-rule: nonzero; opacity: 1;" transform=" translate(-163.8, -246.3459)" d="M 215 324.8 c 17.4 9.2 54 18.8 54.6 19.2 c 0.8 0.4 12.1 2.5 34.5 13 c 22.3 10.5 23.5 33.3 23.5 33.3 v 37 l -163.8 0.1 L 0 427.3 v -37 c 0 0 1.2 -22.8 23.5 -33.3 s 33.7 -12.6 34.5 -13 c 0.7 -0.4 37.2 -10 54.6 -19.2 c 0.4 -0.2 0.8 -0.4 1.2 -0.7 c 0 0 0.1 0 0.1 -0.1 c 3.7 -2.4 5.9 -6.5 5.9 -10.8 v -16.8 v -5.1 c -58.2 0.5 -75.4 -24.4 -75.4 -24.4 s 33.2 -0.5 31.2 -88.2 C 73.5 91 113.9 76.5 129 70.8 c 43.9 -16.7 65.9 9.9 65.9 9.9 c 50.8 -4.7 64.9 50.8 58.6 114.1 c -6.2 63.3 28.5 73.1 28.5 73.1 c -23.9 24.4 -74.2 23.4 -74.2 23.4 v 5.1 l 0 0 v 16.8 c 0 4.4 2.2 8.5 5.9 10.8 L 215 324.8 z" stroke-linecap="round"/>
</g>
		<g transform="matrix(1.6333 0 0 1.6333 223.926 -148.1584)" id="897594">
<path style="stroke: none; stroke-width: 1; stroke-dasharray: none; stroke-linecap: butt; stroke-dashoffset: 0; stroke-linejoin: miter; stroke-miterlimit: 4; is-custom-font: none; font-file-url: none; fill: rgb(73,67,67); fill-opacity: 0.6; fill-rule: nonzero; opacity: 1;" transform=" translate(-382, -154.1911)" d="M 415.7 62.4 h -67.3 c -41 0 -74.2 33.2 -74.2 74.2 c 0 32.8 21.3 60.5 50.7 70.3 v 35.4 c 0 3.3 4 4.9 6.3 2.6 l 34.1 -34.1 h 50.3 c 41 0 74.2 -33.2 74.2 -74.2 C 489.8 95.6 456.6 62.4 415.7 62.4 z M 412.6 145.2 h -22.1 v 22.1 h -17 v -22.1 h -22.1 v -17 h 22.1 v -22.1 h 17 v 22.1 h 22.1 V 145.2 z" stroke-linecap="round"/>
</g>
</g>
</g>
<g transform="matrix(0.2946 0 0 0.2946 1785.1185 646.1789)" id="823963">
<g style="" vector-effect="non-scaling-stroke">
		<g transform="matrix(1.6364 0 0 1.6364 222.0459 -138.9757)" id="888501">
<path style="stroke: none; stroke-width: 1; stroke-dasharray: none; stroke-linecap: butt; stroke-dashoffset: 0; stroke-linejoin: miter; stroke-miterlimit: 4; is-custom-font: none; font-file-url: none; fill: rgb(73,67,67); fill-opacity: 0.6; fill-rule: nonzero; opacity: 1;" transform=" translate(-380.134, -159.5121)" d="M 328.984 250.971 l 34.4 -34.4 h 50.7 c 41.3 0 74.8 -33.5 74.8 -74.8 s -33.5 -74.8 -74.8 -74.8 h -67.9 c -41.3 0 -74.8 33.5 -74.8 74.8 c 0 33.1 21.5 61 51.2 70.9 v 35.7 C 322.684 251.671 326.684 253.271 328.984 250.971 z M 352.584 129.271 l 18.7 -1.4 l 7.1 -17.4 c 1.3 -3.3 6 -3.3 7.3 0 l 7.1 17.4 l 18.7 1.4 c 3.5 0.3 5 4.7 2.3 6.9 l -14.3 12.1 l 4.5 18.2 c 0.8 3.4 -2.9 6.2 -5.9 4.3 l -15.9 -9.9 l -15.9 9.9 c -3 1.9 -6.7 -0.9 -5.9 -4.3 l 4.5 -18.2 l -14.3 -12.1 C 347.584 133.871 348.984 129.471 352.584 129.271 z" stroke-linecap="round"/>
</g>
		<g transform="matrix(1.6364 0 0 1.6364 -143.2759 -6.8693)" id="770553">
<path style="stroke: none; stroke-width: 1; stroke-dasharray: none; stroke-linecap: butt; stroke-dashoffset: 0; stroke-linejoin: miter; stroke-miterlimit: 4; is-custom-font: none; font-file-url: none; fill: rgb(73,67,67); fill-opacity: 0.6; fill-rule: nonzero; opacity: 1;" transform=" translate(-156.884, -240.2419)" d="M 200.084 294.171 L 200.084 294.171 v -15.4 c 0 0 48.7 1.5 71.8 -22.1 c 0 0 -33.6 -9.5 -27.6 -70.8 c 6 -61.2 -7.5 -115 -56.8 -110.5 c 0 0 -21.3 -25.7 -63.8 -9.5 c -14.5 5.5 -53.6 19.6 -51.6 104.4 s -30.2 85.3 -30.2 85.3 s 16.6 24.1 72.8 23.6 v 15.8 l 42.8 125 l 42.7 -124.6 L 200.084 294.171 z" stroke-linecap="round"/>
</g>
		<g transform="matrix(1.6364 0 0 1.6364 -142.2912 201.8143)" id="944626">
<path style="stroke: none; stroke-width: 1; stroke-dasharray: none; stroke-linecap: butt; stroke-dashoffset: 0; stroke-linejoin: miter; stroke-miterlimit: 4; is-custom-font: none; font-file-url: none; fill: rgb(73,67,67); fill-opacity: 0.6; fill-rule: nonzero; opacity: 1;" transform=" translate(-157.4852, -367.771)" d="M 87.984 312.771 l -52.5 25.9 c -14 6.9 -24 20.1 -26.8 35.5 l -8.6 47.5 c -0.6 3.5 2.1 6.7 5.6 6.7 h 149.8 h 4 h 149.8 c 3.6 0 6.2 -3.2 5.6 -6.7 l -8.6 -47.5 c -2.8 -15.4 -12.7 -28.6 -26.8 -35.5 l -53.8 -26.5 c -3.1 -1.5 -6.1 -3.2 -9.1 -4.9 l 17 50.1 l -23.7 -1.8 l -52.4 64.4 l -52.4 -64.5 l -23.7 1.8 l 17.3 -50.1 L 87.984 312.771 z" stroke-linecap="round"/>
</g>
</g>
</g>
<g transform="matrix(0.1748 0 0 0.1748 1156.5386 858.1499)" id="535882">
<g style="" vector-effect="non-scaling-stroke">
		<g transform="matrix(1 0 0 1 -34.4374 -142.2385)" id="233884">
<path style="stroke: none; stroke-width: 1; stroke-dasharray: none; stroke-linecap: butt; stroke-dashoffset: 0; stroke-linejoin: round; stroke-miterlimit: 2; is-custom-font: none; font-file-url: none; fill: rgb(0,0,0); fill-rule: nonzero; opacity: 1;" transform=" translate(-136.6326, -84.1272)" d="m 0 166.206 c 1.848 0 3.727 -0.344 5.548 -1.069 L 245.19 69.65 L 234.235 95.126 c -3.272 7.61 0.244 16.433 7.855 19.706 c 1.931 0.83 3.941 1.224 5.919 1.224 c 5.812 0 11.345 -3.4 13.787 -9.079 l 25.26 -58.739 c 0.019 -0.046 0.032 -0.092 0.05 -0.137 c 0.172 -0.41 0.33 -0.825 0.464 -1.249 c 0.073 -0.226 0.123 -0.455 0.184 -0.682 c 0.065 -0.245 0.139 -0.487 0.191 -0.735 c 0.056 -0.26 0.09 -0.521 0.132 -0.781 c 0.035 -0.222 0.078 -0.443 0.104 -0.668 c 0.029 -0.258 0.039 -0.515 0.054 -0.773 c 0.014 -0.233 0.036 -0.463 0.038 -0.696 c 0.003 -0.246 -0.012 -0.488 -0.02 -0.732 c -0.009 -0.246 -0.012 -0.492 -0.032 -0.739 c -0.021 -0.239 -0.06 -0.475 -0.091 -0.711 c -0.033 -0.248 -0.059 -0.496 -0.106 -0.744 c -0.048 -0.267 -0.119 -0.53 -0.183 -0.793 c -0.051 -0.212 -0.092 -0.425 -0.153 -0.636 c -0.136 -0.475 -0.294 -0.941 -0.478 -1.4 V 36.76 c -0.183 -0.459 -0.391 -0.908 -0.617 -1.348 c -0.104 -0.2 -0.224 -0.387 -0.335 -0.581 c -0.132 -0.229 -0.258 -0.463 -0.403 -0.686 c -0.141 -0.219 -0.298 -0.423 -0.451 -0.633 c -0.134 -0.186 -0.262 -0.376 -0.406 -0.557 c -0.161 -0.201 -0.335 -0.389 -0.506 -0.582 c -0.155 -0.174 -0.304 -0.354 -0.467 -0.521 c -0.171 -0.176 -0.354 -0.337 -0.534 -0.504 c -0.179 -0.167 -0.353 -0.339 -0.543 -0.498 c -0.185 -0.157 -0.381 -0.297 -0.574 -0.444 c -0.196 -0.15 -0.387 -0.305 -0.592 -0.447 c -0.23 -0.158 -0.471 -0.297 -0.71 -0.442 c -0.179 -0.11 -0.352 -0.227 -0.538 -0.33 c -0.434 -0.24 -0.88 -0.46 -1.336 -0.656 L 220.461 3.272 C 212.854 0 204.028 3.516 200.755 11.126 c -3.273 7.61 0.244 16.433 7.854 19.706 l 25.468 10.952 l -239.634 95.484 c -7.695 3.066 -11.448 11.791 -8.382 19.487 c 2.341 5.874 7.979 9.451 13.939 9.451" stroke-linecap="round"/>
</g>
		<g transform="matrix(1 0 0 1 0 39.3168)" id="690160">
<path style="stroke: none; stroke-width: 1; stroke-dasharray: none; stroke-linecap: butt; stroke-dashoffset: 0; stroke-linejoin: round; stroke-miterlimit: 2; is-custom-font: none; font-file-url: none; fill: rgb(0,0,0); fill-rule: nonzero; opacity: 1;" transform=" translate(-226, -52.489)" d="m 0 104.978 c 0 -9.826 7.994 -17.819 17.82 -17.819 c 9.826 0 17.82 7.993 17.82 17.819 V 207.489 H 0 Z M 138.79 41.869 c 0 -4.77 1.85 -9.243 5.225 -12.613 c 3.353 -3.358 7.826 -5.208 12.595 -5.208 c 4.763 0 9.232 1.85 12.602 5.226 c 3.365 3.359 5.218 7.832 5.218 12.595 v 165.62 h -35.64 z m 138.78 -52.88 c 0 -9.826 7.994 -17.821 17.82 -17.821 c 9.826 0 17.82 7.995 17.82 17.821 v 218.5 h -35.64 z m 138.79 -73.681 c 0 -9.826 7.994 -17.819 17.82 -17.819 c 9.826 0 17.82 7.993 17.82 17.819 v 292.181 h -35.64 z m 17.82 -47.819 c -26.368 0 -47.82 21.452 -47.82 47.819 v 292.181 h -43.15 v -218.5 c 0 -26.368 -21.452 -47.821 -47.82 -47.821 c -26.368 0 -47.82 21.453 -47.82 47.821 v 218.5 H 204.43 V 41.869 c 0 -12.786 -4.98 -24.799 -14.005 -33.808 c -9.02 -9.036 -21.029 -14.013 -33.815 -14.013 c -12.792 0 -24.805 4.977 -33.808 13.995 c -9.036 9.022 -14.012 21.035 -14.012 33.826 v 165.62 H 65.64 V 104.978 C 65.64 78.611 44.188 57.159 17.82 57.159 C -8.548 57.159 -30 78.611 -30 104.978 v 117.511 c 0 8.284 6.716 15 15 15 h 482 c 8.284 0 15 -6.716 15 -15 V -84.692 c 0 -26.367 -21.452 -47.819 -47.82 -47.819" stroke-linecap="round"/>
</g>
</g>
</g>
<g transform="matrix(0.1738 0 0 0.1738 1443.6522 855.8431)" id="799032">
<g style="" vector-effect="non-scaling-stroke">
		<g transform="matrix(1 0 0 1 -135.6149 135.621)" id="429491">
<path style="stroke: none; stroke-width: 1; stroke-dasharray: none; stroke-linecap: butt; stroke-dashoffset: 0; stroke-linejoin: round; stroke-miterlimit: 2; is-custom-font: none; font-file-url: none; fill: rgb(0,0,0); fill-rule: nonzero; opacity: 1;" transform=" translate(90.3849, -87.761)" d="M 0 175.522 C -89.87 157.49 -160.117 87.247 -178.15 -2.619 h 91.441 c 6.863 19.997 18.253 38.267 33.348 53.362 C -38.267 65.838 -19.997 77.227 0 84.09 Z M 18.637 58.348 C -20.648 48.532 -51.15 18.03 -60.967 -21.255 c -1.669 -6.678 -7.669 -11.364 -14.553 -11.364 h -120.25 c -4.3 0 -8.394 1.846 -11.242 5.071 c -2.847 3.222 -4.174 7.513 -3.643 11.781 c 7.022 56.445 33.152 109.793 73.578 150.217 c 40.426 40.426 93.777 66.554 150.225 73.576 c 0.619 0.078 1.237 0.115 1.853 0.115 c 3.636 0 7.173 -1.322 9.93 -3.758 C 28.154 201.536 30 197.442 30 193.141 V 72.901 C 30 66.018 25.314 60.018 18.637 58.348" stroke-linecap="round"/>
</g>
		<g transform="matrix(1 0 0 1 135.6151 135.621)" id="521205">
<path style="stroke: none; stroke-width: 1; stroke-dasharray: none; stroke-linecap: butt; stroke-dashoffset: 0; stroke-linejoin: round; stroke-miterlimit: 2; is-custom-font: none; font-file-url: none; fill: rgb(0,0,0); fill-rule: nonzero; opacity: 1;" transform=" translate(-90.3851, -87.761)" d="M 0 175.522 V 84.088 C 19.996 77.221 38.268 65.83 53.362 50.735 C 68.456 35.641 79.846 17.374 86.709 -2.619 h 91.44 C 160.109 87.248 89.863 157.49 0 175.522 M 195.771 -32.619 H 75.521 c -6.884 0 -12.883 4.686 -14.553 11.364 C 51.151 18.02 20.647 48.524 -18.64 58.35 C -25.316 60.02 -30 66.019 -30 72.901 v 120.24 c 0 4.301 1.846 8.395 5.069 11.242 c 2.757 2.436 6.294 3.758 9.93 3.758 c 0.616 0 1.234 -0.038 1.853 -0.115 c 56.444 -7.022 109.793 -33.15 150.218 -73.576 c 40.426 -40.424 66.559 -93.772 73.585 -150.215 c 0.532 -4.269 -0.795 -8.56 -3.642 -11.783 c -2.847 -3.225 -6.942 -5.071 -11.242 -5.071" stroke-linecap="round"/>
</g>
		<g transform="matrix(1 0 0 1 -135.6149 -135.6165)" id="999032">
<path style="stroke: none; stroke-width: 1; stroke-dasharray: none; stroke-linecap: butt; stroke-dashoffset: 0; stroke-linejoin: round; stroke-miterlimit: 2; is-custom-font: none; font-file-url: none; fill: rgb(0,0,0); fill-rule: nonzero; opacity: 1;" transform=" translate(90.3849, -4.0936)" d="m 0 7.771 c -20.002 6.866 -38.273 18.258 -53.369 33.354 c -15.094 15.093 -26.482 33.361 -33.341 53.353 h -91.44 C -160.118 4.617 -89.871 -65.629 0 -83.67 Z m 24.93 -120.305 c -3.224 -2.847 -7.508 -4.173 -11.784 -3.642 c -56.444 7.026 -109.793 33.159 -150.219 73.584 c -40.429 40.427 -66.561 93.775 -73.582 150.218 c -0.531 4.269 0.796 8.559 3.643 11.783 c 2.848 3.223 6.942 5.069 11.242 5.069 h 120.25 c 6.885 0 12.885 -4.686 14.553 -11.365 C -51.159 73.837 -20.656 43.336 18.639 33.51 C 25.316 31.841 30 25.841 30 18.959 v -120.251 c 0 -4.3 -1.847 -8.395 -5.07 -11.242" stroke-linecap="round"/>
</g>
		<g transform="matrix(1 0 0 1 135.6154 -135.6108)" id="718159">
<path style="stroke: none; stroke-width: 1; stroke-dasharray: none; stroke-linecap: butt; stroke-dashoffset: 0; stroke-linejoin: round; stroke-miterlimit: 2; is-custom-font: none; font-file-url: none; fill: rgb(0,0,0); fill-rule: nonzero; opacity: 1;" transform=" translate(-90.3854, 87.3508)" d="m 0 -175.115 c 89.872 18.04 160.118 88.285 178.151 178.148 H 86.71 C 79.847 -16.963 68.457 -35.232 53.362 -50.328 C 38.268 -65.423 19.997 -76.812 0 -83.676 Z m -18.637 117.182 c 39.286 9.816 69.788 40.318 79.605 79.603 c 1.669 6.678 7.669 11.363 14.553 11.363 h 120.25 c 4.3 0 8.394 -1.845 11.242 -5.069 c 2.847 -3.224 4.174 -7.514 3.643 -11.782 c -7.021 -56.443 -33.152 -109.793 -73.578 -150.219 c -40.425 -40.425 -93.776 -66.557 -150.225 -73.584 c -4.258 -0.527 -8.559 0.795 -11.783 3.643 c -3.223 2.846 -5.07 6.941 -5.07 11.242 v 120.25 c 0 6.884 4.686 12.884 11.363 14.553" stroke-linecap="round"/>
</g>
</g>
</g>
<g transform="matrix(0.1738 0 0 0.1738 1302.0812 858.8939)" id="311247">
<g style="" vector-effect="non-scaling-stroke">
		<g transform="matrix(1 0 0 1 -183.0884 -172.27)" id="508684">
<path style="stroke: none; stroke-width: 1; stroke-dasharray: none; stroke-linecap: butt; stroke-dashoffset: 0; stroke-linejoin: round; stroke-miterlimit: 2; is-custom-font: none; font-file-url: none; fill: rgb(0,0,0); fill-rule: nonzero; opacity: 1;" transform=" translate(0, -42.91)" d="M 0 85.82 C -23.662 85.82 -42.912 66.571 -42.912 42.91 C -42.912 19.249 -23.662 0 0 0 C 23.662 0 42.912 19.249 42.912 42.91 C 42.912 66.571 23.662 85.82 0 85.82 M 0 -30 c -40.204 0 -72.912 32.707 -72.912 72.91 c 0 40.203 32.708 72.91 72.912 72.91 c 40.204 0 72.912 -32.707 72.912 -72.91 C 72.912 2.707 40.204 -30 0 -30" stroke-linecap="round"/>
</g>
		<g transform="matrix(1 0 0 1 -183.0884 0.005)" id="400614">
<path style="stroke: none; stroke-width: 1; stroke-dasharray: none; stroke-linecap: butt; stroke-dashoffset: 0; stroke-linejoin: round; stroke-miterlimit: 2; is-custom-font: none; font-file-url: none; fill: rgb(0,0,0); fill-rule: nonzero; opacity: 1;" transform=" translate(0, -42.915)" d="M 0 85.83 C -23.662 85.83 -42.912 66.576 -42.912 42.91 C -42.912 19.249 -23.662 0 0 0 C 23.662 0 42.912 19.249 42.912 42.91 C 42.912 66.576 23.662 85.83 0 85.83 M 0 -30 c -40.204 0 -72.912 32.707 -72.912 72.91 c 0 40.208 32.708 72.92 72.912 72.92 c 40.204 0 72.912 -32.712 72.912 -72.92 C 72.912 2.707 40.204 -30 0 -30" stroke-linecap="round"/>
</g>
		<g transform="matrix(1 0 0 1 -183.0884 172.28)" id="721071">
<path style="stroke: none; stroke-width: 1; stroke-dasharray: none; stroke-linecap: butt; stroke-dashoffset: 0; stroke-linejoin: round; stroke-miterlimit: 2; is-custom-font: none; font-file-url: none; fill: rgb(0,0,0); fill-rule: nonzero; opacity: 1;" transform=" translate(0, -42.91)" d="M 0 85.82 C -23.662 85.82 -42.912 66.571 -42.912 42.91 C -42.912 19.249 -23.662 0 0 0 C 23.662 0 42.912 19.249 42.912 42.91 C 42.912 66.571 23.662 85.82 0 85.82 M 0 -30 c -40.204 0 -72.912 32.707 -72.912 72.91 c 0 40.203 32.708 72.91 72.912 72.91 c 40.204 0 72.912 -32.707 72.912 -72.91 C 72.912 2.707 40.204 -30 0 -30" stroke-linecap="round"/>
</g>
		<g transform="matrix(1 0 0 1 88.9365 -172.2745)" id="221913">
<path style="stroke: none; stroke-width: 1; stroke-dasharray: none; stroke-linecap: butt; stroke-dashoffset: 0; stroke-linejoin: round; stroke-miterlimit: 2; is-custom-font: none; font-file-url: none; fill: rgb(0,0,0); fill-rule: nonzero; opacity: 1;" transform=" translate(-127.7785, 22.4145)" d="m 0 -44.829 c 5.986 -5.987 13.946 -9.285 22.413 -9.285 h 210.731 c 8.467 0 16.426 3.298 22.412 9.285 c 5.988 5.989 9.286 13.949 9.286 22.414 c 0 8.472 -3.296 16.431 -9.286 22.415 c -5.986 5.987 -13.945 9.285 -22.412 9.285 H 22.413 c -8.467 0 -16.427 -3.298 -22.419 -9.291 c -5.984 -5.978 -9.279 -13.937 -9.279 -22.409 c 0 -8.465 3.298 -16.425 9.285 -22.414 m 22.413 84.114 h 210.731 c 16.481 0 31.976 -6.419 43.622 -18.068 c 11.656 -11.646 18.076 -27.142 18.076 -43.632 c 0 -16.477 -6.418 -31.97 -18.07 -43.625 c -11.652 -11.655 -27.147 -18.074 -43.628 -18.074 H 22.413 c -16.481 0 -31.976 6.419 -43.629 18.074 c -11.652 11.655 -18.069 27.148 -18.069 43.625 c 0 16.49 6.419 31.985 18.069 43.626 c 11.653 11.655 27.148 18.074 43.629 18.074" stroke-linecap="round"/>
</g>
		<g transform="matrix(1 0 0 1 88.9365 0)" id="691564">
<path style="stroke: none; stroke-width: 1; stroke-dasharray: none; stroke-linecap: butt; stroke-dashoffset: 0; stroke-linejoin: round; stroke-miterlimit: 2; is-custom-font: none; font-file-url: none; fill: rgb(0,0,0); fill-rule: nonzero; opacity: 1;" transform=" translate(137.0635, -0.01)" d="m 0 0.02 c 0 8.343 -3.384 16.513 -9.28 22.409 c -5.99 5.986 -13.951 9.281 -22.418 9.281 h -210.731 c -8.467 0 -16.428 -3.295 -22.413 -9.275 c -5.901 -5.902 -9.285 -14.072 -9.285 -22.425 c 0 -8.465 3.298 -16.426 9.285 -22.415 c 5.987 -5.987 13.946 -9.285 22.413 -9.285 h 210.731 c 8.467 0 16.427 3.298 22.412 9.284 C -3.298 -16.416 0 -8.455 0 0.01 Z m -31.698 -61.71 h -210.731 c -16.481 0 -31.976 6.419 -43.63 18.075 c -11.651 11.656 -18.068 27.15 -18.068 43.635 c 0 16.478 6.417 31.971 18.075 43.632 c 11.656 11.645 27.148 18.058 43.623 18.058 H -31.698 C -15.223 61.71 0.269 55.297 11.93 43.646 C 23.583 31.991 30 16.498 30 0.02 V 0.01 C 30 -16.466 23.583 -31.959 11.93 -43.616 C 0.278 -55.271 -15.216 -61.69 -31.698 -61.69" stroke-linecap="round"/>
</g>
		<g transform="matrix(1 0 0 1 88.9365 172.2745)" id="104293">
<path style="stroke: none; stroke-width: 1; stroke-dasharray: none; stroke-linecap: butt; stroke-dashoffset: 0; stroke-linejoin: round; stroke-miterlimit: 2; is-custom-font: none; font-file-url: none; fill: rgb(0,0,0); fill-rule: nonzero; opacity: 1;" transform=" translate(127.7775, -22.4145)" d="m 0 44.829 c -5.986 5.987 -13.945 9.285 -22.412 9.285 h -210.731 c -8.467 0 -16.427 -3.298 -22.413 -9.285 c -5.987 -5.989 -9.285 -13.949 -9.285 -22.414 c 0 -8.472 3.295 -16.431 9.285 -22.415 c 5.986 -5.987 13.946 -9.285 22.413 -9.285 h 210.731 c 8.467 0 16.426 3.298 22.418 9.291 c 5.984 5.978 9.28 13.937 9.28 22.409 C 9.286 30.88 5.988 38.84 0 44.829 m -22.412 -84.114 h -210.731 c -16.482 0 -31.976 6.419 -43.623 18.068 c -11.656 11.647 -18.075 27.142 -18.075 43.632 c 0 16.477 6.417 31.97 18.069 43.625 c 11.653 11.655 27.147 18.074 43.629 18.074 h 210.731 c 16.481 0 31.975 -6.419 43.628 -18.074 c 11.652 -11.655 18.07 -27.148 18.07 -43.625 c 0 -16.49 -6.42 -31.986 -18.07 -43.626 C 9.563 -32.866 -5.931 -39.285 -22.412 -39.285" stroke-linecap="round"/>
</g>
</g>
</g>
<g transform="matrix(0.6518 0 0 0.6518 959.7965 123.3296)" id="495630">
<g style="">
		<g transform="matrix(0.442 0 0 0.442 0.0017 0.0017)" id="572126">
<path style="stroke: none; stroke-width: 1; stroke-dasharray: none; stroke-linecap: butt; stroke-dashoffset: 0; stroke-linejoin: miter; stroke-miterlimit: 4; is-custom-font: none; font-file-url: none; fill: rgb(12,35,64); fill-rule: nonzero; opacity: 1;" vector-effect="non-scaling-stroke" transform=" translate(-172.1695, -172.1695)" d="M 0 2.369 V 341.97 h 344.339 V 2.369 H 0 z M 303.062 27.163 c 5.836 0 10.592 4.753 10.592 10.602 c 0 5.839 -4.756 10.595 -10.592 10.595 c -5.843 0 -10.604 -4.756 -10.604 -10.595 C 292.458 31.916 297.22 27.163 303.062 27.163 z M 271.291 27.163 c 5.83 0 10.593 4.753 10.593 10.602 c 0 5.839 -4.75 10.595 -10.593 10.595 s -10.599 -4.756 -10.599 -10.595 C 260.692 31.916 265.448 27.163 271.291 27.163 z M 32.264 27.526 h 69.581 v 17.033 H 32.264 V 27.526 z M 334.396 332.044 H 9.95 V 75.222 h 324.445 V 332.044 z" stroke-linecap="round"/>
</g>
		<g transform="matrix(0.2444 0 0 0.2444 0.0042 8.5368)" id="284103">
<g style="" vector-effect="non-scaling-stroke">
		<g transform="matrix(1 0 0 1 0 -188.985)" id="Layer_1">
<path style="stroke: none; stroke-width: 1; stroke-dasharray: none; stroke-linecap: butt; stroke-dashoffset: 0; stroke-linejoin: miter; stroke-miterlimit: 4; is-custom-font: none; font-file-url: none; fill: rgb(211,67,13); fill-rule: nonzero; opacity: 1;" transform=" translate(-256, -67.015)" d="M 256 99.18 A 5.14 5.14 0 0 0 261.15 94 V 40 a 5.15 5.15 0 1 0 -10.3 0 V 94 A 5.15 5.15 0 0 0 256 99.18 Z" stroke-linecap="round"/>
</g>
		<g transform="matrix(1 0 0 1 -7.71 41.8181)" id="Layer_1">
<path style="stroke: none; stroke-width: 1; stroke-dasharray: none; stroke-linecap: butt; stroke-dashoffset: 0; stroke-linejoin: miter; stroke-miterlimit: 4; is-custom-font: none; font-file-url: none; fill: rgb(211,67,13); fill-rule: nonzero; opacity: 1;" transform=" translate(-248.29, -297.818)" d="M 356.27 153.12 c -24.63 -24.07 -62.2 -35.68 -111.72 -34.56 a 5.14 5.14 0 0 0 -5 5.15 v 10.07 H 225.58 a 5.16 5.16 0 0 0 -5.13 4.58 L 217 169.75 a 104.58 104.58 0 0 0 -25.31 10.53 l -24.8 -19.84 a 5.16 5.16 0 0 0 -6.86 0.38 l -27 27 a 5.15 5.15 0 0 0 -0.39 6.86 l 19.9 24.87 a 102.12 102.12 0 0 0 -10.31 24.94 L 110.82 248 a 5.16 5.16 0 0 0 -4.58 5.12 V 291.3 a 5.16 5.16 0 0 0 4.58 5.13 l 31.36 3.46 a 101.51 101.51 0 0 0 10.32 25 l -19.9 24.87 a 5.15 5.15 0 0 0 0.39 6.86 l 27 27 a 5.15 5.15 0 0 0 6.86 0.38 l 24.79 -19.82 A 105.6 105.6 0 0 0 217 374.68 l 3.49 31.38 a 5.16 5.16 0 0 0 5.13 4.58 h 13.94 V 472 a 5.14 5.14 0 0 0 5.15 5.15 h 73.81 a 5.15 5.15 0 0 0 5.15 -5.15 V 424.64 a 5.06 5.06 0 0 0 -0.28 -1.65 l 0.09 -57.49 c 0 -5.4 2.9 -10.42 7.94 -13.78 c 37.45 -25 58.92 -62.28 58.92 -102.31 C 390.3 207.59 378.85 175.2 356.27 153.12 Z M 239.52 336.6 a 64.59 64.59 0 0 1 0 -128.78 Z m -9.34 63.74 l -3.05 -27.45 v -2.27 a 5.15 5.15 0 0 0 -4 -5 l -0.88 -0.21 a 95 95 0 0 1 -28.33 -11.89 a 5.16 5.16 0 0 0 -6 0.39 L 164 373.05 l -20.49 -20.48 L 161 330.7 l 1.79 -2.34 a 5.16 5.16 0 0 0 0.3 -5.84 a 92 92 0 0 1 -11.71 -28.24 a 5.16 5.16 0 0 0 -4 -3.9 l -3.13 -0.6 l -27.73 -3.08 v -29 l 28 -3.12 l 2.66 -0.45 a 5.15 5.15 0 0 0 4.16 -3.93 a 92.82 92.82 0 0 1 11.73 -28.34 a 5.14 5.14 0 0 0 -0.31 -5.86 l -19.27 -24.17 L 164 171.37 l 21.65 17.31 l 2.17 1.86 a 5.17 5.17 0 0 0 6.3 0.31 l 0.67 -0.48 a 95.17 95.17 0 0 1 28.32 -11.55 a 5.15 5.15 0 0 0 4 -5 l 3.05 -29.72 h 9.34 v 53.39 a 74.92 74.92 0 0 0 0 149.48 v 53.39 Z m 83.15 66.52 H 249.82 V 429.8 h 63.51 Z m 12.33 -123.71 c -7.83 5.23 -12.51 13.57 -12.53 22.34 l -0.08 54 H 276.49 V 305.13 l 66 -51.06 a 5.15 5.15 0 1 0 -6.3 -8.15 l -68 52.61 a 5.15 5.15 0 0 0 -2 4.07 V 419.49 H 249.82 V 128.79 h 1.29 c 43.48 0 76.42 10.65 98 31.71 c 20.52 20.05 30.93 50 30.93 88.91 C 380 285.93 360.19 320.1 325.66 343.15 Z" stroke-linecap="round"/>
</g>
		<g transform="matrix(1 0 0 1 -140.7175 -122.3025)" id="Layer_1">
<path style="stroke: none; stroke-width: 1; stroke-dasharray: none; stroke-linecap: butt; stroke-dashoffset: 0; stroke-linejoin: miter; stroke-miterlimit: 4; is-custom-font: none; font-file-url: none; fill: rgb(211,67,13); fill-rule: nonzero; opacity: 1;" transform=" translate(-115.2825, -133.6975)" d="M 130.72 156.46 a 5.15 5.15 0 0 0 7.3 -7.27 L 99.84 110.93 a 5.15 5.15 0 1 0 -7.29 7.28 Z" stroke-linecap="round"/>
</g>
		<g transform="matrix(1 0 0 1 -199.53 16.21)" id="Layer_1">
<path style="stroke: none; stroke-width: 1; stroke-dasharray: none; stroke-linecap: butt; stroke-dashoffset: 0; stroke-linejoin: miter; stroke-miterlimit: 4; is-custom-font: none; font-file-url: none; fill: rgb(211,67,13); fill-rule: nonzero; opacity: 1;" transform=" translate(-56.47, -272.21)" d="M 83.47 267.06 h -54 a 5.15 5.15 0 1 0 0 10.3 H 83.47 a 5.15 5.15 0 0 0 0 -10.3 Z" stroke-linecap="round"/>
</g>
		<g transform="matrix(1 0 0 1 -140.7275 149.6925)" id="Layer_1">
<path style="stroke: none; stroke-width: 1; stroke-dasharray: none; stroke-linecap: butt; stroke-dashoffset: 0; stroke-linejoin: miter; stroke-miterlimit: 4; is-custom-font: none; font-file-url: none; fill: rgb(211,67,13); fill-rule: nonzero; opacity: 1;" transform=" translate(-115.2725, -405.6925)" d="M 130.74 382.93 l -38.2 38.24 a 5.15 5.15 0 0 0 7.29 7.28 L 138 390.22 a 5.15 5.15 0 0 0 -7.28 -7.29 Z" stroke-linecap="round"/>
</g>
		<g transform="matrix(1 0 0 1 140.7339 -122.2774)" id="Layer_1">
<path style="stroke: none; stroke-width: 1; stroke-dasharray: none; stroke-linecap: butt; stroke-dashoffset: 0; stroke-linejoin: miter; stroke-miterlimit: 4; is-custom-font: none; font-file-url: none; fill: rgb(211,67,13); fill-rule: nonzero; opacity: 1;" transform=" translate(-396.7339, -133.7226)" d="M 377.64 158 a 5.12 5.12 0 0 0 3.64 -1.51 l 38.18 -38.25 a 5.15 5.15 0 0 0 -7.3 -7.28 L 374 149.19 a 5.15 5.15 0 0 0 3.65 8.78 Z" stroke-linecap="round"/>
</g>
		<g transform="matrix(1 0 0 1 199.58 16.21)" id="Layer_1">
<path style="stroke: none; stroke-width: 1; stroke-dasharray: none; stroke-linecap: butt; stroke-dashoffset: 0; stroke-linejoin: miter; stroke-miterlimit: 4; is-custom-font: none; font-file-url: none; fill: rgb(211,67,13); fill-rule: nonzero; opacity: 1;" transform=" translate(-455.58, -272.21)" d="M 482.58 267.06 h -54 a 5.15 5.15 0 0 0 0 10.3 h 54 a 5.15 5.15 0 1 0 0 -10.3 Z" stroke-linecap="round"/>
</g>
		<g transform="matrix(1 0 0 1 140.6654 149.6379)" id="Layer_1">
<path style="stroke: none; stroke-width: 1; stroke-dasharray: none; stroke-linecap: butt; stroke-dashoffset: 0; stroke-linejoin: miter; stroke-miterlimit: 4; is-custom-font: none; font-file-url: none; fill: rgb(211,67,13); fill-rule: nonzero; opacity: 1;" transform=" translate(-396.6654, -405.6379)" d="M 381.26 382.93 a 5.15 5.15 0 0 0 -7.28 7.29 l 38.2 38.23 a 5.15 5.15 0 0 0 7.28 -7.28 Z" stroke-linecap="round"/>
</g>
</g>
</g>
</g>
</g>
<g transform="matrix(1 0 0 1 1285.6259 131.054)" style="" id="493892">
		
<path xml:space="preserve" font-family="Quicksand" font-size="89" font-weight="bold" style="stroke: none; stroke-width: 0; stroke-dasharray: none; stroke-linecap: butt; stroke-dashoffset: 0; stroke-linejoin: miter; stroke-miterlimit: 4; is-custom-font: none; font-file-url: none; fill: rgb(12,35,64); fill-rule: nonzero; opacity: 1; white-space: pre;" d="M-202.61-34.34L-202.61-34.34L-172.79-34.34Q-170.48-34.34-168.92-32.87Q-167.36-31.40-167.36-29.09L-167.36-29.09Q-167.36-26.87-168.92-25.49Q-170.48-24.11-172.79-24.11L-172.79-24.11L-197.71-24.11L-196.91-25.62L-196.91-8.26L-197.62-8.98L-176.80-8.98Q-174.48-8.98-172.93-7.51Q-171.37-6.04-171.37-3.73L-171.37-3.73Q-171.37-1.50-172.93-0.12Q-174.48 1.26-176.80 1.26L-176.80 1.26L-197.36 1.26L-196.91 0.55L-196.91 18.52L-197.62 17.72L-172.79 17.72Q-170.48 17.72-168.92 19.28Q-167.36 20.84-167.36 22.89L-167.36 22.89Q-167.36 25.11-168.92 26.53Q-170.48 27.96-172.79 27.96L-172.79 27.96L-202.61 27.96Q-204.92 27.96-206.48 26.40Q-208.04 24.84-208.04 22.53L-208.04 22.53L-208.04-28.91Q-208.04-31.23-206.48-32.78Q-204.92-34.34-202.61-34.34ZM-157.49-18.77L-157.49-18.77L-136.39-18.77Q-134.26-18.77-132.83-17.34Q-131.41-15.92-131.41-13.78L-131.41-13.78Q-131.41-11.74-132.83-10.36Q-134.26-8.98-136.39-8.98L-136.39-8.98L-157.49-8.98Q-159.62-8.98-161.05-10.40Q-162.47-11.82-162.47-13.96L-162.47-13.96Q-162.47-16.01-161.05-17.39Q-159.62-18.77-157.49-18.77ZM-147.96-29.89L-147.96-29.89Q-145.65-29.89-144.18-28.33Q-142.71-26.78-142.71-24.46L-142.71-24.46L-142.71 15.14Q-142.71 16.39-142.22 17.19Q-141.73 17.99-140.89 18.35Q-140.04 18.70-139.06 18.70L-139.06 18.70Q-137.99 18.70-137.10 18.30Q-136.21 17.90-135.06 17.90L-135.06 17.90Q-133.81 17.90-132.79 19.06Q-131.76 20.22-131.76 22.26L-131.76 22.26Q-131.76 24.75-134.48 26.36Q-137.19 27.96-140.31 27.96L-140.31 27.96Q-142.18 27.96-144.45 27.65Q-146.72 27.34-148.72 26.13Q-150.72 24.93-152.06 22.44Q-153.39 19.95-153.39 15.59L-153.39 15.59L-153.39-24.46Q-153.39-26.78-151.83-28.33Q-150.28-29.89-147.96-29.89ZM-96.61-20.55L-96.61-20.55Q-90.20-20.55-86.86-17.79Q-83.53-15.03-82.28-10.45Q-81.03-5.86-81.03-0.25L-81.03-0.25L-81.03 22.53Q-81.03 24.84-82.55 26.40Q-84.06 27.96-86.37 27.96L-86.37 27.96Q-88.69 27.96-90.20 26.40Q-91.71 24.84-91.71 22.53L-91.71 22.53L-91.71-0.25Q-91.71-3.19-92.43-5.55Q-93.14-7.91-95.01-9.33Q-96.88-10.76-100.35-10.76L-100.35-10.76Q-103.73-10.76-106.13-9.33Q-108.54-7.91-109.74-5.55Q-110.94-3.19-110.94-0.25L-110.94-0.25L-110.94 22.53Q-110.94 24.84-112.45 26.40Q-113.96 27.96-116.28 27.96L-116.28 27.96Q-118.59 27.96-120.11 26.40Q-121.62 24.84-121.62 22.53L-121.62 22.53L-121.62-32.47Q-121.62-34.79-120.11-36.34Q-118.59-37.90-116.28-37.90L-116.28-37.90Q-113.96-37.90-112.45-36.34Q-110.94-34.79-110.94-32.47L-110.94-32.47L-110.94-10.40L-112.27-10.67Q-111.47-12.18-110.05-13.92Q-108.62-15.65-106.58-17.16Q-104.53-18.68-102.04-19.61Q-99.55-20.55-96.61-20.55ZM-59.41-14.23L-59.41 22.53Q-59.41 24.84-60.92 26.40Q-62.43 27.96-64.75 27.96L-64.75 27.96Q-67.06 27.96-68.57 26.40Q-70.09 24.84-70.09 22.53L-70.09 22.53L-70.09-14.23Q-70.09-16.54-68.57-18.10Q-67.06-19.66-64.75-19.66L-64.75-19.66Q-62.43-19.66-60.92-18.10Q-59.41-16.54-59.41-14.23L-59.41-14.23ZM-64.84-25.44L-64.84-25.44Q-67.86-25.44-69.11-26.42Q-70.35-27.40-70.35-29.89L-70.35-29.89L-70.35-31.58Q-70.35-34.16-68.98-35.10Q-67.60-36.03-64.75-36.03L-64.75-36.03Q-61.63-36.03-60.39-35.05Q-59.14-34.07-59.14-31.58L-59.14-31.58L-59.14-29.89Q-59.14-27.31-60.48-26.38Q-61.81-25.44-64.84-25.44Z"/><path xml:space="preserve" font-family="Quicksand" font-size="89" font-weight="bold" style="stroke: none; stroke-width: 0; stroke-dasharray: none; stroke-linecap: butt; stroke-dashoffset: 0; stroke-linejoin: miter; stroke-miterlimit: 4; is-custom-font: none; font-file-url: none; fill: rgb(211,67,13); fill-rule: nonzero; opacity: 1; white-space: pre;" d="M-3.96-31.32L-3.96-31.32Q-1.65-30.16-1.25-27.67Q-0.85-25.17-2.54-23.13L-2.54-23.13Q-3.69-21.53-5.52-21.35Q-7.34-21.17-9.21-22.06L-9.21-22.06Q-11.35-23.04-13.71-23.57Q-16.06-24.11-18.65-24.11L-18.65-24.11Q-23.45-24.11-27.23-22.59Q-31.02-21.08-33.69-18.28Q-36.36-15.47-37.74-11.65Q-39.12-7.82-39.12-3.19L-39.12-3.19Q-39.12 2.24-37.56 6.24Q-36.00 10.25-33.24 12.92Q-30.48 15.59-26.74 16.88Q-23.01 18.17-18.65 18.17L-18.65 18.17Q-16.24 18.17-13.84 17.72Q-11.44 17.28-9.21 16.12L-9.21 16.12Q-7.34 15.23-5.52 15.50Q-3.69 15.77-2.45 17.37L-2.45 17.37Q-0.67 19.59-1.16 21.95Q-1.65 24.31-3.87 25.38L-3.87 25.38Q-6.19 26.53-8.63 27.29Q-11.08 28.05-13.57 28.45Q-16.06 28.85-18.65 28.85L-18.65 28.85Q-25.05 28.85-30.79 26.80Q-36.53 24.75-41.03 20.75Q-45.52 16.74-48.10 10.74Q-50.69 4.73-50.69-3.19L-50.69-3.19Q-50.69-10.04-48.33-15.83Q-45.97-21.61-41.65-25.84Q-37.34-30.07-31.46-32.43Q-25.59-34.79-18.65-34.79L-18.65-34.79Q-14.73-34.79-10.99-33.90Q-7.25-33.01-3.96-31.32ZM28.26 28.85L28.26 28.85Q22.03 28.85 17.04 27.29Q12.06 25.73 7.52 21.82L7.52 21.82Q6.36 20.84 5.74 19.59Q5.12 18.35 5.12 17.10L5.12 17.10Q5.12 15.05 6.59 13.50Q8.05 11.94 10.28 11.94L10.28 11.94Q11.97 11.94 13.31 13.01L13.31 13.01Q16.69 15.77 20.02 17.19Q23.36 18.61 28.26 18.61L28.26 18.61Q31.55 18.61 34.31 17.59Q37.07 16.57 38.76 14.83Q40.45 13.10 40.45 10.87L40.45 10.87Q40.45 8.20 38.85 6.33Q37.25 4.46 33.95 3.17Q30.66 1.88 25.59 1.17L25.59 1.17Q20.78 0.46 17.13-1.01Q13.48-2.48 11.04-4.75Q8.59-7.02 7.34-10.09Q6.10-13.16 6.10-16.99L6.10-16.99Q6.10-22.77 9.08-26.87Q12.06-30.96 17.13-33.10Q22.21-35.23 28.35-35.23L28.35-35.23Q34.13-35.23 39.07-33.50Q44.01-31.76 47.13-29.09L47.13-29.09Q49.71-27.04 49.71-24.37L49.71-24.37Q49.71-22.42 48.19-20.81Q46.68-19.21 44.63-19.21L44.63-19.21Q43.30-19.21 42.23-20.01L42.23-20.01Q40.81-21.26 38.40-22.37Q36.00-23.48 33.33-24.24Q30.66-25.00 28.35-25.00L28.35-25.00Q24.52-25.00 21.89-24.02Q19.27-23.04 17.93-21.35Q16.60-19.66 16.60-17.43L16.60-17.43Q16.60-14.76 18.16-13.03Q19.71-11.29 22.65-10.27Q25.59-9.24 29.68-8.44L29.68-8.44Q35.02-7.46 39.07-6.13Q43.12-4.79 45.79-2.70Q48.46-0.61 49.80 2.55Q51.13 5.71 51.13 10.25L51.13 10.25Q51.13 16.03 47.93 20.22Q44.72 24.40 39.52 26.62Q34.31 28.85 28.26 28.85Z"/><path xml:space="preserve" font-family="Quicksand" font-size="89" font-weight="bold" style="stroke: none; stroke-width: 0; stroke-dasharray: none; stroke-linecap: butt; stroke-dashoffset: 0; stroke-linejoin: miter; stroke-miterlimit: 4; is-custom-font: none; font-file-url: none; fill: rgb(12,35,64); fill-rule: nonzero; opacity: 1; white-space: pre;" d="M66.79-34.34L66.79-34.34L96.61-34.34Q98.92-34.34 100.48-32.87Q102.04-31.40 102.04-29.09L102.04-29.09Q102.04-26.87 100.48-25.49Q98.92-24.11 96.61-24.11L96.61-24.11L71.69-24.11L72.49-25.62L72.49-8.26L71.78-8.98L92.60-8.98Q94.92-8.98 96.48-7.51Q98.03-6.04 98.03-3.73L98.03-3.73Q98.03-1.50 96.48-0.12Q94.92 1.26 92.60 1.26L92.60 1.26L72.05 1.26L72.49 0.55L72.49 18.52L71.78 17.72L96.61 17.72Q98.92 17.72 100.48 19.28Q102.04 20.84 102.04 22.89L102.04 22.89Q102.04 25.11 100.48 26.53Q98.92 27.96 96.61 27.96L96.61 27.96L66.79 27.96Q64.48 27.96 62.92 26.40Q61.37 24.84 61.37 22.53L61.37 22.53L61.37-28.91Q61.37-31.23 62.92-32.78Q64.48-34.34 66.79-34.34ZM149.48-37.90L149.48-37.90Q151.79-37.90 153.30-36.39Q154.82-34.88 154.82-32.47L154.82-32.47L154.82 22.53Q154.82 24.84 153.30 26.40Q151.79 27.96 149.48 27.96L149.48 27.96Q147.16 27.96 145.65 26.40Q144.14 24.84 144.14 22.53L144.14 22.53L144.14 18.17L146.09 18.97Q146.09 20.13 144.85 21.77Q143.60 23.42 141.47 25.02Q139.33 26.62 136.44 27.74Q133.54 28.85 130.16 28.85L130.16 28.85Q124.02 28.85 119.04 25.69Q114.05 22.53 111.16 16.97Q108.27 11.40 108.27 4.20L108.27 4.20Q108.27-3.10 111.16-8.66Q114.05-14.23 118.95-17.39Q123.84-20.55 129.81-20.55L129.81-20.55Q133.63-20.55 136.84-19.39Q140.04-18.23 142.40-16.45Q144.76-14.67 146.05-12.85Q147.34-11.02 147.34-9.78L147.34-9.78L144.14-8.62L144.14-32.47Q144.14-34.79 145.65-36.34Q147.16-37.90 149.48-37.90ZM131.50 19.06L131.50 19.06Q135.41 19.06 138.35 17.10Q141.29 15.14 142.93 11.76Q144.58 8.38 144.58 4.20L144.58 4.20Q144.58-0.08 142.93-3.46Q141.29-6.84 138.35-8.80Q135.41-10.76 131.50-10.76L131.50-10.76Q127.67-10.76 124.73-8.80Q121.80-6.84 120.15-3.46Q118.50-0.08 118.50 4.20L118.50 4.20Q118.50 8.38 120.15 11.76Q121.80 15.14 124.73 17.10Q127.67 19.06 131.50 19.06ZM203.14-19.66L203.14-19.66Q205.46-19.66 206.97-18.10Q208.48-16.54 208.48-14.23L208.48-14.23L208.48 8.38Q208.48 17.81 203.23 23.33Q197.98 28.85 188.10 28.85L188.10 28.85Q178.22 28.85 173.02 23.33Q167.81 17.81 167.81 8.38L167.81 8.38L167.81-14.23Q167.81-16.54 169.32-18.10Q170.84-19.66 173.15-19.66L173.15-19.66Q175.46-19.66 176.98-18.10Q178.49-16.54 178.49-14.23L178.49-14.23L178.49 8.38Q178.49 13.81 180.89 16.43Q183.30 19.06 188.10 19.06L188.10 19.06Q193.00 19.06 195.40 16.43Q197.80 13.81 197.80 8.38L197.80 8.38L197.80-14.23Q197.80-16.54 199.32-18.10Q200.83-19.66 203.14-19.66Z"/></g>
<g transform="matrix(0.0409 0 0 0.0497 1077.8324 502.5135)" id="64214">
<path style="stroke: none; stroke-width: 0; stroke-dasharray: none; stroke-linecap: butt; stroke-dashoffset: 0; stroke-linejoin: miter; stroke-miterlimit: 4; is-custom-font: none; font-file-url: none; fill: rgb(0,0,0); fill-rule: nonzero; opacity: 1;" vector-effect="non-scaling-stroke" transform=" translate(-832, -896)" d="M 1472 448 l -384 704 h 768 z m -1280 0 l -384 704 h 768 z m 821 -192 q -14 40 -45.5 71.5 t -71.5 45.5 v 1291 h 608 q 14 0 23 9 t 9 23 v 64 q 0 14 -9 23 t -23 9 h -1344 q -14 0 -23 -9 t -9 -23 v -64 q 0 -14 9 -23 t 23 -9 h 608 v -1291 q -40 -14 -71.5 -45.5 t -45.5 -71.5 h -491 q -14 0 -23 -9 t -9 -23 v -64 q 0 -14 9 -23 t 23 -9 h 491 q 21 -57 70 -92.5 t 111 -35.5 t 111 35.5 t 70 92.5 h 491 q 14 0 23 9 t 9 23 v 64 q 0 14 -9 23 t -23 9 h -491 z m -181 16 q 33 0 56.5 -23.5 t 23.5 -56.5 t -23.5 -56.5 t -56.5 -23.5 t -56.5 23.5 t -23.5 56.5 t 23.5 56.5 t 56.5 23.5 z m 1088 880 q 0 73 -46.5 131 t -117.5 91 t -144.5 49.5 t -139.5 16.5 t -139.5 -16.5 t -144.5 -49.5 t -117.5 -91 t -46.5 -131 q 0 -11 35 -81 t 92 -174.5 t 107 -195.5 t 102 -184 t 56 -100 q 18 -33 56 -33 t 56 33 q 4 7 56 100 t 102 184 t 107 195.5 t 92 174.5 t 35 81 z m -1280 0 q 0 73 -46.5 131 t -117.5 91 t -144.5 49.5 t -139.5 16.5 t -139.5 -16.5 t -144.5 -49.5 t -117.5 -91 t -46.5 -131 q 0 -11 35 -81 t 92 -174.5 t 107 -195.5 t 102 -184 t 56 -100 q 18 -33 56 -33 t 56 33 q 4 7 56 100 t 102 184 t 107 195.5 t 92 174.5 t 35 81 z" stroke-linecap="round"/>
</g>
<g transform="matrix(0.0444 0 0 0.0444 1279.7576 652.0972)" id="894106">
<g style="" vector-effect="non-scaling-stroke">
		<g transform="matrix(1 0 0 1 0 0.1205)" id="lock">
<path style="stroke: none; stroke-width: 1; stroke-dasharray: none; stroke-linecap: butt; stroke-dashoffset: 0; stroke-linejoin: miter; stroke-miterlimit: 4; is-custom-font: none; font-file-url: none; fill: rgb(0,0,0); fill-rule: nonzero; opacity: 1;" transform=" translate(-631, -855.2495)" d="M 1196.495 713.258 H 1090 V 459.592 c 0 -253.285 -205.802 -459.35 -459.001 -459.35 C 377.799 0.242 172 206.442 172 459.892 v 253.366 H 66.686 C 30.195 713.258 0 742.241 0 778.731 v 766.42 c 0 91.079 74.712 165.106 165.792 165.106 h 931.597 c 91.08 0 164.611 -74.027 164.611 -165.106 v -766.42 C 1262 742.241 1232.985 713.258 1196.495 713.258 z M 304 459.892 c 0 -180.588 146.664 -327.508 326.999 -327.508 C 811.335 132.384 958 279.168 958 459.592 v 253.666 H 304 V 459.892 z M 1130 1545.151 c 0 18.218 -14.395 33.106 -32.611 33.106 H 165.792 c -18.216 0 -33.792 -14.889 -33.792 -33.106 V 845.258 h 998 V 1545.151 z" stroke-linecap="round"/>
</g>
		<g transform="matrix(1 0 0 1 0 369.5805)" id="lock">
<path style="stroke: none; stroke-width: 1; stroke-dasharray: none; stroke-linecap: butt; stroke-dashoffset: 0; stroke-linejoin: miter; stroke-miterlimit: 4; is-custom-font: none; font-file-url: none; fill: rgb(0,0,0); fill-rule: nonzero; opacity: 1;" transform=" translate(-631, -1224.7095)" d="M 631 1409.707 c 36.491 0 66 -29.58 66 -66.071 v -237.854 c 0 -36.49 -29.51 -66.07 -66 -66.07 c -36.49 0 -66 29.58 -66 66.07 v 237.854 C 565 1380.127 594.509 1409.707 631 1409.707 z" stroke-linecap="round"/>
</g>
</g>
</g>
<g transform="matrix(2.125 0 0 2.125 1079.0276 636.2719)" id="863151">
<g style="" vector-effect="non-scaling-stroke">
		<g transform="matrix(1 0 0 1 0 6.4447)" id="user_people_person_users_man">
<path style="stroke: none; stroke-width: 1; stroke-dasharray: none; stroke-linecap: butt; stroke-dashoffset: 0; stroke-linejoin: miter; stroke-miterlimit: 4; is-custom-font: none; font-file-url: none; fill: rgb(0,0,0); fill-rule: nonzero; opacity: 1;" transform=" translate(-16, -22.4447)" d="M 23.74 16.18 a 1 1 0 1 0 -1.41 1.42 A 9 9 0 0 1 25 24 c 0 1.22 -3.51 3 -9 3 s -9 -1.78 -9 -3 a 9 9 0 0 1 2.63 -6.37 a 1 1 0 0 0 0 -1.41 a 1 1 0 0 0 -1.41 0 A 10.92 10.92 0 0 0 5 24 c 0 3.25 5.67 5 11 5 s 11 -1.75 11 -5 A 10.94 10.94 0 0 0 23.74 16.18 Z" stroke-linecap="round"/>
</g>
		<g transform="matrix(1 0 0 1 0 -6)" id="user_people_person_users_man">
<path style="stroke: none; stroke-width: 1; stroke-dasharray: none; stroke-linecap: butt; stroke-dashoffset: 0; stroke-linejoin: miter; stroke-miterlimit: 4; is-custom-font: none; font-file-url: none; fill: rgb(0,0,0); fill-rule: nonzero; opacity: 1;" transform=" translate(-16, -10)" d="M 16 17 a 7 7 0 1 0 -7 -7 A 7 7 0 0 0 16 17 Z M 16 5 a 5 5 0 1 1 -5 5 A 5 5 0 0 1 16 5 Z" stroke-linecap="round"/>
</g>
</g>
</g>
<g transform="matrix(2.125 0 0 2.125 1038.8315 665.722)" id="86541">
<g style="" vector-effect="non-scaling-stroke">
		<g transform="matrix(1 0 0 1 0 6.4447)" id="user_people_person_users_man">
<path style="stroke: none; stroke-width: 1; stroke-dasharray: none; stroke-linecap: butt; stroke-dashoffset: 0; stroke-linejoin: miter; stroke-miterlimit: 4; is-custom-font: none; font-file-url: none; fill: rgb(0,0,0); fill-rule: nonzero; opacity: 1;" transform=" translate(-16, -22.4447)" d="M 23.74 16.18 a 1 1 0 1 0 -1.41 1.42 A 9 9 0 0 1 25 24 c 0 1.22 -3.51 3 -9 3 s -9 -1.78 -9 -3 a 9 9 0 0 1 2.63 -6.37 a 1 1 0 0 0 0 -1.41 a 1 1 0 0 0 -1.41 0 A 10.92 10.92 0 0 0 5 24 c 0 3.25 5.67 5 11 5 s 11 -1.75 11 -5 A 10.94 10.94 0 0 0 23.74 16.18 Z" stroke-linecap="round"/>
</g>
		<g transform="matrix(1 0 0 1 0 -6)" id="user_people_person_users_man">
<path style="stroke: none; stroke-width: 1; stroke-dasharray: none; stroke-linecap: butt; stroke-dashoffset: 0; stroke-linejoin: miter; stroke-miterlimit: 4; is-custom-font: none; font-file-url: none; fill: rgb(0,0,0); fill-rule: nonzero; opacity: 1;" transform=" translate(-16, -10)" d="M 16 17 a 7 7 0 1 0 -7 -7 A 7 7 0 0 0 16 17 Z M 16 5 a 5 5 0 1 1 -5 5 A 5 5 0 0 1 16 5 Z" stroke-linecap="round"/>
</g>
</g>
</g>
<g transform="matrix(2.125 0 0 2.125 1120.0766 665.722)" id="169057">
<g style="" vector-effect="non-scaling-stroke">
		<g transform="matrix(1 0 0 1 0 6.4447)" id="user_people_person_users_man">
<path style="stroke: none; stroke-width: 1; stroke-dasharray: none; stroke-linecap: butt; stroke-dashoffset: 0; stroke-linejoin: miter; stroke-miterlimit: 4; is-custom-font: none; font-file-url: none; fill: rgb(0,0,0); fill-rule: nonzero; opacity: 1;" transform=" translate(-16, -22.4447)" d="M 23.74 16.18 a 1 1 0 1 0 -1.41 1.42 A 9 9 0 0 1 25 24 c 0 1.22 -3.51 3 -9 3 s -9 -1.78 -9 -3 a 9 9 0 0 1 2.63 -6.37 a 1 1 0 0 0 0 -1.41 a 1 1 0 0 0 -1.41 0 A 10.92 10.92 0 0 0 5 24 c 0 3.25 5.67 5 11 5 s 11 -1.75 11 -5 A 10.94 10.94 0 0 0 23.74 16.18 Z" stroke-linecap="round"/>
</g>
		<g transform="matrix(1 0 0 1 0 -6)" id="user_people_person_users_man">
<path style="stroke: none; stroke-width: 1; stroke-dasharray: none; stroke-linecap: butt; stroke-dashoffset: 0; stroke-linejoin: miter; stroke-miterlimit: 4; is-custom-font: none; font-file-url: none; fill: rgb(0,0,0); fill-rule: nonzero; opacity: 1;" transform=" translate(-16, -10)" d="M 16 17 a 7 7 0 1 0 -7 -7 A 7 7 0 0 0 16 17 Z M 16 5 a 5 5 0 1 1 -5 5 A 5 5 0 0 1 16 5 Z" stroke-linecap="round"/>
</g>
</g>
</g>
<g transform="matrix(0.122 0 0 0.122 1285.6291 511.9401)" id="678907">
<g style="" vector-effect="non-scaling-stroke">
		<g transform="matrix(33.3333 0 0 33.3333 2.7286 2.5943)">
<path style="stroke: none; stroke-width: 1; stroke-dasharray: none; stroke-linecap: butt; stroke-dashoffset: 0; stroke-linejoin: miter; stroke-miterlimit: 4; is-custom-font: none; font-file-url: none; fill: rgb(0,0,0); fill-rule: nonzero; opacity: 1;" transform=" translate(-12.0819, -12.0778)" d="M 22.764 20.476 l -4.24 -4.24 a 0.81 0.81 0 0 0 -1.144 0 l -0.218 0.219 l -1.456 -1.456 a 8.32 8.32 0 1 0 -0.708 0.707 l 1.457 1.456 l -0.219 0.218 a 0.81 0.81 0 0 0 0 1.145 l 4.24 4.238 a 0.808 0.808 0 0 0 1.143 0 l 1.145 -1.143 a 0.811 0.811 0 0 0 0 -1.144 z M 2.2 9.5 a 7.3 7.3 0 1 1 7.3 7.3 a 7.308 7.308 0 0 1 -7.3 -7.3 z m 18.848 12.421 l -3.97 -3.968 l 0.874 -0.873 l 3.97 3.968 z M 15 12.25 v -5.5 a 0.751 0.751 0 0 0 -0.75 -0.75 h -1.5 a 0.751 0.751 0 0 0 -0.75 0.75 v 5.5 a 0.751 0.751 0 0 0 0.75 0.75 h 1.5 a 0.751 0.751 0 0 0 0.75 -0.75 z M 14 12 h -1 V 7 h 1 z m -3.75 -8 h -1.5 a 0.751 0.751 0 0 0 -0.75 0.75 v 7.5 a 0.751 0.751 0 0 0 0.75 0.75 h 1.5 a 0.751 0.751 0 0 0 0.75 -0.75 v -7.5 a 0.751 0.751 0 0 0 -0.75 -0.75 z M 10 12 H 9 V 5 h 1 z M 6.25 8 h -1.5 a 0.751 0.751 0 0 0 -0.75 0.75 v 3.5 a 0.751 0.751 0 0 0 0.75 0.75 h 1.5 a 0.751 0.751 0 0 0 0.75 -0.75 v -3.5 A 0.751 0.751 0 0 0 6.25 8 z M 6 12 H 5 V 9 h 1 z" stroke-linecap="round"/>
</g>
		<g transform="matrix(33.3333 0 0 33.3333 -0.0005 -0.0005)">
<path style="stroke: none; stroke-width: 1; stroke-dasharray: none; stroke-linecap: butt; stroke-dashoffset: 0; stroke-linejoin: miter; stroke-miterlimit: 4; is-custom-font: none; font-file-url: none; fill: none; fill-rule: nonzero; opacity: 1;" transform=" translate(-12, -12)" d="M 0 0 h 24 v 24 H 0 z" stroke-linecap="round"/>
</g>
</g>
</g>
</svg>