<svg xmlns="http://www.w3.org/2000/svg" xmlns:xlink="http://www.w3.org/1999/xlink" version="1.1" width="2544" height="1266" viewBox="0 0 2544 1266" xml:space="preserve">
<desc>Created with Fabric.js 3.5.0</desc>
<defs>
</defs>
<rect x="0" y="0" width="100%" height="100%" fill="rgba(186,160,160,0.65)"/>
<g transform="matrix(0.2581 0 0 0.2581 1284.6743 458.9544)" id="385070">
<g style="" vector-effect="non-scaling-stroke">
		<g transform="matrix(1.7678 0 0 1.7678 -297.4093 0)" id="864268">
<path style="stroke: none; stroke-width: 1; stroke-dasharray: none; stroke-linecap: butt; stroke-dashoffset: 0; stroke-linejoin: miter; stroke-miterlimit: 4; is-custom-font: none; font-file-url: none; fill: rgb(2,2,2); fill-rule: nonzero; opacity: 1;" transform=" translate(-58.033, -226.27)" d="M 116.066 270.268 c 0 7.751 -6.284 14.035 -14.035 14.035 H 14.035 C 6.284 284.303 0 278.019 0 270.268 v -87.996 c 0 -7.751 6.284 -14.035 14.035 -14.035 h 87.996 c 7.752 0 14.035 6.284 14.035 14.035 V 270.268 z" stroke-linecap="round"/>
</g>
		<g transform="matrix(1.7678 0 0 1.7678 297.4084 -0.0009)" id="588348">
<path style="stroke: none; stroke-width: 1; stroke-dasharray: none; stroke-linecap: butt; stroke-dashoffset: 0; stroke-linejoin: miter; stroke-miterlimit: 4; is-custom-font: none; font-file-url: none; fill: rgb(2,2,2); fill-rule: nonzero; opacity: 1;" transform=" translate(-394.5065, -226.2695)" d="M 452.54 270.268 c 0 7.751 -6.284 14.035 -14.035 14.035 h -87.997 c -7.751 0 -14.035 -6.284 -14.035 -14.035 v -87.997 c 0 -7.751 6.284 -14.035 14.035 -14.035 h 87.997 c 7.751 0 14.035 6.284 14.035 14.035 V 270.268 z" stroke-linecap="round"/>
</g>
		<g transform="matrix(1.7678 0 0 1.7678 0 -293.3336)" id="82710">
<path style="stroke: none; stroke-width: 1; stroke-dasharray: none; stroke-linecap: butt; stroke-dashoffset: 0; stroke-linejoin: miter; stroke-miterlimit: 4; is-custom-font: none; font-file-url: none; fill: rgb(2,2,2); fill-rule: nonzero; opacity: 1;" transform=" translate(-226.27, -60.3385)" d="M 270.272 2.305 h -88.004 c -7.749 0 -14.032 6.283 -14.032 14.04 v 87.989 c 0 7.755 6.283 14.038 14.032 14.038 h 88.004 c 7.749 0 14.032 -6.283 14.032 -14.038 V 16.345 C 284.304 8.588 278.021 2.305 270.272 2.305 z" stroke-linecap="round"/>
</g>
		<g transform="matrix(1.7678 0 0 1.7678 -297.4084 -293.3336)" id="300244">
<path style="stroke: none; stroke-width: 1; stroke-dasharray: none; stroke-linecap: butt; stroke-dashoffset: 0; stroke-linejoin: miter; stroke-miterlimit: 4; is-custom-font: none; font-file-url: none; fill: rgb(2,2,2); fill-rule: nonzero; opacity: 1;" transform=" translate(-58.0335, -60.3385)" d="M 102.028 2.305 H 14.04 C 6.283 2.305 0 8.588 0 16.345 v 87.989 c 0 7.755 6.283 14.038 14.04 14.038 h 87.989 c 7.755 0 14.038 -6.283 14.038 -14.038 V 16.345 C 116.066 8.588 109.783 2.305 102.028 2.305 z" stroke-linecap="round"/>
</g>
		<g transform="matrix(1.7678 0 0 1.7678 297.4093 -293.3336)" id="17208">
<path style="stroke: none; stroke-width: 1; stroke-dasharray: none; stroke-linecap: butt; stroke-dashoffset: 0; stroke-linejoin: miter; stroke-miterlimit: 4; is-custom-font: none; font-file-url: none; fill: rgb(2,2,2); fill-rule: nonzero; opacity: 1;" transform=" translate(-394.507, -60.3385)" d="M 438.5 2.305 h -87.988 c -7.755 0 -14.038 6.283 -14.038 14.04 v 87.989 c 0 7.755 6.283 14.038 14.038 14.038 H 438.5 c 7.757 0 14.04 -6.283 14.04 -14.038 V 16.345 C 452.54 8.588 446.257 2.305 438.5 2.305 z" stroke-linecap="round"/>
</g>
		<g transform="matrix(1.7678 0 0 1.7678 0 -0.0009)" id="246516">
<path style="stroke: none; stroke-width: 1; stroke-dasharray: none; stroke-linecap: butt; stroke-dashoffset: 0; stroke-linejoin: miter; stroke-miterlimit: 4; is-custom-font: none; font-file-url: none; fill: rgb(2,2,2); fill-rule: nonzero; opacity: 1;" transform=" translate(-226.27, -226.2695)" d="M 270.272 168.236 h -88.004 c -7.749 0 -14.032 6.283 -14.032 14.04 v 87.989 c 0 7.755 6.283 14.038 14.032 14.038 h 88.004 c 7.749 0 14.032 -6.283 14.032 -14.038 v -87.989 C 284.304 174.519 278.021 168.236 270.272 168.236 z" stroke-linecap="round"/>
</g>
		<g transform="matrix(1.7678 0 0 1.7678 0 293.3319)" id="627899">
<path style="stroke: none; stroke-width: 1; stroke-dasharray: none; stroke-linecap: butt; stroke-dashoffset: 0; stroke-linejoin: miter; stroke-miterlimit: 4; is-custom-font: none; font-file-url: none; fill: rgb(2,2,2); fill-rule: nonzero; opacity: 1;" transform=" translate(-226.27, -392.2005)" d="M 270.272 334.167 h -88.004 c -7.749 0 -14.032 6.283 -14.032 14.04 v 87.989 c 0 7.755 6.283 14.038 14.032 14.038 h 88.004 c 7.749 0 14.032 -6.283 14.032 -14.038 v -87.989 C 284.304 340.45 278.021 334.167 270.272 334.167 z" stroke-linecap="round"/>
</g>
		<g transform="matrix(1.7678 0 0 1.7678 -297.4093 293.3345)" id="111968">
<path style="stroke: none; stroke-width: 1; stroke-dasharray: none; stroke-linecap: butt; stroke-dashoffset: 0; stroke-linejoin: miter; stroke-miterlimit: 4; is-custom-font: none; font-file-url: none; fill: rgb(2,2,2); fill-rule: nonzero; opacity: 1;" transform=" translate(-58.033, -392.202)" d="M 116.066 436.2 c 0 7.751 -6.284 14.035 -14.035 14.035 H 14.035 C 6.284 450.235 0 443.951 0 436.2 v -87.996 c 0 -7.751 6.284 -14.035 14.035 -14.035 h 87.996 c 7.752 0 14.035 6.284 14.035 14.035 V 436.2 z" stroke-linecap="round"/>
</g>
		<g transform="matrix(1.7678 0 0 1.7678 297.4084 293.3336)" id="266507">
<path style="stroke: none; stroke-width: 1; stroke-dasharray: none; stroke-linecap: butt; stroke-dashoffset: 0; stroke-linejoin: miter; stroke-miterlimit: 4; is-custom-font: none; font-file-url: none; fill: rgb(2,2,2); fill-rule: nonzero; opacity: 1;" transform=" translate(-394.5065, -392.2015)" d="M 452.54 436.2 c 0 7.751 -6.284 14.035 -14.035 14.035 h -87.997 c -7.751 0 -14.035 -6.284 -14.035 -14.035 v -87.997 c 0 -7.751 6.284 -14.035 14.035 -14.035 h 87.997 c 7.751 0 14.035 6.284 14.035 14.035 V 436.2 z" stroke-linecap="round"/>
</g>
</g>
</g>
<g transform="matrix(-1.8582 0 0 1.8582 396.0232 369.6326)" id="51074">
<g style="" vector-effect="non-scaling-stroke">
		<g transform="matrix(1 0 0 1 -10.2 10.2)" id="56306">
<rect style="stroke: rgb(0,0,0); stroke-width: 6; stroke-dasharray: none; stroke-linecap: butt; stroke-dashoffset: 0; stroke-linejoin: miter; stroke-miterlimit: 10; is-custom-font: none; font-file-url: none; fill: none; fill-rule: nonzero; opacity: 1;" x="-40" y="-40" rx="0" ry="0" width="80" height="80"/>
</g>
		<g transform="matrix(1 0 0 1 10.2 -10.2)" id="831049">
<polyline style="stroke: rgb(0,0,0); stroke-width: 6; stroke-dasharray: none; stroke-linecap: butt; stroke-dashoffset: 0; stroke-linejoin: miter; stroke-miterlimit: 10; is-custom-font: none; font-file-url: none; fill: none; fill-rule: nonzero; opacity: 1;" points="25,40 40,40 40,-40 -40,-40 -40,-25 "/>
</g>
</g>
</g>
<g transform="matrix(-1.8582 0 0 1.8582 589.7815 590.123)" id="237712">
<g style="" vector-effect="non-scaling-stroke">
		<g transform="matrix(1 0 0 1 -10.2 10.2)" id="606645">
<rect style="stroke: rgb(0,0,0); stroke-width: 6; stroke-dasharray: none; stroke-linecap: butt; stroke-dashoffset: 0; stroke-linejoin: miter; stroke-miterlimit: 10; is-custom-font: none; font-file-url: none; fill: none; fill-rule: nonzero; opacity: 1;" x="-40" y="-40" rx="0" ry="0" width="80" height="80"/>
</g>
		<g transform="matrix(1 0 0 1 10.2 -10.2)" id="258426">
<polyline style="stroke: rgb(0,0,0); stroke-width: 6; stroke-dasharray: none; stroke-linecap: butt; stroke-dashoffset: 0; stroke-linejoin: miter; stroke-miterlimit: 10; is-custom-font: none; font-file-url: none; fill: none; fill-rule: nonzero; opacity: 1;" points="25,40 40,40 40,-40 -40,-40 -40,-25 "/>
</g>
</g>
</g>
<g transform="matrix(-1.8582 0 0 1.8582 396.0232 806.2473)" id="96831">
<g style="" vector-effect="non-scaling-stroke">
		<g transform="matrix(1 0 0 1 -10.2 10.2)" id="137805">
<rect style="stroke: rgb(0,0,0); stroke-width: 6; stroke-dasharray: none; stroke-linecap: butt; stroke-dashoffset: 0; stroke-linejoin: miter; stroke-miterlimit: 10; is-custom-font: none; font-file-url: none; fill: none; fill-rule: nonzero; opacity: 1;" x="-40" y="-40" rx="0" ry="0" width="80" height="80"/>
</g>
		<g transform="matrix(1 0 0 1 10.2 -10.2)" id="485826">
<polyline style="stroke: rgb(0,0,0); stroke-width: 6; stroke-dasharray: none; stroke-linecap: butt; stroke-dashoffset: 0; stroke-linejoin: miter; stroke-miterlimit: 10; is-custom-font: none; font-file-url: none; fill: none; fill-rule: nonzero; opacity: 1;" points="25,40 40,40 40,-40 -40,-40 -40,-25 "/>
</g>
</g>
</g>
<g transform="matrix(0.2581 0 0 0.2581 1507.3923 670.5341)" id="629097">
<g style="" vector-effect="non-scaling-stroke">
		<g transform="matrix(1.7678 0 0 1.7678 -297.4093 0)" id="175510">
<path style="stroke: none; stroke-width: 1; stroke-dasharray: none; stroke-linecap: butt; stroke-dashoffset: 0; stroke-linejoin: miter; stroke-miterlimit: 4; is-custom-font: none; font-file-url: none; fill: rgb(2,2,2); fill-rule: nonzero; opacity: 1;" transform=" translate(-58.033, -226.27)" d="M 116.066 270.268 c 0 7.751 -6.284 14.035 -14.035 14.035 H 14.035 C 6.284 284.303 0 278.019 0 270.268 v -87.996 c 0 -7.751 6.284 -14.035 14.035 -14.035 h 87.996 c 7.752 0 14.035 6.284 14.035 14.035 V 270.268 z" stroke-linecap="round"/>
</g>
		<g transform="matrix(1.7678 0 0 1.7678 297.4084 -0.0009)" id="885720">
<path style="stroke: none; stroke-width: 1; stroke-dasharray: none; stroke-linecap: butt; stroke-dashoffset: 0; stroke-linejoin: miter; stroke-miterlimit: 4; is-custom-font: none; font-file-url: none; fill: rgb(2,2,2); fill-rule: nonzero; opacity: 1;" transform=" translate(-394.5065, -226.2695)" d="M 452.54 270.268 c 0 7.751 -6.284 14.035 -14.035 14.035 h -87.997 c -7.751 0 -14.035 -6.284 -14.035 -14.035 v -87.997 c 0 -7.751 6.284 -14.035 14.035 -14.035 h 87.997 c 7.751 0 14.035 6.284 14.035 14.035 V 270.268 z" stroke-linecap="round"/>
</g>
		<g transform="matrix(1.7678 0 0 1.7678 0 -293.3336)" id="628231">
<path style="stroke: none; stroke-width: 1; stroke-dasharray: none; stroke-linecap: butt; stroke-dashoffset: 0; stroke-linejoin: miter; stroke-miterlimit: 4; is-custom-font: none; font-file-url: none; fill: rgb(2,2,2); fill-rule: nonzero; opacity: 1;" transform=" translate(-226.27, -60.3385)" d="M 270.272 2.305 h -88.004 c -7.749 0 -14.032 6.283 -14.032 14.04 v 87.989 c 0 7.755 6.283 14.038 14.032 14.038 h 88.004 c 7.749 0 14.032 -6.283 14.032 -14.038 V 16.345 C 284.304 8.588 278.021 2.305 270.272 2.305 z" stroke-linecap="round"/>
</g>
		<g transform="matrix(1.7678 0 0 1.7678 -297.4084 -293.3336)" id="892604">
<path style="stroke: none; stroke-width: 1; stroke-dasharray: none; stroke-linecap: butt; stroke-dashoffset: 0; stroke-linejoin: miter; stroke-miterlimit: 4; is-custom-font: none; font-file-url: none; fill: rgb(2,2,2); fill-rule: nonzero; opacity: 1;" transform=" translate(-58.0335, -60.3385)" d="M 102.028 2.305 H 14.04 C 6.283 2.305 0 8.588 0 16.345 v 87.989 c 0 7.755 6.283 14.038 14.04 14.038 h 87.989 c 7.755 0 14.038 -6.283 14.038 -14.038 V 16.345 C 116.066 8.588 109.783 2.305 102.028 2.305 z" stroke-linecap="round"/>
</g>
		<g transform="matrix(1.7678 0 0 1.7678 297.4093 -293.3336)" id="364044">
<path style="stroke: none; stroke-width: 1; stroke-dasharray: none; stroke-linecap: butt; stroke-dashoffset: 0; stroke-linejoin: miter; stroke-miterlimit: 4; is-custom-font: none; font-file-url: none; fill: rgb(2,2,2); fill-rule: nonzero; opacity: 1;" transform=" translate(-394.507, -60.3385)" d="M 438.5 2.305 h -87.988 c -7.755 0 -14.038 6.283 -14.038 14.04 v 87.989 c 0 7.755 6.283 14.038 14.038 14.038 H 438.5 c 7.757 0 14.04 -6.283 14.04 -14.038 V 16.345 C 452.54 8.588 446.257 2.305 438.5 2.305 z" stroke-linecap="round"/>
</g>
		<g transform="matrix(1.7678 0 0 1.7678 0 -0.0009)" id="971244">
<path style="stroke: none; stroke-width: 1; stroke-dasharray: none; stroke-linecap: butt; stroke-dashoffset: 0; stroke-linejoin: miter; stroke-miterlimit: 4; is-custom-font: none; font-file-url: none; fill: rgb(2,2,2); fill-rule: nonzero; opacity: 1;" transform=" translate(-226.27, -226.2695)" d="M 270.272 168.236 h -88.004 c -7.749 0 -14.032 6.283 -14.032 14.04 v 87.989 c 0 7.755 6.283 14.038 14.032 14.038 h 88.004 c 7.749 0 14.032 -6.283 14.032 -14.038 v -87.989 C 284.304 174.519 278.021 168.236 270.272 168.236 z" stroke-linecap="round"/>
</g>
		<g transform="matrix(1.7678 0 0 1.7678 0 293.3319)" id="729391">
<path style="stroke: none; stroke-width: 1; stroke-dasharray: none; stroke-linecap: butt; stroke-dashoffset: 0; stroke-linejoin: miter; stroke-miterlimit: 4; is-custom-font: none; font-file-url: none; fill: rgb(2,2,2); fill-rule: nonzero; opacity: 1;" transform=" translate(-226.27, -392.2005)" d="M 270.272 334.167 h -88.004 c -7.749 0 -14.032 6.283 -14.032 14.04 v 87.989 c 0 7.755 6.283 14.038 14.032 14.038 h 88.004 c 7.749 0 14.032 -6.283 14.032 -14.038 v -87.989 C 284.304 340.45 278.021 334.167 270.272 334.167 z" stroke-linecap="round"/>
</g>
		<g transform="matrix(1.7678 0 0 1.7678 -297.4093 293.3345)" id="437968">
<path style="stroke: none; stroke-width: 1; stroke-dasharray: none; stroke-linecap: butt; stroke-dashoffset: 0; stroke-linejoin: miter; stroke-miterlimit: 4; is-custom-font: none; font-file-url: none; fill: rgb(2,2,2); fill-rule: nonzero; opacity: 1;" transform=" translate(-58.033, -392.202)" d="M 116.066 436.2 c 0 7.751 -6.284 14.035 -14.035 14.035 H 14.035 C 6.284 450.235 0 443.951 0 436.2 v -87.996 c 0 -7.751 6.284 -14.035 14.035 -14.035 h 87.996 c 7.752 0 14.035 6.284 14.035 14.035 V 436.2 z" stroke-linecap="round"/>
</g>
		<g transform="matrix(1.7678 0 0 1.7678 297.4084 293.3336)" id="85250">
<path style="stroke: none; stroke-width: 1; stroke-dasharray: none; stroke-linecap: butt; stroke-dashoffset: 0; stroke-linejoin: miter; stroke-miterlimit: 4; is-custom-font: none; font-file-url: none; fill: rgb(2,2,2); fill-rule: nonzero; opacity: 1;" transform=" translate(-394.5065, -392.2015)" d="M 452.54 436.2 c 0 7.751 -6.284 14.035 -14.035 14.035 h -87.997 c -7.751 0 -14.035 -6.284 -14.035 -14.035 v -87.997 c 0 -7.751 6.284 -14.035 14.035 -14.035 h 87.997 c 7.751 0 14.035 6.284 14.035 14.035 V 436.2 z" stroke-linecap="round"/>
</g>
</g>
</g>
<g transform="matrix(7.7631 0 0 7.7631 2239.7702 411.3229)" id="242935">
<g style="" vector-effect="non-scaling-stroke">
		<g transform="matrix(1 0 0 1 4.2748 -0.4)" id="Layer_1">
<path style="stroke: rgb(0,0,0); stroke-width: 1.5; stroke-dasharray: none; stroke-linecap: round; stroke-dashoffset: 0; stroke-linejoin: round; stroke-miterlimit: 10; is-custom-font: none; font-file-url: none; fill: none; fill-rule: nonzero; opacity: 1;" transform=" translate(-16.2748, -11.6)" d="M 9.3 21.3 l 0.5 0.3 c 0.4 0.2 0.9 0.3 1.4 0.3 h 6.9 c 1.8 0 3.3 -1.3 3.6 -3 l 1.5 -7.8 c 0.3 -1.4 -0.8 -2.6 -2.2 -2.6 h -4 l 1.7 -4.7 c 0.1 -0.2 0.1 -0.4 0.1 -0.6 c 0 -1 -0.8 -1.9 -1.9 -1.9 c -0.6 0 -1.1 0.3 -1.5 0.7 L 9.5 9.8 H 9.3" stroke-linecap="round"/>
</g>
		<g transform="matrix(1 0 0 1 -6.95 3.45)" id="Layer_1">
<path style="stroke: rgb(0,0,0); stroke-width: 1.5; stroke-dasharray: none; stroke-linecap: round; stroke-dashoffset: 0; stroke-linejoin: round; stroke-miterlimit: 10; is-custom-font: none; font-file-url: none; fill: none; fill-rule: nonzero; opacity: 1;" transform=" translate(-5.05, -15.45)" d="M 8.2 22.7 H 1.8 c -0.6 0 -1 -0.4 -1 -1 V 9.2 c 0 -0.6 0.4 -1 1 -1 h 6.5 c 0.6 0 1 0.4 1 1 v 12.6 C 9.2 22.3 8.8 22.7 8.2 22.7 z" stroke-linecap="round"/>
</g>
</g>
</g>
<g transform="matrix(7.7631 0 0 -7.7631 2239.771 751.1017)" id="384735">
<g style="" vector-effect="non-scaling-stroke">
		<g transform="matrix(1 0 0 1 4.2748 -0.4)" id="Layer_1">
<path style="stroke: rgb(0,0,0); stroke-width: 1.5; stroke-dasharray: none; stroke-linecap: round; stroke-dashoffset: 0; stroke-linejoin: round; stroke-miterlimit: 10; is-custom-font: none; font-file-url: none; fill: none; fill-rule: nonzero; opacity: 1;" transform=" translate(-16.2748, -11.6)" d="M 9.3 21.3 l 0.5 0.3 c 0.4 0.2 0.9 0.3 1.4 0.3 h 6.9 c 1.8 0 3.3 -1.3 3.6 -3 l 1.5 -7.8 c 0.3 -1.4 -0.8 -2.6 -2.2 -2.6 h -4 l 1.7 -4.7 c 0.1 -0.2 0.1 -0.4 0.1 -0.6 c 0 -1 -0.8 -1.9 -1.9 -1.9 c -0.6 0 -1.1 0.3 -1.5 0.7 L 9.5 9.8 H 9.3" stroke-linecap="round"/>
</g>
		<g transform="matrix(1 0 0 1 -6.95 3.45)" id="Layer_1">
<path style="stroke: rgb(0,0,0); stroke-width: 1.5; stroke-dasharray: none; stroke-linecap: round; stroke-dashoffset: 0; stroke-linejoin: round; stroke-miterlimit: 10; is-custom-font: none; font-file-url: none; fill: none; fill-rule: nonzero; opacity: 1;" transform=" translate(-5.05, -15.45)" d="M 8.2 22.7 H 1.8 c -0.6 0 -1 -0.4 -1 -1 V 9.2 c 0 -0.6 0.4 -1 1 -1 h 6.5 c 0.6 0 1 0.4 1 1 v 12.6 C 9.2 22.3 8.8 22.7 8.2 22.7 z" stroke-linecap="round"/>
</g>
</g>
</g>
<g transform="matrix(-5.0533 0 0 5.0533 1855.3784 590.1226)" id="679665">
<path style="stroke: none; stroke-width: 1; stroke-dasharray: none; stroke-linecap: butt; stroke-dashoffset: 0; stroke-linejoin: miter; stroke-miterlimit: 4; is-custom-font: none; font-file-url: none; fill: rgb(0,0,0); fill-rule: nonzero; opacity: 1;" vector-effect="non-scaling-stroke" transform=" translate(-16, -16)" d="M 28 14 H 8.8 l 4.62 -4.62 C 13.814 8.986 14 8.516 14 8 c 0 -0.984 -0.813 -2 -2 -2 c -0.531 0 -0.994 0.193 -1.38 0.58 l -7.958 7.958 C 2.334 14.866 2 15.271 2 16 s 0.279 1.08 0.646 1.447 l 7.974 7.973 C 11.006 25.807 11.469 26 12 26 c 1.188 0 2 -1.016 2 -2 c 0 -0.516 -0.186 -0.986 -0.58 -1.38 L 8.8 18 H 28 c 1.104 0 2 -0.896 2 -2 S 29.104 14 28 14 z" stroke-linecap="round"/>
</g>
<g transform="matrix(-5.0533 0 0 5.0533 918.8058 590.123)" id="781772">
<path style="stroke: none; stroke-width: 1; stroke-dasharray: none; stroke-linecap: butt; stroke-dashoffset: 0; stroke-linejoin: miter; stroke-miterlimit: 4; is-custom-font: none; font-file-url: none; fill: rgb(0,0,0); fill-rule: nonzero; opacity: 1;" vector-effect="non-scaling-stroke" transform=" translate(-16, -16)" d="M 28 14 H 8.8 l 4.62 -4.62 C 13.814 8.986 14 8.516 14 8 c 0 -0.984 -0.813 -2 -2 -2 c -0.531 0 -0.994 0.193 -1.38 0.58 l -7.958 7.958 C 2.334 14.866 2 15.271 2 16 s 0.279 1.08 0.646 1.447 l 7.974 7.973 C 11.006 25.807 11.469 26 12 26 c 1.188 0 2 -1.016 2 -2 c 0 -0.516 -0.186 -0.986 -0.58 -1.38 L 8.8 18 H 28 c 1.104 0 2 -0.896 2 -2 S 29.104 14 28 14 z" stroke-linecap="round"/>
</g>
<g transform="matrix(3.7371 0 0 3.7371 1833.5459 472.5047)" id="342748">
<g style="" vector-effect="non-scaling-stroke">
		<g transform="matrix(3.7795 0 0 3.7795 0 -0.0003)" id="path4504">
<circle style="stroke: rgb(0,0,0); stroke-width: 0.7056; stroke-dasharray: none; stroke-linecap: butt; stroke-dashoffset: 0; stroke-linejoin: miter; stroke-miterlimit: 4; is-custom-font: none; font-file-url: none; fill: none; fill-rule: nonzero; opacity: 1;" vector-effect="non-scaling-stroke" cx="0" cy="0" r="3.8805983"/>
</g>
		<g transform="matrix(3.7795 0 0 3.7795 0.0001 -2)" id="path4506">
<path style="stroke: rgb(0,0,0); stroke-width: 0.7056; stroke-dasharray: none; stroke-linecap: butt; stroke-dashoffset: 0; stroke-linejoin: miter; stroke-miterlimit: 4; is-custom-font: none; font-file-url: none; fill: none; fill-rule: evenodd; opacity: 1;" transform=" translate(-6.35, -290.1208)" d="m 5.2916669 289.94443 c 0 -0.70557 0.3527779 -1.05835 1.0583334 -1.05835 c 0.7055555 0 1.0583337 0.35278 1.0583334 1.05835 c 3e-7 0.70555 -1.0583334 0 -1.0583334 1.41109" stroke-linecap="round"/>
</g>
		<g transform="matrix(3.7795 0 0 3.7795 0.0001 6.6667)" id="rect4508">
<rect style="stroke: none; stroke-width: 0.7056; stroke-dasharray: none; stroke-linecap: butt; stroke-dashoffset: 0; stroke-linejoin: miter; stroke-miterlimit: 4; is-custom-font: none; font-file-url: none; fill: rgb(0,0,0); fill-rule: nonzero; opacity: 1;" vector-effect="non-scaling-stroke" x="-0.3528" y="-0.3528" rx="0" ry="0" width="0.7056" height="0.7056"/>
</g>
</g>
</g>
<g transform="matrix(3.7371 0 0 3.7371 902.424 458.9544)" id="961471">
<g style="" vector-effect="non-scaling-stroke">
		<g transform="matrix(3.7795 0 0 3.7795 0 -0.0003)" id="path4504">
<circle style="stroke: rgb(0,0,0); stroke-width: 0.7056; stroke-dasharray: none; stroke-linecap: butt; stroke-dashoffset: 0; stroke-linejoin: miter; stroke-miterlimit: 4; is-custom-font: none; font-file-url: none; fill: none; fill-rule: nonzero; opacity: 1;" vector-effect="non-scaling-stroke" cx="0" cy="0" r="3.8805983"/>
</g>
		<g transform="matrix(3.7795 0 0 3.7795 0.0001 -2)" id="path4506">
<path style="stroke: rgb(0,0,0); stroke-width: 0.7056; stroke-dasharray: none; stroke-linecap: butt; stroke-dashoffset: 0; stroke-linejoin: miter; stroke-miterlimit: 4; is-custom-font: none; font-file-url: none; fill: none; fill-rule: evenodd; opacity: 1;" transform=" translate(-6.35, -290.1208)" d="m 5.2916669 289.94443 c 0 -0.70557 0.3527779 -1.05835 1.0583334 -1.05835 c 0.7055555 0 1.0583337 0.35278 1.0583334 1.05835 c 3e-7 0.70555 -1.0583334 0 -1.0583334 1.41109" stroke-linecap="round"/>
</g>
		<g transform="matrix(3.7795 0 0 3.7795 0.0001 6.6667)" id="rect4508">
<rect style="stroke: none; stroke-width: 0.7056; stroke-dasharray: none; stroke-linecap: butt; stroke-dashoffset: 0; stroke-linejoin: miter; stroke-miterlimit: 4; is-custom-font: none; font-file-url: none; fill: rgb(0,0,0); fill-rule: nonzero; opacity: 1;" vector-effect="non-scaling-stroke" x="-0.3528" y="-0.3528" rx="0" ry="0" width="0.7056" height="0.7056"/>
</g>
</g>
</g>
<g transform="matrix(0.7026 0 0 0.7026 733.0564 115.7975)" id="688247">
<g style="">
		<g transform="matrix(0.1873 0 0 0.1873 0.0039 0.0039)" id="313840">
<g style="" vector-effect="non-scaling-stroke">
		<g transform="matrix(13.3333 0 0 13.3333 -306.6669 -306.6669)" id="Capa_1">
<path style="stroke: none; stroke-width: 1; stroke-dasharray: none; stroke-linecap: butt; stroke-dashoffset: 0; stroke-linejoin: miter; stroke-miterlimit: 4; is-custom-font: none; font-file-url: none; fill: rgb(12,35,64); fill-rule: nonzero; opacity: 1;" transform=" translate(-7, -7)" d="M 14 14 V 0 H 0 v 14 H 14 z" stroke-linecap="round"/>
</g>
		<g transform="matrix(13.3333 0 0 13.3333 -306.6669 306.6664)" id="Capa_1">
<path style="stroke: none; stroke-width: 1; stroke-dasharray: none; stroke-linecap: butt; stroke-dashoffset: 0; stroke-linejoin: miter; stroke-miterlimit: 4; is-custom-font: none; font-file-url: none; fill: rgb(12,35,64); fill-rule: nonzero; opacity: 1;" transform=" translate(-7, -53)" d="M 14 46 H 7 H 0 v 14 h 14 v -7 V 46 z M 12 52.586 L 6.586 58 H 3.414 L 12 49.414 V 52.586 z M 2 53.414 L 7.414 48 h 3.172 L 2 56.586 V 53.414 z M 4.586 48 L 2 50.586 V 48 H 4.586 z M 9.414 58 L 12 55.414 V 58 H 9.414 z" stroke-linecap="round"/>
</g>
		<g transform="matrix(13.3333 0 0 13.3333 306.6664 -306.6669)" id="Capa_1">
<path style="stroke: none; stroke-width: 1; stroke-dasharray: none; stroke-linecap: butt; stroke-dashoffset: 0; stroke-linejoin: miter; stroke-miterlimit: 4; is-custom-font: none; font-file-url: none; fill: rgb(12,35,64); fill-rule: nonzero; opacity: 1;" transform=" translate(-53, -7)" d="M 46 0 v 7 v 7 h 7 h 7 V 0 H 46 z" stroke-linecap="round"/>
</g>
		<g transform="matrix(13.3333 0 0 13.3333 306.6664 306.6664)" id="Capa_1">
<path style="stroke: none; stroke-width: 1; stroke-dasharray: none; stroke-linecap: butt; stroke-dashoffset: 0; stroke-linejoin: miter; stroke-miterlimit: 4; is-custom-font: none; font-file-url: none; fill: rgb(12,35,64); fill-rule: nonzero; opacity: 1;" transform=" translate(-53, -53)" d="M 46 46 v 14 h 14 V 46 H 46 z" stroke-linecap="round"/>
</g>
		<g transform="matrix(13.3333 0 0 13.3333 -173.3333 -306.6667)" id="Capa_1">
<circle style="stroke: none; stroke-width: 1; stroke-dasharray: none; stroke-linecap: butt; stroke-dashoffset: 0; stroke-linejoin: miter; stroke-miterlimit: 4; is-custom-font: none; font-file-url: none; fill: rgb(12,35,64); fill-rule: nonzero; opacity: 1;" cx="0" cy="0" r="1"/>
</g>
		<g transform="matrix(13.3333 0 0 13.3333 -146.6667 306.6667)" id="Capa_1">
<circle style="stroke: none; stroke-width: 1; stroke-dasharray: none; stroke-linecap: butt; stroke-dashoffset: 0; stroke-linejoin: miter; stroke-miterlimit: 4; is-custom-font: none; font-file-url: none; fill: rgb(12,35,64); fill-rule: nonzero; opacity: 1;" cx="0" cy="0" r="1"/>
</g>
		<g transform="matrix(13.3333 0 0 13.3333 -200 306.6667)" id="Capa_1">
<circle style="stroke: none; stroke-width: 1; stroke-dasharray: none; stroke-linecap: butt; stroke-dashoffset: 0; stroke-linejoin: miter; stroke-miterlimit: 4; is-custom-font: none; font-file-url: none; fill: rgb(12,35,64); fill-rule: nonzero; opacity: 1;" cx="0" cy="0" r="1"/>
</g>
		<g transform="matrix(13.3333 0 0 13.3333 -120.0001 -306.6667)" id="Capa_1">
<circle style="stroke: none; stroke-width: 1; stroke-dasharray: none; stroke-linecap: butt; stroke-dashoffset: 0; stroke-linejoin: miter; stroke-miterlimit: 4; is-custom-font: none; font-file-url: none; fill: rgb(12,35,64); fill-rule: nonzero; opacity: 1;" cx="0" cy="0" r="1"/>
</g>
		<g transform="matrix(13.3333 0 0 13.3333 -306.6667 -13.3334)" id="Capa_1">
<circle style="stroke: none; stroke-width: 1; stroke-dasharray: none; stroke-linecap: butt; stroke-dashoffset: 0; stroke-linejoin: miter; stroke-miterlimit: 4; is-custom-font: none; font-file-url: none; fill: rgb(12,35,64); fill-rule: nonzero; opacity: 1;" cx="0" cy="0" r="1"/>
</g>
		<g transform="matrix(13.3333 0 0 13.3333 -306.6667 146.6667)" id="Capa_1">
<circle style="stroke: none; stroke-width: 1; stroke-dasharray: none; stroke-linecap: butt; stroke-dashoffset: 0; stroke-linejoin: miter; stroke-miterlimit: 4; is-custom-font: none; font-file-url: none; fill: rgb(12,35,64); fill-rule: nonzero; opacity: 1;" cx="0" cy="0" r="1"/>
</g>
		<g transform="matrix(13.3333 0 0 13.3333 -306.6667 93.3332)" id="Capa_1">
<circle style="stroke: none; stroke-width: 1; stroke-dasharray: none; stroke-linecap: butt; stroke-dashoffset: 0; stroke-linejoin: miter; stroke-miterlimit: 4; is-custom-font: none; font-file-url: none; fill: rgb(12,35,64); fill-rule: nonzero; opacity: 1;" cx="0" cy="0" r="1"/>
</g>
		<g transform="matrix(13.3333 0 0 13.3333 -306.6667 39.9999)" id="Capa_1">
<circle style="stroke: none; stroke-width: 1; stroke-dasharray: none; stroke-linecap: butt; stroke-dashoffset: 0; stroke-linejoin: miter; stroke-miterlimit: 4; is-custom-font: none; font-file-url: none; fill: rgb(12,35,64); fill-rule: nonzero; opacity: 1;" cx="0" cy="0" r="1"/>
</g>
		<g transform="matrix(13.3333 0 0 13.3333 -306.6667 200)" id="Capa_1">
<circle style="stroke: none; stroke-width: 1; stroke-dasharray: none; stroke-linecap: butt; stroke-dashoffset: 0; stroke-linejoin: miter; stroke-miterlimit: 4; is-custom-font: none; font-file-url: none; fill: rgb(12,35,64); fill-rule: nonzero; opacity: 1;" cx="0" cy="0" r="1"/>
</g>
		<g transform="matrix(13.3333 0 0 13.3333 -306.6667 -173.3333)" id="Capa_1">
<circle style="stroke: none; stroke-width: 1; stroke-dasharray: none; stroke-linecap: butt; stroke-dashoffset: 0; stroke-linejoin: miter; stroke-miterlimit: 4; is-custom-font: none; font-file-url: none; fill: rgb(12,35,64); fill-rule: nonzero; opacity: 1;" cx="0" cy="0" r="1"/>
</g>
		<g transform="matrix(13.3333 0 0 13.3333 -306.6667 -66.6668)" id="Capa_1">
<circle style="stroke: none; stroke-width: 1; stroke-dasharray: none; stroke-linecap: butt; stroke-dashoffset: 0; stroke-linejoin: miter; stroke-miterlimit: 4; is-custom-font: none; font-file-url: none; fill: rgb(12,35,64); fill-rule: nonzero; opacity: 1;" cx="0" cy="0" r="1"/>
</g>
		<g transform="matrix(13.3333 0 0 13.3333 -306.6667 -120.0001)" id="Capa_1">
<circle style="stroke: none; stroke-width: 1; stroke-dasharray: none; stroke-linecap: butt; stroke-dashoffset: 0; stroke-linejoin: miter; stroke-miterlimit: 4; is-custom-font: none; font-file-url: none; fill: rgb(12,35,64); fill-rule: nonzero; opacity: 1;" cx="0" cy="0" r="1"/>
</g>
		<g transform="matrix(13.3333 0 0 13.3333 66.6667 306.6667)" id="Capa_1">
<circle style="stroke: none; stroke-width: 1; stroke-dasharray: none; stroke-linecap: butt; stroke-dashoffset: 0; stroke-linejoin: miter; stroke-miterlimit: 4; is-custom-font: none; font-file-url: none; fill: rgb(12,35,64); fill-rule: nonzero; opacity: 1;" cx="0" cy="0" r="1"/>
</g>
		<g transform="matrix(13.3333 0 0 13.3333 306.6667 -40.0001)" id="Capa_1">
<circle style="stroke: none; stroke-width: 1; stroke-dasharray: none; stroke-linecap: butt; stroke-dashoffset: 0; stroke-linejoin: miter; stroke-miterlimit: 4; is-custom-font: none; font-file-url: none; fill: rgb(12,35,64); fill-rule: nonzero; opacity: 1;" cx="0" cy="0" r="1"/>
</g>
		<g transform="matrix(13.3333 0 0 13.3333 306.6667 13.3332)" id="Capa_1">
<circle style="stroke: none; stroke-width: 1; stroke-dasharray: none; stroke-linecap: butt; stroke-dashoffset: 0; stroke-linejoin: miter; stroke-miterlimit: 4; is-custom-font: none; font-file-url: none; fill: rgb(12,35,64); fill-rule: nonzero; opacity: 1;" cx="0" cy="0" r="1"/>
</g>
		<g transform="matrix(13.3333 0 0 13.3333 306.6667 -93.3333)" id="Capa_1">
<circle style="stroke: none; stroke-width: 1; stroke-dasharray: none; stroke-linecap: butt; stroke-dashoffset: 0; stroke-linejoin: miter; stroke-miterlimit: 4; is-custom-font: none; font-file-url: none; fill: rgb(12,35,64); fill-rule: nonzero; opacity: 1;" cx="0" cy="0" r="1"/>
</g>
		<g transform="matrix(13.3333 0 0 13.3333 306.6667 -146.6667)" id="Capa_1">
<circle style="stroke: none; stroke-width: 1; stroke-dasharray: none; stroke-linecap: butt; stroke-dashoffset: 0; stroke-linejoin: miter; stroke-miterlimit: 4; is-custom-font: none; font-file-url: none; fill: rgb(12,35,64); fill-rule: nonzero; opacity: 1;" cx="0" cy="0" r="1"/>
</g>
		<g transform="matrix(13.3333 0 0 13.3333 306.6667 66.6667)" id="Capa_1">
<circle style="stroke: none; stroke-width: 1; stroke-dasharray: none; stroke-linecap: butt; stroke-dashoffset: 0; stroke-linejoin: miter; stroke-miterlimit: 4; is-custom-font: none; font-file-url: none; fill: rgb(12,35,64); fill-rule: nonzero; opacity: 1;" cx="0" cy="0" r="1"/>
</g>
		<g transform="matrix(13.3333 0 0 13.3333 306.6667 119.9999)" id="Capa_1">
<circle style="stroke: none; stroke-width: 1; stroke-dasharray: none; stroke-linecap: butt; stroke-dashoffset: 0; stroke-linejoin: miter; stroke-miterlimit: 4; is-custom-font: none; font-file-url: none; fill: rgb(12,35,64); fill-rule: nonzero; opacity: 1;" cx="0" cy="0" r="1"/>
</g>
		<g transform="matrix(13.3333 0 0 13.3333 200 -306.6667)" id="Capa_1">
<circle style="stroke: none; stroke-width: 1; stroke-dasharray: none; stroke-linecap: butt; stroke-dashoffset: 0; stroke-linejoin: miter; stroke-miterlimit: 4; is-custom-font: none; font-file-url: none; fill: rgb(12,35,64); fill-rule: nonzero; opacity: 1;" cx="0" cy="0" r="1"/>
</g>
		<g transform="matrix(13.3333 0 0 13.3333 306.6667 -200)" id="Capa_1">
<circle style="stroke: none; stroke-width: 1; stroke-dasharray: none; stroke-linecap: butt; stroke-dashoffset: 0; stroke-linejoin: miter; stroke-miterlimit: 4; is-custom-font: none; font-file-url: none; fill: rgb(12,35,64); fill-rule: nonzero; opacity: 1;" cx="0" cy="0" r="1"/>
</g>
		<g transform="matrix(13.3333 0 0 13.3333 306.6667 173.3333)" id="Capa_1">
<circle style="stroke: none; stroke-width: 1; stroke-dasharray: none; stroke-linecap: butt; stroke-dashoffset: 0; stroke-linejoin: miter; stroke-miterlimit: 4; is-custom-font: none; font-file-url: none; fill: rgb(12,35,64); fill-rule: nonzero; opacity: 1;" cx="0" cy="0" r="1"/>
</g>
		<g transform="matrix(13.3333 0 0 13.3333 119.9999 306.6667)" id="Capa_1">
<circle style="stroke: none; stroke-width: 1; stroke-dasharray: none; stroke-linecap: butt; stroke-dashoffset: 0; stroke-linejoin: miter; stroke-miterlimit: 4; is-custom-font: none; font-file-url: none; fill: rgb(12,35,64); fill-rule: nonzero; opacity: 1;" cx="0" cy="0" r="1"/>
</g>
		<g transform="matrix(13.3333 0 0 13.3333 13.3332 306.6667)" id="Capa_1">
<circle style="stroke: none; stroke-width: 1; stroke-dasharray: none; stroke-linecap: butt; stroke-dashoffset: 0; stroke-linejoin: miter; stroke-miterlimit: 4; is-custom-font: none; font-file-url: none; fill: rgb(12,35,64); fill-rule: nonzero; opacity: 1;" cx="0" cy="0" r="1"/>
</g>
		<g transform="matrix(13.3333 0 0 13.3333 -40.0001 306.6667)" id="Capa_1">
<circle style="stroke: none; stroke-width: 1; stroke-dasharray: none; stroke-linecap: butt; stroke-dashoffset: 0; stroke-linejoin: miter; stroke-miterlimit: 4; is-custom-font: none; font-file-url: none; fill: rgb(12,35,64); fill-rule: nonzero; opacity: 1;" cx="0" cy="0" r="1"/>
</g>
		<g transform="matrix(13.3333 0 0 13.3333 -13.3334 -306.6667)" id="Capa_1">
<circle style="stroke: none; stroke-width: 1; stroke-dasharray: none; stroke-linecap: butt; stroke-dashoffset: 0; stroke-linejoin: miter; stroke-miterlimit: 4; is-custom-font: none; font-file-url: none; fill: rgb(12,35,64); fill-rule: nonzero; opacity: 1;" cx="0" cy="0" r="1"/>
</g>
		<g transform="matrix(13.3333 0 0 13.3333 173.3333 306.6667)" id="Capa_1">
<circle style="stroke: none; stroke-width: 1; stroke-dasharray: none; stroke-linecap: butt; stroke-dashoffset: 0; stroke-linejoin: miter; stroke-miterlimit: 4; is-custom-font: none; font-file-url: none; fill: rgb(12,35,64); fill-rule: nonzero; opacity: 1;" cx="0" cy="0" r="1"/>
</g>
		<g transform="matrix(13.3333 0 0 13.3333 -66.6668 -306.6667)" id="Capa_1">
<circle style="stroke: none; stroke-width: 1; stroke-dasharray: none; stroke-linecap: butt; stroke-dashoffset: 0; stroke-linejoin: miter; stroke-miterlimit: 4; is-custom-font: none; font-file-url: none; fill: rgb(12,35,64); fill-rule: nonzero; opacity: 1;" cx="0" cy="0" r="1"/>
</g>
		<g transform="matrix(13.3333 0 0 13.3333 -93.3333 306.6667)" id="Capa_1">
<circle style="stroke: none; stroke-width: 1; stroke-dasharray: none; stroke-linecap: butt; stroke-dashoffset: 0; stroke-linejoin: miter; stroke-miterlimit: 4; is-custom-font: none; font-file-url: none; fill: rgb(12,35,64); fill-rule: nonzero; opacity: 1;" cx="0" cy="0" r="1"/>
</g>
		<g transform="matrix(13.3333 0 0 13.3333 146.6667 -306.6667)" id="Capa_1">
<circle style="stroke: none; stroke-width: 1; stroke-dasharray: none; stroke-linecap: butt; stroke-dashoffset: 0; stroke-linejoin: miter; stroke-miterlimit: 4; is-custom-font: none; font-file-url: none; fill: rgb(12,35,64); fill-rule: nonzero; opacity: 1;" cx="0" cy="0" r="1"/>
</g>
		<g transform="matrix(13.3333 0 0 13.3333 93.3332 -306.6667)" id="Capa_1">
<path style="stroke: none; stroke-width: 1; stroke-dasharray: none; stroke-linecap: butt; stroke-dashoffset: 0; stroke-linejoin: miter; stroke-miterlimit: 4; is-custom-font: none; font-file-url: none; fill: rgb(12,35,64); fill-rule: nonzero; opacity: 1;" transform=" translate(-37, -7)" d="M 37 6 c -0.561 0 -1 0.45 -1 1 c 0 0.55 0.439 1 1 1 c 0.55 0 1 -0.45 1 -1 C 38 6.45 37.55 6 37 6 z" stroke-linecap="round"/>
</g>
		<g transform="matrix(13.3333 0 0 13.3333 39.9999 -306.6667)" id="Capa_1">
<circle style="stroke: none; stroke-width: 1; stroke-dasharray: none; stroke-linecap: butt; stroke-dashoffset: 0; stroke-linejoin: miter; stroke-miterlimit: 4; is-custom-font: none; font-file-url: none; fill: rgb(12,35,64); fill-rule: nonzero; opacity: 1;" cx="0" cy="0" r="1"/>
</g>
</g>
</g>
		<g transform="matrix(0.1406 0 0 0.1406 2.5609 -0.0039)" id="391560">
<path style="stroke: none; stroke-width: 1; stroke-dasharray: none; stroke-linecap: butt; stroke-dashoffset: 0; stroke-linejoin: miter; stroke-miterlimit: 4; is-custom-font: none; font-file-url: none; fill: rgb(211,67,13); fill-rule: nonzero; opacity: 1;" vector-effect="non-scaling-stroke" transform=" translate(-256, -256)" d="M 256 0 C 157.193 0 76.8 80.384 76.8 179.2 c 0 64.068 34.671 123.238 89.6 155.042 V 486.4 c 0 14.14 11.46 25.6 25.6 25.6 h 128 c 14.14 0 25.6 -11.46 25.6 -25.6 V 334.242 c 54.929 -31.804 89.6 -90.974 89.6 -155.042 C 435.2 80.384 354.807 0 256 0 z M 320 486.4 H 192 v -51.2 h 128 V 486.4 z M 320 318.703 V 409.6 h -51.2 V 228.582 c 22.016 -5.726 38.4 -25.591 38.4 -49.382 c 0 -28.228 -22.972 -51.2 -51.2 -51.2 s -51.2 22.972 -51.2 51.2 c 0 23.791 16.384 43.657 38.4 49.382 V 409.6 H 192 v -90.897 c -52.838 -24.294 -89.6 -77.542 -89.6 -139.503 c 0 -84.83 68.77 -153.6 153.6 -153.6 s 153.6 68.77 153.6 153.6 C 409.6 241.161 372.838 294.409 320 318.703 z M 256 204.8 c -14.14 0 -25.6 -11.46 -25.6 -25.6 s 11.46 -25.6 25.6 -25.6 c 14.14 0 25.6 11.46 25.6 25.6 S 270.14 204.8 256 204.8 z" stroke-linecap="round"/>
</g>
</g>
</g>
<g transform="matrix(1 0 0 1 1140.0558 129.8314)" style="" id="799275">
		
<path xml:space="preserve" font-family="Quicksand" font-size="118" font-weight="bold" style="stroke: none; stroke-width: 0; stroke-dasharray: none; stroke-linecap: butt; stroke-dashoffset: 0; stroke-linejoin: miter; stroke-miterlimit: 4; is-custom-font: none; font-file-url: none; fill: rgb(211,67,13); fill-rule: nonzero; opacity: 1; white-space: pre;" d="M-227.74-45.53L-199.54-45.53Q-191.04-45.53-184.43-42.35Q-177.83-39.16-173.28-33.44Q-168.74-27.71-166.44-20.22Q-164.14-12.73-164.14-4.23L-164.14-4.23Q-164.14 7.21-168.27 16.60Q-172.40 25.98-180.25 31.52Q-188.09 37.07-199.54 37.07L-199.54 37.07L-227.74 37.07Q-230.81 37.07-232.87 35.00Q-234.94 32.94-234.94 29.87L-234.94 29.87L-234.94-38.33Q-234.94-41.40-232.87-43.47Q-230.81-45.53-227.74-45.53L-227.74-45.53ZM-220.90 23.50L-200.72 23.50Q-193.28 23.50-188.56 19.66Q-183.84 15.83-181.66 9.52Q-179.48 3.20-179.48-4.23L-179.48-4.23Q-179.48-9.78-180.72-14.79Q-181.96-19.81-184.55-23.64Q-187.15-27.48-191.16-29.72Q-195.17-31.96-200.72-31.96L-200.72-31.96L-221.37-31.96L-220.19-33.02L-220.19 24.80L-220.90 23.50Z"/><path xml:space="preserve" font-family="Quicksand" font-size="118" font-weight="bold" style="stroke: none; stroke-width: 0; stroke-dasharray: none; stroke-linecap: butt; stroke-dashoffset: 0; stroke-linejoin: miter; stroke-miterlimit: 4; is-custom-font: none; font-file-url: none; fill: rgb(12,35,64); fill-rule: nonzero; opacity: 1; white-space: pre;" d="M-143.37-45.53L-143.37-45.53L-103.84-45.53Q-100.77-45.53-98.71-43.58Q-96.64-41.64-96.64-38.57L-96.64-38.57Q-96.64-35.62-98.71-33.79Q-100.77-31.96-103.84-31.96L-103.84-31.96L-136.88-31.96L-135.82-33.97L-135.82-10.96L-136.76-11.90L-109.15-11.90Q-106.08-11.90-104.02-9.95Q-101.95-8.01-101.95-4.94L-101.95-4.94Q-101.95-1.99-104.02-0.16Q-106.08 1.67-109.15 1.67L-109.15 1.67L-136.41 1.67L-135.82 0.72L-135.82 24.56L-136.76 23.50L-103.84 23.50Q-100.77 23.50-98.71 25.56Q-96.64 27.63-96.64 30.34L-96.64 30.34Q-96.64 33.29-98.71 35.18Q-100.77 37.07-103.84 37.07L-103.84 37.07L-143.37 37.07Q-146.44 37.07-148.50 35.00Q-150.57 32.94-150.57 29.87L-150.57 29.87L-150.57-38.33Q-150.57-41.40-148.50-43.47Q-146.44-45.53-143.37-45.53ZM-82.95-26.06L-82.95-26.06Q-79.53-26.06-77.17-23.11L-77.17-23.11L-37.76 25.86Q-36.23 27.75-36.23 30.11L-36.23 30.11Q-36.23 33.06-38.47 35.18Q-40.71 37.30-43.42 37.30L-43.42 37.30Q-46.85 37.30-49.21 34.24L-49.21 34.24L-88.62-14.73Q-90.15-16.62-90.15-18.98L-90.15-18.98Q-90.15-22.05-87.97-24.06Q-85.79-26.06-82.95-26.06ZM-82.84 37.19L-82.84 37.19Q-85.20 37.19-87.50 35.36Q-89.80 33.53-89.80 30.93L-89.80 30.93Q-89.80 28.57-88.03 26.45L-88.03 26.45L-69.97 4.38L-62.89 16.18L-77.17 34.24Q-79.41 37.19-82.84 37.19ZM-43.54-26.06L-43.54-26.06Q-40.71-26.06-38.76-24.11Q-36.82-22.17-36.82-19.69L-36.82-19.69Q-36.82-18.51-37.17-17.33Q-37.52-16.15-38.47-15.09L-38.47-15.09L-56.29 6.62L-63.72-3.64L-49.21-22.88Q-46.85-26.06-43.54-26.06ZM5.90-27.24L5.90-27.24Q14.16-27.24 20.71-23.05Q27.26-18.86 31.09-11.55Q34.93-4.23 34.93 5.44L34.93 5.44Q34.93 15.12 31.09 22.50Q27.26 29.87 20.83 34.06Q14.40 38.25 6.37 38.25L6.37 38.25Q1.65 38.25-2.48 36.71Q-6.61 35.18-9.73 32.82Q-12.86 30.46-14.57 28.04Q-16.28 25.62-16.28 23.97L-16.28 23.97L-12.63 22.44L-12.63 53.47Q-12.63 56.54-14.63 58.60Q-16.64 60.67-19.71 60.67L-19.71 60.67Q-22.77 60.67-24.78 58.66Q-26.79 56.66-26.79 53.47L-26.79 53.47L-26.79-18.86Q-26.79-21.93-24.78-24.00Q-22.77-26.06-19.71-26.06L-19.71-26.06Q-16.64-26.06-14.63-24.00Q-12.63-21.93-12.63-18.86L-12.63-18.86L-12.63-13.08L-14.63-14.14Q-14.63-15.68-12.98-17.86Q-11.33-20.04-8.50-22.23Q-5.66-24.41-1.95-25.83Q1.77-27.24 5.90-27.24ZM4.13-14.26L4.13-14.26Q-1.06-14.26-4.96-11.67Q-8.85-9.07-11.03-4.64Q-13.22-0.22-13.22 5.44L-13.22 5.44Q-13.22 10.99-11.03 15.53Q-8.85 20.08-4.96 22.67Q-1.06 25.27 4.13 25.27L4.13 25.27Q9.32 25.27 13.16 22.67Q16.99 20.08 19.18 15.53Q21.36 10.99 21.36 5.44L21.36 5.44Q21.36-0.22 19.18-4.64Q16.99-9.07 13.16-11.67Q9.32-14.26 4.13-14.26ZM62.07-43.05L62.07 29.87Q62.07 32.94 60.00 35.00Q57.94 37.07 54.87 37.07L54.87 37.07Q51.92 37.07 49.91 35.00Q47.91 32.94 47.91 29.87L47.91 29.87L47.91-43.05Q47.91-46.12 49.97-48.19Q52.04-50.25 55.11-50.25L55.11-50.25Q58.17-50.25 60.12-48.19Q62.07-46.12 62.07-43.05L62.07-43.05ZM129.68-27.24L129.68-27.24Q132.75-27.24 134.76-25.24Q136.76-23.23 136.76-20.04L136.76-20.04L136.76 29.87Q136.76 32.94 134.76 35.00Q132.75 37.07 129.68 37.07L129.68 37.07Q126.61 37.07 124.61 35.00Q122.60 32.94 122.60 29.87L122.60 29.87L122.60 24.09L125.20 25.15Q125.20 26.68 123.55 28.87Q121.89 31.05 119.06 33.17Q116.23 35.30 112.40 36.77Q108.56 38.25 104.08 38.25L104.08 38.25Q95.93 38.25 89.33 34.06Q82.72 29.87 78.88 22.50Q75.05 15.12 75.05 5.56L75.05 5.56Q75.05-4.11 78.88-11.49Q82.72-18.86 89.21-23.05Q95.70-27.24 103.60-27.24L103.60-27.24Q108.68-27.24 112.93-25.71Q117.17-24.17 120.30-21.81Q123.43-19.45 125.14-17.03Q126.85-14.62 126.85-12.96L126.85-12.96L122.60-11.43L122.60-20.04Q122.60-23.11 124.61-25.18Q126.61-27.24 129.68-27.24ZM105.85 25.27L105.85 25.27Q111.04 25.27 114.93 22.67Q118.83 20.08 121.01 15.59Q123.19 11.11 123.19 5.56L123.19 5.56Q123.19-0.10 121.01-4.59Q118.83-9.07 114.93-11.67Q111.04-14.26 105.85-14.26L105.85-14.26Q100.77-14.26 96.88-11.67Q92.98-9.07 90.80-4.59Q88.62-0.10 88.62 5.56L88.62 5.56Q88.62 11.11 90.80 15.59Q92.98 20.08 96.88 22.67Q100.77 25.27 105.85 25.27ZM165.44-18.86L165.44 29.87Q165.44 32.94 163.43 35.00Q161.42 37.07 158.36 37.07L158.36 37.07Q155.29 37.07 153.28 35.00Q151.28 32.94 151.28 29.87L151.28 29.87L151.28-18.86Q151.28-21.93 153.28-24.00Q155.29-26.06 158.36-26.06L158.36-26.06Q161.42-26.06 163.43-24.00Q165.44-21.93 165.44-18.86L165.44-18.86ZM158.24-33.73L158.24-33.73Q154.23-33.73 152.57-35.03Q150.92-36.33 150.92-39.63L150.92-39.63L150.92-41.87Q150.92-45.30 152.75-46.53Q154.58-47.77 158.36-47.77L158.36-47.77Q162.49-47.77 164.14-46.48Q165.79-45.18 165.79-41.87L165.79-41.87L165.79-39.63Q165.79-36.21 164.02-34.97Q162.25-33.73 158.24-33.73ZM213.70-27.24L213.70-27.24Q222.43-27.24 226.97-23.58Q231.52-19.93 233.23-13.85Q234.94-7.77 234.94-0.34L234.94-0.34L234.94 29.87Q234.94 32.94 232.93 35.00Q230.93 37.07 227.86 37.07L227.86 37.07Q224.79 37.07 222.78 35.00Q220.78 32.94 220.78 29.87L220.78 29.87L220.78-0.34Q220.78-4.23 219.78-7.36Q218.77-10.49 216.18-12.37Q213.58-14.26 208.74-14.26L208.74-14.26Q204.02-14.26 200.78-12.37Q197.53-10.49 195.82-7.36Q194.11-4.23 194.11-0.34L194.11-0.34L194.11 29.87Q194.11 32.94 192.10 35.00Q190.10 37.07 187.03 37.07L187.03 37.07Q183.96 37.07 181.96 35.00Q179.95 32.94 179.95 29.87L179.95 29.87L179.95-18.86Q179.95-21.93 181.96-24.00Q183.96-26.06 187.03-26.06L187.03-26.06Q190.10-26.06 192.10-24.00Q194.11-21.93 194.11-18.86L194.11-18.86L194.11-13.79L192.34-14.14Q193.40-16.15 195.41-18.45Q197.41-20.75 200.13-22.76Q202.84-24.76 206.26-26.00Q209.69-27.24 213.70-27.24Z"/></g>
</svg>