<svg xmlns="http://www.w3.org/2000/svg" xmlns:xlink="http://www.w3.org/1999/xlink" version="1.1" width="2544" height="1266" viewBox="0 0 2544 1266" xml:space="preserve">
<desc>Created with Fabric.js 3.5.0</desc>
<defs>
</defs>
<rect x="0" y="0" width="100%" height="100%" fill="rgba(186,160,160,0.65)"/>
<g transform="matrix(5.158 0 0 5.158 814.0427 96.7074)" id="954984">
<path style="stroke: none; stroke-width: 2; stroke-dasharray: none; stroke-linecap: butt; stroke-dashoffset: 0; stroke-linejoin: miter; stroke-miterlimit: 4; is-custom-font: none; font-file-url: none; fill: rgb(12,35,64); fill-rule: nonzero; opacity: 1;" vector-effect="non-scaling-stroke" transform=" translate(-15, -15)" d="M 8.2441406 4 L 10.244141 6 L 23 6 C 23.571297 6 24 6.4287 24 7 L 24 19.755859 L 26 21.755859 L 26 7 C 26 5.3553 24.644703 4 23 4 L 8.2441406 4 z M 4 8.2441406 L 4 23 C 4 24.6447 5.3552972 26 7 26 L 21.755859 26 L 19.755859 24 L 7 24 C 6.4287028 24 6 23.5713 6 23 L 6 10.244141 L 4 8.2441406 z" stroke-linecap="round"/>
</g>
<g transform="matrix(5.9183 0 0 5.9183 1268.232 369.5647)" id="648429">
<g style="" vector-effect="non-scaling-stroke">
		<g transform="matrix(1 0 0 1 0 0)" id="149206">
<path style="stroke: none; stroke-width: 1; stroke-dasharray: none; stroke-linecap: butt; stroke-dashoffset: 0; stroke-linejoin: miter; stroke-miterlimit: 4; is-custom-font: none; font-file-url: none; fill: none; fill-rule: nonzero; opacity: 1;" transform=" translate(-24, -24)" d="M 0 0 h 48 v 48 h -48 z" stroke-linecap="round"/>
</g>
		<g transform="matrix(1 0 0 1 0 0.05)" id="52963">
<path style="stroke: none; stroke-width: 1; stroke-dasharray: none; stroke-linecap: butt; stroke-dashoffset: 0; stroke-linejoin: miter; stroke-miterlimit: 4; is-custom-font: none; font-file-url: none; fill: rgb(12,35,64); fill-rule: nonzero; opacity: 1;" transform=" translate(-24, -24.05)" d="M 26 4.1 v 6.06 c 6.78 0.97 12 6.79 12 13.84 c 0 1.79 -0.35 3.5 -0.96 5.07 l 5.2 3.07 c 1.11 -2.49 1.76 -5.23 1.76 -8.14 c 0 -10.37 -7.89 -18.89 -18 -19.9 z m -2 33.9 c -7.73 0 -14 -6.27 -14 -14 c 0 -7.05 5.22 -12.87 12 -13.84 v -6.06 c -10.12 1 -18 9.53 -18 19.9 c 0 11.05 8.94 20 19.99 20 c 6.62 0 12.47 -3.23 16.11 -8.18 l -5.19 -3.06 c -2.56 3.19 -6.49 5.24 -10.91 5.24 z" stroke-linecap="round"/>
</g>
</g>
</g>
<g transform="matrix(0.1179 0 0 0.1179 814.2653 96.718)" id="833357">
<g style="" vector-effect="non-scaling-stroke">
		<g transform="matrix(25 0 0 25 200 -162.5)" id="50028">
<polygon style="stroke: none; stroke-width: 1; stroke-dasharray: none; stroke-linecap: butt; stroke-dashoffset: 0; stroke-linejoin: miter; stroke-miterlimit: 4; is-custom-font: none; font-file-url: none; fill: rgb(211,67,13); fill-rule: nonzero; opacity: 1;" points="1,3.5 1,-5.5 -1,-5.5 -1,-3.5 -4,-3.5 -4,-1.5 -1,-1.5 -1,3.5 -4,3.5 -4,5.5 4,5.5 4,3.5 1,3.5 "/>
</g>
		<g transform="matrix(25 0 0 25 -187.5 -162.5)" id="591318">
<path style="stroke: none; stroke-width: 1; stroke-dasharray: none; stroke-linecap: butt; stroke-dashoffset: 0; stroke-linejoin: miter; stroke-miterlimit: 4; is-custom-font: none; font-file-url: none; fill: rgb(211,67,13); fill-rule: nonzero; opacity: 1;" transform=" translate(-8.5, -9.5)" d="M 8.5 6 A 3.5 3.5 0 1 1 5 9.5 A 3.5 3.5 0 0 1 8.5 6 m 0 -2 A 5.5 5.5 0 1 0 14 9.5 A 5.5 5.5 0 0 0 8.5 4 Z" stroke-linecap="round"/>
</g>
		<g transform="matrix(25 0 0 25 -187.5 187.5)" id="495618">
<path style="stroke: none; stroke-width: 1; stroke-dasharray: none; stroke-linecap: butt; stroke-dashoffset: 0; stroke-linejoin: miter; stroke-miterlimit: 4; is-custom-font: none; font-file-url: none; fill: rgb(211,67,13); fill-rule: nonzero; opacity: 1;" transform=" translate(-8.5, -23.5)" d="M 8.5 20 A 3.5 3.5 0 1 1 5 23.5 A 3.5 3.5 0 0 1 8.5 20 m 0 -2 A 5.5 5.5 0 1 0 14 23.5 A 5.5 5.5 0 0 0 8.5 18 Z" stroke-linecap="round"/>
</g>
		<g transform="matrix(25 0 0 25 187.5 187.5)" id="551053">
<path style="stroke: none; stroke-width: 1; stroke-dasharray: none; stroke-linecap: butt; stroke-dashoffset: 0; stroke-linejoin: miter; stroke-miterlimit: 4; is-custom-font: none; font-file-url: none; fill: rgb(211,67,13); fill-rule: nonzero; opacity: 1;" transform=" translate(-23.5, -23.5)" d="M 23.5 20 A 3.5 3.5 0 1 1 20 23.5 A 3.5 3.5 0 0 1 23.5 20 m 0 -2 A 5.5 5.5 0 1 0 29 23.5 A 5.5 5.5 0 0 0 23.5 18 Z" stroke-linecap="round"/>
</g>
		<g transform="matrix(25 0 0 25 0 0)" id="740544">
<rect style="stroke: none; stroke-width: 1; stroke-dasharray: none; stroke-linecap: butt; stroke-dashoffset: 0; stroke-linejoin: miter; stroke-miterlimit: 4; is-custom-font: none; font-file-url: none; fill: none; fill-rule: nonzero; opacity: 1;" x="-16" y="-16" rx="0" ry="0" width="32" height="32"/>
</g>
</g>
</g>
<g transform="matrix(0.4119 0 0 0.4119 1095.9194 839.1408)" id="429857">
<g style="" vector-effect="non-scaling-stroke">
		<g transform="matrix(1 0 0 1 -34.4374 -142.2385)" id="978909">
<path style="stroke: none; stroke-width: 1; stroke-dasharray: none; stroke-linecap: butt; stroke-dashoffset: 0; stroke-linejoin: round; stroke-miterlimit: 2; is-custom-font: none; font-file-url: none; fill: rgb(51,105,30); fill-rule: nonzero; opacity: 1;" transform=" translate(-136.6326, -84.1272)" d="m 0 166.206 c 1.848 0 3.727 -0.344 5.548 -1.069 L 245.19 69.65 L 234.235 95.126 c -3.272 7.61 0.244 16.433 7.855 19.706 c 1.931 0.83 3.941 1.224 5.919 1.224 c 5.812 0 11.345 -3.4 13.787 -9.079 l 25.26 -58.739 c 0.019 -0.046 0.032 -0.092 0.05 -0.137 c 0.172 -0.41 0.33 -0.825 0.464 -1.249 c 0.073 -0.226 0.123 -0.455 0.184 -0.682 c 0.065 -0.245 0.139 -0.487 0.191 -0.735 c 0.056 -0.26 0.09 -0.521 0.132 -0.781 c 0.035 -0.222 0.078 -0.443 0.104 -0.668 c 0.029 -0.258 0.039 -0.515 0.054 -0.773 c 0.014 -0.233 0.036 -0.463 0.038 -0.696 c 0.003 -0.246 -0.012 -0.488 -0.02 -0.732 c -0.009 -0.246 -0.012 -0.492 -0.032 -0.739 c -0.021 -0.239 -0.06 -0.475 -0.091 -0.711 c -0.033 -0.248 -0.059 -0.496 -0.106 -0.744 c -0.048 -0.267 -0.119 -0.53 -0.183 -0.793 c -0.051 -0.212 -0.092 -0.425 -0.153 -0.636 c -0.136 -0.475 -0.294 -0.941 -0.478 -1.4 V 36.76 c -0.183 -0.459 -0.391 -0.908 -0.617 -1.348 c -0.104 -0.2 -0.224 -0.387 -0.335 -0.581 c -0.132 -0.229 -0.258 -0.463 -0.403 -0.686 c -0.141 -0.219 -0.298 -0.423 -0.451 -0.633 c -0.134 -0.186 -0.262 -0.376 -0.406 -0.557 c -0.161 -0.201 -0.335 -0.389 -0.506 -0.582 c -0.155 -0.174 -0.304 -0.354 -0.467 -0.521 c -0.171 -0.176 -0.354 -0.337 -0.534 -0.504 c -0.179 -0.167 -0.353 -0.339 -0.543 -0.498 c -0.185 -0.157 -0.381 -0.297 -0.574 -0.444 c -0.196 -0.15 -0.387 -0.305 -0.592 -0.447 c -0.23 -0.158 -0.471 -0.297 -0.71 -0.442 c -0.179 -0.11 -0.352 -0.227 -0.538 -0.33 c -0.434 -0.24 -0.88 -0.46 -1.336 -0.656 L 220.461 3.272 C 212.854 0 204.028 3.516 200.755 11.126 c -3.273 7.61 0.244 16.433 7.854 19.706 l 25.468 10.952 l -239.634 95.484 c -7.695 3.066 -11.448 11.791 -8.382 19.487 c 2.341 5.874 7.979 9.451 13.939 9.451" stroke-linecap="round"/>
</g>
		<g transform="matrix(1 0 0 1 0 39.3168)" id="311191">
<path style="stroke: none; stroke-width: 1; stroke-dasharray: none; stroke-linecap: butt; stroke-dashoffset: 0; stroke-linejoin: round; stroke-miterlimit: 2; is-custom-font: none; font-file-url: none; fill: rgb(51,105,30); fill-rule: nonzero; opacity: 1;" transform=" translate(-226, -52.489)" d="m 0 104.978 c 0 -9.826 7.994 -17.819 17.82 -17.819 c 9.826 0 17.82 7.993 17.82 17.819 V 207.489 H 0 Z M 138.79 41.869 c 0 -4.77 1.85 -9.243 5.225 -12.613 c 3.353 -3.358 7.826 -5.208 12.595 -5.208 c 4.763 0 9.232 1.85 12.602 5.226 c 3.365 3.359 5.218 7.832 5.218 12.595 v 165.62 h -35.64 z m 138.78 -52.88 c 0 -9.826 7.994 -17.821 17.82 -17.821 c 9.826 0 17.82 7.995 17.82 17.821 v 218.5 h -35.64 z m 138.79 -73.681 c 0 -9.826 7.994 -17.819 17.82 -17.819 c 9.826 0 17.82 7.993 17.82 17.819 v 292.181 h -35.64 z m 17.82 -47.819 c -26.368 0 -47.82 21.452 -47.82 47.819 v 292.181 h -43.15 v -218.5 c 0 -26.368 -21.452 -47.821 -47.82 -47.821 c -26.368 0 -47.82 21.453 -47.82 47.821 v 218.5 H 204.43 V 41.869 c 0 -12.786 -4.98 -24.799 -14.005 -33.808 c -9.02 -9.036 -21.029 -14.013 -33.815 -14.013 c -12.792 0 -24.805 4.977 -33.808 13.995 c -9.036 9.022 -14.012 21.035 -14.012 33.826 v 165.62 H 65.64 V 104.978 C 65.64 78.611 44.188 57.159 17.82 57.159 C -8.548 57.159 -30 78.611 -30 104.978 v 117.511 c 0 8.284 6.716 15 15 15 h 482 c 8.284 0 15 -6.716 15 -15 V -84.692 c 0 -26.367 -21.452 -47.819 -47.82 -47.819" stroke-linecap="round"/>
</g>
</g>
</g>
<g transform="matrix(0.4471 0 0 0.4471 269.1517 328.682)" id="39519">
<path style="stroke: none; stroke-width: 0; stroke-dasharray: none; stroke-linecap: butt; stroke-dashoffset: 0; stroke-linejoin: round; stroke-miterlimit: 2; is-custom-font: none; font-file-url: none; fill: rgb(12,35,64); fill-rule: nonzero; opacity: 1;" vector-effect="non-scaling-stroke" transform=" translate(-1280, -1279.95)" d="M 1506 1505.95 H 1214.98 V 1214.93 H 1506 Z m -371.51 -80.49 v -291.02 h 291.02 v 50.48 h -225.53 c -8.29 0 -15 6.72 -15 15 v 225.54 z M 1054 1344.97 v -291.02 h 291.02 v 50.49 h -225.53 c -8.29 0 -15 6.71 -15 15 v 225.53 z m 467 -160.05 h -65.49 v -65.48 c 0 -8.29 -6.71 -15 -15 -15 h -65.49 v -65.49 c 0 -8.29 -6.71 -15 -15 -15 H 1039 c -8.29 0 -15 6.71 -15 15 v 321.02 c 0 8.29 6.71 15 15 15 h 65.49 v 65.49 c 0 8.29 6.71 15 15 15 h 65.49 v 65.49 c 0 8.28 6.71 15 15 15 H 1521 c 8.29 0 15 -6.72 15 -15 v -321.03 c 0 -8.28 -6.71 -15 -15 -15" stroke-linecap="round"/>
</g>
<g transform="matrix(0.4471 0 0 0.4471 560.9275 397.1463)" id="875408">
<path style="stroke: none; stroke-width: 0; stroke-dasharray: none; stroke-linecap: butt; stroke-dashoffset: 0; stroke-linejoin: round; stroke-miterlimit: 2; is-custom-font: none; font-file-url: none; fill: rgb(12,35,64); fill-rule: nonzero; opacity: 1;" vector-effect="non-scaling-stroke" transform=" translate(-1280, -1279.95)" d="M 1506 1505.95 H 1214.98 V 1214.93 H 1506 Z m -371.51 -80.49 v -291.02 h 291.02 v 50.48 h -225.53 c -8.29 0 -15 6.72 -15 15 v 225.54 z M 1054 1344.97 v -291.02 h 291.02 v 50.49 h -225.53 c -8.29 0 -15 6.71 -15 15 v 225.53 z m 467 -160.05 h -65.49 v -65.48 c 0 -8.29 -6.71 -15 -15 -15 h -65.49 v -65.49 c 0 -8.29 -6.71 -15 -15 -15 H 1039 c -8.29 0 -15 6.71 -15 15 v 321.02 c 0 8.29 6.71 15 15 15 h 65.49 v 65.49 c 0 8.29 6.71 15 15 15 h 65.49 v 65.49 c 0 8.28 6.71 15 15 15 H 1521 c 8.29 0 15 -6.72 15 -15 v -321.03 c 0 -8.28 -6.71 -15 -15 -15" stroke-linecap="round"/>
</g>
<g transform="matrix(0.4471 0 0 0.4471 1940.7467 328.6707)" id="838439">
<path style="stroke: none; stroke-width: 0; stroke-dasharray: none; stroke-linecap: butt; stroke-dashoffset: 0; stroke-linejoin: round; stroke-miterlimit: 2; is-custom-font: none; font-file-url: none; fill: rgb(211,67,13); fill-rule: nonzero; opacity: 1;" vector-effect="non-scaling-stroke" transform=" translate(-1280, -1279.95)" d="M 1506 1505.95 H 1214.98 V 1214.93 H 1506 Z m -371.51 -80.49 v -291.02 h 291.02 v 50.48 h -225.53 c -8.29 0 -15 6.72 -15 15 v 225.54 z M 1054 1344.97 v -291.02 h 291.02 v 50.49 h -225.53 c -8.29 0 -15 6.71 -15 15 v 225.53 z m 467 -160.05 h -65.49 v -65.48 c 0 -8.29 -6.71 -15 -15 -15 h -65.49 v -65.49 c 0 -8.29 -6.71 -15 -15 -15 H 1039 c -8.29 0 -15 6.71 -15 15 v 321.02 c 0 8.29 6.71 15 15 15 h 65.49 v 65.49 c 0 8.29 6.71 15 15 15 h 65.49 v 65.49 c 0 8.28 6.71 15 15 15 H 1521 c 8.29 0 15 -6.72 15 -15 v -321.03 c 0 -8.28 -6.71 -15 -15 -15" stroke-linecap="round"/>
</g>
<g transform="matrix(0.4121 0 0 0.4121 1107.109 1120.4923)" id="176138">
<g style="" vector-effect="non-scaling-stroke">
		<g transform="matrix(1 0 0 1 151.86 -130.17)" id="116242">
<path style="stroke: none; stroke-width: 1; stroke-dasharray: none; stroke-linecap: butt; stroke-dashoffset: 0; stroke-linejoin: round; stroke-miterlimit: 2; is-custom-font: none; font-file-url: none; fill: rgb(51,105,30); fill-rule: nonzero; opacity: 1;" transform=" translate(-74.14, -74.14)" d="M 0 148.28 V 0.682 C 78.091 7.827 140.453 70.189 147.598 148.28 Z M -15 -30 c -8.284 0 -15 6.716 -15 15 v 178.28 c 0 8.284 6.716 15 15 15 h 178.28 c 8.284 0 15 -6.716 15 -15 C 178.28 56.705 91.575 -30 -15 -30" stroke-linecap="round"/>
</g>
		<g transform="matrix(1 0 0 1 -10.73 0.005)" id="454488">
<path style="stroke: none; stroke-width: 1; stroke-dasharray: none; stroke-linecap: butt; stroke-dashoffset: 0; stroke-linejoin: round; stroke-miterlimit: 2; is-custom-font: none; font-file-url: none; fill: rgb(51,105,30); fill-rule: nonzero; opacity: 1;" transform=" translate(31.21, -214.705)" d="M 0 429.41 V 245.91 H 183.5 C 176.179 343.742 97.832 422.089 0 429.41 M -180.098 245.91 H -30 v 150.097 c -79.465 -7.16 -142.939 -70.632 -150.098 -150.097 M -30 -0.079 V 215.91 H -246 C -238.561 100.204 -145.712 7.359 -30 -0.079 M 199.06 215.91 H 0 V -15.56 c 0 -8.284 -6.716 -15 -15 -15 c -144.181 0 -261.48 117.295 -261.48 261.47 c 0 8.284 6.715 15 15 15 h 51.279 c 7.309 96.015 84.185 172.891 180.201 180.2 v 18.86 c 0 8.284 6.716 15 15 15 c 126.304 0 229.06 -102.756 229.06 -229.06 c 0 -8.284 -6.716 -15 -15 -15" stroke-linecap="round"/>
</g>
</g>
</g>
<g transform="matrix(0.4121 0 0 0.4121 1432.3489 847.2317)" id="399767">
<g style="" vector-effect="non-scaling-stroke">
		<g transform="matrix(1 0 0 1 0.003 0)" id="849853">
<path style="stroke: none; stroke-width: 1; stroke-dasharray: none; stroke-linecap: butt; stroke-dashoffset: 0; stroke-linejoin: round; stroke-miterlimit: 2; is-custom-font: none; font-file-url: none; fill: rgb(51,105,30); fill-rule: nonzero; opacity: 1;" transform=" translate(251.607, -186.6368)" d="M 0 371.809 L -45.217 326.6 c -5.858 -5.857 -15.356 -5.857 -21.213 0.001 c -5.858 5.858 -5.857 15.356 0.001 21.214 l 19.606 19.601 h -385.57 V -18.152 l 19.608 19.607 c 2.929 2.928 6.767 4.392 10.606 4.392 c 3.839 0 7.679 -1.465 10.607 -4.393 c 5.858 -5.859 5.858 -15.356 -0.001 -21.214 l -45.214 -45.21 c -5.858 -5.858 -15.355 -5.858 -21.212 0 l -45.215 45.21 c -5.858 5.858 -5.859 15.355 -0.001 21.214 c 5.857 5.857 15.355 5.858 21.213 0.001 l 19.609 -19.607 v 385.568 h -30.215 c -8.284 0 -15 6.717 -15 15 c 0 8.286 6.716 15 15 15 h 30.215 v 30.221 c 0 8.284 6.716 15 15 15 c 8.284 0 15 -6.716 15 -15 v -30.221 h 385.576 l -19.613 19.615 c -5.858 5.858 -5.857 15.355 0.001 21.214 c 2.929 2.928 6.767 4.392 10.606 4.392 c 3.839 0 7.678 -1.465 10.607 -4.393 L 0.001 393.023 c 2.813 -2.814 4.393 -6.628 4.393 -10.607 c 0 -3.978 -1.581 -7.794 -4.394 -10.607" stroke-linecap="round"/>
</g>
		<g transform="matrix(1 0 0 1 -108.1425 17.9795)" id="695544">
<path style="stroke: none; stroke-width: 1; stroke-dasharray: none; stroke-linecap: butt; stroke-dashoffset: 0; stroke-linejoin: round; stroke-miterlimit: 2; is-custom-font: none; font-file-url: none; fill: rgb(51,105,30); fill-rule: nonzero; opacity: 1;" transform=" translate(11.3425, 38.319)" d="m 0 -76.638 v 76.64 c 0 6.253 -5.088 11.339 -11.343 11.339 c -6.254 0 -11.342 -5.086 -11.342 -11.339 v -76.64 c 0 -6.254 5.088 -11.34 11.343 -11.34 c 6.254 0 11.342 5.086 11.342 11.34 m -52.685 0 v 76.64 c 0 17.505 10.943 32.493 26.343 38.511 v 20.878 c 0 8.285 6.716 15 15 15 c 8.284 0 15 -6.715 15 -15 V 38.513 C 19.058 32.495 30 17.507 30 0.002 v -76.64 C 30 -94.143 19.058 -109.131 3.658 -115.15 v -20.879 c 0 -8.283 -6.716 -15 -15 -15 c -8.284 0 -15 6.717 -15 15 v 20.879 c -15.4 6.018 -26.343 21.006 -26.343 38.512" stroke-linecap="round"/>
</g>
		<g transform="matrix(1 0 0 1 -0.817 -97.7104)" id="978994">
<path style="stroke: none; stroke-width: 1; stroke-dasharray: none; stroke-linecap: butt; stroke-dashoffset: 0; stroke-linejoin: round; stroke-miterlimit: 2; is-custom-font: none; font-file-url: none; fill: rgb(51,105,30); fill-rule: nonzero; opacity: 1;" transform=" translate(-11.343, 38.32)" d="m 0 -76.64 c 0 -6.253 5.089 -11.34 11.344 -11.34 c 6.254 0 11.342 5.087 11.342 11.34 V 0 c 0 6.254 -5.089 11.339 -11.344 11.339 C 5.088 11.339 0 6.254 0 0 Z M -3.657 38.511 V 59.39 c 0 8.284 6.716 15 15 15 c 8.284 0 15 -6.716 15 -15 V 38.511 C 41.744 32.494 52.686 17.506 52.686 0 v -76.64 c 0 -17.505 -10.942 -32.492 -26.343 -38.511 v -20.879 c 0 -8.285 -6.716 -15 -15 -15 c -8.284 0 -15 6.715 -15 15 v 20.878 C -19.057 -109.133 -30 -94.145 -30 -76.64 V 0 c 0 17.506 10.943 32.493 26.343 38.511" stroke-linecap="round"/>
</g>
		<g transform="matrix(1 0 0 1 106.5025 17.9796)" id="94441">
<path style="stroke: none; stroke-width: 1; stroke-dasharray: none; stroke-linecap: butt; stroke-dashoffset: 0; stroke-linejoin: round; stroke-miterlimit: 2; is-custom-font: none; font-file-url: none; fill: rgb(51,105,30); fill-rule: nonzero; opacity: 1;" transform=" translate(-11.3425, 38.319)" d="m 0 -76.638 c 0 -6.254 5.088 -11.34 11.343 -11.34 c 6.254 0 11.342 5.086 11.342 11.34 v 76.64 c 0 6.253 -5.089 11.339 -11.343 11.339 C 5.088 11.341 0 6.255 0 0.002 Z m -3.658 115.15 v 20.879 c 0 8.285 6.716 15 15 15 c 8.284 0 15 -6.715 15 -15 V 38.513 C 41.742 32.495 52.685 17.507 52.685 0.002 v -76.64 c 0 -17.506 -10.943 -32.493 -26.343 -38.512 v -20.879 c 0 -8.283 -6.716 -15 -15 -15 c -8.284 0 -15 6.717 -15 15 v 20.879 C -19.058 -109.131 -30 -94.144 -30 -76.638 v 76.64 c 0 17.505 10.942 32.492 26.342 38.51" stroke-linecap="round"/>
</g>
		<g transform="matrix(1 0 0 1 213.822 -97.7104)" id="605780">
<path style="stroke: none; stroke-width: 1; stroke-dasharray: none; stroke-linecap: butt; stroke-dashoffset: 0; stroke-linejoin: round; stroke-miterlimit: 2; is-custom-font: none; font-file-url: none; fill: rgb(51,105,30); fill-rule: nonzero; opacity: 1;" transform=" translate(-11.342, 38.32)" d="m 0 -76.64 c 0 -6.253 5.089 -11.34 11.344 -11.34 c 6.253 0 11.34 5.087 11.34 11.34 V 0 c 0 6.254 -5.087 11.339 -11.34 11.339 C 5.089 11.339 0 6.254 0 0 Z M -3.656 38.511 V 59.39 c 0 8.284 6.716 15 15 15 c 8.284 0 15 -6.716 15 -15 V 38.511 C 41.743 32.492 52.684 17.505 52.684 0 v -76.64 c 0 -17.505 -10.941 -32.492 -26.34 -38.511 v -20.879 c 0 -8.285 -6.716 -15 -15 -15 c -8.284 0 -15 6.715 -15 15 v 20.878 C -19.057 -109.133 -30 -94.145 -30 -76.64 V 0 c 0 17.506 10.943 32.493 26.344 38.511" stroke-linecap="round"/>
</g>
</g>
</g>
<g transform="matrix(0.4471 0 0 0.4471 2236.9779 397.1463)" id="715305">
<path style="stroke: none; stroke-width: 0; stroke-dasharray: none; stroke-linecap: butt; stroke-dashoffset: 0; stroke-linejoin: round; stroke-miterlimit: 2; is-custom-font: none; font-file-url: none; fill: rgb(211,67,13); fill-rule: nonzero; opacity: 1;" vector-effect="non-scaling-stroke" transform=" translate(-1280, -1279.95)" d="M 1506 1505.95 H 1214.98 V 1214.93 H 1506 Z m -371.51 -80.49 v -291.02 h 291.02 v 50.48 h -225.53 c -8.29 0 -15 6.72 -15 15 v 225.54 z M 1054 1344.97 v -291.02 h 291.02 v 50.49 h -225.53 c -8.29 0 -15 6.71 -15 15 v 225.53 z m 467 -160.05 h -65.49 v -65.48 c 0 -8.29 -6.71 -15 -15 -15 h -65.49 v -65.49 c 0 -8.29 -6.71 -15 -15 -15 H 1039 c -8.29 0 -15 6.71 -15 15 v 321.02 c 0 8.29 6.71 15 15 15 h 65.49 v 65.49 c 0 8.29 6.71 15 15 15 h 65.49 v 65.49 c 0 8.28 6.71 15 15 15 H 1521 c 8.29 0 15 -6.72 15 -15 v -321.03 c 0 -8.28 -6.71 -15 -15 -15" stroke-linecap="round"/>
</g>
<g transform="matrix(0.2637 0 0 0.2637 1432.3313 1129.3854)" id="720406">
<g style="" vector-effect="non-scaling-stroke">
		<g transform="matrix(25 0 0 25 0 0)" id="890144">
<path style="stroke: none; stroke-width: 1; stroke-dasharray: none; stroke-linecap: butt; stroke-dashoffset: 0; stroke-linejoin: miter; stroke-miterlimit: 4; is-custom-font: none; font-file-url: none; fill: rgb(51,105,30); fill-rule: nonzero; opacity: 1;" transform=" translate(-16, -16)" d="M 10.06 17.88 A 4.25 4.25 0 0 0 11 18 a 4 4 0 0 0 2.23 -0.68 l 3.22 2.87 a 3.88 3.88 0 0 0 -0.2 3.17 A 4 4 0 1 0 22.62 19 l 2.54 -5.09 a 3.78 3.78 0 0 0 2.91 -0.53 A 4 4 0 1 0 23.38 13 l -2.54 5.09 A 3.86 3.86 0 0 0 20 18 a 4 4 0 0 0 -2.23 0.68 l -3.22 -2.87 a 3.88 3.88 0 0 0 0.2 -3.17 A 4 4 0 1 0 8.3 16.93 L 4 25 V 2 H 2 V 28 a 2 2 0 0 0 2 2 H 30 V 28 H 4.67 Z M 26 8 a 2 2 0 1 1 -2 2 A 2 2 0 0 1 26 8 Z M 22 22 a 2 2 0 1 1 -2 -2 A 2 2 0 0 1 22 22 Z M 11 12 a 2 2 0 1 1 -2 2 A 2 2 0 0 1 11 12 Z" stroke-linecap="round"/>
</g>
		<g transform="matrix(25 0 0 25 0 0)" id="515931">
<rect style="stroke: none; stroke-width: 1; stroke-dasharray: none; stroke-linecap: butt; stroke-dashoffset: 0; stroke-linejoin: miter; stroke-miterlimit: 4; is-custom-font: none; font-file-url: none; fill: none; fill-rule: nonzero; opacity: 1;" x="-16" y="-16" rx="0" ry="0" width="32" height="32"/>
</g>
</g>
</g>
<g transform="matrix(2.4832 0 0 2.4832 937.5174 362.064)" id="603367">
<path style="stroke: rgb(12,35,64); stroke-width: 5; stroke-dasharray: none; stroke-linecap: butt; stroke-dashoffset: 0; stroke-linejoin: miter; stroke-miterlimit: 4; is-custom-font: none; font-file-url: none; fill: rgb(12,35,64); fill-rule: nonzero; opacity: 1;" vector-effect="non-scaling-stroke" transform=" translate(-24.5499, -18.05)" d="M 30.3999 0.199997 L 24.3999 6.2 L 31.8999 13.8 H 0.899902 V 22.3 H 31.8999 L 24.3999 29.8 L 30.3999 35.9 L 48.1999 18 L 30.3999 0.199997 Z" stroke-linecap="round"/>
</g>
<g transform="matrix(2.4832 0 0 2.4832 1563.4439 362.0654)" id="392015">
<path style="stroke: rgb(12,35,64); stroke-width: 5; stroke-dasharray: none; stroke-linecap: butt; stroke-dashoffset: 0; stroke-linejoin: miter; stroke-miterlimit: 4; is-custom-font: none; font-file-url: none; fill: rgb(12,35,64); fill-rule: nonzero; opacity: 1;" vector-effect="non-scaling-stroke" transform=" translate(-24.5499, -18.05)" d="M 30.3999 0.199997 L 24.3999 6.2 L 31.8999 13.8 H 0.899902 V 22.3 H 31.8999 L 24.3999 29.8 L 30.3999 35.9 L 48.1999 18 L 30.3999 0.199997 Z" stroke-linecap="round"/>
</g>
<g transform="matrix(0.433 -4.0319 4.0319 0.433 608.7356 806.6936)" id="97087">
<g style="" vector-effect="non-scaling-stroke">
		<g transform="matrix(1 0 0 1 0 0)" id="153031">
<rect style="stroke: none; stroke-width: 1; stroke-dasharray: none; stroke-linecap: butt; stroke-dashoffset: 0; stroke-linejoin: miter; stroke-miterlimit: 4; is-custom-font: none; font-file-url: none; fill: none; fill-rule: nonzero; opacity: 1;" x="-25" y="-25" rx="0" ry="0" width="50" height="50"/>
</g>
		<g transform="matrix(1 0 0 1 -0.198 -0.5021)" id="399006">
<path style="stroke: rgb(12,35,64); stroke-width: 2; stroke-dasharray: none; stroke-linecap: round; stroke-dashoffset: 0; stroke-linejoin: miter; stroke-miterlimit: 10; is-custom-font: none; font-file-url: none; fill: none; fill-rule: nonzero; opacity: 1;" transform=" translate(-24.802, -24.4979)" d="M 34.397 29 L 20 48 L 5.604 29 H 15 C 15 0 44 1 44 1 S 25 2.373 25 29 H 34.397 z" stroke-linecap="round"/>
</g>
</g>
</g>
<g transform="matrix(-0.8085 -3.9737 -3.9737 0.8085 1902.9634 789.8505)" id="967138">
<g style="" vector-effect="non-scaling-stroke">
		<g transform="matrix(1 0 0 1 0 0)" id="278886">
<rect style="stroke: none; stroke-width: 1; stroke-dasharray: none; stroke-linecap: butt; stroke-dashoffset: 0; stroke-linejoin: miter; stroke-miterlimit: 4; is-custom-font: none; font-file-url: none; fill: none; fill-rule: nonzero; opacity: 1;" x="-25" y="-25" rx="0" ry="0" width="50" height="50"/>
</g>
		<g transform="matrix(1 0 0 1 -0.198 -0.5021)" id="467616">
<path style="stroke: rgb(211,67,13); stroke-width: 2; stroke-dasharray: none; stroke-linecap: round; stroke-dashoffset: 0; stroke-linejoin: miter; stroke-miterlimit: 10; is-custom-font: none; font-file-url: none; fill: none; fill-rule: nonzero; opacity: 1;" transform=" translate(-24.802, -24.4979)" d="M 34.397 29 L 20 48 L 5.604 29 H 15 C 15 0 44 1 44 1 S 25 2.373 25 29 H 34.397 z" stroke-linecap="round"/>
</g>
</g>
</g>
<g transform="matrix(1 0 0 1 1269.7331 369.0647)" id="409095">
<path style="stroke: none; stroke-width: 0; stroke-dasharray: none; stroke-linecap: butt; stroke-dashoffset: 0; stroke-linejoin: miter; stroke-miterlimit: 4; is-custom-font: none; font-file-url: none; fill: rgb(12,35,64); fill-rule: nonzero; opacity: 1;" vector-effect="non-scaling-stroke" transform=" translate(-69.4995, -69.5005)" d="M 43.563 80.854 c -2.479 -0.827 -5.128 -1.281 -7.887 -1.281 c -13.744 0 -24.89 11.14 -24.89 24.889 c 0 2.831 0.479 5.549 1.35 8.085 l 16.865 -16.865 l 15.915 15.915 l -16.64 16.641 c 2.338 0.728 4.823 1.116 7.401 1.119 c 13.748 0 24.891 -11.146 24.891 -24.892 c 0 -3.388 -0.677 -6.615 -1.905 -9.56 l 36.773 -36.758 c 2.478 0.827 5.128 1.281 7.886 1.281 c 13.744 0 24.891 -11.142 24.891 -24.89 c 0 -2.831 -0.479 -5.548 -1.35 -8.084 l -16.865 16.865 L 94.082 27.403 l 16.641 -16.64 c -2.338 -0.727 -4.823 -1.118 -7.401 -1.119 c -13.748 0 -24.891 11.144 -24.891 24.891 c 0 3.388 0.677 6.615 1.905 9.559 L 43.563 80.854 z" stroke-linecap="round"/>
</g>
<g transform="matrix(1 0 0 1 1272.0001 99.1212)" style="" id="336141">
		
<path xml:space="preserve" font-family="Quicksand" font-size="116" font-weight="bold" style="stroke: none; stroke-width: 0; stroke-dasharray: none; stroke-linecap: butt; stroke-dashoffset: 0; stroke-linejoin: miter; stroke-miterlimit: 4; is-custom-font: none; font-file-url: none; fill: rgb(211,67,13); fill-rule: nonzero; opacity: 1; white-space: pre;" d="M-348.17-44.76L-320.45-44.76Q-312.10-44.76-305.60-41.63Q-299.11-38.50-294.64-32.87Q-290.17-27.24-287.91-19.88Q-285.65-12.51-285.65-4.16L-285.65-4.16Q-285.65 7.09-289.71 16.31Q-293.77 25.54-301.48 30.99Q-309.20 36.44-320.45 36.44L-320.45 36.44L-348.17 36.44Q-351.19 36.44-353.22 34.41Q-355.25 32.38-355.25 29.36L-355.25 29.36L-355.25-37.68Q-355.25-40.70-353.22-42.73Q-351.19-44.76-348.17-44.76L-348.17-44.76ZM-341.45 23.10L-321.61 23.10Q-314.30 23.10-309.66 19.33Q-305.02 15.56-302.88 9.35Q-300.73 3.15-300.73-4.16L-300.73-4.16Q-300.73-9.61-301.95-14.54Q-303.17-19.47-305.72-23.24Q-308.27-27.01-312.21-29.22Q-316.16-31.42-321.61-31.42L-321.61-31.42L-341.91-31.42L-340.75-32.46L-340.75 24.38L-341.45 23.10ZM-223.24-26.78L-223.24-26.78Q-220.23-26.78-218.25-24.81Q-216.28-22.84-216.28-19.70L-216.28-19.70L-216.28 29.36Q-216.28 32.38-218.25 34.41Q-220.23 36.44-223.24 36.44L-223.24 36.44Q-226.26 36.44-228.23 34.41Q-230.20 32.38-230.20 29.36L-230.20 29.36L-230.20 23.68L-227.65 24.72Q-227.65 26.23-229.27 28.38Q-230.90 30.52-233.68 32.61Q-236.47 34.70-240.24 36.15Q-244.01 37.60-248.41 37.60L-248.41 37.60Q-256.42 37.60-262.91 33.48Q-269.41 29.36-273.18 22.11Q-276.95 14.86-276.95 5.47L-276.95 5.47Q-276.95-4.04-273.18-11.29Q-269.41-18.54-263.03-22.66Q-256.65-26.78-248.88-26.78L-248.88-26.78Q-243.89-26.78-239.71-25.27Q-235.54-23.76-232.46-21.44Q-229.39-19.12-227.71-16.75Q-226.03-14.37-226.03-12.74L-226.03-12.74L-230.20-11.24L-230.20-19.70Q-230.20-22.72-228.23-24.75Q-226.26-26.78-223.24-26.78ZM-246.67 24.84L-246.67 24.84Q-241.57 24.84-237.74 22.29Q-233.91 19.74-231.77 15.33Q-229.62 10.92-229.62 5.47L-229.62 5.47Q-229.62-0.10-231.77-4.51Q-233.91-8.92-237.74-11.47Q-241.57-14.02-246.67-14.02L-246.67-14.02Q-251.66-14.02-255.49-11.47Q-259.32-8.92-261.46-4.51Q-263.61-0.10-263.61 5.47L-263.61 5.47Q-263.61 10.92-261.46 15.33Q-259.32 19.74-255.49 22.29Q-251.66 24.84-246.67 24.84ZM-200.51-24.46L-200.51-24.46L-173.01-24.46Q-170.23-24.46-168.37-22.60Q-166.52-20.75-166.52-17.96L-166.52-17.96Q-166.52-15.30-168.37-13.50Q-170.23-11.70-173.01-11.70L-173.01-11.70L-200.51-11.70Q-203.29-11.70-205.15-13.56Q-207.00-15.41-207.00-18.20L-207.00-18.20Q-207.00-20.86-205.15-22.66Q-203.29-24.46-200.51-24.46ZM-188.09-38.96L-188.09-38.96Q-185.08-38.96-183.16-36.93Q-181.25-34.90-181.25-31.88L-181.25-31.88L-181.25 19.74Q-181.25 21.36-180.61 22.40Q-179.97 23.45-178.87 23.91Q-177.77 24.38-176.49 24.38L-176.49 24.38Q-175.10 24.38-173.94 23.85Q-172.78 23.33-171.27 23.33L-171.27 23.33Q-169.65 23.33-168.32 24.84Q-166.98 26.35-166.98 29.02L-166.98 29.02Q-166.98 32.26-170.52 34.35Q-174.06 36.44-178.12 36.44L-178.12 36.44Q-180.55 36.44-183.51 36.03Q-186.47 35.63-189.08 34.06Q-191.69 32.50-193.43 29.25Q-195.17 26.00-195.17 20.32L-195.17 20.32L-195.17-31.88Q-195.17-34.90-193.14-36.93Q-191.11-38.96-188.09-38.96ZM-103.53-26.78L-103.53-26.78Q-100.51-26.78-98.54-24.81Q-96.57-22.84-96.57-19.70L-96.57-19.70L-96.57 29.36Q-96.57 32.38-98.54 34.41Q-100.51 36.44-103.53 36.44L-103.53 36.44Q-106.55 36.44-108.52 34.41Q-110.49 32.38-110.49 29.36L-110.49 29.36L-110.49 23.68L-107.94 24.72Q-107.94 26.23-109.56 28.38Q-111.19 30.52-113.97 32.61Q-116.75 34.70-120.52 36.15Q-124.29 37.60-128.70 37.60L-128.70 37.60Q-136.71 37.60-143.20 33.48Q-149.70 29.36-153.47 22.11Q-157.24 14.86-157.24 5.47L-157.24 5.47Q-157.24-4.04-153.47-11.29Q-149.70-18.54-143.32-22.66Q-136.94-26.78-129.17-26.78L-129.17-26.78Q-124.18-26.78-120.00-25.27Q-115.83-23.76-112.75-21.44Q-109.68-19.12-108.00-16.75Q-106.31-14.37-106.31-12.74L-106.31-12.74L-110.49-11.24L-110.49-19.70Q-110.49-22.72-108.52-24.75Q-106.55-26.78-103.53-26.78ZM-126.96 24.84L-126.96 24.84Q-121.86 24.84-118.03 22.29Q-114.20 19.74-112.06 15.33Q-109.91 10.92-109.91 5.47L-109.91 5.47Q-109.91-0.10-112.06-4.51Q-114.20-8.92-118.03-11.47Q-121.86-14.02-126.96-14.02L-126.96-14.02Q-131.95-14.02-135.78-11.47Q-139.61-8.92-141.75-4.51Q-143.90-0.10-143.90 5.47L-143.90 5.47Q-143.90 10.92-141.75 15.33Q-139.61 19.74-135.78 22.29Q-131.95 24.84-126.96 24.84Z"/><path xml:space="preserve" font-family="Quicksand" font-size="116" font-weight="bold" style="stroke: none; stroke-width: 0; stroke-dasharray: none; stroke-linecap: butt; stroke-dashoffset: 0; stroke-linejoin: miter; stroke-miterlimit: 4; is-custom-font: none; font-file-url: none; fill: rgb(12,35,64); fill-rule: nonzero; opacity: 1; white-space: pre;" d="M-72.09-44.76L-45.65-44.76Q-39.61-44.76-34.34-41.28Q-29.06-37.80-25.81-31.88Q-22.56-25.97-22.56-18.66L-22.56-18.66Q-22.56-11.47-25.81-5.55Q-29.06 0.36-34.34 3.90Q-39.61 7.44-45.65 7.44L-45.65 7.44L-66.99 7.44L-65.83 5.35L-65.83 29.36Q-65.83 32.38-67.69 34.41Q-69.54 36.44-72.56 36.44L-72.56 36.44Q-75.46 36.44-77.31 34.41Q-79.17 32.38-79.17 29.36L-79.17 29.36L-79.17-37.68Q-79.17-40.70-77.14-42.73Q-75.11-44.76-72.09-44.76L-72.09-44.76ZM-67.11-5.78L-45.65-5.78Q-43.44-5.78-41.35-7.64Q-39.27-9.50-37.87-12.45Q-36.48-15.41-36.48-18.66L-36.48-18.66Q-36.48-22.02-37.87-24.92Q-39.27-27.82-41.35-29.62Q-43.44-31.42-45.65-31.42L-45.65-31.42L-67.22-31.42L-65.83-33.51L-65.83-3.93L-67.11-5.78ZM48.08 5.47L48.08 5.47Q48.08 14.98 43.85 22.23Q39.61 29.48 32.48 33.54Q25.35 37.60 16.53 37.60L16.53 37.60Q7.71 37.60 0.58 33.54Q-6.55 29.48-10.79 22.23Q-15.02 14.98-15.02 5.47L-15.02 5.47Q-15.02-4.04-10.79-11.29Q-6.55-18.54 0.58-22.66Q7.71-26.78 16.53-26.78L16.53-26.78Q25.35-26.78 32.48-22.66Q39.61-18.54 43.85-11.29Q48.08-4.04 48.08 5.47ZM34.16 5.47L34.16 5.47Q34.16-0.45 31.78-4.80Q29.41-9.15 25.40-11.58Q21.40-14.02 16.53-14.02L16.53-14.02Q11.66-14.02 7.66-11.58Q3.65-9.15 1.28-4.80Q-1.10-0.45-1.10 5.47L-1.10 5.47Q-1.10 11.27 1.28 15.62Q3.65 19.97 7.66 22.40Q11.66 24.84 16.53 24.84L16.53 24.84Q21.40 24.84 25.40 22.40Q29.41 19.97 31.78 15.62Q34.16 11.27 34.16 5.47ZM56.09 26.81L56.09 26.81Q54.93 25.19 55.04 22.64Q55.16 20.08 58.06 18.23L58.06 18.23Q59.91 17.07 62.00 17.24Q64.09 17.42 66.06 19.39L66.06 19.39Q69.43 22.75 73.14 24.61Q76.85 26.46 82.42 26.46L82.42 26.46Q84.16 26.35 86.25 25.94Q88.33 25.54 89.90 24.09Q91.47 22.64 91.47 19.62L91.47 19.62Q91.47 17.07 89.73 15.56Q87.99 14.05 85.14 13.01Q82.30 11.96 78.82 11.04L78.82 11.04Q75.23 9.99 71.46 8.72Q67.69 7.44 64.55 5.41Q61.42 3.38 59.45 0.02Q57.48-3.35 57.48-8.45L57.48-8.45Q57.48-14.25 60.73-18.31Q63.97-22.37 69.14-24.58Q74.30-26.78 79.98-26.78L79.98-26.78Q83.58-26.78 87.52-25.91Q91.47-25.04 95.06-23.13Q98.66-21.21 101.09-18.08L101.09-18.08Q102.37-16.34 102.60-13.90Q102.83-11.47 100.40-9.50L100.40-9.50Q98.66-8.10 96.34-8.28Q94.02-8.45 92.51-9.84L92.51-9.84Q90.54-12.40 87.23-13.90Q83.93-15.41 79.63-15.41L79.63-15.41Q77.89-15.41 75.86-15.01Q73.83-14.60 72.33-13.27Q70.82-11.93 70.82-9.03L70.82-9.03Q70.82-6.36 72.56-4.80Q74.30-3.23 77.26-2.25Q80.21-1.26 83.58-0.33L83.58-0.33Q87.06 0.60 90.65 1.87Q94.25 3.15 97.27 5.24Q100.28 7.32 102.14 10.63Q103.99 13.94 103.99 19.04L103.99 19.04Q103.99 24.96 100.51 29.13Q97.03 33.31 91.81 35.45Q86.59 37.60 81.14 37.60L81.14 37.60Q74.30 37.60 67.45 35.22Q60.61 32.84 56.09 26.81ZM112.00 26.81L112.00 26.81Q110.84 25.19 110.95 22.64Q111.07 20.08 113.97 18.23L113.97 18.23Q115.83 17.07 117.91 17.24Q120.00 17.42 121.97 19.39L121.97 19.39Q125.34 22.75 129.05 24.61Q132.76 26.46 138.33 26.46L138.33 26.46Q140.07 26.35 142.16 25.94Q144.25 25.54 145.81 24.09Q147.38 22.64 147.38 19.62L147.38 19.62Q147.38 17.07 145.64 15.56Q143.90 14.05 141.06 13.01Q138.21 11.96 134.73 11.04L134.73 11.04Q131.14 9.99 127.37 8.72Q123.60 7.44 120.47 5.41Q117.33 3.38 115.36 0.02Q113.39-3.35 113.39-8.45L113.39-8.45Q113.39-14.25 116.64-18.31Q119.89-22.37 125.05-24.58Q130.21-26.78 135.89-26.78L135.89-26.78Q139.49-26.78 143.43-25.91Q147.38-25.04 150.97-23.13Q154.57-21.21 157.01-18.08L157.01-18.08Q158.28-16.34 158.51-13.90Q158.75-11.47 156.31-9.50L156.31-9.50Q154.57-8.10 152.25-8.28Q149.93-8.45 148.42-9.84L148.42-9.84Q146.45-12.40 143.14-13.90Q139.84-15.41 135.55-15.41L135.55-15.41Q133.81-15.41 131.78-15.01Q129.75-14.60 128.24-13.27Q126.73-11.93 126.73-9.03L126.73-9.03Q126.73-6.36 128.47-4.80Q130.21-3.23 133.17-2.25Q136.13-1.26 139.49-0.33L139.49-0.33Q142.97 0.60 146.57 1.87Q150.16 3.15 153.18 5.24Q156.19 7.32 158.05 10.63Q159.91 13.94 159.91 19.04L159.91 19.04Q159.91 24.96 156.43 29.13Q152.95 33.31 147.73 35.45Q142.51 37.60 137.05 37.60L137.05 37.60Q130.21 37.60 123.37 35.22Q116.52 32.84 112.00 26.81ZM184.61-18.54L184.61 29.36Q184.61 32.38 182.64 34.41Q180.67 36.44 177.65 36.44L177.65 36.44Q174.64 36.44 172.67 34.41Q170.69 32.38 170.69 29.36L170.69 29.36L170.69-18.54Q170.69-21.56 172.67-23.59Q174.64-25.62 177.65-25.62L177.65-25.62Q180.67-25.62 182.64-23.59Q184.61-21.56 184.61-18.54L184.61-18.54ZM177.54-33.16L177.54-33.16Q173.59-33.16 171.97-34.44Q170.35-35.71 170.35-38.96L170.35-38.96L170.35-41.16Q170.35-44.53 172.14-45.75Q173.94-46.96 177.65-46.96L177.65-46.96Q181.71-46.96 183.34-45.69Q184.96-44.41 184.96-41.16L184.96-41.16L184.96-38.96Q184.96-35.60 183.22-34.38Q181.48-33.16 177.54-33.16ZM231.01-26.78L231.01-26.78Q239.13-26.78 245.57-22.66Q252.01-18.54 255.78-11.35Q259.55-4.16 259.55 5.35L259.55 5.35Q259.55 14.86 255.78 22.11Q252.01 29.36 245.69 33.48Q239.37 37.60 231.48 37.60L231.48 37.60Q226.84 37.60 222.78 36.09Q218.72 34.58 215.64 32.26Q212.57 29.94 210.89 27.57Q209.21 25.19 209.21 23.56L209.21 23.56L212.80 22.06L212.80 30.52Q212.80 33.54 210.83 35.57Q208.86 37.60 205.84 37.60L205.84 37.60Q202.83 37.60 200.85 35.63Q198.88 33.66 198.88 30.52L198.88 30.52L198.88-42.32Q198.88-45.34 200.85-47.37Q202.83-49.40 205.84-49.40L205.84-49.40Q208.86-49.40 210.83-47.37Q212.80-45.34 212.80-42.32L212.80-42.32L212.80-12.86L210.83-13.90Q210.83-15.41 212.45-17.56Q214.08-19.70 216.86-21.85Q219.65-24.00 223.30-25.39Q226.95-26.78 231.01-26.78ZM229.27-14.02L229.27-14.02Q224.17-14.02 220.34-11.47Q216.51-8.92 214.37-4.57Q212.22-0.22 212.22 5.35L212.22 5.35Q212.22 10.80 214.37 15.27Q216.51 19.74 220.34 22.29Q224.17 24.84 229.27 24.84L229.27 24.84Q234.38 24.84 238.15 22.29Q241.92 19.74 244.06 15.27Q246.21 10.80 246.21 5.35L246.21 5.35Q246.21-0.22 244.06-4.57Q241.92-8.92 238.15-11.47Q234.38-14.02 229.27-14.02ZM286.23-42.32L286.23 29.36Q286.23 32.38 284.20 34.41Q282.17 36.44 279.15 36.44L279.15 36.44Q276.25 36.44 274.28 34.41Q272.31 32.38 272.31 29.36L272.31 29.36L272.31-42.32Q272.31-45.34 274.34-47.37Q276.37-49.40 279.39-49.40L279.39-49.40Q282.40-49.40 284.32-47.37Q286.23-45.34 286.23-42.32L286.23-42.32ZM329.96 37.60L329.96 37.60Q320.10 37.60 312.85 33.48Q305.60 29.36 301.72 22.29Q297.83 15.21 297.83 6.28L297.83 6.28Q297.83-4.16 302.06-11.53Q306.30-18.89 313.14-22.84Q319.99-26.78 327.64-26.78L327.64-26.78Q333.56-26.78 338.84-24.34Q344.11-21.91 348.17-17.67Q352.23-13.44 354.61-7.87Q356.99-2.30 356.99 3.96L356.99 3.96Q356.87 6.74 354.79 8.48Q352.70 10.22 349.91 10.22L349.91 10.22L305.60 10.22L302.12-1.38L344.69-1.38L342.14 0.94L342.14-2.19Q341.91-5.55 339.76-8.22Q337.62-10.89 334.43-12.45Q331.24-14.02 327.64-14.02L327.64-14.02Q324.16-14.02 321.15-13.09Q318.13-12.16 315.93-9.96Q313.72-7.76 312.45-4.04Q311.17-0.33 311.17 5.35L311.17 5.35Q311.17 11.62 313.78 15.97Q316.39 20.32 320.51 22.58Q324.63 24.84 329.27 24.84L329.27 24.84Q333.56 24.84 336.11 24.14Q338.66 23.45 340.23 22.46Q341.79 21.48 343.07 20.78L343.07 20.78Q345.16 19.74 347.01 19.74L347.01 19.74Q349.57 19.74 351.25 21.48Q352.93 23.22 352.93 25.54L352.93 25.54Q352.93 28.67 349.68 31.22L349.68 31.22Q346.67 33.77 341.21 35.69Q335.76 37.60 329.96 37.60Z"/></g>
</svg>