<svg xmlns="http://www.w3.org/2000/svg" xmlns:xlink="http://www.w3.org/1999/xlink" version="1.1" width="2544" height="1266" viewBox="0 0 2544 1266" xml:space="preserve">
<desc>Created with Fabric.js 3.5.0</desc>
<defs>
</defs>
<rect x="0" y="0" width="100%" height="100%" fill="rgba(186,160,160,0.65)"/>
<g transform="matrix(0.4435 0 0 0.4435 560.9561 654.7032)" id="685584">
<path style="stroke: none; stroke-width: 0; stroke-dasharray: none; stroke-linecap: butt; stroke-dashoffset: 0; stroke-linejoin: round; stroke-miterlimit: 2; is-custom-font: none; font-file-url: none; fill: rgb(0,0,0); fill-rule: nonzero; opacity: 1;" vector-effect="non-scaling-stroke" transform=" translate(-1280, -1279.95)" d="M 1506 1505.95 H 1214.98 V 1214.93 H 1506 Z m -371.51 -80.49 v -291.02 h 291.02 v 50.48 h -225.53 c -8.29 0 -15 6.72 -15 15 v 225.54 z M 1054 1344.97 v -291.02 h 291.02 v 50.49 h -225.53 c -8.29 0 -15 6.71 -15 15 v 225.53 z m 467 -160.05 h -65.49 v -65.48 c 0 -8.29 -6.71 -15 -15 -15 h -65.49 v -65.49 c 0 -8.29 -6.71 -15 -15 -15 H 1039 c -8.29 0 -15 6.71 -15 15 v 321.02 c 0 8.29 6.71 15 15 15 h 65.49 v 65.49 c 0 8.29 6.71 15 15 15 h 65.49 v 65.49 c 0 8.28 6.71 15 15 15 H 1521 c 8.29 0 15 -6.72 15 -15 v -321.03 c 0 -8.28 -6.71 -15 -15 -15" stroke-linecap="round"/>
</g>
<g transform="matrix(15.6336 0 0 15.6336 2231.1585 839.6502)" id="59091">
<path style="stroke: none; stroke-width: 0; stroke-dasharray: none; stroke-linecap: butt; stroke-dashoffset: 0; stroke-linejoin: miter; stroke-miterlimit: 4; is-custom-font: none; font-file-url: none; fill: rgb(0,0,0); fill-rule: nonzero; opacity: 1;" vector-effect="non-scaling-stroke" transform=" translate(-8, -8)" d="m 5 1 h -2 v 11 h 2 z m 4 5 h -2 v 6 h 2 z m 4 -3 h -2 v 9 h 2 z m -12 10.6 v 1.4 h 14 v -1.4 z" stroke-linecap="round"/>
</g>
<g transform="matrix(0.2647 0 0 0.2647 1222.8763 534.2449)" id="141500">
<g style="" vector-effect="non-scaling-stroke">
		<g transform="matrix(25 0 0 25 0 0)" id="icon">
<path style="stroke: none; stroke-width: 1; stroke-dasharray: none; stroke-linecap: butt; stroke-dashoffset: 0; stroke-linejoin: miter; stroke-miterlimit: 4; is-custom-font: none; font-file-url: none; fill: rgb(0,0,0); fill-rule: nonzero; opacity: 1;" transform=" translate(-16, -16)" d="M 27 3 H 5 A 2.002 2.002 0 0 0 3 5 V 27 a 2.0023 2.0023 0 0 0 2 2 H 27 a 2.0027 2.0027 0 0 0 2 -2 V 5 A 2.0023 2.0023 0 0 0 27 3 Z m 0 6 H 17 V 5 H 27 Z M 15 27 H 11 V 23 h 4 Z m 0 -6 H 11 V 17 h 4 Z M 9 21 H 5 V 17 H 9 Z m 2 -6 V 11 H 21 v 4 Z m 0 -6 V 5 h 4 V 9 Z m 12 2 h 4 l 0 4 H 23 Z M 9 5 V 15 H 5 V 5 Z M 5 23 H 9 v 4 H 5 Z m 12 4 V 17 H 27.001 l 0.001 10 Z" stroke-linecap="round"/>
</g>
		<g transform="matrix(25 0 0 25 0 0)" id="_Transparent_Rectangle_">
<rect style="stroke: none; stroke-width: 1; stroke-dasharray: none; stroke-linecap: butt; stroke-dashoffset: 0; stroke-linejoin: miter; stroke-miterlimit: 4; is-custom-font: none; font-file-url: none; fill: none; fill-rule: nonzero; opacity: 1;" x="-16" y="-16" rx="0" ry="0" width="32" height="32"/>
</g>
</g>
</g>
<g transform="matrix(0.4435 0 0 0.4435 282.5211 472.1322)" id="366254">
<path style="stroke: none; stroke-width: 0; stroke-dasharray: none; stroke-linecap: butt; stroke-dashoffset: 0; stroke-linejoin: round; stroke-miterlimit: 2; is-custom-font: none; font-file-url: none; fill: rgb(0,0,0); fill-rule: nonzero; opacity: 1;" vector-effect="non-scaling-stroke" transform=" translate(-1280, -1279.95)" d="M 1506 1505.95 H 1214.98 V 1214.93 H 1506 Z m -371.51 -80.49 v -291.02 h 291.02 v 50.48 h -225.53 c -8.29 0 -15 6.72 -15 15 v 225.54 z M 1054 1344.97 v -291.02 h 291.02 v 50.49 h -225.53 c -8.29 0 -15 6.71 -15 15 v 225.53 z m 467 -160.05 h -65.49 v -65.48 c 0 -8.29 -6.71 -15 -15 -15 h -65.49 v -65.49 c 0 -8.29 -6.71 -15 -15 -15 H 1039 c -8.29 0 -15 6.71 -15 15 v 321.02 c 0 8.29 6.71 15 15 15 h 65.49 v 65.49 c 0 8.29 6.71 15 15 15 h 65.49 v 65.49 c 0 8.28 6.71 15 15 15 H 1521 c 8.29 0 15 -6.72 15 -15 v -321.03 c 0 -8.28 -6.71 -15 -15 -15" stroke-linecap="round"/>
</g>
<g transform="matrix(0 0.2195 -0.2195 0 936.4644 633.0189)" id="664529">
<g style="" vector-effect="non-scaling-stroke">
		<g transform="matrix(33.3333 0 0 33.3333 -0.0002 -0.0003)" id="primary">
<path style="stroke: rgb(0,0,0); stroke-width: 2; stroke-dasharray: none; stroke-linecap: round; stroke-dashoffset: 0; stroke-linejoin: round; stroke-miterlimit: 4; is-custom-font: none; font-file-url: none; fill: none; fill-rule: nonzero; opacity: 1;" transform=" translate(-12, -12)" d="M 7 3 V 21 m 10 0 V 3" stroke-linecap="round"/>
</g>
		<g transform="matrix(33.3333 0 0 33.3333 -166.6668 250)" id="primary-2">
<polyline style="stroke: rgb(0,0,0); stroke-width: 2; stroke-dasharray: none; stroke-linecap: round; stroke-dashoffset: 0; stroke-linejoin: round; stroke-miterlimit: 4; is-custom-font: none; font-file-url: none; fill: none; fill-rule: nonzero; opacity: 1;" points="3,-1.5 0,1.5 -3,-1.5 "/>
</g>
		<g transform="matrix(33.3333 0 0 33.3333 166.6665 -250)" id="primary-3">
<polyline style="stroke: rgb(0,0,0); stroke-width: 2; stroke-dasharray: none; stroke-linecap: round; stroke-dashoffset: 0; stroke-linejoin: round; stroke-miterlimit: 4; is-custom-font: none; font-file-url: none; fill: none; fill-rule: nonzero; opacity: 1;" points="-3,1.5 0,-1.5 3,1.5 "/>
</g>
</g>
</g>
<g transform="matrix(0.4435 0 0 0.4435 282.5463 792.8678)" id="312439">
<path style="stroke: none; stroke-width: 0; stroke-dasharray: none; stroke-linecap: butt; stroke-dashoffset: 0; stroke-linejoin: round; stroke-miterlimit: 2; is-custom-font: none; font-file-url: none; fill: rgb(0,0,0); fill-rule: nonzero; opacity: 1;" vector-effect="non-scaling-stroke" transform=" translate(-1280, -1279.95)" d="M 1506 1505.95 H 1214.98 V 1214.93 H 1506 Z m -371.51 -80.49 v -291.02 h 291.02 v 50.48 h -225.53 c -8.29 0 -15 6.72 -15 15 v 225.54 z M 1054 1344.97 v -291.02 h 291.02 v 50.49 h -225.53 c -8.29 0 -15 6.71 -15 15 v 225.53 z m 467 -160.05 h -65.49 v -65.48 c 0 -8.29 -6.71 -15 -15 -15 h -65.49 v -65.49 c 0 -8.29 -6.71 -15 -15 -15 H 1039 c -8.29 0 -15 6.71 -15 15 v 321.02 c 0 8.29 6.71 15 15 15 h 65.49 v 65.49 c 0 8.29 6.71 15 15 15 h 65.49 v 65.49 c 0 8.28 6.71 15 15 15 H 1521 c 8.29 0 15 -6.72 15 -15 v -321.03 c 0 -8.28 -6.71 -15 -15 -15" stroke-linecap="round"/>
</g>
<g transform="matrix(0.2647 0 0 0.2647 1338.6662 654.4901)" id="124193">
<g style="" vector-effect="non-scaling-stroke">
		<g transform="matrix(25 0 0 25 0 0)" id="icon">
<path style="stroke: none; stroke-width: 1; stroke-dasharray: none; stroke-linecap: butt; stroke-dashoffset: 0; stroke-linejoin: miter; stroke-miterlimit: 4; is-custom-font: none; font-file-url: none; fill: rgb(0,0,0); fill-rule: nonzero; opacity: 1;" transform=" translate(-16, -16)" d="M 27 3 H 5 A 2.002 2.002 0 0 0 3 5 V 27 a 2.0023 2.0023 0 0 0 2 2 H 27 a 2.0027 2.0027 0 0 0 2 -2 V 5 A 2.0023 2.0023 0 0 0 27 3 Z m 0 6 H 17 V 5 H 27 Z M 15 27 H 11 V 23 h 4 Z m 0 -6 H 11 V 17 h 4 Z M 9 21 H 5 V 17 H 9 Z m 2 -6 V 11 H 21 v 4 Z m 0 -6 V 5 h 4 V 9 Z m 12 2 h 4 l 0 4 H 23 Z M 9 5 V 15 H 5 V 5 Z M 5 23 H 9 v 4 H 5 Z m 12 4 V 17 H 27.001 l 0.001 10 Z" stroke-linecap="round"/>
</g>
		<g transform="matrix(25 0 0 25 0 0)" id="_Transparent_Rectangle_">
<rect style="stroke: none; stroke-width: 1; stroke-dasharray: none; stroke-linecap: butt; stroke-dashoffset: 0; stroke-linejoin: miter; stroke-miterlimit: 4; is-custom-font: none; font-file-url: none; fill: none; fill-rule: nonzero; opacity: 1;" x="-16" y="-16" rx="0" ry="0" width="32" height="32"/>
</g>
</g>
</g>
<g transform="matrix(0.2647 0 0 0.2647 1465.5943 754.6862)" id="526610">
<g style="" vector-effect="non-scaling-stroke">
		<g transform="matrix(25 0 0 25 0 0)" id="icon">
<path style="stroke: none; stroke-width: 1; stroke-dasharray: none; stroke-linecap: butt; stroke-dashoffset: 0; stroke-linejoin: miter; stroke-miterlimit: 4; is-custom-font: none; font-file-url: none; fill: rgb(0,0,0); fill-rule: nonzero; opacity: 1;" transform=" translate(-16, -16)" d="M 27 3 H 5 A 2.002 2.002 0 0 0 3 5 V 27 a 2.0023 2.0023 0 0 0 2 2 H 27 a 2.0027 2.0027 0 0 0 2 -2 V 5 A 2.0023 2.0023 0 0 0 27 3 Z m 0 6 H 17 V 5 H 27 Z M 15 27 H 11 V 23 h 4 Z m 0 -6 H 11 V 17 h 4 Z M 9 21 H 5 V 17 H 9 Z m 2 -6 V 11 H 21 v 4 Z m 0 -6 V 5 h 4 V 9 Z m 12 2 h 4 l 0 4 H 23 Z M 9 5 V 15 H 5 V 5 Z M 5 23 H 9 v 4 H 5 Z m 12 4 V 17 H 27.001 l 0.001 10 Z" stroke-linecap="round"/>
</g>
		<g transform="matrix(25 0 0 25 0 0)" id="_Transparent_Rectangle_">
<rect style="stroke: none; stroke-width: 1; stroke-dasharray: none; stroke-linecap: butt; stroke-dashoffset: 0; stroke-linejoin: miter; stroke-miterlimit: 4; is-custom-font: none; font-file-url: none; fill: none; fill-rule: nonzero; opacity: 1;" x="-16" y="-16" rx="0" ry="0" width="32" height="32"/>
</g>
</g>
</g>
<g transform="matrix(0 0.2195 -0.2195 0 1802.9793 633)" id="144771">
<g style="" vector-effect="non-scaling-stroke">
		<g transform="matrix(33.3333 0 0 33.3333 -0.0002 -0.0003)" id="primary">
<path style="stroke: rgb(0,0,0); stroke-width: 2; stroke-dasharray: none; stroke-linecap: round; stroke-dashoffset: 0; stroke-linejoin: round; stroke-miterlimit: 4; is-custom-font: none; font-file-url: none; fill: none; fill-rule: nonzero; opacity: 1;" transform=" translate(-12, -12)" d="M 7 3 V 21 m 10 0 V 3" stroke-linecap="round"/>
</g>
		<g transform="matrix(33.3333 0 0 33.3333 -166.6668 250)" id="primary-2">
<polyline style="stroke: rgb(0,0,0); stroke-width: 2; stroke-dasharray: none; stroke-linecap: round; stroke-dashoffset: 0; stroke-linejoin: round; stroke-miterlimit: 4; is-custom-font: none; font-file-url: none; fill: none; fill-rule: nonzero; opacity: 1;" points="3,-1.5 0,1.5 -3,-1.5 "/>
</g>
		<g transform="matrix(33.3333 0 0 33.3333 166.6665 -250)" id="primary-3">
<polyline style="stroke: rgb(0,0,0); stroke-width: 2; stroke-dasharray: none; stroke-linecap: round; stroke-dashoffset: 0; stroke-linejoin: round; stroke-miterlimit: 4; is-custom-font: none; font-file-url: none; fill: none; fill-rule: nonzero; opacity: 1;" points="-3,1.5 0,-1.5 3,1.5 "/>
</g>
</g>
</g>
<g transform="matrix(8.4187 0 0 8.4187 2231.6587 507.6186)" id="704044">
<g style="" vector-effect="non-scaling-stroke">
		<g transform="matrix(1 0 0 1 0 -0.5)" id="icon">
<path style="stroke: none; stroke-width: 1; stroke-dasharray: none; stroke-linecap: butt; stroke-dashoffset: 0; stroke-linejoin: miter; stroke-miterlimit: 4; is-custom-font: none; font-file-url: none; fill: rgb(0,0,0); fill-rule: nonzero; opacity: 1;" transform=" translate(-16, -15.5)" d="M 28.4473 16.1055 L 23 13.3818 V 7 a 1 1 0 0 0 -0.5527 -0.8945 l -6 -3 a 1.0008 1.0008 0 0 0 -0.8946 0 l -6 3 A 1 1 0 0 0 9 7 v 6.3818 L 3.5527 16.1055 A 1 1 0 0 0 3 17 v 7 a 1 1 0 0 0 0.5527 0.8945 l 6 3 a 1.001 1.001 0 0 0 0.8946 0 L 16 25.1182 l 5.5527 2.7763 a 1.001 1.001 0 0 0 0.8946 0 l 6 -3 A 1 1 0 0 0 29 24 V 17 A 1 1 0 0 0 28.4473 16.1055 Z M 21 13.3818 l -4 2 V 10.6182 l 4 -2 Z M 16 5.1182 L 19.7637 7 L 16 8.8818 L 12.2363 7 Z m -5 3.5 l 4 2 v 4.7636 l -4 -2 Z M 9 25.3818 l -4 -2 V 18.6182 l 4 2 Z m 1 -6.5 L 6.2363 17 L 10 15.1182 L 13.7637 17 Z m 1 1.7364 l 4 -2 v 4.7636 l -4 2 Z m 10 4.7636 l -4 -2 V 18.6182 l 4 2 Z m 1 -6.5 L 18.2363 17 L 22 15.1182 L 25.7637 17 Z m 5 4.5 l -4 2 V 20.6182 l 4 -2 Z" stroke-linecap="round"/>
</g>
		<g transform="matrix(1 0 0 1 0 0)" id="_Transparent_Rectangle_">
<rect style="stroke: none; stroke-width: 1; stroke-dasharray: none; stroke-linecap: butt; stroke-dashoffset: 0; stroke-linejoin: miter; stroke-miterlimit: 4; is-custom-font: none; font-file-url: none; fill: none; fill-rule: nonzero; opacity: 1;" x="-16" y="-16" rx="0" ry="0" width="32" height="32"/>
</g>
</g>
</g>
<g transform="matrix(3.1715 0 0 3.1715 960.5563 948.8523)" id="264638">
<g style="" vector-effect="non-scaling-stroke">
		<g transform="matrix(1 0 0 1 -10 -12)" id="Layer_32">
<path style="stroke: none; stroke-width: 1; stroke-dasharray: none; stroke-linecap: butt; stroke-dashoffset: 0; stroke-linejoin: miter; stroke-miterlimit: 4; is-custom-font: none; font-file-url: none; fill: rgb(159,156,156); fill-opacity: 0; fill-rule: nonzero; opacity: 1;" transform=" translate(-22, -20)" d="M 10 38 a 5 5 0 0 1 -3 -9 a 5 5 0 0 1 0 -8 a 5 5 0 0 1 0.07 -8.05 A 5.987 5.987 0 0 1 7 12 a 6.984 6.984 0 0 1 5.73 -6.88 A 6.018 6.018 0 0 1 18 2 a 5.931 5.931 0 0 1 4 1.54 A 5.931 5.931 0 0 1 26 2 a 6.018 6.018 0 0 1 5.27 3.12 A 6.984 6.984 0 0 1 37 12 a 5.987 5.987 0 0 1 -0.07 0.95 A 5 5 0 0 1 37 21 a 5 5 0 0 1 0 8 a 5 5 0 0 1 -3 9 Z" stroke-linecap="round"/>
</g>
		<g transform="matrix(1 0 0 1 -10 -12)" id="Layer_32">
<path style="stroke: none; stroke-width: 1; stroke-dasharray: none; stroke-linecap: butt; stroke-dashoffset: 0; stroke-linejoin: miter; stroke-miterlimit: 4; is-custom-font: none; font-file-url: none; fill: rgb(188,175,173); fill-opacity: 0; fill-rule: nonzero; opacity: 1;" transform=" translate(-22, -20)" d="M 10 36 a 3 3 0 0 1 -1.8 -5.4 L 10.327 29 L 8.2 27.4 a 3 3 0 0 1 0 -4.8 L 10.327 21 L 8.2 19.4 A 3.022 3.022 0 0 1 7 17 a 2.985 2.985 0 0 1 1.247 -2.433 l 0.992 -0.722 l -0.2 -1.212 A 4.117 4.117 0 0 1 9 12 a 4.98 4.98 0 0 1 4.086 -4.912 l 0.934 -0.169 l 0.46 -0.83 A 4.031 4.031 0 0 1 18 4 a 3.956 3.956 0 0 1 2.658 1.022 L 22 6.238 l 1.342 -1.216 A 3.956 3.956 0 0 1 26 4 a 4.031 4.031 0 0 1 3.52 2.089 l 0.46 0.83 l 0.934 0.169 A 4.98 4.98 0 0 1 35 12 a 4.117 4.117 0 0 1 -0.044 0.633 l -0.2 1.212 l 0.992 0.722 A 2.985 2.985 0 0 1 37 17 a 3.022 3.022 0 0 1 -1.2 2.4 L 33.673 21 L 35.8 22.6 a 3 3 0 0 1 0 4.8 L 33.673 29 L 35.8 30.6 A 3 3 0 0 1 34 36 Z" stroke-linecap="round"/>
</g>
		<g transform="matrix(1 0 0 1 -10 9.5)" id="Layer_32">
<path style="stroke: none; stroke-width: 1; stroke-dasharray: none; stroke-linecap: butt; stroke-dashoffset: 0; stroke-linejoin: miter; stroke-miterlimit: 4; is-custom-font: none; font-file-url: none; fill: rgb(180,181,184); fill-opacity: 0; fill-rule: nonzero; opacity: 1;" transform=" translate(-22, -41.5)" d="M 18 26 v 6 L 6.682 36.244 A 7.215 7.215 0 0 0 2 43 H 2 V 57 H 42 V 43 a 7.215 7.215 0 0 0 -4.682 -6.756 L 26 32 V 26 Z" stroke-linecap="round"/>
</g>
		<g transform="matrix(1 0 0 1 -10 3)" id="Layer_32">
<polygon style="stroke: none; stroke-width: 1; stroke-dasharray: none; stroke-linecap: butt; stroke-dashoffset: 0; stroke-linejoin: miter; stroke-miterlimit: 4; is-custom-font: none; font-file-url: none; fill: rgb(233,186,164); fill-opacity: 0; fill-rule: nonzero; opacity: 1;" points="8,-1.5 4,-3 4,-8 -4,-8 -4,-3 -8,-1.5 -8,8 8,8 8,-1.5 "/>
</g>
		<g transform="matrix(1 0 0 1 -10 -13)" id="Layer_32">
<path style="stroke: none; stroke-width: 1; stroke-dasharray: none; stroke-linecap: butt; stroke-dashoffset: 0; stroke-linejoin: miter; stroke-miterlimit: 4; is-custom-font: none; font-file-url: none; fill: rgb(131,129,129); fill-opacity: 0; fill-rule: nonzero; opacity: 1;" transform=" translate(-22, -19)" d="M 30.857 16 H 31 a 3 3 0 0 1 3 3 h 0 a 3 3 0 0 1 -3 3 H 13 a 3 3 0 0 1 -3 -3 h 0 a 3 3 0 0 1 3 -3 H 30.857 Z" stroke-linecap="round"/>
</g>
		<g transform="matrix(1 0 0 1 -10 -3.5)" id="Layer_32">
<path style="stroke: none; stroke-width: 1; stroke-dasharray: none; stroke-linecap: butt; stroke-dashoffset: 0; stroke-linejoin: miter; stroke-miterlimit: 4; is-custom-font: none; font-file-url: none; fill: rgb(131,129,129); fill-opacity: 0; fill-rule: nonzero; opacity: 1;" transform=" translate(-22, -28.5)" d="M 18 29.933 a 8.031 8.031 0 0 0 8 0 V 26 H 18 Z" stroke-linecap="round"/>
</g>
		<g transform="matrix(1 0 0 1 -10 -12.5)" id="Layer_32">
<path style="stroke: none; stroke-width: 1; stroke-dasharray: none; stroke-linecap: butt; stroke-dashoffset: 0; stroke-linejoin: miter; stroke-miterlimit: 4; is-custom-font: none; font-file-url: none; fill: rgb(233,186,164); fill-opacity: 0; fill-rule: nonzero; opacity: 1;" transform=" translate(-22, -19.5)" d="M 13 15 l 1.01 7.07 A 8.07 8.07 0 0 0 22 29 h 0 a 8.07 8.07 0 0 0 7.99 -6.93 L 31 15 H 29.385 A 7.954 7.954 0 0 1 22 10 h 0 a 7.954 7.954 0 0 1 -7.385 5 Z" stroke-linecap="round"/>
</g>
		<g transform="matrix(1 0 0 1 -10 9)" id="Layer_32">
<rect style="stroke: none; stroke-width: 1; stroke-dasharray: none; stroke-linecap: butt; stroke-dashoffset: 0; stroke-linejoin: miter; stroke-miterlimit: 4; is-custom-font: none; font-file-url: none; fill: rgb(131,129,129); fill-opacity: 0; fill-rule: nonzero; opacity: 1;" x="-7" y="-2" rx="0" ry="0" width="14" height="4"/>
</g>
		<g transform="matrix(1 0 0 1 -10 17)" id="Layer_32">
<polygon style="stroke: none; stroke-width: 1; stroke-dasharray: none; stroke-linecap: butt; stroke-dashoffset: 0; stroke-linejoin: miter; stroke-miterlimit: 4; is-custom-font: none; font-file-url: none; fill: rgb(179,171,157); fill-opacity: 0; fill-rule: nonzero; opacity: 1;" points="-8,-8 8,-8 2,8 -2,8 -8,-8 "/>
</g>
		<g transform="matrix(1 0 0 1 -16.5 13.095)" id="Layer_32">
<polygon style="stroke: none; stroke-width: 1; stroke-dasharray: none; stroke-linecap: butt; stroke-dashoffset: 0; stroke-linejoin: miter; stroke-miterlimit: 4; is-custom-font: none; font-file-url: none; fill: rgb(143,144,147); fill-opacity: 0; fill-rule: nonzero; opacity: 1;" points="-4.194,-10.585 -5.5,-2.095 -2.5,-2.095 -2.5,2.905 2.5,11.905 5.5,11.905 -0.673,-11.905 -4.194,-10.585 "/>
</g>
		<g transform="matrix(1 0 0 1 -2.481 13.095)" id="Layer_32">
<polygon style="stroke: none; stroke-width: 1; stroke-dasharray: none; stroke-linecap: butt; stroke-dashoffset: 0; stroke-linejoin: miter; stroke-miterlimit: 4; is-custom-font: none; font-file-url: none; fill: rgb(143,144,147); fill-opacity: 0; fill-rule: nonzero; opacity: 1;" points="6.519,-9.331 -0.346,-11.905 -6.519,11.905 -3.519,11.905 1.481,2.905 6.519,-9.331 "/>
</g>
		<g transform="matrix(1 0 0 1 -23 19)" id="Layer_32">
<rect style="stroke: none; stroke-width: 1; stroke-dasharray: none; stroke-linecap: butt; stroke-dashoffset: 0; stroke-linejoin: miter; stroke-miterlimit: 4; is-custom-font: none; font-file-url: none; fill: rgb(92,98,106); fill-opacity: 0; fill-rule: nonzero; opacity: 1;" x="-1" y="-6" rx="0" ry="0" width="2" height="12"/>
</g>
		<g transform="matrix(1 0 0 1 14 14)" id="Layer_32">
<circle style="stroke: none; stroke-width: 1; stroke-dasharray: none; stroke-linecap: butt; stroke-dashoffset: 0; stroke-linejoin: miter; stroke-miterlimit: 4; is-custom-font: none; font-file-url: none; fill: rgb(230,227,226); fill-opacity: 0; fill-rule: nonzero; opacity: 1;" cx="0" cy="0" r="16"/>
</g>
		<g transform="matrix(1 0 0 1 15.5064 12.4917)" id="Layer_32">
<path style="stroke: none; stroke-width: 1; stroke-dasharray: none; stroke-linecap: butt; stroke-dashoffset: 0; stroke-linejoin: miter; stroke-miterlimit: 4; is-custom-font: none; font-file-url: none; fill: rgb(186,160,160); fill-opacity: 0; fill-rule: nonzero; opacity: 1;" transform=" translate(-47.5064, -44.4917)" d="M 46 30 a 15.911 15.911 0 0 0 -9.7 3.3 A 15.98 15.98 0 0 0 58.7 55.7 A 15.98 15.98 0 0 0 46 30 Z" stroke-linecap="round"/>
</g>
		<g transform="matrix(1 0 0 1 14 14)" id="Layer_32">
<path style="stroke: none; stroke-width: 1; stroke-dasharray: none; stroke-linecap: butt; stroke-dashoffset: 0; stroke-linejoin: miter; stroke-miterlimit: 4; is-custom-font: none; font-file-url: none; fill: rgb(54,83,155); fill-opacity: 0; fill-rule: nonzero; opacity: 1;" transform=" translate(-46, -46)" d="M 56 43 h -0.46 a 9.244 9.244 0 0 0 -0.68 -1.62 l 0.33 -0.33 l 0.71 -2.12 L 53.07 36.1 l -2.12 0.71 l -0.33 0.33 A 9.244 9.244 0 0 0 49 36.46 V 36 l -1 -2 H 44 l -1 2 v 0.46 a 9.244 9.244 0 0 0 -1.62 0.68 l -0.33 -0.33 l -2.12 -0.71 L 36.1 38.93 l 0.71 2.12 l 0.33 0.33 A 9.244 9.244 0 0 0 36.46 43 H 36 l -2 1 v 4 l 2 1 h 0.46 a 9.244 9.244 0 0 0 0.68 1.62 l -0.33 0.33 l -0.71 2.12 l 2.83 2.83 l 2.12 -0.71 l 0.33 -0.33 a 9.244 9.244 0 0 0 1.62 0.68 V 56 l 1 2 h 4 l 1 -2 v -0.46 a 9.244 9.244 0 0 0 1.62 -0.68 l 0.33 0.33 l 2.12 0.71 l 2.83 -2.83 l -0.71 -2.12 l -0.33 -0.33 A 9.244 9.244 0 0 0 55.54 49 H 56 l 2 -1 V 44 Z M 46 51 a 5 5 0 1 1 5 -5 A 5 5 0 0 1 46 51 Z" stroke-linecap="round"/>
</g>
		<g transform="matrix(1 0 0 1 0.0071 0.0002)" id="Layer_32">
<path style="stroke: none; stroke-width: 1; stroke-dasharray: none; stroke-linecap: butt; stroke-dashoffset: 0; stroke-linejoin: miter; stroke-miterlimit: 4; is-custom-font: none; font-file-url: none; fill: rgb(8,8,8); fill-rule: nonzero; opacity: 1;" transform=" translate(-32.0071, -32.0002)" d="M 46 29 a 16.915 16.915 0 0 0 -6.63 1.347 a 6.039 6.039 0 0 0 -0.9 -1.347 a 5.991 5.991 0 0 0 0 -8 a 5.991 5.991 0 0 0 -0.486 -8.483 c 0.012 -0.167 0.017 -0.34 0.017 -0.517 a 7.98 7.98 0 0 0 -6.1 -7.768 A 7.033 7.033 0 0 0 26 1 a 6.946 6.946 0 0 0 -4 1.262 A 6.946 6.946 0 0 0 18 1 a 7.033 7.033 0 0 0 -5.9 3.232 A 7.98 7.98 0 0 0 6 12 c 0 0.177 0 0.35 0.017 0.517 A 5.991 5.991 0 0 0 5.531 21 a 5.991 5.991 0 0 0 0 8 a 5.967 5.967 0 0 0 -0.678 7.065 A 8.244 8.244 0 0 0 1 43 V 57 a 1 1 0 0 0 1 1 H 33.971 A 17 17 0 1 0 46 29 Z M 7.6 28.2 a 4 4 0 0 1 0 -6.4 a 1 1 0 0 0 0 -1.6 A 4.029 4.029 0 0 1 6 17 a 3.971 3.971 0 0 1 1.658 -3.241 a 1 1 0 0 0 0.4 -0.967 A 5.036 5.036 0 0 1 8 12 a 5.98 5.98 0 0 1 4.908 -5.9 a 1 1 0 0 0 0.7 -0.5 A 5.032 5.032 0 0 1 18 3 a 4.95 4.95 0 0 1 3.329 1.281 a 1 1 0 0 0 1.342 0 A 4.95 4.95 0 0 1 26 3 A 5.032 5.032 0 0 1 30.4 5.6 a 1 1 0 0 0 0.7 0.5 A 5.98 5.98 0 0 1 36 12 a 5.036 5.036 0 0 1 -0.057 0.792 a 1 1 0 0 0 0.4 0.967 A 3.971 3.971 0 0 1 38 17 a 4.029 4.029 0 0 1 -1.6 3.2 a 1 1 0 0 0 0 1.6 a 4 4 0 0 1 0 6.4 a 1 1 0 0 0 0 1.6 a 4.046 4.046 0 0 1 1.188 1.448 a 17.114 17.114 0 0 0 -3.557 2.7 L 27 31.308 V 28.472 A 9.1 9.1 0 0 0 30.829 23 H 31 a 3.992 3.992 0 0 0 0.99 -7.861 A 1 1 0 0 0 31 14 H 29.385 a 6.92 6.92 0 0 1 -6.456 -4.372 a 1 1 0 0 0 -1.858 0 A 6.92 6.92 0 0 1 14.615 14 H 13 a 1 1 0 0 0 -0.99 1.139 A 3.992 3.992 0 0 0 13 23 h 0.171 A 9.1 9.1 0 0 0 17 28.472 v 2.836 L 6.658 35.185 A 3.975 3.975 0 0 1 6 33 a 4.029 4.029 0 0 1 1.6 -3.2 a 1 1 0 0 0 0 -1.6 Z M 29.286 49.027 L 25.412 56 h -1.12 l 5.57 -21.483 l 2.757 1.034 a 16.737 16.737 0 0 0 -3.333 13.476 Z M 13 42 H 11.166 l 1.039 -6.758 l 1.933 -0.725 L 19.708 56 h -1.12 L 14 47.741 V 43 A 1 1 0 0 0 13 42 Z m 9 -14 a 7.106 7.106 0 0 1 -7 -6.071 L 14.153 16 h 0.462 A 8.9 8.9 0 0 0 22 12.115 A 8.9 8.9 0 0 0 29.385 16 h 0.462 L 29 21.929 A 7.106 7.106 0 0 1 22 28 Z m -3 4 V 29.476 a 8.85 8.85 0 0 0 6 0 V 32 a 1 1 0 0 0 0.649 0.937 l 2.33 0.874 L 26.374 40 H 17.626 l -1.605 -6.189 l 2.33 -0.874 A 1 1 0 0 0 19 32 Z m -0.856 10 h 7.712 l -3.63 14 h -0.452 Z M 33 19 a 2 2 0 0 1 -1.845 1.984 l 0.55 -3.849 A 2 2 0 0 1 33 19 Z M 12.3 17.135 l 0.55 3.849 a 1.99 1.99 0 0 1 -0.55 -3.849 Z M 3 43 a 6.243 6.243 0 0 1 4.033 -5.819 l 3.025 -1.134 l -1.046 6.8 A 1 1 0 0 0 10 44 h 2 v 4 a 1 1 0 0 0 0.126 0.486 L 16.3 56 H 3 Z M 27.7 56 l 2.339 -4.208 A 16.923 16.923 0 0 0 32.283 56 Z M 46 61 A 15 15 0 1 1 61 46 A 15.017 15.017 0 0 1 46 61 Z" stroke-linecap="round"/>
</g>
		<g transform="matrix(1 0 0 1 14 14)" id="Layer_32">
<path style="stroke: none; stroke-width: 1; stroke-dasharray: none; stroke-linecap: butt; stroke-dashoffset: 0; stroke-linejoin: miter; stroke-miterlimit: 4; is-custom-font: none; font-file-url: none; fill: rgb(8,8,8); fill-rule: nonzero; opacity: 1;" transform=" translate(-46, -46)" d="M 52.752 35.152 l -2.119 0.71 a 1.038 1.038 0 0 0 -0.18 0.08 c -0.157 -0.069 -0.319 -0.137 -0.487 -0.2 a 1.142 1.142 0 0 0 -0.071 -0.187 l -1 -2 A 1 1 0 0 0 48 33 H 44 a 1 1 0 0 0 -0.9 0.553 l -1 2 a 1.142 1.142 0 0 0 -0.071 0.187 c -0.168 0.065 -0.33 0.133 -0.487 0.2 a 1.038 1.038 0 0 0 -0.18 -0.08 l -2.119 -0.71 a 1 1 0 0 0 -1.025 0.241 l -2.83 2.83 a 1 1 0 0 0 -0.241 1.025 l 0.71 2.119 a 1.038 1.038 0 0 0 0.08 0.18 c -0.069 0.157 -0.137 0.319 -0.2 0.487 a 1.142 1.142 0 0 0 -0.187 0.071 l -2 1 A 1 1 0 0 0 33 44 v 4 a 1 1 0 0 0 0.553 0.9 l 2 1 a 1.142 1.142 0 0 0 0.187 0.071 c 0.065 0.168 0.133 0.33 0.2 0.487 a 1.038 1.038 0 0 0 -0.08 0.18 l -0.71 2.119 a 1 1 0 0 0 0.241 1.025 l 2.83 2.83 a 1 1 0 0 0 1.025 0.241 l 2.119 -0.71 a 1.038 1.038 0 0 0 0.18 -0.08 c 0.157 0.069 0.319 0.137 0.487 0.2 a 1.142 1.142 0 0 0 0.071 0.187 l 1 2 A 1 1 0 0 0 44 59 h 4 a 1 1 0 0 0 0.9 -0.553 l 1 -2 a 1.142 1.142 0 0 0 0.071 -0.187 c 0.168 -0.065 0.33 -0.133 0.487 -0.2 a 1.038 1.038 0 0 0 0.18 0.08 l 2.119 0.71 a 1 1 0 0 0 1.025 -0.241 l 2.83 -2.83 a 1 1 0 0 0 0.241 -1.025 l -0.71 -2.119 a 1.038 1.038 0 0 0 -0.08 -0.18 c 0.069 -0.157 0.137 -0.319 0.2 -0.487 a 1.142 1.142 0 0 0 0.187 -0.071 l 2 -1 A 1 1 0 0 0 59 48 V 44 a 1 1 0 0 0 -0.553 -0.9 l -2 -1 a 1.142 1.142 0 0 0 -0.187 -0.071 c -0.065 -0.168 -0.133 -0.33 -0.2 -0.487 a 1.038 1.038 0 0 0 0.08 -0.18 l 0.71 -2.119 a 1 1 0 0 0 -0.241 -1.025 l -2.83 -2.83 A 1 1 0 0 0 52.752 35.152 Z m 1.231 6.709 a 8.259 8.259 0 0 1 0.605 1.445 A 1 1 0 0 0 55.54 44 h 0.224 L 57 44.618 v 2.764 L 55.764 48 H 55.54 a 1 1 0 0 0 -0.952 0.694 a 8.259 8.259 0 0 1 -0.605 1.445 a 1 1 0 0 0 0.17 1.188 l 0.163 0.164 l 0.439 1.309 L 52.8 54.755 l -1.309 -0.439 l -0.164 -0.163 a 1 1 0 0 0 -1.188 -0.17 a 8.259 8.259 0 0 1 -1.445 0.605 A 1 1 0 0 0 48 55.54 v 0.224 L 47.382 57 H 44.618 L 44 55.764 V 55.54 a 1 1 0 0 0 -0.694 -0.952 a 8.259 8.259 0 0 1 -1.445 -0.605 a 1 1 0 0 0 -1.188 0.17 l -0.164 0.163 l -1.309 0.439 L 37.245 52.8 l 0.439 -1.309 l 0.163 -0.164 a 1 1 0 0 0 0.17 -1.188 a 8.259 8.259 0 0 1 -0.605 -1.445 A 1 1 0 0 0 36.46 48 h -0.224 L 35 47.382 V 44.618 L 36.236 44 h 0.224 a 1 1 0 0 0 0.952 -0.694 a 8.259 8.259 0 0 1 0.605 -1.445 a 1 1 0 0 0 -0.17 -1.188 l -0.163 -0.164 L 37.245 39.2 L 39.2 37.245 l 1.309 0.439 l 0.164 0.163 a 1 1 0 0 0 1.188 0.17 a 8.259 8.259 0 0 1 1.445 -0.605 A 1 1 0 0 0 44 36.46 v -0.224 L 44.618 35 h 2.764 L 48 36.236 v 0.224 a 1 1 0 0 0 0.694 0.952 a 8.259 8.259 0 0 1 1.445 0.605 a 1 1 0 0 0 1.188 -0.17 l 0.164 -0.163 l 1.309 -0.439 L 54.755 39.2 l -0.439 1.309 l -0.163 0.164 A 1 1 0 0 0 53.983 41.861 Z" stroke-linecap="round"/>
</g>
		<g transform="matrix(1 0 0 1 14 14)" id="Layer_32">
<path style="stroke: none; stroke-width: 1; stroke-dasharray: none; stroke-linecap: butt; stroke-dashoffset: 0; stroke-linejoin: miter; stroke-miterlimit: 4; is-custom-font: none; font-file-url: none; fill: rgb(8,8,8); fill-rule: nonzero; opacity: 1;" transform=" translate(-46, -46)" d="M 46 40 a 6 6 0 1 0 6 6 A 6.006 6.006 0 0 0 46 40 Z m 0 10 a 4 4 0 1 1 4 -4 A 4 4 0 0 1 46 50 Z" stroke-linecap="round"/>
</g>
</g>
</g>
<g transform="matrix(0.56 0 0 0.56 903.3209 126.1756)" id="281944">
<g style="">
		<g transform="matrix(8.7819 0 0 8.7819 0 0)" id="733447">
<path style="stroke: none; stroke-width: 2; stroke-dasharray: none; stroke-linecap: butt; stroke-dashoffset: 0; stroke-linejoin: miter; stroke-miterlimit: 4; is-custom-font: none; font-file-url: none; fill: rgb(12,35,64); fill-rule: nonzero; opacity: 1;" vector-effect="non-scaling-stroke" transform=" translate(-15, -15)" d="M 8.2441406 4 L 10.244141 6 L 23 6 C 23.571297 6 24 6.4287 24 7 L 24 19.755859 L 26 21.755859 L 26 7 C 26 5.3553 24.644703 4 23 4 L 8.2441406 4 z M 4 8.2441406 L 4 23 C 4 24.6447 5.3552972 26 7 26 L 21.755859 26 L 19.755859 24 L 7 24 C 6.4287028 24 6 23.5713 6 23 L 6 10.244141 L 4 8.2441406 z" stroke-linecap="round"/>
</g>
		<g transform="matrix(2.3018 0 0 2.3018 -11.6838 8.7258)" id="419899">
<g style="" vector-effect="non-scaling-stroke">
		<g transform="matrix(1 0 0 1 -1.9 -21.4)" id="Layer_3">
<path style="stroke: none; stroke-width: 1; stroke-dasharray: none; stroke-linecap: butt; stroke-dashoffset: 0; stroke-linejoin: miter; stroke-miterlimit: 4; is-custom-font: none; font-file-url: none; fill: rgb(12,35,64); fill-rule: nonzero; opacity: 1;" transform=" translate(-27.1, -13.6)" d="M 27.1 22.6 c 5 0 9 -4 9 -9 s -4 -9 -9 -9 s -9 4 -9 9 S 22.1 22.6 27.1 22.6 z M 27.1 7.5 c 3.3 0 6 2.7 6 6 s -2.7 6 -6 6 s -6 -2.7 -6 -6 S 23.7 7.5 27.1 7.5 z" stroke-linecap="round"/>
</g>
		<g transform="matrix(1 0 0 1 0.027 10.6186)" id="Layer_3">
<path style="stroke: none; stroke-width: 1; stroke-dasharray: none; stroke-linecap: butt; stroke-dashoffset: 0; stroke-linejoin: miter; stroke-miterlimit: 4; is-custom-font: none; font-file-url: none; fill: rgb(12,35,64); fill-rule: nonzero; opacity: 1;" transform=" translate(-29.027, -45.6187)" d="M 52.3 45.9 C 49 32 35.1 23.3 21.2 26.5 c 0 0 0 0 0 0 c -6.7 1.6 -12.5 5.7 -16.1 11.6 l 2.6 1.6 c 6.7 -10.7 20.8 -14 31.5 -7.4 c 5.2 3.2 8.8 8.3 10.2 14.2 c 1.4 5.9 0.4 12.1 -2.8 17.3 l 2.6 1.6 C 52.7 59.6 53.8 52.6 52.3 45.9 z" stroke-linecap="round"/>
</g>
</g>
</g>
		<g transform="matrix(0.1442 0 0 0.1442 39.7776 -31.5192)" id="126508">
<polygon style="stroke: none; stroke-width: 1; stroke-dasharray: none; stroke-linecap: butt; stroke-dashoffset: 0; stroke-linejoin: miter; stroke-miterlimit: 4; is-custom-font: none; font-file-url: none; fill: rgb(211,67,13); fill-rule: nonzero; opacity: 1;" vector-effect="non-scaling-stroke" points="192,-32 32,-32 32,-192 -32,-192 -32,-32 -192,-32 -192,32 -32,32 -32,192 32,192 32,32 192,32 "/>
</g>
</g>
</g>
<g transform="matrix(1 0 0 1 1222.8764 130.9621)" style="" id="16575">
		
<path xml:space="preserve" font-family="Quicksand" font-size="104" font-weight="bold" style="stroke: none; stroke-width: 0; stroke-dasharray: none; stroke-linecap: butt; stroke-dashoffset: 0; stroke-linejoin: miter; stroke-miterlimit: 4; is-custom-font: none; font-file-url: none; fill: rgb(211,67,13); fill-rule: nonzero; opacity: 1; white-space: pre;" d="M-180.65-40.13L-155.79-40.13Q-148.30-40.13-142.48-37.32Q-136.66-34.51-132.65-29.47Q-128.65-24.43-126.62-17.82Q-124.59-11.22-124.59-3.73L-124.59-3.73Q-124.59 6.36-128.23 14.63Q-131.87 22.89-138.79 27.78Q-145.70 32.67-155.79 32.67L-155.79 32.67L-180.65 32.67Q-183.35 32.67-185.17 30.85Q-186.99 29.03-186.99 26.33L-186.99 26.33L-186.99-33.79Q-186.99-36.49-185.17-38.31Q-183.35-40.13-180.65-40.13L-180.65-40.13ZM-174.62 20.71L-156.83 20.71Q-150.28 20.71-146.12 17.33Q-141.96 13.95-140.04 8.39Q-138.11 2.82-138.11-3.73L-138.11-3.73Q-138.11-8.62-139.20-13.04Q-140.30-17.46-142.58-20.84Q-144.87-24.22-148.41-26.19Q-151.94-28.17-156.83-28.17L-156.83-28.17L-175.03-28.17L-173.99-29.11L-173.99 21.85L-174.62 20.71ZM-106.29-40.13L-82.58-40.13Q-77.17-40.13-72.44-37.01Q-67.70-33.89-64.79-28.59Q-61.88-23.28-61.88-16.73L-61.88-16.73Q-61.88-10.28-64.79-4.98Q-67.70 0.33-72.44 3.50Q-77.17 6.67-82.58 6.67L-82.58 6.67L-101.71 6.67L-100.67 4.80L-100.67 26.33Q-100.67 29.03-102.34 30.85Q-104 32.67-106.70 32.67L-106.70 32.67Q-109.30 32.67-110.97 30.85Q-112.63 29.03-112.63 26.33L-112.63 26.33L-112.63-33.79Q-112.63-36.49-110.81-38.31Q-108.99-40.13-106.29-40.13L-106.29-40.13ZM-101.82-5.19L-82.58-5.19Q-80.60-5.19-78.73-6.85Q-76.86-8.51-75.61-11.17Q-74.36-13.82-74.36-16.73L-74.36-16.73Q-74.36-19.75-75.61-22.35Q-76.86-24.95-78.73-26.56Q-80.60-28.17-82.58-28.17L-82.58-28.17L-101.92-28.17L-100.67-30.04L-100.67-3.52L-101.82-5.19Z"/><path xml:space="preserve" font-family="Quicksand" font-size="104" font-weight="bold" style="stroke: none; stroke-width: 0; stroke-dasharray: none; stroke-linecap: butt; stroke-dashoffset: 0; stroke-linejoin: miter; stroke-miterlimit: 4; is-custom-font: none; font-file-url: none; fill: rgb(12,35,64); fill-rule: nonzero; opacity: 1; white-space: pre;" d="M-8.94 32.67L-8.94 32.67Q-11.54 32.67-13.31 30.85Q-15.08 29.03-15.08 26.33L-15.08 26.33L-15.08-22.55L-12.90-22.03L-32.97 2.82L-33.49 1.47L1.77 1.47Q4.26 1.47 5.93 3.13Q7.59 4.80 7.59 7.29L7.59 7.29Q7.59 9.69 5.93 11.30Q4.26 12.91 1.77 12.91L1.77 12.91L-42.12 12.91Q-44.30 12.91-46.33 11.14Q-48.36 9.37-48.36 6.77L-48.36 6.77Q-48.36 4.49-46.80 2.61L-46.80 2.61L-13.94-37.63Q-13.10-38.78-11.75-39.45Q-10.40-40.13-8.74-40.13L-8.74-40.13Q-6.03-40.13-4.32-38.31Q-2.60-36.49-2.60-33.79L-2.60-33.79L-2.60 26.33Q-2.60 29.03-4.42 30.85Q-6.24 32.67-8.94 32.67ZM30.26 32.67L30.26 32.67Q27.35 32.67 25.53 30.85Q23.71 29.03 23.71 26.33L23.71 26.33L23.71-33.79Q23.71-36.49 25.53-38.31Q27.35-40.13 30.06-40.13L30.06-40.13L63.86-40.13Q66.56-40.13 68.38-38.41Q70.20-36.70 70.20-33.99L70.20-33.99Q70.20-31.71 68.38-29.94Q66.56-28.17 63.86-28.17L63.86-28.17L35.78-28.17L36.71-29.42L36.71-8.51L35.98-9.87L59.18-9.87Q61.88-9.87 63.70-8.15Q65.52-6.43 65.52-3.73L65.52-3.73Q65.52-1.44 63.70 0.33Q61.88 2.09 59.18 2.09L59.18 2.09L35.78 2.09L36.71 1.16L36.71 26.33Q36.71 29.03 34.79 30.85Q32.86 32.67 30.26 32.67ZM124.07-24.01L124.07-24.01Q126.78-24.01 128.54-22.24Q130.31-20.47 130.31-17.67L130.31-17.67L130.31 26.33Q130.31 29.03 128.54 30.85Q126.78 32.67 124.07 32.67L124.07 32.67Q121.37 32.67 119.60 30.85Q117.83 29.03 117.83 26.33L117.83 26.33L117.83 21.23L120.12 22.17Q120.12 23.52 118.66 25.44Q117.21 27.37 114.71 29.24Q112.22 31.11 108.84 32.41Q105.46 33.71 101.50 33.71L101.50 33.71Q94.33 33.71 88.50 30.02Q82.68 26.33 79.30 19.83Q75.92 13.33 75.92 4.90L75.92 4.90Q75.92-3.63 79.30-10.13Q82.68-16.63 88.40-20.32Q94.12-24.01 101.09-24.01L101.09-24.01Q105.56-24.01 109.30-22.66Q113.05-21.31 115.80-19.23Q118.56-17.15 120.07-15.01Q121.58-12.88 121.58-11.43L121.58-11.43L117.83-10.07L117.83-17.67Q117.83-20.37 119.60-22.19Q121.37-24.01 124.07-24.01ZM103.06 22.27L103.06 22.27Q107.64 22.27 111.07 19.98Q114.50 17.69 116.43 13.74Q118.35 9.79 118.35 4.90L118.35 4.90Q118.35-0.09 116.43-4.04Q114.50-7.99 111.07-10.28Q107.64-12.57 103.06-12.57L103.06-12.57Q98.59-12.57 95.16-10.28Q91.73-7.99 89.80-4.04Q87.88-0.09 87.88 4.90L87.88 4.90Q87.88 9.79 89.80 13.74Q91.73 17.69 95.16 19.98Q98.59 22.27 103.06 22.27ZM155.58-16.63L155.58 26.33Q155.58 29.03 153.82 30.85Q152.05 32.67 149.34 32.67L149.34 32.67Q146.64 32.67 144.87 30.85Q143.10 29.03 143.10 26.33L143.10 26.33L143.10-16.63Q143.10-19.33 144.87-21.15Q146.64-22.97 149.34-22.97L149.34-22.97Q152.05-22.97 153.82-21.15Q155.58-19.33 155.58-16.63L155.58-16.63ZM149.24-29.73L149.24-29.73Q145.70-29.73 144.25-30.87Q142.79-32.02 142.79-34.93L142.79-34.93L142.79-36.91Q142.79-39.92 144.40-41.01Q146.02-42.11 149.34-42.11L149.34-42.11Q152.98-42.11 154.44-40.96Q155.90-39.82 155.90-36.91L155.90-36.91L155.90-34.93Q155.90-31.91 154.34-30.82Q152.78-29.73 149.24-29.73ZM174.62 32.67L174.62 32.67Q171.91 32.67 170.14 30.85Q168.38 29.03 168.38 26.33L168.38 26.33L168.38-16.63Q168.38-19.33 170.14-21.15Q171.91-22.97 174.62-22.97L174.62-22.97Q177.32-22.97 179.09-21.15Q180.86-19.33 180.86-16.63L180.86-16.63L180.86-6.85L180.13-13.82Q181.27-16.31 183.09-18.24Q184.91-20.16 187.20-21.46Q189.49-22.76 192.09-23.39Q194.69-24.01 197.29-24.01L197.29-24.01Q200.41-24.01 202.54-22.24Q204.67-20.47 204.67-18.08L204.67-18.08Q204.67-14.65 202.90-13.14Q201.14-11.63 199.06-11.63L199.06-11.63Q197.08-11.63 195.47-12.36Q193.86-13.09 191.78-13.09L191.78-13.09Q189.90-13.09 187.98-12.21Q186.06-11.32 184.44-9.45Q182.83-7.58 181.84-4.82Q180.86-2.07 180.86 1.68L180.86 1.68L180.86 26.33Q180.86 29.03 179.09 30.85Q177.32 32.67 174.62 32.67Z"/></g>
<g transform="matrix(3.1715 0 0 3.1715 1829.2989 948.85)" id="157021">
<g style="" vector-effect="non-scaling-stroke">
		<g transform="matrix(1 0 0 1 -10 -12)" id="Layer_32">
<path style="stroke: none; stroke-width: 1; stroke-dasharray: none; stroke-linecap: butt; stroke-dashoffset: 0; stroke-linejoin: miter; stroke-miterlimit: 4; is-custom-font: none; font-file-url: none; fill: rgb(159,156,156); fill-opacity: 0; fill-rule: nonzero; opacity: 1;" transform=" translate(-22, -20)" d="M 10 38 a 5 5 0 0 1 -3 -9 a 5 5 0 0 1 0 -8 a 5 5 0 0 1 0.07 -8.05 A 5.987 5.987 0 0 1 7 12 a 6.984 6.984 0 0 1 5.73 -6.88 A 6.018 6.018 0 0 1 18 2 a 5.931 5.931 0 0 1 4 1.54 A 5.931 5.931 0 0 1 26 2 a 6.018 6.018 0 0 1 5.27 3.12 A 6.984 6.984 0 0 1 37 12 a 5.987 5.987 0 0 1 -0.07 0.95 A 5 5 0 0 1 37 21 a 5 5 0 0 1 0 8 a 5 5 0 0 1 -3 9 Z" stroke-linecap="round"/>
</g>
		<g transform="matrix(1 0 0 1 -10 -12)" id="Layer_32">
<path style="stroke: none; stroke-width: 1; stroke-dasharray: none; stroke-linecap: butt; stroke-dashoffset: 0; stroke-linejoin: miter; stroke-miterlimit: 4; is-custom-font: none; font-file-url: none; fill: rgb(188,175,173); fill-opacity: 0; fill-rule: nonzero; opacity: 1;" transform=" translate(-22, -20)" d="M 10 36 a 3 3 0 0 1 -1.8 -5.4 L 10.327 29 L 8.2 27.4 a 3 3 0 0 1 0 -4.8 L 10.327 21 L 8.2 19.4 A 3.022 3.022 0 0 1 7 17 a 2.985 2.985 0 0 1 1.247 -2.433 l 0.992 -0.722 l -0.2 -1.212 A 4.117 4.117 0 0 1 9 12 a 4.98 4.98 0 0 1 4.086 -4.912 l 0.934 -0.169 l 0.46 -0.83 A 4.031 4.031 0 0 1 18 4 a 3.956 3.956 0 0 1 2.658 1.022 L 22 6.238 l 1.342 -1.216 A 3.956 3.956 0 0 1 26 4 a 4.031 4.031 0 0 1 3.52 2.089 l 0.46 0.83 l 0.934 0.169 A 4.98 4.98 0 0 1 35 12 a 4.117 4.117 0 0 1 -0.044 0.633 l -0.2 1.212 l 0.992 0.722 A 2.985 2.985 0 0 1 37 17 a 3.022 3.022 0 0 1 -1.2 2.4 L 33.673 21 L 35.8 22.6 a 3 3 0 0 1 0 4.8 L 33.673 29 L 35.8 30.6 A 3 3 0 0 1 34 36 Z" stroke-linecap="round"/>
</g>
		<g transform="matrix(1 0 0 1 -10 9.5)" id="Layer_32">
<path style="stroke: none; stroke-width: 1; stroke-dasharray: none; stroke-linecap: butt; stroke-dashoffset: 0; stroke-linejoin: miter; stroke-miterlimit: 4; is-custom-font: none; font-file-url: none; fill: rgb(180,181,184); fill-opacity: 0; fill-rule: nonzero; opacity: 1;" transform=" translate(-22, -41.5)" d="M 18 26 v 6 L 6.682 36.244 A 7.215 7.215 0 0 0 2 43 H 2 V 57 H 42 V 43 a 7.215 7.215 0 0 0 -4.682 -6.756 L 26 32 V 26 Z" stroke-linecap="round"/>
</g>
		<g transform="matrix(1 0 0 1 -10 3)" id="Layer_32">
<polygon style="stroke: none; stroke-width: 1; stroke-dasharray: none; stroke-linecap: butt; stroke-dashoffset: 0; stroke-linejoin: miter; stroke-miterlimit: 4; is-custom-font: none; font-file-url: none; fill: rgb(233,186,164); fill-opacity: 0; fill-rule: nonzero; opacity: 1;" points="8,-1.5 4,-3 4,-8 -4,-8 -4,-3 -8,-1.5 -8,8 8,8 8,-1.5 "/>
</g>
		<g transform="matrix(1 0 0 1 -10 -13)" id="Layer_32">
<path style="stroke: none; stroke-width: 1; stroke-dasharray: none; stroke-linecap: butt; stroke-dashoffset: 0; stroke-linejoin: miter; stroke-miterlimit: 4; is-custom-font: none; font-file-url: none; fill: rgb(131,129,129); fill-opacity: 0; fill-rule: nonzero; opacity: 1;" transform=" translate(-22, -19)" d="M 30.857 16 H 31 a 3 3 0 0 1 3 3 h 0 a 3 3 0 0 1 -3 3 H 13 a 3 3 0 0 1 -3 -3 h 0 a 3 3 0 0 1 3 -3 H 30.857 Z" stroke-linecap="round"/>
</g>
		<g transform="matrix(1 0 0 1 -10 -3.5)" id="Layer_32">
<path style="stroke: none; stroke-width: 1; stroke-dasharray: none; stroke-linecap: butt; stroke-dashoffset: 0; stroke-linejoin: miter; stroke-miterlimit: 4; is-custom-font: none; font-file-url: none; fill: rgb(131,129,129); fill-opacity: 0; fill-rule: nonzero; opacity: 1;" transform=" translate(-22, -28.5)" d="M 18 29.933 a 8.031 8.031 0 0 0 8 0 V 26 H 18 Z" stroke-linecap="round"/>
</g>
		<g transform="matrix(1 0 0 1 -10 -12.5)" id="Layer_32">
<path style="stroke: none; stroke-width: 1; stroke-dasharray: none; stroke-linecap: butt; stroke-dashoffset: 0; stroke-linejoin: miter; stroke-miterlimit: 4; is-custom-font: none; font-file-url: none; fill: rgb(233,186,164); fill-opacity: 0; fill-rule: nonzero; opacity: 1;" transform=" translate(-22, -19.5)" d="M 13 15 l 1.01 7.07 A 8.07 8.07 0 0 0 22 29 h 0 a 8.07 8.07 0 0 0 7.99 -6.93 L 31 15 H 29.385 A 7.954 7.954 0 0 1 22 10 h 0 a 7.954 7.954 0 0 1 -7.385 5 Z" stroke-linecap="round"/>
</g>
		<g transform="matrix(1 0 0 1 -10 9)" id="Layer_32">
<rect style="stroke: none; stroke-width: 1; stroke-dasharray: none; stroke-linecap: butt; stroke-dashoffset: 0; stroke-linejoin: miter; stroke-miterlimit: 4; is-custom-font: none; font-file-url: none; fill: rgb(131,129,129); fill-opacity: 0; fill-rule: nonzero; opacity: 1;" x="-7" y="-2" rx="0" ry="0" width="14" height="4"/>
</g>
		<g transform="matrix(1 0 0 1 -10 17)" id="Layer_32">
<polygon style="stroke: none; stroke-width: 1; stroke-dasharray: none; stroke-linecap: butt; stroke-dashoffset: 0; stroke-linejoin: miter; stroke-miterlimit: 4; is-custom-font: none; font-file-url: none; fill: rgb(179,171,157); fill-opacity: 0; fill-rule: nonzero; opacity: 1;" points="-8,-8 8,-8 2,8 -2,8 -8,-8 "/>
</g>
		<g transform="matrix(1 0 0 1 -16.5 13.095)" id="Layer_32">
<polygon style="stroke: none; stroke-width: 1; stroke-dasharray: none; stroke-linecap: butt; stroke-dashoffset: 0; stroke-linejoin: miter; stroke-miterlimit: 4; is-custom-font: none; font-file-url: none; fill: rgb(143,144,147); fill-opacity: 0; fill-rule: nonzero; opacity: 1;" points="-4.194,-10.585 -5.5,-2.095 -2.5,-2.095 -2.5,2.905 2.5,11.905 5.5,11.905 -0.673,-11.905 -4.194,-10.585 "/>
</g>
		<g transform="matrix(1 0 0 1 -2.481 13.095)" id="Layer_32">
<polygon style="stroke: none; stroke-width: 1; stroke-dasharray: none; stroke-linecap: butt; stroke-dashoffset: 0; stroke-linejoin: miter; stroke-miterlimit: 4; is-custom-font: none; font-file-url: none; fill: rgb(143,144,147); fill-opacity: 0; fill-rule: nonzero; opacity: 1;" points="6.519,-9.331 -0.346,-11.905 -6.519,11.905 -3.519,11.905 1.481,2.905 6.519,-9.331 "/>
</g>
		<g transform="matrix(1 0 0 1 -23 19)" id="Layer_32">
<rect style="stroke: none; stroke-width: 1; stroke-dasharray: none; stroke-linecap: butt; stroke-dashoffset: 0; stroke-linejoin: miter; stroke-miterlimit: 4; is-custom-font: none; font-file-url: none; fill: rgb(92,98,106); fill-opacity: 0; fill-rule: nonzero; opacity: 1;" x="-1" y="-6" rx="0" ry="0" width="2" height="12"/>
</g>
		<g transform="matrix(1 0 0 1 14 14)" id="Layer_32">
<circle style="stroke: none; stroke-width: 1; stroke-dasharray: none; stroke-linecap: butt; stroke-dashoffset: 0; stroke-linejoin: miter; stroke-miterlimit: 4; is-custom-font: none; font-file-url: none; fill: rgb(230,227,226); fill-opacity: 0; fill-rule: nonzero; opacity: 1;" cx="0" cy="0" r="16"/>
</g>
		<g transform="matrix(1 0 0 1 15.5064 12.4917)" id="Layer_32">
<path style="stroke: none; stroke-width: 1; stroke-dasharray: none; stroke-linecap: butt; stroke-dashoffset: 0; stroke-linejoin: miter; stroke-miterlimit: 4; is-custom-font: none; font-file-url: none; fill: rgb(186,160,160); fill-opacity: 0; fill-rule: nonzero; opacity: 1;" transform=" translate(-47.5064, -44.4917)" d="M 46 30 a 15.911 15.911 0 0 0 -9.7 3.3 A 15.98 15.98 0 0 0 58.7 55.7 A 15.98 15.98 0 0 0 46 30 Z" stroke-linecap="round"/>
</g>
		<g transform="matrix(1 0 0 1 14 14)" id="Layer_32">
<path style="stroke: none; stroke-width: 1; stroke-dasharray: none; stroke-linecap: butt; stroke-dashoffset: 0; stroke-linejoin: miter; stroke-miterlimit: 4; is-custom-font: none; font-file-url: none; fill: rgb(54,83,155); fill-opacity: 0; fill-rule: nonzero; opacity: 1;" transform=" translate(-46, -46)" d="M 56 43 h -0.46 a 9.244 9.244 0 0 0 -0.68 -1.62 l 0.33 -0.33 l 0.71 -2.12 L 53.07 36.1 l -2.12 0.71 l -0.33 0.33 A 9.244 9.244 0 0 0 49 36.46 V 36 l -1 -2 H 44 l -1 2 v 0.46 a 9.244 9.244 0 0 0 -1.62 0.68 l -0.33 -0.33 l -2.12 -0.71 L 36.1 38.93 l 0.71 2.12 l 0.33 0.33 A 9.244 9.244 0 0 0 36.46 43 H 36 l -2 1 v 4 l 2 1 h 0.46 a 9.244 9.244 0 0 0 0.68 1.62 l -0.33 0.33 l -0.71 2.12 l 2.83 2.83 l 2.12 -0.71 l 0.33 -0.33 a 9.244 9.244 0 0 0 1.62 0.68 V 56 l 1 2 h 4 l 1 -2 v -0.46 a 9.244 9.244 0 0 0 1.62 -0.68 l 0.33 0.33 l 2.12 0.71 l 2.83 -2.83 l -0.71 -2.12 l -0.33 -0.33 A 9.244 9.244 0 0 0 55.54 49 H 56 l 2 -1 V 44 Z M 46 51 a 5 5 0 1 1 5 -5 A 5 5 0 0 1 46 51 Z" stroke-linecap="round"/>
</g>
		<g transform="matrix(1 0 0 1 0.0071 0.0002)" id="Layer_32">
<path style="stroke: none; stroke-width: 1; stroke-dasharray: none; stroke-linecap: butt; stroke-dashoffset: 0; stroke-linejoin: miter; stroke-miterlimit: 4; is-custom-font: none; font-file-url: none; fill: rgb(8,8,8); fill-rule: nonzero; opacity: 1;" transform=" translate(-32.0071, -32.0002)" d="M 46 29 a 16.915 16.915 0 0 0 -6.63 1.347 a 6.039 6.039 0 0 0 -0.9 -1.347 a 5.991 5.991 0 0 0 0 -8 a 5.991 5.991 0 0 0 -0.486 -8.483 c 0.012 -0.167 0.017 -0.34 0.017 -0.517 a 7.98 7.98 0 0 0 -6.1 -7.768 A 7.033 7.033 0 0 0 26 1 a 6.946 6.946 0 0 0 -4 1.262 A 6.946 6.946 0 0 0 18 1 a 7.033 7.033 0 0 0 -5.9 3.232 A 7.98 7.98 0 0 0 6 12 c 0 0.177 0 0.35 0.017 0.517 A 5.991 5.991 0 0 0 5.531 21 a 5.991 5.991 0 0 0 0 8 a 5.967 5.967 0 0 0 -0.678 7.065 A 8.244 8.244 0 0 0 1 43 V 57 a 1 1 0 0 0 1 1 H 33.971 A 17 17 0 1 0 46 29 Z M 7.6 28.2 a 4 4 0 0 1 0 -6.4 a 1 1 0 0 0 0 -1.6 A 4.029 4.029 0 0 1 6 17 a 3.971 3.971 0 0 1 1.658 -3.241 a 1 1 0 0 0 0.4 -0.967 A 5.036 5.036 0 0 1 8 12 a 5.98 5.98 0 0 1 4.908 -5.9 a 1 1 0 0 0 0.7 -0.5 A 5.032 5.032 0 0 1 18 3 a 4.95 4.95 0 0 1 3.329 1.281 a 1 1 0 0 0 1.342 0 A 4.95 4.95 0 0 1 26 3 A 5.032 5.032 0 0 1 30.4 5.6 a 1 1 0 0 0 0.7 0.5 A 5.98 5.98 0 0 1 36 12 a 5.036 5.036 0 0 1 -0.057 0.792 a 1 1 0 0 0 0.4 0.967 A 3.971 3.971 0 0 1 38 17 a 4.029 4.029 0 0 1 -1.6 3.2 a 1 1 0 0 0 0 1.6 a 4 4 0 0 1 0 6.4 a 1 1 0 0 0 0 1.6 a 4.046 4.046 0 0 1 1.188 1.448 a 17.114 17.114 0 0 0 -3.557 2.7 L 27 31.308 V 28.472 A 9.1 9.1 0 0 0 30.829 23 H 31 a 3.992 3.992 0 0 0 0.99 -7.861 A 1 1 0 0 0 31 14 H 29.385 a 6.92 6.92 0 0 1 -6.456 -4.372 a 1 1 0 0 0 -1.858 0 A 6.92 6.92 0 0 1 14.615 14 H 13 a 1 1 0 0 0 -0.99 1.139 A 3.992 3.992 0 0 0 13 23 h 0.171 A 9.1 9.1 0 0 0 17 28.472 v 2.836 L 6.658 35.185 A 3.975 3.975 0 0 1 6 33 a 4.029 4.029 0 0 1 1.6 -3.2 a 1 1 0 0 0 0 -1.6 Z M 29.286 49.027 L 25.412 56 h -1.12 l 5.57 -21.483 l 2.757 1.034 a 16.737 16.737 0 0 0 -3.333 13.476 Z M 13 42 H 11.166 l 1.039 -6.758 l 1.933 -0.725 L 19.708 56 h -1.12 L 14 47.741 V 43 A 1 1 0 0 0 13 42 Z m 9 -14 a 7.106 7.106 0 0 1 -7 -6.071 L 14.153 16 h 0.462 A 8.9 8.9 0 0 0 22 12.115 A 8.9 8.9 0 0 0 29.385 16 h 0.462 L 29 21.929 A 7.106 7.106 0 0 1 22 28 Z m -3 4 V 29.476 a 8.85 8.85 0 0 0 6 0 V 32 a 1 1 0 0 0 0.649 0.937 l 2.33 0.874 L 26.374 40 H 17.626 l -1.605 -6.189 l 2.33 -0.874 A 1 1 0 0 0 19 32 Z m -0.856 10 h 7.712 l -3.63 14 h -0.452 Z M 33 19 a 2 2 0 0 1 -1.845 1.984 l 0.55 -3.849 A 2 2 0 0 1 33 19 Z M 12.3 17.135 l 0.55 3.849 a 1.99 1.99 0 0 1 -0.55 -3.849 Z M 3 43 a 6.243 6.243 0 0 1 4.033 -5.819 l 3.025 -1.134 l -1.046 6.8 A 1 1 0 0 0 10 44 h 2 v 4 a 1 1 0 0 0 0.126 0.486 L 16.3 56 H 3 Z M 27.7 56 l 2.339 -4.208 A 16.923 16.923 0 0 0 32.283 56 Z M 46 61 A 15 15 0 1 1 61 46 A 15.017 15.017 0 0 1 46 61 Z" stroke-linecap="round"/>
</g>
		<g transform="matrix(1 0 0 1 14 14)" id="Layer_32">
<path style="stroke: none; stroke-width: 1; stroke-dasharray: none; stroke-linecap: butt; stroke-dashoffset: 0; stroke-linejoin: miter; stroke-miterlimit: 4; is-custom-font: none; font-file-url: none; fill: rgb(8,8,8); fill-rule: nonzero; opacity: 1;" transform=" translate(-46, -46)" d="M 52.752 35.152 l -2.119 0.71 a 1.038 1.038 0 0 0 -0.18 0.08 c -0.157 -0.069 -0.319 -0.137 -0.487 -0.2 a 1.142 1.142 0 0 0 -0.071 -0.187 l -1 -2 A 1 1 0 0 0 48 33 H 44 a 1 1 0 0 0 -0.9 0.553 l -1 2 a 1.142 1.142 0 0 0 -0.071 0.187 c -0.168 0.065 -0.33 0.133 -0.487 0.2 a 1.038 1.038 0 0 0 -0.18 -0.08 l -2.119 -0.71 a 1 1 0 0 0 -1.025 0.241 l -2.83 2.83 a 1 1 0 0 0 -0.241 1.025 l 0.71 2.119 a 1.038 1.038 0 0 0 0.08 0.18 c -0.069 0.157 -0.137 0.319 -0.2 0.487 a 1.142 1.142 0 0 0 -0.187 0.071 l -2 1 A 1 1 0 0 0 33 44 v 4 a 1 1 0 0 0 0.553 0.9 l 2 1 a 1.142 1.142 0 0 0 0.187 0.071 c 0.065 0.168 0.133 0.33 0.2 0.487 a 1.038 1.038 0 0 0 -0.08 0.18 l -0.71 2.119 a 1 1 0 0 0 0.241 1.025 l 2.83 2.83 a 1 1 0 0 0 1.025 0.241 l 2.119 -0.71 a 1.038 1.038 0 0 0 0.18 -0.08 c 0.157 0.069 0.319 0.137 0.487 0.2 a 1.142 1.142 0 0 0 0.071 0.187 l 1 2 A 1 1 0 0 0 44 59 h 4 a 1 1 0 0 0 0.9 -0.553 l 1 -2 a 1.142 1.142 0 0 0 0.071 -0.187 c 0.168 -0.065 0.33 -0.133 0.487 -0.2 a 1.038 1.038 0 0 0 0.18 0.08 l 2.119 0.71 a 1 1 0 0 0 1.025 -0.241 l 2.83 -2.83 a 1 1 0 0 0 0.241 -1.025 l -0.71 -2.119 a 1.038 1.038 0 0 0 -0.08 -0.18 c 0.069 -0.157 0.137 -0.319 0.2 -0.487 a 1.142 1.142 0 0 0 0.187 -0.071 l 2 -1 A 1 1 0 0 0 59 48 V 44 a 1 1 0 0 0 -0.553 -0.9 l -2 -1 a 1.142 1.142 0 0 0 -0.187 -0.071 c -0.065 -0.168 -0.133 -0.33 -0.2 -0.487 a 1.038 1.038 0 0 0 0.08 -0.18 l 0.71 -2.119 a 1 1 0 0 0 -0.241 -1.025 l -2.83 -2.83 A 1 1 0 0 0 52.752 35.152 Z m 1.231 6.709 a 8.259 8.259 0 0 1 0.605 1.445 A 1 1 0 0 0 55.54 44 h 0.224 L 57 44.618 v 2.764 L 55.764 48 H 55.54 a 1 1 0 0 0 -0.952 0.694 a 8.259 8.259 0 0 1 -0.605 1.445 a 1 1 0 0 0 0.17 1.188 l 0.163 0.164 l 0.439 1.309 L 52.8 54.755 l -1.309 -0.439 l -0.164 -0.163 a 1 1 0 0 0 -1.188 -0.17 a 8.259 8.259 0 0 1 -1.445 0.605 A 1 1 0 0 0 48 55.54 v 0.224 L 47.382 57 H 44.618 L 44 55.764 V 55.54 a 1 1 0 0 0 -0.694 -0.952 a 8.259 8.259 0 0 1 -1.445 -0.605 a 1 1 0 0 0 -1.188 0.17 l -0.164 0.163 l -1.309 0.439 L 37.245 52.8 l 0.439 -1.309 l 0.163 -0.164 a 1 1 0 0 0 0.17 -1.188 a 8.259 8.259 0 0 1 -0.605 -1.445 A 1 1 0 0 0 36.46 48 h -0.224 L 35 47.382 V 44.618 L 36.236 44 h 0.224 a 1 1 0 0 0 0.952 -0.694 a 8.259 8.259 0 0 1 0.605 -1.445 a 1 1 0 0 0 -0.17 -1.188 l -0.163 -0.164 L 37.245 39.2 L 39.2 37.245 l 1.309 0.439 l 0.164 0.163 a 1 1 0 0 0 1.188 0.17 a 8.259 8.259 0 0 1 1.445 -0.605 A 1 1 0 0 0 44 36.46 v -0.224 L 44.618 35 h 2.764 L 48 36.236 v 0.224 a 1 1 0 0 0 0.694 0.952 a 8.259 8.259 0 0 1 1.445 0.605 a 1 1 0 0 0 1.188 -0.17 l 0.164 -0.163 l 1.309 -0.439 L 54.755 39.2 l -0.439 1.309 l -0.163 0.164 A 1 1 0 0 0 53.983 41.861 Z" stroke-linecap="round"/>
</g>
		<g transform="matrix(1 0 0 1 14 14)" id="Layer_32">
<path style="stroke: none; stroke-width: 1; stroke-dasharray: none; stroke-linecap: butt; stroke-dashoffset: 0; stroke-linejoin: miter; stroke-miterlimit: 4; is-custom-font: none; font-file-url: none; fill: rgb(8,8,8); fill-rule: nonzero; opacity: 1;" transform=" translate(-46, -46)" d="M 46 40 a 6 6 0 1 0 6 6 A 6.006 6.006 0 0 0 46 40 Z m 0 10 a 4 4 0 1 1 4 -4 A 4 4 0 0 1 46 50 Z" stroke-linecap="round"/>
</g>
</g>
</g>
</svg>