<svg xmlns="http://www.w3.org/2000/svg" xmlns:xlink="http://www.w3.org/1999/xlink" version="1.1" width="2544" height="1266" viewBox="0 0 2544 1266" xml:space="preserve">
<desc>Created with Fabric.js 3.5.0</desc>
<defs>
</defs>
<rect x="0" y="0" width="100%" height="100%" fill="rgba(186,169,169,0.65)"/>
<g transform="matrix(0.5953 0 0 0.5921 863.5969 110.2044)" id="29006">
<path style="stroke: rgb(12,35,64); stroke-width: 5; stroke-dasharray: none; stroke-linecap: butt; stroke-dashoffset: 0; stroke-linejoin: miter; stroke-miterlimit: 4; is-custom-font: none; font-file-url: none; fill: none; fill-rule: nonzero; opacity: 1;" vector-effect="non-scaling-stroke" transform=" translate(-79, -78.9999)" d="M 154.685 2.50049 H 154.711 L 154.738 2.49994 C 155.15 2.49126 155.491 2.81853 155.5 3.2304 L 155.5 3.23069 C 155.5 3.24095 155.5 3.25176 155.5 3.26283 L 155.499 3.28886 V 3.3149 V 154.686 C 155.499 155.135 155.135 155.5 154.685 155.5 H 3.31409 C 2.86449 155.5 2.5 155.135 2.5 154.686 V 3.3149 C 2.5 2.86483 2.86465 2.50049 3.31409 2.50049 H 154.685 Z" stroke-linecap="round"/>
</g>
<g transform="matrix(10.9944 0 0 10.9944 999.7423 546.6022)" id="350974">
<g style="" vector-effect="non-scaling-stroke">
		<g transform="matrix(1 0 0 1 0 -0.5)" id="118937">
<path style="stroke: none; stroke-width: 1; stroke-dasharray: none; stroke-linecap: butt; stroke-dashoffset: 0; stroke-linejoin: miter; stroke-miterlimit: 4; is-custom-font: none; font-file-url: none; fill: rgb(0,0,0); fill-rule: nonzero; opacity: 1;" transform=" translate(-16, -15.5)" d="M 28.4473 16.1055 L 23 13.3818 V 7 a 1 1 0 0 0 -0.5527 -0.8945 l -6 -3 a 1.0008 1.0008 0 0 0 -0.8946 0 l -6 3 A 1 1 0 0 0 9 7 v 6.3818 L 3.5527 16.1055 A 1 1 0 0 0 3 17 v 7 a 1 1 0 0 0 0.5527 0.8945 l 6 3 a 1.001 1.001 0 0 0 0.8946 0 L 16 25.1182 l 5.5527 2.7763 a 1.001 1.001 0 0 0 0.8946 0 l 6 -3 A 1 1 0 0 0 29 24 V 17 A 1 1 0 0 0 28.4473 16.1055 Z M 21 13.3818 l -4 2 V 10.6182 l 4 -2 Z M 16 5.1182 L 19.7637 7 L 16 8.8818 L 12.2363 7 Z m -5 3.5 l 4 2 v 4.7636 l -4 -2 Z M 9 25.3818 l -4 -2 V 18.6182 l 4 2 Z m 1 -6.5 L 6.2363 17 L 10 15.1182 L 13.7637 17 Z m 1 1.7364 l 4 -2 v 4.7636 l -4 2 Z m 10 4.7636 l -4 -2 V 18.6182 l 4 2 Z m 1 -6.5 L 18.2363 17 L 22 15.1182 L 25.7637 17 Z m 5 4.5 l -4 2 V 20.6182 l 4 -2 Z" stroke-linecap="round"/>
</g>
		<g transform="matrix(1 0 0 1 0 0)" id="25332">
<rect style="stroke: none; stroke-width: 1; stroke-dasharray: none; stroke-linecap: butt; stroke-dashoffset: 0; stroke-linejoin: miter; stroke-miterlimit: 4; is-custom-font: none; font-file-url: none; fill: none; fill-rule: nonzero; opacity: 1;" x="-16" y="-16" rx="0" ry="0" width="32" height="32"/>
</g>
</g>
</g>
<g transform="matrix(10.9944 0 0 10.9944 1255.8754 666.8474)" id="432830">
<g style="" vector-effect="non-scaling-stroke">
		<g transform="matrix(1 0 0 1 0 -0.5)" id="304610">
<path style="stroke: none; stroke-width: 1; stroke-dasharray: none; stroke-linecap: butt; stroke-dashoffset: 0; stroke-linejoin: miter; stroke-miterlimit: 4; is-custom-font: none; font-file-url: none; fill: rgb(0,0,0); fill-rule: nonzero; opacity: 1;" transform=" translate(-16, -15.5)" d="M 28.4473 16.1055 L 23 13.3818 V 7 a 1 1 0 0 0 -0.5527 -0.8945 l -6 -3 a 1.0008 1.0008 0 0 0 -0.8946 0 l -6 3 A 1 1 0 0 0 9 7 v 6.3818 L 3.5527 16.1055 A 1 1 0 0 0 3 17 v 7 a 1 1 0 0 0 0.5527 0.8945 l 6 3 a 1.001 1.001 0 0 0 0.8946 0 L 16 25.1182 l 5.5527 2.7763 a 1.001 1.001 0 0 0 0.8946 0 l 6 -3 A 1 1 0 0 0 29 24 V 17 A 1 1 0 0 0 28.4473 16.1055 Z M 21 13.3818 l -4 2 V 10.6182 l 4 -2 Z M 16 5.1182 L 19.7637 7 L 16 8.8818 L 12.2363 7 Z m -5 3.5 l 4 2 v 4.7636 l -4 -2 Z M 9 25.3818 l -4 -2 V 18.6182 l 4 2 Z m 1 -6.5 L 6.2363 17 L 10 15.1182 L 13.7637 17 Z m 1 1.7364 l 4 -2 v 4.7636 l -4 2 Z m 10 4.7636 l -4 -2 V 18.6182 l 4 2 Z m 1 -6.5 L 18.2363 17 L 22 15.1182 L 25.7637 17 Z m 5 4.5 l -4 2 V 20.6182 l 4 -2 Z" stroke-linecap="round"/>
</g>
		<g transform="matrix(1 0 0 1 0 0)" id="416791">
<rect style="stroke: none; stroke-width: 1; stroke-dasharray: none; stroke-linecap: butt; stroke-dashoffset: 0; stroke-linejoin: miter; stroke-miterlimit: 4; is-custom-font: none; font-file-url: none; fill: none; fill-rule: nonzero; opacity: 1;" x="-16" y="-16" rx="0" ry="0" width="32" height="32"/>
</g>
</g>
</g>
<g transform="matrix(10.9944 0 0 10.9944 1523.1469 542.0488)" id="954848">
<g style="" vector-effect="non-scaling-stroke">
		<g transform="matrix(1 0 0 1 0 -0.5)" id="269382">
<path style="stroke: none; stroke-width: 1; stroke-dasharray: none; stroke-linecap: butt; stroke-dashoffset: 0; stroke-linejoin: miter; stroke-miterlimit: 4; is-custom-font: none; font-file-url: none; fill: rgb(0,0,0); fill-rule: nonzero; opacity: 1;" transform=" translate(-16, -15.5)" d="M 28.4473 16.1055 L 23 13.3818 V 7 a 1 1 0 0 0 -0.5527 -0.8945 l -6 -3 a 1.0008 1.0008 0 0 0 -0.8946 0 l -6 3 A 1 1 0 0 0 9 7 v 6.3818 L 3.5527 16.1055 A 1 1 0 0 0 3 17 v 7 a 1 1 0 0 0 0.5527 0.8945 l 6 3 a 1.001 1.001 0 0 0 0.8946 0 L 16 25.1182 l 5.5527 2.7763 a 1.001 1.001 0 0 0 0.8946 0 l 6 -3 A 1 1 0 0 0 29 24 V 17 A 1 1 0 0 0 28.4473 16.1055 Z M 21 13.3818 l -4 2 V 10.6182 l 4 -2 Z M 16 5.1182 L 19.7637 7 L 16 8.8818 L 12.2363 7 Z m -5 3.5 l 4 2 v 4.7636 l -4 -2 Z M 9 25.3818 l -4 -2 V 18.6182 l 4 2 Z m 1 -6.5 L 6.2363 17 L 10 15.1182 L 13.7637 17 Z m 1 1.7364 l 4 -2 v 4.7636 l -4 2 Z m 10 4.7636 l -4 -2 V 18.6182 l 4 2 Z m 1 -6.5 L 18.2363 17 L 22 15.1182 L 25.7637 17 Z m 5 4.5 l -4 2 V 20.6182 l 4 -2 Z" stroke-linecap="round"/>
</g>
		<g transform="matrix(1 0 0 1 0 0)" id="786957">
<rect style="stroke: none; stroke-width: 1; stroke-dasharray: none; stroke-linecap: butt; stroke-dashoffset: 0; stroke-linejoin: miter; stroke-miterlimit: 4; is-custom-font: none; font-file-url: none; fill: none; fill-rule: nonzero; opacity: 1;" x="-16" y="-16" rx="0" ry="0" width="32" height="32"/>
</g>
</g>
</g>
<g transform="matrix(7.248 0 0 7.248 2197.9776 532.4389)" id="324876">
<g style="" vector-effect="non-scaling-stroke">
		<g transform="matrix(1 0 0 1 4.07 16.33)" id="115129">
<path style="stroke: none; stroke-width: 1; stroke-dasharray: none; stroke-linecap: butt; stroke-dashoffset: 0; stroke-linejoin: miter; stroke-miterlimit: 4; is-custom-font: none; font-file-url: none; fill: rgb(0,0,0); fill-rule: nonzero; opacity: 1;" transform=" translate(-34.07, -46.33)" d="M 27.85 39.68 l 5.39 8.36 c 0.37 0.57 1.31 0.57 1.68 0 l 5.39 -8.36 c 4.38 0.28 7.86 3.93 7.86 8.38 c 0 0.55 0.45 1 1 1 s 1 -0.45 1 -1 c 0 -5.73 -4.66 -10.4 -10.4 -10.4 c -0.34 0 -0.66 0.17 -0.84 0.46 l -4.86 7.53 l -4.86 -7.53 c -0.18 -0.29 -0.5 -0.46 -0.84 -0.46 c -5.73 0 -10.4 4.66 -10.4 10.4 V 54 c 0 0.55 0.45 1 1 1 h 30.19 c 0.55 0 1 -0.45 1 -1 v -2.38 c 0 -0.55 -0.45 -1 -1 -1 s -1 0.45 -1 1 V 53 H 19.99 v -4.94 C 19.99 43.61 23.47 39.96 27.85 39.68 z" stroke-linecap="round"/>
</g>
		<g transform="matrix(1 0 0 1 4.095 -6.4178)" id="10098">
<path style="stroke: none; stroke-width: 1; stroke-dasharray: none; stroke-linecap: butt; stroke-dashoffset: 0; stroke-linejoin: miter; stroke-miterlimit: 4; is-custom-font: none; font-file-url: none; fill: rgb(0,0,0); fill-rule: nonzero; opacity: 1;" transform=" translate(-34.095, -23.5822)" d="M 42.01 12.74 c -1.43 -1.52 -3.96 -3.32 -7.93 -3.32 c -3.97 0 -6.5 1.81 -7.92 3.32 c -2.01 2.14 -3.11 5.1 -2.94 7.91 c 0.62 10.23 -0.47 13.09 -2.84 15.05 c -0.29 0.24 -0.42 0.62 -0.34 0.99 s 0.36 0.66 0.72 0.75 c 0.28 0.07 6.61 1.64 10.68 -3.1 c 0.78 0.37 1.63 0.62 2.54 0.72 c 0.04 0 0.07 0.01 0.11 0.01 s 0.07 0 0.11 -0.01 c 0.9 -0.1 1.75 -0.35 2.53 -0.72 c 2.41 2.81 5.61 3.4 7.89 3.4 c 1.57 0 2.7 -0.28 2.81 -0.31 c 0.36 -0.1 0.64 -0.39 0.72 -0.75 s -0.05 -0.75 -0.34 -0.99 c -2.37 -1.96 -3.46 -4.82 -2.84 -15.05 C 45.13 17.83 44.03 14.88 42.01 12.74 z M 34.09 33.06 c -2.98 -0.38 -5.22 -2.91 -5.22 -5.93 v -3.99 c 2.77 0.68 6.6 0.25 10.44 -0.26 v 4.25 C 39.3 30.15 37.07 32.68 34.09 33.06 z M 45.07 35.74 c -1.8 0.08 -4.56 -0.26 -6.64 -2.48 c 1.76 -1.47 2.87 -3.67 2.87 -6.12 v -5.4 c 0 -0.29 -0.13 -0.56 -0.34 -0.75 c -0.22 -0.19 -0.51 -0.28 -0.79 -0.24 c -4.41 0.6 -9.4 1.28 -11.87 0.09 c -0.31 -0.15 -0.68 -0.13 -0.97 0.05 c -0.29 0.18 -0.47 0.5 -0.47 0.85 v 5.4 c 0 2.45 1.11 4.65 2.87 6.12 c -2.07 2.23 -4.83 2.56 -6.64 2.49 c 2.09 -2.75 2.61 -6.94 2.11 -15.21 c -0.14 -2.27 0.76 -4.67 2.4 -6.42 c 1.16 -1.23 3.22 -2.69 6.47 -2.69 c 3.26 0 5.32 1.46 6.47 2.69 c 1.64 1.75 2.54 4.14 2.4 6.42 C 42.46 28.79 42.98 32.99 45.07 35.74 z" stroke-linecap="round"/>
</g>
		<g transform="matrix(1 0 0 1 -13.25 -18.3617)" id="36764">
<path style="stroke: none; stroke-width: 1; stroke-dasharray: none; stroke-linecap: butt; stroke-dashoffset: 0; stroke-linejoin: miter; stroke-miterlimit: 4; is-custom-font: none; font-file-url: none; fill: rgb(0,0,0); fill-rule: nonzero; opacity: 1;" transform=" translate(-16.75, -11.6383)" d="M 12.49 18.08 c 0.17 0.13 0.38 0.19 0.59 0.19 c 0.16 0 0.32 -0.04 0.47 -0.11 l 3.2 -1.68 l 3.2 1.68 c 0.34 0.18 0.75 0.15 1.05 -0.08 c 0.31 -0.22 0.46 -0.6 0.4 -0.98 l -0.61 -3.56 l 2.59 -2.52 c 0.27 -0.27 0.37 -0.66 0.25 -1.03 c -0.12 -0.36 -0.43 -0.63 -0.81 -0.68 L 19.24 8.8 l -1.6 -3.24 C 17.47 5.22 17.12 5 16.74 5 s -0.73 0.22 -0.9 0.56 l -1.6 3.24 l -3.57 0.52 C 10.3 9.37 9.98 9.64 9.87 10 c -0.12 0.36 -0.02 0.76 0.25 1.03 l 2.59 2.52 l -0.61 3.56 C 12.03 17.48 12.18 17.86 12.49 18.08 z M 15.05 10.7 c 0.33 -0.05 0.61 -0.25 0.75 -0.55 l 0.94 -1.89 l 0.93 1.89 c 0.15 0.3 0.43 0.5 0.75 0.55 l 2.09 0.3 l -1.51 1.47 c -0.24 0.23 -0.34 0.56 -0.29 0.89 l 0.36 2.08 l -1.87 -0.98 c -0.29 -0.15 -0.64 -0.15 -0.93 0 l -1.87 0.98 l 0.36 -2.08 c 0.06 -0.32 -0.05 -0.66 -0.29 -0.89 L 12.96 11 L 15.05 10.7 z" stroke-linecap="round"/>
</g>
</g>
</g>
<g transform="matrix(0.1329 0 0 0.1329 2188.2493 841.359)" id="632991">
<g style="" vector-effect="non-scaling-stroke">
		<g transform="matrix(33.3333 0 0 33.3333 3.183 17.5996)" id="256014">
<path style="stroke: none; stroke-width: 1; stroke-dasharray: none; stroke-linecap: butt; stroke-dashoffset: 0; stroke-linejoin: miter; stroke-miterlimit: 4; is-custom-font: none; font-file-url: none; fill: rgb(0,0,0); fill-rule: nonzero; opacity: 1;" transform=" translate(-12.0955, -12.528)" d="M 16 10 H 8 V 9 h 8 z m -4.87 11 l 1.064 1 H 3.5 C 2.122 22 1 20.43 1 18.5 S 2.122 15 3.5 15 H 5 V 5.75 C 5 3.682 6.122 2 7.5 2 h 13 c 1.378 0 2.45 1.57 2.45 3.5 S 21.878 9 20.5 9 H 19 v 7.138 l -1 0.979 V 5.75 A 5.994 5.994 0 0 1 18.64 3 H 7.5 C 6.792 3 6 4.176 6 5.75 V 15 h 10.57 l -0.71 0.826 A 4.141 4.141 0 0 0 15 18.5 a 5.186 5.186 0 0 0 0.047 0.692 l -1.032 -0.971 A 5.555 5.555 0 0 1 14.557 16 H 3.5 C 2.701 16 2 17.168 2 18.5 S 2.701 21 3.5 21 z M 19 8 h 1.5 c 0.799 0 1.55 -1.168 1.55 -2.5 S 21.299 3 20.5 3 h -0.677 A 4.62 4.62 0 0 0 19 5.75 z M 8 13 h 8 v -1 H 8 z m 8 -7 H 8 v 1 h 8 z m 6.491 8.819 l -6.998 6.851 l -2.832 -2.663 l -0.685 0.728 l 3.53 3.321 l 7.685 -7.522 z" stroke-linecap="round"/>
</g>
		<g transform="matrix(33.3333 0 0 33.3333 -0.0005 -0.0005)" id="284316">
<path style="stroke: none; stroke-width: 1; stroke-dasharray: none; stroke-linecap: butt; stroke-dashoffset: 0; stroke-linejoin: miter; stroke-miterlimit: 4; is-custom-font: none; font-file-url: none; fill: none; fill-rule: nonzero; opacity: 1;" transform=" translate(-12, -12)" d="M 0 0 h 24 v 24 H 0 z" stroke-linecap="round"/>
</g>
</g>
</g>
<g transform="matrix(0.4087 0 0 0.4087 282.523 402.9197)" id="216401">
<path style="stroke: none; stroke-width: 0; stroke-dasharray: none; stroke-linecap: butt; stroke-dashoffset: 0; stroke-linejoin: round; stroke-miterlimit: 2; is-custom-font: none; font-file-url: none; fill: rgb(0,0,0); fill-rule: nonzero; opacity: 1;" vector-effect="non-scaling-stroke" transform=" translate(-1280, -1279.95)" d="M 1506 1505.95 H 1214.98 V 1214.93 H 1506 Z m -371.51 -80.49 v -291.02 h 291.02 v 50.48 h -225.53 c -8.29 0 -15 6.72 -15 15 v 225.54 z M 1054 1344.97 v -291.02 h 291.02 v 50.49 h -225.53 c -8.29 0 -15 6.71 -15 15 v 225.53 z m 467 -160.05 h -65.49 v -65.48 c 0 -8.29 -6.71 -15 -15 -15 h -65.49 v -65.49 c 0 -8.29 -6.71 -15 -15 -15 H 1039 c -8.29 0 -15 6.71 -15 15 v 321.02 c 0 8.29 6.71 15 15 15 h 65.49 v 65.49 c 0 8.29 6.71 15 15 15 h 65.49 v 65.49 c 0 8.28 6.71 15 15 15 H 1521 c 8.29 0 15 -6.72 15 -15 v -321.03 c 0 -8.28 -6.71 -15 -15 -15" stroke-linecap="round"/>
</g>
<g transform="matrix(0.4087 0 0 0.4087 353.7595 666.8474)" id="993356">
<path style="stroke: none; stroke-width: 0; stroke-dasharray: none; stroke-linecap: butt; stroke-dashoffset: 0; stroke-linejoin: round; stroke-miterlimit: 2; is-custom-font: none; font-file-url: none; fill: rgb(0,0,0); fill-rule: nonzero; opacity: 1;" vector-effect="non-scaling-stroke" transform=" translate(-1280, -1279.95)" d="M 1506 1505.95 H 1214.98 V 1214.93 H 1506 Z m -371.51 -80.49 v -291.02 h 291.02 v 50.48 h -225.53 c -8.29 0 -15 6.72 -15 15 v 225.54 z M 1054 1344.97 v -291.02 h 291.02 v 50.49 h -225.53 c -8.29 0 -15 6.71 -15 15 v 225.53 z m 467 -160.05 h -65.49 v -65.48 c 0 -8.29 -6.71 -15 -15 -15 h -65.49 v -65.49 c 0 -8.29 -6.71 -15 -15 -15 H 1039 c -8.29 0 -15 6.71 -15 15 v 321.02 c 0 8.29 6.71 15 15 15 h 65.49 v 65.49 c 0 8.29 6.71 15 15 15 h 65.49 v 65.49 c 0 8.28 6.71 15 15 15 H 1521 c 8.29 0 15 -6.72 15 -15 v -321.03 c 0 -8.28 -6.71 -15 -15 -15" stroke-linecap="round"/>
</g>
<g transform="matrix(2.4376 0 0 2.4376 644.8842 542.0488)" id="387327">
<g style="" vector-effect="non-scaling-stroke">
		<g transform="matrix(1 0 0 1 0 0)" id="489301">
<rect style="stroke: none; stroke-width: 1; stroke-dasharray: none; stroke-linecap: butt; stroke-dashoffset: 0; stroke-linejoin: miter; stroke-miterlimit: 4; is-custom-font: none; font-file-url: none; fill: rgb(255,255,255); fill-opacity: 0.01; fill-rule: nonzero; opacity: 1;" x="-24" y="-24" rx="0" ry="0" width="48" height="48"/>
</g>
		<g transform="matrix(1 0 0 1 -17 -10)" id="314973">
<path style="stroke: rgb(0,0,0); stroke-width: 4; stroke-dasharray: none; stroke-linecap: round; stroke-dashoffset: 0; stroke-linejoin: round; stroke-miterlimit: 4; is-custom-font: none; font-file-url: none; fill: none; fill-rule: nonzero; opacity: 1;" transform=" translate(-7, -14)" d="M 10 8 L 4 14 L 10 20" stroke-linecap="round"/>
</g>
		<g transform="matrix(1 0 0 1 17 10)" id="396562">
<path style="stroke: rgb(0,0,0); stroke-width: 4; stroke-dasharray: none; stroke-linecap: round; stroke-dashoffset: 0; stroke-linejoin: round; stroke-miterlimit: 4; is-custom-font: none; font-file-url: none; fill: none; fill-rule: nonzero; opacity: 1;" transform=" translate(-41, -34)" d="M 38 28 L 44 34 L 38 40" stroke-linecap="round"/>
</g>
		<g transform="matrix(1 0 0 1 0 -10)" id="297053">
<path style="stroke: rgb(0,0,0); stroke-width: 4; stroke-dasharray: none; stroke-linecap: round; stroke-dashoffset: 0; stroke-linejoin: round; stroke-miterlimit: 4; is-custom-font: none; font-file-url: none; fill: none; fill-rule: nonzero; opacity: 1;" transform=" translate(-24, -14)" d="M 4 14 H 44" stroke-linecap="round"/>
</g>
		<g transform="matrix(1 0 0 1 0 10)" id="913820">
<path style="stroke: rgb(0,0,0); stroke-width: 4; stroke-dasharray: none; stroke-linecap: round; stroke-dashoffset: 0; stroke-linejoin: round; stroke-miterlimit: 4; is-custom-font: none; font-file-url: none; fill: none; fill-rule: nonzero; opacity: 1;" transform=" translate(-24, -34)" d="M 4 34 H 44" stroke-linecap="round"/>
</g>
</g>
</g>
<g transform="matrix(0.1329 0 0 0.1329 2281.7624 908.1401)" id="627432">
<g style="" vector-effect="non-scaling-stroke">
		<g transform="matrix(33.3333 0 0 33.3333 3.183 17.5996)" id="314321">
<path style="stroke: none; stroke-width: 1; stroke-dasharray: none; stroke-linecap: butt; stroke-dashoffset: 0; stroke-linejoin: miter; stroke-miterlimit: 4; is-custom-font: none; font-file-url: none; fill: rgb(0,0,0); fill-rule: nonzero; opacity: 1;" transform=" translate(-12.0955, -12.528)" d="M 16 10 H 8 V 9 h 8 z m -4.87 11 l 1.064 1 H 3.5 C 2.122 22 1 20.43 1 18.5 S 2.122 15 3.5 15 H 5 V 5.75 C 5 3.682 6.122 2 7.5 2 h 13 c 1.378 0 2.45 1.57 2.45 3.5 S 21.878 9 20.5 9 H 19 v 7.138 l -1 0.979 V 5.75 A 5.994 5.994 0 0 1 18.64 3 H 7.5 C 6.792 3 6 4.176 6 5.75 V 15 h 10.57 l -0.71 0.826 A 4.141 4.141 0 0 0 15 18.5 a 5.186 5.186 0 0 0 0.047 0.692 l -1.032 -0.971 A 5.555 5.555 0 0 1 14.557 16 H 3.5 C 2.701 16 2 17.168 2 18.5 S 2.701 21 3.5 21 z M 19 8 h 1.5 c 0.799 0 1.55 -1.168 1.55 -2.5 S 21.299 3 20.5 3 h -0.677 A 4.62 4.62 0 0 0 19 5.75 z M 8 13 h 8 v -1 H 8 z m 8 -7 H 8 v 1 h 8 z m 6.491 8.819 l -6.998 6.851 l -2.832 -2.663 l -0.685 0.728 l 3.53 3.321 l 7.685 -7.522 z" stroke-linecap="round"/>
</g>
		<g transform="matrix(33.3333 0 0 33.3333 -0.0005 -0.0005)" id="168962">
<path style="stroke: none; stroke-width: 1; stroke-dasharray: none; stroke-linecap: butt; stroke-dashoffset: 0; stroke-linejoin: miter; stroke-miterlimit: 4; is-custom-font: none; font-file-url: none; fill: none; fill-rule: nonzero; opacity: 1;" transform=" translate(-12, -12)" d="M 0 0 h 24 v 24 H 0 z" stroke-linecap="round"/>
</g>
</g>
</g>
<g transform="matrix(0.1329 0 0 0.1329 2161.4191 990.5149)" id="244484">
<g style="" vector-effect="non-scaling-stroke">
		<g transform="matrix(33.3333 0 0 33.3333 3.183 17.5996)" id="404560">
<path style="stroke: none; stroke-width: 1; stroke-dasharray: none; stroke-linecap: butt; stroke-dashoffset: 0; stroke-linejoin: miter; stroke-miterlimit: 4; is-custom-font: none; font-file-url: none; fill: rgb(0,0,0); fill-rule: nonzero; opacity: 1;" transform=" translate(-12.0955, -12.528)" d="M 16 10 H 8 V 9 h 8 z m -4.87 11 l 1.064 1 H 3.5 C 2.122 22 1 20.43 1 18.5 S 2.122 15 3.5 15 H 5 V 5.75 C 5 3.682 6.122 2 7.5 2 h 13 c 1.378 0 2.45 1.57 2.45 3.5 S 21.878 9 20.5 9 H 19 v 7.138 l -1 0.979 V 5.75 A 5.994 5.994 0 0 1 18.64 3 H 7.5 C 6.792 3 6 4.176 6 5.75 V 15 h 10.57 l -0.71 0.826 A 4.141 4.141 0 0 0 15 18.5 a 5.186 5.186 0 0 0 0.047 0.692 l -1.032 -0.971 A 5.555 5.555 0 0 1 14.557 16 H 3.5 C 2.701 16 2 17.168 2 18.5 S 2.701 21 3.5 21 z M 19 8 h 1.5 c 0.799 0 1.55 -1.168 1.55 -2.5 S 21.299 3 20.5 3 h -0.677 A 4.62 4.62 0 0 0 19 5.75 z M 8 13 h 8 v -1 H 8 z m 8 -7 H 8 v 1 h 8 z m 6.491 8.819 l -6.998 6.851 l -2.832 -2.663 l -0.685 0.728 l 3.53 3.321 l 7.685 -7.522 z" stroke-linecap="round"/>
</g>
		<g transform="matrix(33.3333 0 0 33.3333 -0.0005 -0.0005)" id="29562">
<path style="stroke: none; stroke-width: 1; stroke-dasharray: none; stroke-linecap: butt; stroke-dashoffset: 0; stroke-linejoin: miter; stroke-miterlimit: 4; is-custom-font: none; font-file-url: none; fill: none; fill-rule: nonzero; opacity: 1;" transform=" translate(-12, -12)" d="M 0 0 h 24 v 24 H 0 z" stroke-linecap="round"/>
</g>
</g>
</g>
<g transform="matrix(0.259 0 0 0.259 865.2382 109.7018)" id="591013">
<path style="stroke: none; stroke-width: 0; stroke-dasharray: none; stroke-linecap: butt; stroke-dashoffset: 0; stroke-linejoin: miter; stroke-miterlimit: 4; is-custom-font: none; font-file-url: none; fill: rgb(211,67,13); fill-rule: nonzero; opacity: 1;" vector-effect="non-scaling-stroke" transform=" translate(-145.0295, -145.0316)" d="M 242.669 0.001 c -1.827 -0.028 -3.524 0.943 -4.426 2.533 l -8.051 13.734 c -2.41 -0.78 -4.976 -1.205 -7.637 -1.205 c -13.748 0 -25 11.252 -25 25 c 0 7.189 3.081 13.692 7.982 18.264 l -32.469 55.385 c -4.681 -2.33 -9.948 -3.648 -15.514 -3.648 c -17.393 0 -31.896 12.815 -34.559 29.48 l -35.471 -5.602 c -0.592 -13.233 -11.599 -23.879 -24.971 -23.879 c -13.748 0 -25 11.252 -25 25 c 0 6.139 2.249 11.776 5.957 16.141 l -39.889 50.77 c -1.74 2.145 -1.412 5.294 0.733 7.034 s 5.294 1.412 7.034 -0.733 c 0.033 -0.04 0.065 -0.081 0.097 -0.123 l 39.879 -50.756 c 3.372 1.703 7.173 2.668 11.189 2.668 c 10.671 0 19.835 -6.781 23.404 -16.244 l 36.906 5.826 c 2.259 17.119 16.972 30.418 34.689 30.418 c 19.271 0 35 -15.729 35 -35 c 0 -10.113 -4.336 -19.246 -11.238 -25.646 l 32.74 -55.852 c 2.656 0.968 5.518 1.498 8.498 1.498 c 13.748 0 25 -11.252 25 -25 c 0 -7.514 -3.367 -14.276 -8.66 -18.869 L 246.87 7.59 c 1.43 -2.362 0.675 -5.437 -1.688 -6.867 C 244.423 0.263 243.556 0.014 242.669 0.001 z M 222.555 25.063 c 2.371 0 4.596 0.553 6.58 1.514 c 0.436 0.346 0.926 0.618 1.451 0.803 c 4.197 2.646 6.969 7.308 6.969 12.684 c 0 8.343 -6.657 15 -15 15 c -2.572 0 -4.982 -0.636 -7.088 -1.756 c -0.453 -0.411 -0.977 -0.735 -1.547 -0.957 c -3.857 -2.702 -6.365 -7.173 -6.365 -12.287 C 207.555 31.72 214.212 25.063 222.555 25.063 z M 222.555 27.563 c -6.874 0 -12.5 5.626 -12.5 12.5 c -0.02 1.381 1.084 2.516 2.465 2.535 c 1.381 0.02 2.516 -1.084 2.535 -2.465 c 0 -0.024 0 -0.047 0 -0.071 c 0 -4.172 3.328 -7.5 7.5 -7.5 c 1.381 0.02 2.516 -1.084 2.535 -2.465 s -1.084 -2.516 -2.465 -2.535 C 222.603 27.563 222.579 27.563 222.555 27.563 z M 208.421 111.794 c -2.761 0.066 -4.946 2.357 -4.88 5.118 c 0.032 1.349 0.608 2.628 1.597 3.546 c 19.253 18.379 24.542 46.98 13.137 71.029 c -11.405 24.049 -36.896 38.051 -63.311 34.773 c -26.414 -3.277 -47.713 -23.084 -52.895 -49.191 c -0.492 -2.717 -3.095 -4.521 -5.812 -4.029 s -4.521 3.095 -4.029 5.812 c 0.01 0.054 0.021 0.108 0.032 0.162 c 6.014 30.3 30.815 53.366 61.471 57.17 c 15.841 1.965 31.418 -1.449 44.605 -9.049 l 53.797 61.229 c 1.824 2.074 4.983 2.277 7.057 0.454 c 0.08 -0.071 0.158 -0.144 0.234 -0.219 l 26.668 -26.666 c 1.952 -1.953 1.951 -5.119 -0.002 -7.072 c -0.054 -0.053 -0.108 -0.106 -0.164 -0.157 l -60.518 -55.234 c 0.663 -1.211 1.305 -2.438 1.902 -3.697 c 13.237 -27.912 7.075 -61.218 -15.27 -82.549 C 211.077 112.277 209.771 111.761 208.421 111.794 z M 62.555 120.063 c 8.344 0 15 6.657 15 15 s -6.657 15 -15 15 c -3.185 0 -6.12 -0.977 -8.537 -2.641 c -0.002 -0.001 -0.002 -0.003 -0.004 -0.004 c -0.398 -0.451 -0.875 -0.826 -1.406 -1.107 c -3.101 -2.739 -5.053 -6.742 -5.053 -11.248 C 47.555 126.72 54.212 120.063 62.555 120.063 z M 157.555 120.063 c 5.031 0 9.699 1.472 13.609 4.002 c 0.462 0.491 1.019 0.884 1.637 1.154 c 5.939 4.56 9.754 11.732 9.754 19.844 c 0 13.866 -11.134 25 -25 25 c -13.502 0 -24.408 -10.558 -24.973 -23.914 c 0.091 -0.558 0.088 -1.128 -0.012 -1.686 C 132.888 130.878 143.89 120.063 157.555 120.063 z M 62.555 122.563 c -6.874 0 -12.5 5.626 -12.5 12.5 c -0.02 1.381 1.084 2.516 2.465 2.535 s 2.516 -1.084 2.535 -2.465 c 0 -0.024 0 -0.047 0 -0.071 c 0 -4.172 3.328 -7.5 7.5 -7.5 c 1.381 0.02 2.516 -1.084 2.535 -2.465 c 0.02 -1.381 -1.084 -2.516 -2.465 -2.535 C 62.603 122.563 62.579 122.563 62.555 122.563 z M 157.555 127.563 c -9.635 0 -17.5 7.865 -17.5 17.5 c -0.02 1.381 1.084 2.516 2.465 2.535 c 1.381 0.02 2.516 -1.084 2.535 -2.465 c 0 -0.024 0 -0.047 0 -0.071 c 0 -6.933 5.567 -12.5 12.5 -12.5 c 1.381 0.02 2.516 -1.084 2.535 -2.465 c 0.02 -1.381 -1.084 -2.516 -2.465 -2.535 C 157.603 127.563 157.579 127.563 157.555 127.563 z M 212.778 162.528 c -1.379 0.022 -2.48 1.156 -2.461 2.535 c 0 26.407 -21.355 47.762 -47.762 47.762 c -1.381 -0.02 -2.516 1.084 -2.535 2.465 c -0.02 1.381 1.084 2.516 2.465 2.535 c 0.024 0 0.047 0 0.071 0 c 29.109 0 52.762 -23.652 52.762 -52.762 c 0.019 -1.381 -1.084 -2.516 -2.465 -2.535 C 212.828 162.528 212.803 162.528 212.778 162.528 z M 219.932 208.01 l 43.756 39.934 l -18.584 17.27 l -38.406 -43.709 C 211.641 217.642 216.106 213.122 219.932 208.01 z M 267.393 251.327 l 7.928 7.234 l -19.195 19.195 l -7.719 -8.785 L 267.393 251.327 z" stroke-linecap="round"/>
</g>
<g transform="matrix(2.4376 0 0 2.4376 1885.6478 542.0488)" id="664754">
<g style="" vector-effect="non-scaling-stroke">
		<g transform="matrix(1 0 0 1 0 0)" id="842143">
<rect style="stroke: none; stroke-width: 1; stroke-dasharray: none; stroke-linecap: butt; stroke-dashoffset: 0; stroke-linejoin: miter; stroke-miterlimit: 4; is-custom-font: none; font-file-url: none; fill: rgb(255,255,255); fill-opacity: 0.01; fill-rule: nonzero; opacity: 1;" x="-24" y="-24" rx="0" ry="0" width="48" height="48"/>
</g>
		<g transform="matrix(1 0 0 1 -17 -10)" id="849425">
<path style="stroke: rgb(0,0,0); stroke-width: 4; stroke-dasharray: none; stroke-linecap: round; stroke-dashoffset: 0; stroke-linejoin: round; stroke-miterlimit: 4; is-custom-font: none; font-file-url: none; fill: none; fill-rule: nonzero; opacity: 1;" transform=" translate(-7, -14)" d="M 10 8 L 4 14 L 10 20" stroke-linecap="round"/>
</g>
		<g transform="matrix(1 0 0 1 17 10)" id="175257">
<path style="stroke: rgb(0,0,0); stroke-width: 4; stroke-dasharray: none; stroke-linecap: round; stroke-dashoffset: 0; stroke-linejoin: round; stroke-miterlimit: 4; is-custom-font: none; font-file-url: none; fill: none; fill-rule: nonzero; opacity: 1;" transform=" translate(-41, -34)" d="M 38 28 L 44 34 L 38 40" stroke-linecap="round"/>
</g>
		<g transform="matrix(1 0 0 1 0 -10)" id="680549">
<path style="stroke: rgb(0,0,0); stroke-width: 4; stroke-dasharray: none; stroke-linecap: round; stroke-dashoffset: 0; stroke-linejoin: round; stroke-miterlimit: 4; is-custom-font: none; font-file-url: none; fill: none; fill-rule: nonzero; opacity: 1;" transform=" translate(-24, -14)" d="M 4 14 H 44" stroke-linecap="round"/>
</g>
		<g transform="matrix(1 0 0 1 0 10)" id="757859">
<path style="stroke: rgb(0,0,0); stroke-width: 4; stroke-dasharray: none; stroke-linecap: round; stroke-dashoffset: 0; stroke-linejoin: round; stroke-miterlimit: 4; is-custom-font: none; font-file-url: none; fill: none; fill-rule: nonzero; opacity: 1;" transform=" translate(-24, -34)" d="M 4 34 H 44" stroke-linecap="round"/>
</g>
</g>
</g>
<g transform="matrix(0.4087 0 0 0.4087 282.523 929.6635)" id="213650">
<path style="stroke: none; stroke-width: 0; stroke-dasharray: none; stroke-linecap: butt; stroke-dashoffset: 0; stroke-linejoin: round; stroke-miterlimit: 2; is-custom-font: none; font-file-url: none; fill: rgb(0,0,0); fill-rule: nonzero; opacity: 1;" vector-effect="non-scaling-stroke" transform=" translate(-1280, -1279.95)" d="M 1506 1505.95 H 1214.98 V 1214.93 H 1506 Z m -371.51 -80.49 v -291.02 h 291.02 v 50.48 h -225.53 c -8.29 0 -15 6.72 -15 15 v 225.54 z M 1054 1344.97 v -291.02 h 291.02 v 50.49 h -225.53 c -8.29 0 -15 6.71 -15 15 v 225.53 z m 467 -160.05 h -65.49 v -65.48 c 0 -8.29 -6.71 -15 -15 -15 h -65.49 v -65.49 c 0 -8.29 -6.71 -15 -15 -15 H 1039 c -8.29 0 -15 6.71 -15 15 v 321.02 c 0 8.29 6.71 15 15 15 h 65.49 v 65.49 c 0 8.29 6.71 15 15 15 h 65.49 v 65.49 c 0 8.28 6.71 15 15 15 H 1521 c 8.29 0 15 -6.72 15 -15 v -321.03 c 0 -8.28 -6.71 -15 -15 -15" stroke-linecap="round"/>
</g>
<g transform="matrix(1 0 0 1 1295.9599 119.6037)" style="" id="558011">
		
<path xml:space="preserve" font-family="Quicksand" font-size="103" font-weight="bold" style="stroke: none; stroke-width: 0; stroke-dasharray: none; stroke-linecap: butt; stroke-dashoffset: 0; stroke-linejoin: miter; stroke-miterlimit: 4; is-custom-font: none; font-file-url: none; fill: rgb(211,67,13); fill-rule: nonzero; opacity: 1; white-space: pre;" d="M-312.76 32.36L-312.76 32.36Q-315.64 32.36-317.45 30.55Q-319.25 28.75-319.25 26.07L-319.25 26.07L-319.25-33.46Q-319.25-36.14-317.45-37.94Q-315.64-39.74-312.97-39.74L-312.97-39.74L-279.49-39.74Q-276.81-39.74-275.01-38.04Q-273.21-36.34-273.21-33.67L-273.21-33.67Q-273.21-31.40-275.01-29.65Q-276.81-27.90-279.49-27.90L-279.49-27.90L-307.30-27.90L-306.37-29.13L-306.37-8.43L-307.09-9.77L-284.13-9.77Q-281.45-9.77-279.64-8.07Q-277.84-6.37-277.84-3.69L-277.84-3.69Q-277.84-1.43-279.64 0.32Q-281.45 2.07-284.13 2.07L-284.13 2.07L-307.30 2.07L-306.37 1.15L-306.37 26.07Q-306.37 28.75-308.28 30.55Q-310.18 32.36-312.76 32.36ZM-219.85-23.78L-219.85-23.78Q-217.18-23.78-215.42-22.03Q-213.67-20.28-213.67-17.50L-213.67-17.50L-213.67 26.07Q-213.67 28.75-215.42 30.55Q-217.18 32.36-219.85 32.36L-219.85 32.36Q-222.53 32.36-224.28 30.55Q-226.03 28.75-226.03 26.07L-226.03 26.07L-226.03 21.03L-223.77 21.95Q-223.77 23.29-225.21 25.20Q-226.65 27.10-229.12 28.96Q-231.60 30.81-234.94 32.10Q-238.29 33.39-242.20 33.39L-242.20 33.39Q-249.31 33.39-255.08 29.73Q-260.85 26.07-264.19 19.64Q-267.54 13.20-267.54 4.86L-267.54 4.86Q-267.54-3.59-264.19-10.03Q-260.85-16.47-255.18-20.12Q-249.52-23.78-242.62-23.78L-242.62-23.78Q-238.19-23.78-234.48-22.44Q-230.77-21.10-228.04-19.04Q-225.31-16.98-223.82-14.87Q-222.33-12.76-222.33-11.32L-222.33-11.32L-226.03-9.98L-226.03-17.50Q-226.03-20.17-224.28-21.98Q-222.53-23.78-219.85-23.78ZM-240.66 22.06L-240.66 22.06Q-236.13 22.06-232.73 19.79Q-229.33 17.52-227.42 13.61Q-225.52 9.70-225.52 4.86L-225.52 4.86Q-225.52-0.09-227.42-4.00Q-229.33-7.92-232.73-10.18Q-236.13-12.45-240.66-12.45L-240.66-12.45Q-245.09-12.45-248.49-10.18Q-251.89-7.92-253.79-4.00Q-255.70-0.09-255.70 4.86L-255.70 4.86Q-255.70 9.70-253.79 13.61Q-251.89 17.52-248.49 19.79Q-245.09 22.06-240.66 22.06ZM-188.64-16.47L-188.64 26.07Q-188.64 28.75-190.40 30.55Q-192.15 32.36-194.82 32.36L-194.82 32.36Q-197.50 32.36-199.25 30.55Q-201.00 28.75-201.00 26.07L-201.00 26.07L-201.00-16.47Q-201.00-19.14-199.25-20.95Q-197.50-22.75-194.82-22.75L-194.82-22.75Q-192.15-22.75-190.40-20.95Q-188.64-19.14-188.64-16.47L-188.64-16.47ZM-194.93-29.44L-194.93-29.44Q-198.43-29.44-199.87-30.58Q-201.31-31.71-201.31-34.59L-201.31-34.59L-201.31-36.55Q-201.31-39.54-199.72-40.62Q-198.12-41.70-194.82-41.70L-194.82-41.70Q-191.22-41.70-189.78-40.57Q-188.34-39.43-188.34-36.55L-188.34-36.55L-188.34-34.59Q-188.34-31.61-189.88-30.53Q-191.43-29.44-194.93-29.44ZM-169.80 32.36L-169.80 32.36Q-172.47 32.36-174.22 30.55Q-175.98 28.75-175.98 26.07L-175.98 26.07L-175.98-16.47Q-175.98-19.14-174.22-20.95Q-172.47-22.75-169.80-22.75L-169.80-22.75Q-167.12-22.75-165.37-20.95Q-163.62-19.14-163.62-16.47L-163.62-16.47L-163.62-6.78L-164.34-13.68Q-163.20-16.16-161.40-18.06Q-159.60-19.97-157.33-21.26Q-155.07-22.54-152.49-23.16Q-149.92-23.78-147.34-23.78L-147.34-23.78Q-144.25-23.78-142.14-22.03Q-140.03-20.28-140.03-17.91L-140.03-17.91Q-140.03-14.51-141.78-13.02Q-143.53-11.52-145.59-11.52L-145.59-11.52Q-147.55-11.52-149.14-12.24Q-150.74-12.96-152.80-12.96L-152.80-12.96Q-154.65-12.96-156.56-12.09Q-158.47-11.21-160.06-9.36Q-161.66-7.50-162.64-4.78Q-163.62-2.05-163.62 1.66L-163.62 1.66L-163.62 26.07Q-163.62 28.75-165.37 30.55Q-167.12 32.36-169.80 32.36Z"/><path xml:space="preserve" font-family="Quicksand" font-size="103" font-weight="bold" style="stroke: none; stroke-width: 0; stroke-dasharray: none; stroke-linecap: butt; stroke-dashoffset: 0; stroke-linejoin: miter; stroke-miterlimit: 4; is-custom-font: none; font-file-url: none; fill: rgb(12,35,64); fill-rule: nonzero; opacity: 1; white-space: pre;" d="M-122.31 32.36L-122.31 32.36Q-125.20 32.36-127.46 30.55Q-129.73 28.75-129.73 26.07L-129.73 26.07L-129.73-33.46Q-129.73-36.14-127.93-37.94Q-126.12-39.74-123.45-39.74L-123.45-39.74L-93.78-39.74Q-88.43-39.74-83.74-36.91Q-79.05-34.08-76.17-29.08Q-73.28-24.09-73.28-17.60L-73.28-17.60Q-73.28-13.68-74.88-9.98Q-76.48-6.27-79.21-3.28Q-81.94-0.29-85.34 1.35L-85.34 1.35L-85.23-1.02Q-82.35 0.53-80.44 2.64Q-78.54 4.75-77.46 7.17Q-76.37 9.59-76.17 12.37L-76.17 12.37Q-75.76 14.95-75.60 16.91Q-75.45 18.86-74.98 20.20Q-74.52 21.54-73.18 22.26L-73.18 22.26Q-70.92 23.60-70.35 26.12Q-69.78 28.65-71.53 30.61L-71.53 30.61Q-72.67 31.94-74.42 32.30Q-76.17 32.67-77.92 32.30Q-79.67 31.94-80.80 31.33L-80.80 31.33Q-82.55 30.30-84.31 28.29Q-86.06 26.28-87.14 22.88Q-88.22 19.48-88.22 14.13L-88.22 14.13Q-88.22 12.37-88.84 10.88Q-89.46 9.39-90.59 8.31Q-91.72 7.22-93.47 6.66Q-95.22 6.09-97.59 6.09L-97.59 6.09L-118.40 6.09L-116.85 3.72L-116.85 26.07Q-116.85 28.75-118.30 30.55Q-119.74 32.36-122.31 32.36ZM-116.85-2.05L-118.30-4.52L-94.30-4.52Q-92.44-4.52-90.69-6.22Q-88.94-7.92-87.81-10.85Q-86.67-13.79-86.67-17.29L-86.67-17.29Q-86.67-21.82-89.09-24.86Q-91.52-27.90-94.30-27.90L-94.30-27.90L-118.09-27.90L-116.85-31.19L-116.85-2.05ZM-35.07 33.39L-35.07 33.39Q-43.83 33.39-50.26 29.73Q-56.70 26.07-60.15 19.79Q-63.60 13.51-63.60 5.58L-63.60 5.58Q-63.60-3.69-59.84-10.23Q-56.08-16.77-50.01-20.28Q-43.93-23.78-37.13-23.78L-37.13-23.78Q-31.88-23.78-27.19-21.62Q-22.51-19.45-18.90-15.69Q-15.30-11.93-13.18-6.99Q-11.07-2.05-11.07 3.52L-11.07 3.52Q-11.18 5.99-13.03 7.53Q-14.88 9.08-17.36 9.08L-17.36 9.08L-56.70 9.08L-59.79-1.22L-21.99-1.22L-24.26 0.84L-24.26-1.94Q-24.46-4.93-26.37-7.30Q-28.27-9.67-31.11-11.06Q-33.94-12.45-37.13-12.45L-37.13-12.45Q-40.22-12.45-42.90-11.62Q-45.58-10.80-47.53-8.84Q-49.49-6.89-50.62-3.59Q-51.76-0.29-51.76 4.75L-51.76 4.75Q-51.76 10.31-49.44 14.18Q-47.12 18.04-43.47 20.05Q-39.81 22.06-35.69 22.06L-35.69 22.06Q-31.88 22.06-29.61 21.44Q-27.35 20.82-25.96 19.94Q-24.57 19.07-23.43 18.45L-23.43 18.45Q-21.58 17.52-19.93 17.52L-19.93 17.52Q-17.66 17.52-16.17 19.07Q-14.68 20.61-14.68 22.67L-14.68 22.67Q-14.68 25.46-17.56 27.72L-17.56 27.72Q-20.24 29.99-25.08 31.69Q-29.92 33.39-35.07 33.39ZM23.23-23.78L23.23-23.78Q29.10-23.78 33.48-22.54Q37.85-21.31 40.27-19.09Q42.69-16.88 42.69-13.79L42.69-13.79Q42.69-11.73 41.46-9.93Q40.22-8.12 37.85-8.12L37.85-8.12Q36.20-8.12 35.12-8.59Q34.04-9.05 33.22-9.77Q32.39-10.49 31.26-11.11L31.26-11.11Q30.23-11.73 28.12-12.09Q26.01-12.45 24.98-12.45L24.98-12.45Q19.72-12.45 16.07-10.18Q12.41-7.92 10.45-4.05Q8.50-0.19 8.50 4.86L8.50 4.86Q8.50 9.80 10.51 13.66Q12.51 17.52 16.07 19.79Q19.62 22.06 24.26 22.06L24.26 22.06Q26.83 22.06 28.69 21.75Q30.54 21.44 31.78 20.82L31.78 20.82Q33.22 20.00 34.35 19.07Q35.48 18.14 37.75 18.14L37.75 18.14Q40.43 18.14 41.87 19.84Q43.31 21.54 43.31 24.01L43.31 24.01Q43.31 26.59 40.43 28.70Q37.54 30.81 32.86 32.10Q28.17 33.39 22.71 33.39L22.71 33.39Q14.57 33.39 8.60 29.63Q2.63 25.87-0.62 19.38Q-3.86 12.89-3.86 4.86L-3.86 4.86Q-3.86-3.59-0.41-10.03Q3.04-16.47 9.17-20.12Q15.30-23.78 23.23-23.78ZM105.21 4.86L105.21 4.86Q105.21 13.30 101.46 19.74Q97.70 26.18 91.36 29.78Q85.03 33.39 77.20 33.39L77.20 33.39Q69.37 33.39 63.04 29.78Q56.70 26.18 52.94 19.74Q49.18 13.30 49.18 4.86L49.18 4.86Q49.18-3.59 52.94-10.03Q56.70-16.47 63.04-20.12Q69.37-23.78 77.20-23.78L77.20-23.78Q85.03-23.78 91.36-20.12Q97.70-16.47 101.46-10.03Q105.21-3.59 105.21 4.86ZM92.85 4.86L92.85 4.86Q92.85-0.40 90.74-4.26Q88.63-8.12 85.08-10.29Q81.52-12.45 77.20-12.45L77.20-12.45Q72.87-12.45 69.32-10.29Q65.77-8.12 63.65-4.26Q61.54-0.40 61.54 4.86L61.54 4.86Q61.54 10.01 63.65 13.87Q65.77 17.73 69.32 19.89Q72.87 22.06 77.20 22.06L77.20 22.06Q81.52 22.06 85.08 19.89Q88.63 17.73 90.74 13.87Q92.85 10.01 92.85 4.86ZM156.41-22.75L156.41-22.75Q159.08-22.75 160.83-20.95Q162.59-19.14 162.59-16.47L162.59-16.47L162.59 9.70Q162.59 20.61 156.51 27.00Q150.43 33.39 139.00 33.39L139.00 33.39Q127.57 33.39 121.54 27.00Q115.51 20.61 115.51 9.70L115.51 9.70L115.51-16.47Q115.51-19.14 117.27-20.95Q119.02-22.75 121.69-22.75L121.69-22.75Q124.37-22.75 126.12-20.95Q127.87-19.14 127.87-16.47L127.87-16.47L127.87 9.70Q127.87 15.98 130.66 19.02Q133.44 22.06 139.00 22.06L139.00 22.06Q144.66 22.06 147.44 19.02Q150.23 15.98 150.23 9.70L150.23 9.70L150.23-16.47Q150.23-19.14 151.98-20.95Q153.73-22.75 156.41-22.75ZM182.16 32.36L182.16 32.36Q179.48 32.36 177.73 30.55Q175.98 28.75 175.98 26.07L175.98 26.07L175.98-16.47Q175.98-19.14 177.73-20.95Q179.48-22.75 182.16-22.75L182.16-22.75Q184.83-22.75 186.58-20.95Q188.34-19.14 188.34-16.47L188.34-16.47L188.34-6.78L187.61-13.68Q188.75-16.16 190.55-18.06Q192.35-19.97 194.62-21.26Q196.88-22.54 199.46-23.16Q202.03-23.78 204.61-23.78L204.61-23.78Q207.70-23.78 209.81-22.03Q211.92-20.28 211.92-17.91L211.92-17.91Q211.92-14.51 210.17-13.02Q208.42-11.52 206.36-11.52L206.36-11.52Q204.40-11.52 202.81-12.24Q201.21-12.96 199.15-12.96L199.15-12.96Q197.30-12.96 195.39-12.09Q193.49-11.21 191.89-9.36Q190.29-7.50 189.31-4.78Q188.34-2.05 188.34 1.66L188.34 1.66L188.34 26.07Q188.34 28.75 186.58 30.55Q184.83 32.36 182.16 32.36ZM217.48 23.81L217.48 23.81Q216.45 22.37 216.56 20.10Q216.66 17.83 219.24 16.19L219.24 16.19Q220.88 15.16 222.74 15.31Q224.59 15.46 226.34 17.22L226.34 17.22Q229.33 20.20 232.63 21.85Q235.92 23.50 240.87 23.50L240.87 23.50Q242.41 23.40 244.26 23.03Q246.12 22.67 247.51 21.39Q248.90 20.10 248.90 17.42L248.90 17.42Q248.90 15.16 247.35 13.82Q245.81 12.48 243.29 11.55Q240.76 10.62 237.67 9.80L237.67 9.80Q234.48 8.87 231.13 7.74Q227.78 6.61 225.00 4.80Q222.22 3.00 220.47 0.01Q218.72-2.97 218.72-7.50L218.72-7.50Q218.72-12.65 221.60-16.26Q224.49-19.86 229.07-21.82Q233.66-23.78 238.70-23.78L238.70-23.78Q241.90-23.78 245.40-23.01Q248.90-22.23 252.09-20.53Q255.29-18.83 257.45-16.05L257.45-16.05Q258.58-14.51 258.79-12.35Q258.99-10.18 256.83-8.43L256.83-8.43Q255.29-7.20 253.23-7.35Q251.17-7.50 249.83-8.74L249.83-8.74Q248.08-11.01 245.14-12.35Q242.20-13.68 238.39-13.68L238.39-13.68Q236.85-13.68 235.05-13.32Q233.24-12.96 231.90-11.78Q230.57-10.59 230.57-8.02L230.57-8.02Q230.57-5.65 232.11-4.26Q233.66-2.87 236.28-1.99Q238.91-1.12 241.90-0.29L241.90-0.29Q244.99 0.53 248.18 1.66Q251.37 2.80 254.05 4.65Q256.73 6.50 258.38 9.44Q260.02 12.37 260.02 16.91L260.02 16.91Q260.02 22.16 256.93 25.87Q253.84 29.58 249.21 31.48Q244.57 33.39 239.73 33.39L239.73 33.39Q233.66 33.39 227.58 31.27Q221.50 29.16 217.48 23.81ZM295.76 33.39L295.76 33.39Q287.01 33.39 280.57 29.73Q274.13 26.07 270.68 19.79Q267.23 13.51 267.23 5.58L267.23 5.58Q267.23-3.69 270.99-10.23Q274.75-16.77 280.83-20.28Q286.91-23.78 293.70-23.78L293.70-23.78Q298.96-23.78 303.64-21.62Q308.33-19.45 311.94-15.69Q315.54-11.93 317.65-6.99Q319.76-2.05 319.76 3.52L319.76 3.52Q319.66 5.99 317.81 7.53Q315.95 9.08 313.48 9.08L313.48 9.08L274.13 9.08L271.04-1.22L308.85-1.22L306.58 0.84L306.58-1.94Q306.37-4.93 304.47-7.30Q302.56-9.67 299.73-11.06Q296.90-12.45 293.70-12.45L293.70-12.45Q290.61-12.45 287.94-11.62Q285.26-10.80 283.30-8.84Q281.34-6.89 280.21-3.59Q279.08-0.29 279.08 4.75L279.08 4.75Q279.08 10.31 281.40 14.18Q283.71 18.04 287.37 20.05Q291.03 22.06 295.15 22.06L295.15 22.06Q298.96 22.06 301.22 21.44Q303.49 20.82 304.88 19.94Q306.27 19.07 307.40 18.45L307.40 18.45Q309.26 17.52 310.91 17.52L310.91 17.52Q313.17 17.52 314.67 19.07Q316.16 20.61 316.16 22.67L316.16 22.67Q316.16 25.46 313.27 27.72L313.27 27.72Q310.60 29.99 305.76 31.69Q300.91 33.39 295.76 33.39Z"/></g>
</svg>