<svg xmlns="http://www.w3.org/2000/svg" xmlns:xlink="http://www.w3.org/1999/xlink" version="1.1" width="2544" height="1266" viewBox="0 0 2544 1266" xml:space="preserve">
<desc>Created with Fabric.js 3.5.0</desc>
<defs>
</defs>
<rect x="0" y="0" width="100%" height="100%" fill="rgba(186,160,160,0.65)"/>
<g transform="matrix(0.8418 0 0 0.8418 917.3992 879.8703)" id="627064">
<g style="" vector-effect="non-scaling-stroke">
		<g transform="matrix(1 0 0 1 118.8661 -152.7393)" id="Layer_1">
<path style="stroke: none; stroke-width: 1; stroke-dasharray: none; stroke-linecap: butt; stroke-dashoffset: 0; stroke-linejoin: miter; stroke-miterlimit: 4; is-custom-font: none; font-file-url: none; fill: rgb(35,31,32); fill-rule: nonzero; opacity: 1;" transform=" translate(-374.8661, -103.2607)" d="M 376.33 41.18 c -44.46 0 -80.62 27.84 -80.62 62.07 a 51.45 51.45 0 0 0 10.66 30.93 l -12.95 22.37 a 4.76 4.76 0 0 0 5.07 7.06 l 36 -7.27 a 99.27 99.27 0 0 0 41.85 9 c 44.45 0 80.62 -27.85 80.62 -62.07 S 420.78 41.18 376.33 41.18 Z m 0 114.6 a 89.33 89.33 0 0 1 -39.14 -8.71 a 4.74 4.74 0 0 0 -2.09 -0.48 a 5.09 5.09 0 0 0 -1 0.09 L 307 152.17 l 9.27 -16 a 4.77 4.77 0 0 0 -0.46 -5.45 c -6.9 -8.25 -10.54 -17.75 -10.54 -27.46 c 0 -29 31.89 -52.54 71.09 -52.54 s 71.08 23.57 71.08 52.54 S 415.52 155.78 376.33 155.78 Z" stroke-linecap="round"/>
</g>
		<g transform="matrix(1 0 0 1 120.35 -165.66)" id="Layer_1">
<path style="stroke: none; stroke-width: 1; stroke-dasharray: none; stroke-linecap: butt; stroke-dashoffset: 0; stroke-linejoin: miter; stroke-miterlimit: 4; is-custom-font: none; font-file-url: none; fill: rgb(35,31,32); fill-rule: nonzero; opacity: 1;" transform=" translate(-376.35, -90.34)" d="M 414.85 85.57 h -77 a 4.77 4.77 0 1 0 0 9.54 h 77 a 4.77 4.77 0 0 0 0 -9.54 Z" stroke-linecap="round"/>
</g>
		<g transform="matrix(1 0 0 1 153.8667 -139.845)" id="Layer_1">
<path style="stroke: none; stroke-width: 1; stroke-dasharray: none; stroke-linecap: butt; stroke-dashoffset: 0; stroke-linejoin: miter; stroke-miterlimit: 4; is-custom-font: none; font-file-url: none; fill: rgb(35,31,32); fill-rule: nonzero; opacity: 1;" transform=" translate(-409.8667, -116.155)" d="M 414.85 111.39 h -9.53 a 4.77 4.77 0 1 0 0 9.53 h 9.53 a 4.77 4.77 0 0 0 0 -9.53 Z" stroke-linecap="round"/>
</g>
		<g transform="matrix(1 0 0 1 104.045 -139.845)" id="Layer_1">
<path style="stroke: none; stroke-width: 1; stroke-dasharray: none; stroke-linecap: butt; stroke-dashoffset: 0; stroke-linejoin: miter; stroke-miterlimit: 4; is-custom-font: none; font-file-url: none; fill: rgb(35,31,32); fill-rule: nonzero; opacity: 1;" transform=" translate(-360.045, -116.155)" d="M 382.28 111.39 H 337.81 a 4.77 4.77 0 1 0 0 9.53 h 44.47 a 4.77 4.77 0 1 0 0 -9.53 Z" stroke-linecap="round"/>
</g>
		<g transform="matrix(1 0 0 1 -24.6175 -88.2954)" id="Layer_1">
<path style="stroke: none; stroke-width: 1; stroke-dasharray: none; stroke-linecap: butt; stroke-dashoffset: 0; stroke-linejoin: miter; stroke-miterlimit: 4; is-custom-font: none; font-file-url: none; fill: rgb(35,31,32); fill-rule: nonzero; opacity: 1;" transform=" translate(-231.3825, -167.7046)" d="M 170.11 250.18 a 4.77 4.77 0 0 0 4.76 -4.77 V 220.07 a 48.74 48.74 0 0 1 48.68 -48.68 h 15.66 a 48.74 48.74 0 0 1 48.68 48.68 v 25.34 a 4.77 4.77 0 1 0 9.53 0 V 220.07 a 58.29 58.29 0 0 0 -42.12 -55.93 a 43.18 43.18 0 1 0 -47.84 0 a 58.3 58.3 0 0 0 -42.12 55.93 v 25.34 A 4.77 4.77 0 0 0 170.11 250.18 Z m 27.63 -122 a 33.64 33.64 0 1 1 33.64 33.64 A 33.69 33.69 0 0 1 197.74 128.22 Z" stroke-linecap="round"/>
</g>
		<g transform="matrix(1 0 0 1 -56.87 -27.405)" id="Layer_1">
<path style="stroke: none; stroke-width: 1; stroke-dasharray: none; stroke-linecap: butt; stroke-dashoffset: 0; stroke-linejoin: miter; stroke-miterlimit: 4; is-custom-font: none; font-file-url: none; fill: rgb(35,31,32); fill-rule: nonzero; opacity: 1;" transform=" translate(-199.13, -228.595)" d="M 194.36 211.78 v 33.63 a 4.77 4.77 0 0 0 9.54 0 V 211.78 a 4.77 4.77 0 0 0 -9.54 0 Z" stroke-linecap="round"/>
</g>
		<g transform="matrix(1 0 0 1 7.63 -27.405)" id="Layer_1">
<path style="stroke: none; stroke-width: 1; stroke-dasharray: none; stroke-linecap: butt; stroke-dashoffset: 0; stroke-linejoin: miter; stroke-miterlimit: 4; is-custom-font: none; font-file-url: none; fill: rgb(35,31,32); fill-rule: nonzero; opacity: 1;" transform=" translate(-263.63, -228.595)" d="M 268.4 245.41 V 211.78 a 4.77 4.77 0 1 0 -9.54 0 v 33.63 a 4.77 4.77 0 0 0 9.54 0 Z" stroke-linecap="round"/>
</g>
		<g transform="matrix(1 0 0 1 -24.73 150.4845)" id="Layer_1">
<path style="stroke: none; stroke-width: 1; stroke-dasharray: none; stroke-linecap: butt; stroke-dashoffset: 0; stroke-linejoin: miter; stroke-miterlimit: 4; is-custom-font: none; font-file-url: none; fill: rgb(35,31,32); fill-rule: nonzero; opacity: 1;" transform=" translate(-231.27, -406.4846)" d="M 365.24 407.26 a 35.48 35.48 0 1 0 -39 0 a 62.27 62.27 0 0 0 -37.7 35 a 62.26 62.26 0 0 0 -37.71 -35 a 35.48 35.48 0 1 0 -39 0 a 62.23 62.23 0 0 0 -37.71 35 a 62.21 62.21 0 0 0 -37.7 -35 a 35.48 35.48 0 1 0 -39 0 a 62 62 0 0 0 -42.48 58.8 a 4.77 4.77 0 0 0 9.54 0 a 52.42 52.42 0 1 1 104.84 0 a 4.77 4.77 0 0 0 9.53 0 a 52.42 52.42 0 1 1 104.84 0 a 4.77 4.77 0 0 0 9.54 0 a 52.42 52.42 0 1 1 104.83 0 a 4.77 4.77 0 0 0 9.54 0 A 62 62 0 0 0 365.24 407.26 Z M 117 403.57 A 25.95 25.95 0 1 1 143 377.63 A 26 26 0 0 1 117 403.57 Z m 114.37 0 a 25.95 25.95 0 1 1 25.95 -25.94 A 26 26 0 0 1 231.38 403.57 Z m 114.37 0 a 25.95 25.95 0 1 1 25.95 -25.94 A 26 26 0 0 1 345.75 403.57 Z" stroke-linecap="round"/>
</g>
		<g transform="matrix(1 0 0 1 -81.7595 62.8496)" id="Layer_1">
<path style="stroke: none; stroke-width: 1; stroke-dasharray: none; stroke-linecap: butt; stroke-dashoffset: 0; stroke-linejoin: miter; stroke-miterlimit: 4; is-custom-font: none; font-file-url: none; fill: rgb(35,31,32); fill-rule: nonzero; opacity: 1;" transform=" translate(-174.2405, -318.8496)" d="M 174.19 350.09 A 31.24 31.24 0 1 0 143 318.85 A 31.28 31.28 0 0 0 174.19 350.09 Z m 0 -52.95 a 21.71 21.71 0 1 1 -21.7 21.71 A 21.74 21.74 0 0 1 174.19 297.14 Z" stroke-linecap="round"/>
</g>
		<g transform="matrix(1 0 0 1 32.57 62.85)" id="Layer_1">
<path style="stroke: none; stroke-width: 1; stroke-dasharray: none; stroke-linecap: butt; stroke-dashoffset: 0; stroke-linejoin: miter; stroke-miterlimit: 4; is-custom-font: none; font-file-url: none; fill: rgb(35,31,32); fill-rule: nonzero; opacity: 1;" transform=" translate(-288.57, -318.85)" d="M 288.57 350.09 a 31.24 31.24 0 1 0 -31.24 -31.24 A 31.28 31.28 0 0 0 288.57 350.09 Z m 0 -52.95 a 21.71 21.71 0 1 1 -21.71 21.71 A 21.74 21.74 0 0 1 288.57 297.14 Z" stroke-linecap="round"/>
</g>
</g>
</g>
<g transform="matrix(0.9337 0 0 0.9363 373.3594 503.5927)" id="476688">
<path style="stroke: none; stroke-width: 1; stroke-dasharray: none; stroke-linecap: butt; stroke-dashoffset: 0; stroke-linejoin: miter; stroke-miterlimit: 4; is-custom-font: none; font-file-url: none; fill: rgb(35,31,32); fill-rule: nonzero; opacity: 1;" vector-effect="non-scaling-stroke" transform=" translate(-256.06, -256.02)" d="M 450.39 411.23 c -0.35 -0.29 -0.69 -0.5 -1 -0.76 a 34.71 34.71 0 1 0 -39.4 0 c -0.35 0.26 -0.69 0.47 -1 0.76 c -8.6 7.13 -14.66 20.92 -18.1 41 l -26 -107.89 h 68.61 a 4.36 4.36 0 0 0 4.34 -4.68 c -2.35 -31.71 -9.28 -52.55 -20.6 -61.93 c -0.35 -0.29 -0.69 -0.51 -1 -0.76 a 34.71 34.71 0 1 0 -39.4 0 c -0.34 0.25 -0.68 0.47 -1 0.76 c -8.24 6.83 -14.12 19.8 -17.64 38.54 l -17.74 -73.69 a 4.35 4.35 0 0 0 -4.23 -3.34 H 298.27 c -1.27 -14.4 -3.51 -26.51 -6.7 -36.25 H 408 a 4.35 4.35 0 0 0 4.35 -4.35 V 38.51 A 4.35 4.35 0 0 0 408 34.16 H 104.05 a 4.35 4.35 0 0 0 -4.35 4.35 V 198.68 a 4.35 4.35 0 0 0 4.35 4.35 H 220.43 c -3.19 9.74 -5.43 21.85 -6.7 36.25 H 175.89 a 4.35 4.35 0 0 0 -4.23 3.34 l -17.75 73.69 c -3.51 -18.74 -9.39 -31.71 -17.63 -38.54 c -0.35 -0.29 -0.69 -0.51 -1 -0.76 a 34.7 34.7 0 1 0 -39.4 0 c -0.34 0.25 -0.68 0.47 -1 0.76 C 83.49 287.15 76.56 308 74.21 339.7 a 4.36 4.36 0 0 0 4.34 4.68 h 68.61 l -26 107.89 c -3.44 -20.12 -9.5 -33.91 -18.1 -41 c -0.35 -0.29 -0.69 -0.5 -1 -0.76 a 34.71 34.71 0 1 0 -39.4 0 c -0.34 0.26 -0.68 0.47 -1 0.76 c -11.32 9.38 -18.25 30.22 -20.6 61.94 a 4.35 4.35 0 0 0 4.34 4.67 h 74 a 4.4 4.4 0 0 0 0.63 -0.13 c 0.2 0 0.38 0.13 0.58 0.13 h 270.9 c 0.2 0 0.38 -0.11 0.58 -0.13 a 4.4 4.4 0 0 0 0.63 0.13 h 74 a 4.35 4.35 0 0 0 4.34 -4.67 C 468.64 441.45 461.71 420.61 450.39 411.23 Z M 370.45 248.46 a 26 26 0 1 1 26 26 A 26 26 0 0 1 370.45 248.46 Z m 16.22 33.29 a 34.47 34.47 0 0 0 19.65 0 c 3.55 0.6 18 6.39 22.4 53.94 H 364.19 C 368.61 287.73 383.26 282.35 386.67 281.75 Z M 89.54 248.46 a 26 26 0 1 1 26 26 A 26 26 0 0 1 89.54 248.46 Z m 16.22 33.29 a 34.47 34.47 0 0 0 19.65 0 c 3.54 0.6 18 6.41 22.4 53.94 H 83.28 C 87.7 287.73 102.35 282.35 105.76 281.75 Z M 403.65 381.93 a 26 26 0 1 1 26 26 A 26 26 0 0 1 403.65 381.93 Z M 108.4 194.33 V 42.87 H 403.6 V 194.33 H 288.16 c -3 -6.5 -6.61 -11.52 -10.81 -15 c -0.41 -0.35 -0.81 -0.6 -1.22 -0.9 a 35.76 35.76 0 1 0 -40.26 0 c -0.41 0.3 -0.81 0.55 -1.22 0.9 c -4.2 3.47 -7.79 8.49 -10.81 15 Z m 140.81 -19.27 a 4.35 4.35 0 0 0 -1.75 -0.61 l -0.38 0 a 27.06 27.06 0 1 1 17.84 0 l -0.38 0 a 4.12 4.12 0 0 0 -1.71 0.61 a 27 27 0 0 1 -6.83 0.9 A 26.67 26.67 0 0 1 249.21 175.06 Z m -18.55 25.4 l 0.07 -0.19 c 6 -14.3 12.89 -16.69 15.14 -17.09 A 35.36 35.36 0 0 0 256 184.67 a 35.78 35.78 0 0 0 10.14 -1.49 c 2.27 0.37 9.15 2.71 15.09 16.91 a 4.71 4.71 0 0 0 0.21 0.52 c 3.4 8.32 6.45 20.57 8.11 38.67 h -67.1 C 224.12 221.06 227.22 208.78 230.66 200.46 Z M 56.34 381.93 a 26 26 0 1 1 26 26 A 26 26 0 0 1 56.34 381.93 Z m -6.26 87.2 c 4.42 -47.94 19.07 -53.32 22.48 -53.92 a 34.14 34.14 0 0 0 19.52 0 c 3.32 0.59 18.09 5.77 22.53 53.91 Z m 76 0 L 179.32 248 H 332.68 l 53.24 221.14 Z m 271.31 0 c 4.42 -47.93 19.07 -53.32 22.48 -53.92 a 34.8 34.8 0 0 0 9.79 1.43 a 34.37 34.37 0 0 0 9.73 -1.42 c 3.3 0.59 18.09 5.73 22.53 53.91 Z" stroke-linecap="round"/>
</g>
<g transform="matrix(0.8418 0 0 0.8418 1579.0174 485.5726)" id="386010">
<g style="" vector-effect="non-scaling-stroke">
		<g transform="matrix(1 0 0 1 0.01 86.3829)" id="Layer_1">
<path style="stroke: none; stroke-width: 1; stroke-dasharray: none; stroke-linecap: butt; stroke-dashoffset: 0; stroke-linejoin: miter; stroke-miterlimit: 4; is-custom-font: none; font-file-url: none; fill: rgb(35,31,32); fill-rule: nonzero; opacity: 1;" transform=" translate(-256.01, -342.3829)" d="M 438.63 327.83 a 41.92 41.92 0 1 0 -40.26 -1.32 a 49.29 49.29 0 0 0 -24.56 21.89 l -18.25 33.17 l -27.87 -37.41 a 4.77 4.77 0 0 0 -3.83 -1.92 H 309.28 V 322.85 a 47.17 47.17 0 0 0 -31.81 -44.53 a 36.64 36.64 0 1 0 -42.94 0 a 47.16 47.16 0 0 0 -31.81 44.53 v 19.39 H 188.14 a 4.77 4.77 0 0 0 -3.83 1.92 l -27.88 37.41 L 138.19 348.4 a 49.33 49.33 0 0 0 -24.56 -21.89 a 41.93 41.93 0 1 0 -40.26 1.32 A 46.32 46.32 0 0 0 48 369.11 v 79.48 a 4.77 4.77 0 1 0 9.54 0 V 369.11 a 36.79 36.79 0 0 1 36.74 -36.75 h 0.68 A 39.86 39.86 0 0 1 129.84 353 l 21.82 39.67 s 0.05 0.09 0.07 0.14 l 4.43 8.05 a 4.78 4.78 0 0 0 4.18 2.47 h 45.94 a 11 11 0 0 1 0 22 H 151 a 16 16 0 0 1 -13.41 -7.21 a 4.32 4.32 0 0 0 -0.34 -0.53 l -25.87 -42 a 4.77 4.77 0 1 0 -8.12 5 l 24.41 39.67 L 94.24 465 a 4.77 4.77 0 1 0 7.64 5.7 l 31.78 -42.63 A 25.77 25.77 0 0 0 151 434.85 h 55.31 a 20.54 20.54 0 0 0 0 -41.07 H 163.16 l -1.68 -3 l 29.05 -39 H 321.47 l 29 39 l -1.68 3 H 305.72 a 20.54 20.54 0 0 0 0 41.07 H 361 a 25.77 25.77 0 0 0 17.31 -6.77 l 31.78 42.63 a 4.77 4.77 0 0 0 7.64 -5.7 l -33.4 -44.82 l 24.4 -39.66 a 4.76 4.76 0 1 0 -8.11 -5 L 374.76 417.6 a 4.53 4.53 0 0 0 -0.3 0.46 A 16 16 0 0 1 361 425.31 H 305.72 a 11 11 0 0 1 0 -22 h 45.94 a 4.78 4.78 0 0 0 4.18 -2.47 l 4.4 -8 c 0.07 -0.12 0.14 -0.25 0.2 -0.38 L 382.16 353 a 39.84 39.84 0 0 1 34.9 -20.63 h 0.68 a 36.79 36.79 0 0 1 36.74 36.75 v 79.48 a 4.77 4.77 0 0 0 9.54 0 V 369.11 A 46.32 46.32 0 0 0 438.63 327.83 Z M 59.9 290.44 a 32.39 32.39 0 1 1 32.39 32.39 A 32.43 32.43 0 0 1 59.9 290.44 Z m 169 -41.78 A 27.11 27.11 0 1 1 256 275.77 A 27.14 27.14 0 0 1 228.89 248.66 Z m -16.63 74.19 a 37.59 37.59 0 0 1 37.55 -37.55 h 12.38 a 37.59 37.59 0 0 1 37.55 37.55 v 19.39 H 285 V 322 a 4.77 4.77 0 1 0 -9.53 0 v 20.29 h -39 V 322 a 4.77 4.77 0 1 0 -9.53 0 v 20.29 H 212.26 Z m 175.06 -32.41 a 32.39 32.39 0 1 1 32.39 32.39 A 32.43 32.43 0 0 1 387.32 290.44 Z" stroke-linecap="round"/>
</g>
		<g transform="matrix(1 0 0 1 15.011 -129.6108)" id="Layer_1">
<path style="stroke: none; stroke-width: 1; stroke-dasharray: none; stroke-linecap: butt; stroke-dashoffset: 0; stroke-linejoin: miter; stroke-miterlimit: 4; is-custom-font: none; font-file-url: none; fill: rgb(35,31,32); fill-rule: nonzero; opacity: 1;" transform=" translate(-271.011, -126.3892)" d="M 162.81 190.06 a 4.8 4.8 0 0 0 1.4 -0.21 l 46.87 -14.39 a 119.29 119.29 0 0 0 43.76 8.16 c 3.61 0 7.18 -0.16 10.68 -0.46 c 11.49 14.45 32.13 23.33 54.67 23.33 a 81.77 81.77 0 0 0 24.24 -3.59 l 27.29 10.18 a 4.77 4.77 0 0 0 6.23 -5.84 l -6.18 -20.55 c 7.89 -8.2 12.21 -18.21 12.21 -28.47 c 0 -18.24 -13.55 -34.85 -34.79 -43 q 0.12 -1.83 0.12 -3.69 c 0 -39.77 -42.38 -72.13 -94.47 -72.13 s -94.46 32.36 -94.46 72.13 c 0 15.17 6 29.53 17.36 41.74 L 158.8 182.71 a 4.77 4.77 0 0 0 4 7.35 Z m 211.64 -31.84 c 0 8.59 -3.91 16.75 -11.31 23.59 a 4.75 4.75 0 0 0 -1.33 4.87 l 4.24 14.11 l -19.84 -7.4 a 4.7 4.7 0 0 0 -3.18 -0.06 A 71.84 71.84 0 0 1 320.19 197 c -17.21 0 -33 -5.74 -43.18 -15.34 c 35.86 -6.61 63.8 -28.87 70.67 -56.75 C 364.09 131.8 374.45 144.52 374.45 158.22 Z m -186.64 -3 a 4.76 4.76 0 0 0 -0.68 -6 c -11.27 -11 -17.22 -24 -17.22 -37.71 c 0 -34.52 38.1 -62.59 84.93 -62.59 S 339.78 77 339.78 111.5 s -38.1 62.59 -84.94 62.59 a 109.06 109.06 0 0 1 -41.7 -8.09 a 4.78 4.78 0 0 0 -3.23 -0.16 l -36 11.07 Z" stroke-linecap="round"/>
</g>
		<g transform="matrix(1 0 0 1 -1.155 -161.51)" id="Layer_1">
<path style="stroke: none; stroke-width: 1; stroke-dasharray: none; stroke-linecap: butt; stroke-dashoffset: 0; stroke-linejoin: miter; stroke-miterlimit: 4; is-custom-font: none; font-file-url: none; fill: rgb(35,31,32); fill-rule: nonzero; opacity: 1;" transform=" translate(-254.845, -94.49)" d="M 208.16 99.26 h 93.37 a 4.77 4.77 0 1 0 0 -9.54 H 208.16 a 4.77 4.77 0 0 0 0 9.54 Z" stroke-linecap="round"/>
</g>
		<g transform="matrix(1 0 0 1 -1.2641 -127.495)" id="Layer_1">
<path style="stroke: none; stroke-width: 1; stroke-dasharray: none; stroke-linecap: butt; stroke-dashoffset: 0; stroke-linejoin: miter; stroke-miterlimit: 4; is-custom-font: none; font-file-url: none; fill: rgb(35,31,32); fill-rule: nonzero; opacity: 1;" transform=" translate(-254.7358, -128.505)" d="M 306.3 128.5 a 4.77 4.77 0 0 0 -4.77 -4.76 H 208.16 a 4.77 4.77 0 1 0 0 9.53 h 93.37 A 4.77 4.77 0 0 0 306.3 128.5 Z" stroke-linecap="round"/>
</g>
</g>
</g>
<g transform="matrix(0.9666 0 0 1.0025 2166.7605 913.3771)" id="904687">
<path style="stroke: none; stroke-width: 1; stroke-dasharray: none; stroke-linecap: butt; stroke-dashoffset: 0; stroke-linejoin: miter; stroke-miterlimit: 4; is-custom-font: none; font-file-url: none; fill: rgb(35,31,32); fill-rule: nonzero; opacity: 1;" vector-effect="non-scaling-stroke" transform=" translate(-255.9883, -255.9913)" d="M 447.38 224.57 a 31.21 31.21 0 0 0 -18.11 5.77 a 30.76 30.76 0 0 0 -5.26 -7.25 c -10.35 -10.47 -27.25 -12.3 -40.73 -11.75 a 135.92 135.92 0 0 0 -5.72 -13.81 c 9.91 -9.16 20.55 -22.42 20.46 -37.12 a 30.71 30.71 0 0 0 -1.37 -8.72 a 31.5 31.5 0 1 0 -36.33 -36.41 a 30.76 30.76 0 0 0 -8.84 -1.41 h -0.17 c -14.64 0 -27.85 10.63 -37 20.5 a 135.56 135.56 0 0 0 -13.68 -5.65 c 0.53 -13.49 -1.28 -30.39 -11.75 -40.73 a 30.89 30.89 0 0 0 -7.14 -5.2 a 31.51 31.51 0 1 0 -51.43 -0.06 A 30.76 30.76 0 0 0 223.09 88 c -10.47 10.34 -12.28 27.24 -11.75 40.73 a 137 137 0 0 0 -13.82 5.72 c -9.11 -9.87 -22.3 -20.46 -36.92 -20.46 h -0.19 a 30.71 30.71 0 0 0 -8.72 1.37 a 31.51 31.51 0 1 0 -36.4 36.33 a 30.48 30.48 0 0 0 -1.41 8.84 c -0.09 14.71 10.58 28 20.5 37.14 a 131.07 131.07 0 0 0 -5.65 13.68 c -13.5 -0.55 -30.39 1.28 -40.74 11.75 a 30.58 30.58 0 0 0 -5.25 7.24 a 31.51 31.51 0 1 0 0.05 51.44 a 30.89 30.89 0 0 0 5.2 7.14 c 9.31 9.42 24 11.86 36.64 11.86 c 1.42 0 2.73 -0.09 4.08 -0.15 a 135.18 135.18 0 0 0 5.66 13.71 c -9.91 9.16 -20.58 22.44 -20.49 37.15 a 30.69 30.69 0 0 0 1.4 8.83 a 31.51 31.51 0 1 0 36.41 36.34 a 30.73 30.73 0 0 0 8.73 1.37 h 0.17 c 14.62 0 27.81 -10.59 36.93 -20.46 a 137 137 0 0 0 13.82 5.72 c -0.53 13.49 1.28 30.38 11.75 40.73 a 30.76 30.76 0 0 0 7.25 5.26 a 31.5 31.5 0 1 0 51.43 -0.06 a 30.89 30.89 0 0 0 7.14 -5.2 c 10.47 -10.35 12.28 -27.24 11.75 -40.73 a 135.56 135.56 0 0 0 13.68 -5.65 c 9.12 9.87 22.32 20.49 37 20.49 h 0.18 a 30.75 30.75 0 0 0 8.84 -1.4 a 31.51 31.51 0 1 0 36.33 -36.41 a 30.73 30.73 0 0 0 1.37 -8.73 c 0.09 -14.69 -10.55 -27.95 -20.46 -37.11 a 133.49 133.49 0 0 0 5.73 -13.85 c 1.36 0.06 2.66 0.15 4.08 0.15 c 12.68 0 27.33 -2.44 36.64 -11.86 a 30.89 30.89 0 0 0 5.2 -7.14 a 31.49 31.49 0 1 0 18.17 -57.2 Z M 256 382.2 A 126.2 126.2 0 1 1 382.2 256 A 126.34 126.34 0 0 1 256 382.2 Z M 375.2 104.55 a 22.8 22.8 0 1 1 0 32.25 A 22.75 22.75 0 0 1 375.2 104.55 Z m -23.89 18 h 0.12 a 22.29 22.29 0 0 1 8.65 1.85 a 31.32 31.32 0 0 0 27.43 27.48 a 22.21 22.21 0 0 1 1.81 8.56 c 0.07 11.14 -8.73 22 -16 29.07 a 135.87 135.87 0 0 0 -51 -50.95 C 329.37 131.36 340.19 122.58 351.31 122.58 Z M 256.07 41.82 a 22.8 22.8 0 1 1 -22.8 22.8 A 22.83 22.83 0 0 1 256.07 41.82 Z M 229.21 94.18 a 22.35 22.35 0 0 1 7.42 -4.81 a 31.31 31.31 0 0 0 38.83 0 a 22.2 22.2 0 0 1 7.33 4.78 c 7.93 7.83 9.37 21.71 9.24 31.84 A 134.12 134.12 0 0 0 220 126 C 219.84 115.89 221.28 102 229.21 94.18 Z M 104.55 104.55 a 22.8 22.8 0 1 1 0 32.25 A 22.78 22.78 0 0 1 104.55 104.55 Z m 18 56 a 22.29 22.29 0 0 1 1.85 -8.65 a 31.32 31.32 0 0 0 27.48 -27.44 a 22.38 22.38 0 0 1 8.56 -1.8 h 0.13 c 11.1 0 21.9 8.76 28.94 16 a 135.84 135.84 0 0 0 -50.94 51 C 131.33 182.61 122.51 171.73 122.58 160.57 Z m -80.76 95.5 a 22.81 22.81 0 1 1 22.8 22.8 A 22.83 22.83 0 0 1 41.82 256.07 Z m 52.36 26.72 a 22.36 22.36 0 0 1 -4.78 -7.32 a 31.33 31.33 0 0 0 0 -38.84 a 22.19 22.19 0 0 1 4.81 -7.42 c 7.84 -7.93 21.71 -9.37 31.84 -9.24 a 134.35 134.35 0 0 0 0 72 C 115.88 292.16 102 290.72 94.18 282.79 Z M 136.8 407.45 a 22.8 22.8 0 1 1 0 -32.25 A 22.83 22.83 0 0 1 136.8 407.45 Z m 23.79 -18.13 h -0.12 a 22.21 22.21 0 0 1 -8.56 -1.81 a 31.32 31.32 0 0 0 -27.48 -27.43 a 22.33 22.33 0 0 1 -1.85 -8.65 c -0.07 -11.16 8.75 -22 16 -29.1 a 135.84 135.84 0 0 0 50.94 51 C 182.5 380.56 171.69 389.32 160.59 389.32 Z m 95.48 80.86 a 22.8 22.8 0 1 1 15.63 -39.33 a 2.45 2.45 0 0 0 0.35 0.29 a 22.78 22.78 0 0 1 -16 39 Z m 26.72 -52.36 a 22.2 22.2 0 0 1 -7.33 4.78 a 31.31 31.31 0 0 0 -38.83 0 a 22.35 22.35 0 0 1 -7.42 -4.81 C 221.28 410 219.84 396.11 220 386 A 134.12 134.12 0 0 0 292 386 C 292.16 396.11 290.72 410 282.79 417.82 Z m 131.34 -26.5 a 22.87 22.87 0 1 1 -23.88 -22.69 h 0.09 a 4.46 4.46 0 0 0 0.51 -0.07 c 0.16 0 0.31 0 0.47 0 a 22.79 22.79 0 0 1 22.81 22.79 Z m -24.81 -39.79 a 22.21 22.21 0 0 1 -1.81 8.56 a 31.32 31.32 0 0 0 -27.43 27.48 a 22.25 22.25 0 0 1 -8.65 1.85 h -0.13 c -11.11 0 -21.93 -8.78 -29 -16 a 135.77 135.77 0 0 0 51 -50.94 C 380.59 329.52 389.39 340.39 389.32 351.53 Z M 386 292 a 134.09 134.09 0 0 0 0 -72 c 10.13 -0.13 24 1.3 31.84 9.24 a 22.19 22.19 0 0 1 4.81 7.42 a 31.31 31.31 0 0 0 0 38.83 a 22.2 22.2 0 0 1 -4.78 7.33 C 410 290.72 396.11 292.15 386 292 Z m 61.4 -13.15 a 22.8 22.8 0 1 1 22.8 -22.8 A 22.83 22.83 0 0 1 447.38 278.87 Z" stroke-linecap="round"/>
</g>
<g transform="matrix(1 0 0 1 1362.1955 132.0331)" style="" id="515736">
		
<path xml:space="preserve" font-family="Quicksand" font-size="105" font-weight="bold" style="stroke: none; stroke-width: 0; stroke-dasharray: none; stroke-linecap: butt; stroke-dashoffset: 0; stroke-linejoin: miter; stroke-miterlimit: 4; is-custom-font: none; font-file-url: none; fill: rgb(12,35,64); fill-rule: nonzero; opacity: 1; white-space: pre;" d="M-381.88-23.40L-378.84-24.03L-401.52 29.31Q-402.25 31.30-403.78 32.41Q-405.30 33.51-407.08 33.51L-407.08 33.51Q-409.92 33.51-411.28 31.93Q-412.65 30.36-412.65 28.05L-412.65 28.05Q-412.65 27.10-412.33 26.05L-412.33 26.05L-386.19-36.74Q-385.35-38.84-383.62-39.99Q-381.88-41.15-379.89-40.94L-379.89-40.94Q-378-40.94-376.37-39.83Q-374.75-38.73-374.01-36.74L-374.01-36.74L-348.18 24.79Q-347.65 26.16-347.65 27.31L-347.65 27.31Q-347.65 30.15-349.49 31.83Q-351.33 33.51-353.53 33.51L-353.53 33.51Q-355.43 33.51-356.95 32.35Q-358.47 31.20-359.31 29.20L-359.31 29.20L-381.88-23.40ZM-362.14 16.50L-398.26 16.50L-392.49 4.42L-364.14 4.42L-362.14 16.50ZM-325.61-34.11L-325.61 26.58Q-325.61 29.31-327.60 31.15Q-329.60 32.98-332.22 32.98L-332.22 32.98Q-335.16 32.98-336.94 31.15Q-338.73 29.31-338.73 26.58L-338.73 26.58L-338.73-34.11Q-338.73-36.84-336.84-38.68Q-334.95-40.52-332.01-40.52L-332.01-40.52Q-329.49-40.52-327.55-38.68Q-325.61-36.84-325.61-34.11L-325.61-34.11ZM-272.90 32.98L-272.90 32.98Q-275.84 32.98-278.15 31.15Q-280.46 29.31-280.46 26.58L-280.46 26.58L-280.46-34.11Q-280.46-36.84-278.62-38.68Q-276.78-40.52-274.05-40.52L-274.05-40.52L-243.81-40.52Q-238.35-40.52-233.57-37.63Q-228.80-34.74-225.86-29.65Q-222.92-24.56-222.92-17.94L-222.92-17.94Q-222.92-13.95-224.54-10.17Q-226.17-6.39-228.95-3.35Q-231.74-0.30-235.20 1.38L-235.20 1.38L-235.10-1.04Q-232.16 0.54-230.21 2.69Q-228.27 4.84-227.17 7.31Q-226.07 9.78-225.86 12.61L-225.86 12.61Q-225.44 15.24-225.28 17.23Q-225.12 19.23-224.65 20.59Q-224.18 21.96-222.81 22.69L-222.81 22.69Q-220.50 24.06-219.92 26.63Q-219.35 29.20-221.13 31.20L-221.13 31.20Q-222.29 32.56-224.07 32.93Q-225.86 33.30-227.64 32.93Q-229.43 32.56-230.58 31.93L-230.58 31.93Q-232.37 30.88-234.15 28.84Q-235.94 26.79-237.04 23.32Q-238.14 19.86-238.14 14.40L-238.14 14.40Q-238.14 12.61-238.77 11.09Q-239.40 9.57-240.56 8.47Q-241.71 7.36-243.50 6.79Q-245.28 6.21-247.70 6.21L-247.70 6.21L-268.91 6.21L-267.33 3.79L-267.33 26.58Q-267.33 29.31-268.80 31.15Q-270.27 32.98-272.90 32.98ZM-267.33-2.09L-268.80-4.61L-244.34-4.61Q-242.45-4.61-240.66-6.34Q-238.88-8.07-237.72-11.06Q-236.57-14.06-236.57-17.63L-236.57-17.63Q-236.57-22.25-239.03-25.34Q-241.50-28.44-244.34-28.44L-244.34-28.44L-268.59-28.44L-267.33-31.80L-267.33-2.09ZM-183.96 34.03L-183.96 34.03Q-192.89 34.03-199.45 30.31Q-206.01 26.58-209.53 20.17Q-213.05 13.77-213.05 5.68L-213.05 5.68Q-213.05-3.77-209.21-10.43Q-205.38-17.10-199.19-20.67Q-192.99-24.24-186.06-24.24L-186.06-24.24Q-180.71-24.24-175.93-22.04Q-171.15-19.83-167.48-16.00Q-163.80-12.17-161.65-7.13Q-159.50-2.09-159.50 3.58L-159.50 3.58Q-159.60 6.10-161.49 7.68Q-163.38 9.25-165.90 9.25L-165.90 9.25L-206.01 9.25L-209.16-1.25L-170.63-1.25L-172.94 0.85L-172.94-1.98Q-173.15-5.03-175.09-7.44Q-177.03-9.86-179.92-11.27Q-182.81-12.69-186.06-12.69L-186.06-12.69Q-189.21-12.69-191.94-11.85Q-194.67-11.01-196.67-9.02Q-198.66-7.02-199.82-3.66Q-200.97-0.30-200.97 4.84L-200.97 4.84Q-200.97 10.51-198.61 14.45Q-196.25 18.39-192.52 20.44Q-188.79 22.48-184.59 22.48L-184.59 22.48Q-180.71 22.48-178.40 21.85Q-176.09 21.22-174.67 20.33Q-173.25 19.44-172.10 18.81L-172.10 18.81Q-170.21 17.86-168.53 17.86L-168.53 17.86Q-166.22 17.86-164.69 19.44Q-163.17 21.01-163.17 23.11L-163.17 23.11Q-163.17 25.95-166.11 28.26L-166.11 28.26Q-168.84 30.57-173.78 32.30Q-178.71 34.03-183.96 34.03ZM-152.25 24.27L-152.25 24.27Q-153.30 22.80-153.20 20.49Q-153.09 18.18-150.47 16.50L-150.47 16.50Q-148.79 15.45-146.90 15.61Q-145.01 15.76-143.22 17.55L-143.22 17.55Q-140.18 20.59-136.82 22.27Q-133.46 23.95-128.42 23.95L-128.42 23.95Q-126.84 23.85-124.95 23.48Q-123.06 23.11-121.64 21.80Q-120.23 20.49-120.23 17.76L-120.23 17.76Q-120.23 15.45-121.80 14.08Q-123.38 12.72-125.95 11.77Q-128.52 10.83-131.67 9.99L-131.67 9.99Q-134.93 9.04-138.34 7.89Q-141.75 6.73-144.59 4.90Q-147.42 3.06-149.21 0.01Q-150.99-3.03-150.99-7.65L-150.99-7.65Q-150.99-12.90-148.05-16.58Q-145.11-20.25-140.44-22.25Q-135.77-24.24-130.62-24.24L-130.62-24.24Q-127.37-24.24-123.80-23.45Q-120.23-22.67-116.97-20.93Q-113.72-19.20-111.51-16.37L-111.51-16.37Q-110.36-14.79-110.15-12.59Q-109.94-10.38-112.14-8.60L-112.14-8.60Q-113.72-7.34-115.82-7.49Q-117.92-7.65-119.28-8.91L-119.28-8.91Q-121.07-11.22-124.06-12.59Q-127.05-13.95-130.94-13.95L-130.94-13.95Q-132.51-13.95-134.35-13.58Q-136.19-13.22-137.55-12.01Q-138.92-10.80-138.92-8.18L-138.92-8.18Q-138.92-5.76-137.34-4.34Q-135.77-2.93-133.09-2.03Q-130.41-1.14-127.37-0.30L-127.37-0.30Q-124.22 0.54-120.96 1.69Q-117.71 2.85-114.98 4.74Q-112.25 6.63-110.57 9.62Q-108.89 12.61-108.89 17.23L-108.89 17.23Q-108.89 22.59-112.04 26.37Q-115.19 30.15-119.91 32.09Q-124.64 34.03-129.57 34.03L-129.57 34.03Q-135.77 34.03-141.96 31.88Q-148.16 29.73-152.25 24.27ZM-69.30-24.24L-69.30-24.24Q-61.95-24.24-56.12-20.51Q-50.30-16.79-46.88-10.28Q-43.47-3.77-43.47 4.84L-43.47 4.84Q-43.47 13.45-46.88 20.02Q-50.30 26.58-56.02 30.31Q-61.74 34.03-68.88 34.03L-68.88 34.03Q-73.08 34.03-76.76 32.67Q-80.43 31.30-83.21 29.20Q-86.00 27.10-87.52 24.95Q-89.04 22.80-89.04 21.33L-89.04 21.33L-85.79 19.96L-85.79 47.58Q-85.79 50.31-87.57 52.15Q-89.36 53.98-92.09 53.98L-92.09 53.98Q-94.82 53.98-96.60 52.20Q-98.39 50.41-98.39 47.58L-98.39 47.58L-98.39-16.79Q-98.39-19.52-96.60-21.35Q-94.82-23.19-92.09-23.19L-92.09-23.19Q-89.36-23.19-87.57-21.35Q-85.79-19.52-85.79-16.79L-85.79-16.79L-85.79-11.64L-87.57-12.59Q-87.57-13.95-86.10-15.89Q-84.63-17.84-82.11-19.78Q-79.59-21.72-76.28-22.98Q-72.98-24.24-69.30-24.24ZM-70.88-12.69L-70.88-12.69Q-75.50-12.69-78.96-10.38Q-82.43-8.07-84.37-4.13Q-86.31-0.20-86.31 4.84L-86.31 4.84Q-86.31 9.78-84.37 13.82Q-82.43 17.86-78.96 20.17Q-75.50 22.48-70.88 22.48L-70.88 22.48Q-66.26 22.48-62.84 20.17Q-59.43 17.86-57.49 13.82Q-55.55 9.78-55.55 4.84L-55.55 4.84Q-55.55-0.20-57.49-4.13Q-59.43-8.07-62.84-10.38Q-66.26-12.69-70.88-12.69ZM21.00 4.95L21.00 4.95Q21.00 13.56 17.17 20.12Q13.33 26.68 6.88 30.36Q0.42 34.03-7.56 34.03L-7.56 34.03Q-15.54 34.03-22.00 30.36Q-28.46 26.68-32.29 20.12Q-36.12 13.56-36.12 4.95L-36.12 4.95Q-36.12-3.66-32.29-10.22Q-28.46-16.79-22.00-20.51Q-15.54-24.24-7.56-24.24L-7.56-24.24Q0.42-24.24 6.88-20.51Q13.33-16.79 17.17-10.22Q21.00-3.66 21.00 4.95ZM8.40 4.95L8.40 4.95Q8.40-0.41 6.25-4.34Q4.09-8.28 0.47-10.49Q-3.15-12.69-7.56-12.69L-7.56-12.69Q-11.97-12.69-15.59-10.49Q-19.22-8.28-21.37-4.34Q-23.52-0.41-23.52 4.95L-23.52 4.95Q-23.52 10.20-21.37 14.14Q-19.22 18.07-15.59 20.28Q-11.97 22.48-7.56 22.48L-7.56 22.48Q-3.15 22.48 0.47 20.28Q4.09 18.07 6.25 14.14Q8.40 10.20 8.40 4.95ZM61.53-24.24L61.53-24.24Q69.30-24.24 73.34-20.99Q77.38-17.73 78.91-12.32Q80.43-6.92 80.43-0.30L80.43-0.30L80.43 26.58Q80.43 29.31 78.64 31.15Q76.86 32.98 74.13 32.98L74.13 32.98Q71.40 32.98 69.61 31.15Q67.83 29.31 67.83 26.58L67.83 26.58L67.83-0.30Q67.83-3.77 66.94-6.55Q66.04-9.33 63.73-11.01Q61.42-12.69 57.12-12.69L57.12-12.69Q52.92-12.69 50.03-11.01Q47.14-9.33 45.62-6.55Q44.10-3.77 44.10-0.30L44.10-0.30L44.10 26.58Q44.10 29.31 42.31 31.15Q40.53 32.98 37.80 32.98L37.80 32.98Q35.07 32.98 33.28 31.15Q31.50 29.31 31.50 26.58L31.50 26.58L31.50-16.79Q31.50-19.52 33.28-21.35Q35.07-23.19 37.80-23.19L37.80-23.19Q40.53-23.19 42.31-21.35Q44.10-19.52 44.10-16.79L44.10-16.79L44.10-12.27L42.52-12.59Q43.47-14.37 45.25-16.42Q47.04-18.47 49.45-20.25Q51.87-22.04 54.91-23.14Q57.96-24.24 61.53-24.24ZM90.82 24.27L90.82 24.27Q89.77 22.80 89.88 20.49Q89.98 18.18 92.61 16.50L92.61 16.50Q94.29 15.45 96.18 15.61Q98.07 15.76 99.85 17.55L99.85 17.55Q102.90 20.59 106.26 22.27Q109.62 23.95 114.66 23.95L114.66 23.95Q116.23 23.85 118.12 23.48Q120.01 23.11 121.43 21.80Q122.85 20.49 122.85 17.76L122.85 17.76Q122.85 15.45 121.27 14.08Q119.70 12.72 117.13 11.77Q114.55 10.83 111.40 9.99L111.40 9.99Q108.15 9.04 104.74 7.89Q101.32 6.73 98.49 4.90Q95.65 3.06 93.87 0.01Q92.08-3.03 92.08-7.65L92.08-7.65Q92.08-12.90 95.02-16.58Q97.96-20.25 102.64-22.25Q107.31-24.24 112.45-24.24L112.45-24.24Q115.71-24.24 119.28-23.45Q122.85-22.67 126.10-20.93Q129.36-19.20 131.56-16.37L131.56-16.37Q132.72-14.79 132.93-12.59Q133.14-10.38 130.93-8.60L130.93-8.60Q129.36-7.34 127.26-7.49Q125.16-7.65 123.79-8.91L123.79-8.91Q122.01-11.22 119.02-12.59Q116.02-13.95 112.14-13.95L112.14-13.95Q110.56-13.95 108.73-13.58Q106.89-13.22 105.52-12.01Q104.16-10.80 104.16-8.18L104.16-8.18Q104.16-5.76 105.73-4.34Q107.31-2.93 109.99-2.03Q112.66-1.14 115.71-0.30L115.71-0.30Q118.86 0.54 122.11 1.69Q125.37 2.85 128.10 4.74Q130.83 6.63 132.51 9.62Q134.19 12.61 134.19 17.23L134.19 17.23Q134.19 22.59 131.04 26.37Q127.89 30.15 123.16 32.09Q118.44 34.03 113.50 34.03L113.50 34.03Q107.31 34.03 101.11 31.88Q94.92 29.73 90.82 24.27ZM156.55-16.79L156.55 26.58Q156.55 29.31 154.77 31.15Q152.98 32.98 150.25 32.98L150.25 32.98Q147.52 32.98 145.74 31.15Q143.95 29.31 143.95 26.58L143.95 26.58L143.95-16.79Q143.95-19.52 145.74-21.35Q147.52-23.19 150.25-23.19L150.25-23.19Q152.98-23.19 154.77-21.35Q156.55-19.52 156.55-16.79L156.55-16.79ZM150.15-30.02L150.15-30.02Q146.58-30.02 145.11-31.17Q143.64-32.33 143.64-35.27L143.64-35.27L143.64-37.26Q143.64-40.31 145.27-41.41Q146.89-42.51 150.25-42.51L150.25-42.51Q153.93-42.51 155.40-41.36Q156.87-40.20 156.87-37.26L156.87-37.26L156.87-35.27Q156.87-32.22 155.29-31.12Q153.72-30.02 150.15-30.02ZM198.55-24.24L198.55-24.24Q205.90-24.24 211.73-20.51Q217.56-16.79 220.97-10.28Q224.38-3.77 224.38 4.84L224.38 4.84Q224.38 13.45 220.97 20.02Q217.56 26.58 211.84 30.31Q206.11 34.03 198.97 34.03L198.97 34.03Q194.77 34.03 191.10 32.67Q187.42 31.30 184.64 29.20Q181.86 27.10 180.34 24.95Q178.81 22.80 178.81 21.33L178.81 21.33L182.07 19.96L182.07 27.63Q182.07 30.36 180.28 32.20Q178.50 34.03 175.77 34.03L175.77 34.03Q173.04 34.03 171.25 32.25Q169.47 30.46 169.47 27.63L169.47 27.63L169.47-38.31Q169.47-41.04 171.25-42.88Q173.04-44.72 175.77-44.72L175.77-44.72Q178.50-44.72 180.28-42.88Q182.07-41.04 182.07-38.31L182.07-38.31L182.07-11.64L180.28-12.59Q180.28-13.95 181.75-15.89Q183.22-17.84 185.74-19.78Q188.26-21.72 191.57-22.98Q194.88-24.24 198.55-24.24ZM196.98-12.69L196.98-12.69Q192.36-12.69 188.89-10.38Q185.43-8.07 183.49-4.13Q181.54-0.20 181.54 4.84L181.54 4.84Q181.54 9.78 183.49 13.82Q185.43 17.86 188.89 20.17Q192.36 22.48 196.98 22.48L196.98 22.48Q201.60 22.48 205.01 20.17Q208.42 17.86 210.37 13.82Q212.31 9.78 212.31 4.84L212.31 4.84Q212.31-0.20 210.37-4.13Q208.42-8.07 205.01-10.38Q201.60-12.69 196.98-12.69ZM246.75-16.79L246.75 26.58Q246.75 29.31 244.96 31.15Q243.18 32.98 240.45 32.98L240.45 32.98Q237.72 32.98 235.93 31.15Q234.15 29.31 234.15 26.58L234.15 26.58L234.15-16.79Q234.15-19.52 235.93-21.35Q237.72-23.19 240.45-23.19L240.45-23.19Q243.18-23.19 244.96-21.35Q246.75-19.52 246.75-16.79L246.75-16.79ZM240.34-30.02L240.34-30.02Q236.77-30.02 235.30-31.17Q233.83-32.33 233.83-35.27L233.83-35.27L233.83-37.26Q233.83-40.31 235.46-41.41Q237.09-42.51 240.45-42.51L240.45-42.51Q244.12-42.51 245.59-41.36Q247.06-40.20 247.06-37.26L247.06-37.26L247.06-35.27Q247.06-32.22 245.49-31.12Q243.91-30.02 240.34-30.02ZM273.31-38.31L273.31 26.58Q273.31 29.31 271.48 31.15Q269.64 32.98 266.91 32.98L266.91 32.98Q264.28 32.98 262.50 31.15Q260.71 29.31 260.71 26.58L260.71 26.58L260.71-38.31Q260.71-41.04 262.55-42.88Q264.39-44.72 267.12-44.72L267.12-44.72Q269.85-44.72 271.58-42.88Q273.31-41.04 273.31-38.31L273.31-38.31ZM299.88-16.79L299.88 26.58Q299.88 29.31 298.09 31.15Q296.31 32.98 293.58 32.98L293.58 32.98Q290.85 32.98 289.06 31.15Q287.28 29.31 287.28 26.58L287.28 26.58L287.28-16.79Q287.28-19.52 289.06-21.35Q290.85-23.19 293.58-23.19L293.58-23.19Q296.31-23.19 298.09-21.35Q299.88-19.52 299.88-16.79L299.88-16.79ZM293.47-30.02L293.47-30.02Q289.90-30.02 288.43-31.17Q286.96-32.33 286.96-35.27L286.96-35.27L286.96-37.26Q286.96-40.31 288.59-41.41Q290.22-42.51 293.58-42.51L293.58-42.51Q297.25-42.51 298.72-41.36Q300.19-40.20 300.19-37.26L300.19-37.26L300.19-35.27Q300.19-32.22 298.62-31.12Q297.04-30.02 293.47-30.02ZM313.42-22.14L313.42-22.14L338.31-22.14Q340.83-22.14 342.51-20.46Q344.19-18.78 344.19-16.26L344.19-16.26Q344.19-13.85 342.51-12.22Q340.83-10.59 338.31-10.59L338.31-10.59L313.42-10.59Q310.90-10.59 309.22-12.27Q307.54-13.95 307.54-16.47L307.54-16.47Q307.54-18.89 309.22-20.51Q310.90-22.14 313.42-22.14ZM324.66-35.27L324.66-35.27Q327.39-35.27 329.12-33.43Q330.85-31.59 330.85-28.86L330.85-28.86L330.85 17.86Q330.85 19.33 331.43 20.28Q332.01 21.22 333.01 21.64Q334.00 22.06 335.16 22.06L335.16 22.06Q336.42 22.06 337.47 21.59Q338.52 21.12 339.88 21.12L339.88 21.12Q341.35 21.12 342.56 22.48Q343.77 23.85 343.77 26.26L343.77 26.26Q343.77 29.20 340.57 31.09Q337.36 32.98 333.69 32.98L333.69 32.98Q331.48 32.98 328.81 32.62Q326.13 32.25 323.77 30.83Q321.40 29.41 319.83 26.47Q318.25 23.53 318.25 18.39L318.25 18.39L318.25-28.86Q318.25-31.59 320.09-33.43Q321.93-35.27 324.66-35.27ZM397.42-23.19L397.42-23.19Q400.15-23.19 401.94-21.35Q403.72-19.52 403.72-16.79L403.72-16.79L403.72 27.84Q403.72 37.50 400.10 43.22Q396.48 48.94 390.39 51.46Q384.30 53.98 376.74 53.98L376.74 53.98Q373.38 53.98 369.60 53.46Q365.82 52.93 363.40 51.88L363.40 51.88Q360.25 50.52 359.05 48.47Q357.84 46.42 358.57 44.11L358.57 44.11Q359.52 41.07 361.62 39.97Q363.72 38.86 366.03 39.70L366.03 39.70Q367.71 40.23 370.44 41.33Q373.17 42.43 376.74 42.43L376.74 42.43Q381.57 42.43 384.77 41.12Q387.97 39.81 389.60 36.71Q391.23 33.61 391.23 28.26L391.23 28.26L391.23 21.22L393.43 23.74Q391.65 27.21 388.97 29.47Q386.29 31.72 382.62 32.88Q378.94 34.03 374.22 34.03L374.22 34.03Q368.65 34.03 364.51 31.46Q360.36 28.89 358.05 24.32Q355.74 19.75 355.74 13.87L355.74 13.87L355.74-16.79Q355.74-19.52 357.52-21.35Q359.31-23.19 362.04-23.19L362.04-23.19Q364.77-23.19 366.55-21.35Q368.34-19.52 368.34-16.79L368.34-16.79L368.34 10.09Q368.34 16.92 371.33 19.70Q374.32 22.48 379.68 22.48L379.68 22.48Q383.35 22.48 385.87 21.07Q388.39 19.65 389.76 16.87Q391.12 14.08 391.12 10.09L391.12 10.09L391.12-16.79Q391.12-19.52 392.91-21.35Q394.69-23.19 397.42-23.19Z"/></g>
<g transform="matrix(0.6813 0 0 0.6813 847.1448 123.4871)" id="270837">
<g style="">
		<g transform="matrix(6.2258 0 0 6.2258 -0.0002 -0.0002)" id="890960">
<g style="" vector-effect="non-scaling-stroke">
		<g transform="matrix(1 0 0 1 8.44 -8.5)" id="Fill">
<path style="stroke: none; stroke-width: 1; stroke-dasharray: none; stroke-linecap: butt; stroke-dashoffset: 0; stroke-linejoin: miter; stroke-miterlimit: 4; is-custom-font: none; font-file-url: none; fill: rgb(12,35,64); fill-rule: nonzero; opacity: 1;" transform=" translate(-24.44, -7.5)" d="M 27 3 H 19.88 V 5 H 27 V 12 h 2 V 5 A 2 2 0 0 0 27 3 Z" stroke-linecap="round"/>
</g>
		<g transform="matrix(1 0 0 1 -8.47 -8.44)" id="Fill">
<path style="stroke: none; stroke-width: 1; stroke-dasharray: none; stroke-linecap: butt; stroke-dashoffset: 0; stroke-linejoin: miter; stroke-miterlimit: 4; is-custom-font: none; font-file-url: none; fill: rgb(12,35,64); fill-rule: nonzero; opacity: 1;" transform=" translate(-7.53, -7.56)" d="M 5 5 h 7.06 V 3 H 5 A 2 2 0 0 0 3 5 v 7.12 H 5 Z" stroke-linecap="round"/>
</g>
		<g transform="matrix(1 0 0 1 -8.44 8.47)" id="Fill">
<path style="stroke: none; stroke-width: 1; stroke-dasharray: none; stroke-linecap: butt; stroke-dashoffset: 0; stroke-linejoin: miter; stroke-miterlimit: 4; is-custom-font: none; font-file-url: none; fill: rgb(12,35,64); fill-rule: nonzero; opacity: 1;" transform=" translate(-7.56, -24.47)" d="M 5 19.94 H 3 V 27 a 2 2 0 0 0 2 2 h 7.12 V 27 H 5 Z" stroke-linecap="round"/>
</g>
		<g transform="matrix(1 0 0 1 8.47 8.43)" id="Fill">
<path style="stroke: none; stroke-width: 1; stroke-dasharray: none; stroke-linecap: butt; stroke-dashoffset: 0; stroke-linejoin: miter; stroke-miterlimit: 4; is-custom-font: none; font-file-url: none; fill: rgb(12,35,64); fill-rule: nonzero; opacity: 1;" transform=" translate(-24.47, -24.43)" d="M 27 27 H 19.94 v 2 H 27 a 2 2 0 0 0 2 -2 V 19.86 H 27 Z" stroke-linecap="round"/>
</g>
</g>
</g>
		<g transform="matrix(4.8578 0 0 4.8578 2.7787 0.0003)" id="363225">
<g style="" vector-effect="non-scaling-stroke">
		<g transform="matrix(1 0 0 1 0 0)">
<path style="stroke: none; stroke-width: 2; stroke-dasharray: none; stroke-linecap: round; stroke-dashoffset: 0; stroke-linejoin: round; stroke-miterlimit: 4; is-custom-font: none; font-file-url: none; fill: none; fill-rule: nonzero; opacity: 1;" transform=" translate(-12, -12)" d="M 0 0 h 24 v 24 H 0 z" stroke-linecap="round"/>
</g>
		<g transform="matrix(1 0 0 1 0 0)">
<path style="stroke: rgb(211,67,13); stroke-width: 2; stroke-dasharray: none; stroke-linecap: round; stroke-dashoffset: 0; stroke-linejoin: round; stroke-miterlimit: 4; is-custom-font: none; font-file-url: none; fill: none; fill-rule: nonzero; opacity: 1;" transform=" translate(-12, -12)" d="M 12 3 c -3.866 0 -7 3.272 -7 7 v 10 a 1 1 0 0 0 1 1 h 12 a 1 1 0 0 0 1 -1 v -10 c 0 -3.728 -3.134 -7 -7 -7 z" stroke-linecap="round"/>
</g>
		<g transform="matrix(1 0 0 1 0 1)">
<line style="stroke: rgb(211,67,13); stroke-width: 2; stroke-dasharray: none; stroke-linecap: round; stroke-dashoffset: 0; stroke-linejoin: round; stroke-miterlimit: 4; is-custom-font: none; font-file-url: none; fill: none; fill-rule: nonzero; opacity: 1;" x1="-7" y1="0" x2="7" y2="0"/>
</g>
		<g transform="matrix(1 0 0 1 0 0)">
<line style="stroke: rgb(211,67,13); stroke-width: 2; stroke-dasharray: none; stroke-linecap: round; stroke-dashoffset: 0; stroke-linejoin: round; stroke-miterlimit: 4; is-custom-font: none; font-file-url: none; fill: none; fill-rule: nonzero; opacity: 1;" x1="0" y1="-9" x2="0" y2="9"/>
</g>
</g>
</g>
</g>
</g>
</svg>