<svg xmlns="http://www.w3.org/2000/svg" xmlns:xlink="http://www.w3.org/1999/xlink" version="1.1" width="1080" height="1080" viewBox="0 0 1080 1080" xml:space="preserve">
<desc>Created with Fabric.js 3.5.0</desc>
<defs>
</defs>
<rect x="0" y="0" width="100%" height="100%" fill="rgba(255,255,255,0)"/>
<g transform="matrix(2.0798 0 0 2.0798 540.0043 540.0043)" id="227443">
<g style="" vector-effect="non-scaling-stroke">
		<g transform="matrix(1 0 0 1 0.0947 -108.99)" id="Layer_1">
<path style="stroke: none; stroke-width: 1; stroke-dasharray: none; stroke-linecap: butt; stroke-dashoffset: 0; stroke-linejoin: miter; stroke-miterlimit: 4; is-custom-font: none; font-file-url: none; fill: rgb(12,35,64); fill-rule: nonzero; opacity: 1;" transform=" translate(-256.0948, -147.01)" d="M 313.34 208.87 l 0.13 16.58 a 5.38 5.38 0 0 0 5.38 5.34 h 0 a 5.37 5.37 0 0 0 5.34 -5.42 l -0.12 -16.56 a 68.19 68.19 0 0 0 -45.61 -64 A 44.25 44.25 0 0 0 255.6 62.7 h -0.18 A 44.28 44.28 0 0 0 233 145 a 68.14 68.14 0 0 0 -45 64.39 l 0.11 16.58 a 5.38 5.38 0 0 0 5.38 5.35 h 0 a 5.37 5.37 0 0 0 5.34 -5.42 l -0.11 -16.56 a 57.31 57.31 0 0 1 57.09 -57.56 H 256 A 57.38 57.38 0 0 1 313.34 208.87 Z M 222.13 107.08 a 33.53 33.53 0 0 1 33.34 -33.62 h 0.13 a 33.48 33.48 0 0 1 0.14 67 c -8.48 0.52 -17.36 -3.4 -23.7 -9.7 A 33.2 33.2 0 0 1 222.13 107.08 Z" stroke-linecap="round"/>
</g>
		<g transform="matrix(1 0 0 1 -115.4307 14.4806)" id="Layer_1">
<path style="stroke: none; stroke-width: 1; stroke-dasharray: none; stroke-linecap: butt; stroke-dashoffset: 0; stroke-linejoin: miter; stroke-miterlimit: 4; is-custom-font: none; font-file-url: none; fill: rgb(12,35,64); fill-rule: nonzero; opacity: 1;" transform=" translate(-140.5693, -270.4806)" d="M 196.71 318.68 H 142.66 V 284.52 a 256.32 256.32 0 0 0 45 13.88 a 24.33 24.33 0 0 0 10.45 -47.53 c -43.19 -9.71 -63.38 -33 -72.7 -50.83 a 37.06 37.06 0 0 0 -11.73 -13.35 a 49.79 49.79 0 1 0 -41.33 0.12 a 35 35 0 0 0 -14.95 28.65 V 325.83 a 44.56 44.56 0 0 0 44.51 44.5 h 82.65 v 73.59 a 5.38 5.38 0 0 0 10.76 0 V 365 a 5.38 5.38 0 0 0 -5.38 -5.38 h -88 a 33.79 33.79 0 0 1 -33.75 -33.74 V 215.46 a 24.23 24.23 0 0 1 24.21 -24.2 H 94 c 9 0 17.4 5.28 21.85 13.77 c 10.37 19.85 32.65 45.73 79.88 56.34 a 13.57 13.57 0 1 1 -5.83 26.5 c -20 -4.33 -48.26 -12.6 -69 -27.41 c -15 -10.72 -23.52 -23.24 -25.34 -37.21 a 5.31 5.31 0 0 0 -6 -4.64 a 5.39 5.39 0 0 0 -4.64 6 c 2.23 17 12.25 32 29.77 44.57 a 131.19 131.19 0 0 0 17.22 10.32 v 44.52 a 5.38 5.38 0 0 0 5.38 5.38 h 59.43 A 30.62 30.62 0 0 1 227.29 360 v 83.9 a 5.38 5.38 0 0 0 10.76 0 V 360 A 41.38 41.38 0 0 0 196.71 318.68 Z M 53.82 141.46 a 39 39 0 1 1 39 39 A 39.08 39.08 0 0 1 53.82 141.46 Z" stroke-linecap="round"/>
</g>
		<g transform="matrix(1 0 0 1 115.4757 14.4601)" id="Layer_1">
<path style="stroke: none; stroke-width: 1; stroke-dasharray: none; stroke-linecap: butt; stroke-dashoffset: 0; stroke-linejoin: miter; stroke-miterlimit: 4; is-custom-font: none; font-file-url: none; fill: rgb(12,35,64); fill-rule: nonzero; opacity: 1;" transform=" translate(-371.4757, -270.4601)" d="M 439.68 186.81 a 49.8 49.8 0 1 0 -41.33 -0.12 A 37 37 0 0 0 386.63 200 c -9.33 17.83 -29.53 41.13 -72.71 50.83 a 24.33 24.33 0 0 0 10.47 47.53 a 256 256 0 0 0 45 -13.88 v 34.16 H 315.29 A 41.38 41.38 0 0 0 274 360 v 83.9 a 5.38 5.38 0 0 0 10.76 0 V 360 a 30.61 30.61 0 0 1 30.57 -30.58 h 59.44 a 5.38 5.38 0 0 0 5.38 -5.38 V 279.53 a 131 131 0 0 0 17.21 -10.31 c 17.52 -12.53 27.54 -27.53 29.77 -44.57 a 5.39 5.39 0 0 0 -10.68 -1.4 c -1.82 14 -10.35 26.49 -25.34 37.21 c -20.71 14.81 -48.92 23.08 -68.95 27.41 a 13.57 13.57 0 1 1 -5.85 -26.5 c 47.21 -10.6 69.51 -36.49 79.89 -56.34 c 4.44 -8.49 12.81 -13.77 21.84 -13.77 h 1.68 a 24.22 24.22 0 0 1 24.19 24.2 V 325.83 a 33.79 33.79 0 0 1 -33.75 33.74 h -88 a 5.38 5.38 0 0 0 -5.38 5.38 v 79 a 5.39 5.39 0 0 0 10.77 0 V 370.33 h 82.63 a 44.56 44.56 0 0 0 44.51 -44.5 V 215.46 A 35 35 0 0 0 439.68 186.81 Z m -59.57 -45.35 a 39 39 0 1 1 39 39 A 39.09 39.09 0 0 1 380.11 141.46 Z" stroke-linecap="round"/>
</g>
</g>
</g>
<g transform="matrix(0.2733 0 0 0.2733 540.0116 540.0116)" id="307564">
<g style="" vector-effect="non-scaling-stroke">
		<g transform="matrix(1.6352 0 0 1.6352 0.003 -57.7988)" id="Capa_1">
<path style="stroke: none; stroke-width: 1; stroke-dasharray: none; stroke-linecap: butt; stroke-dashoffset: 0; stroke-linejoin: miter; stroke-miterlimit: 4; is-custom-font: none; font-file-url: none; fill: rgb(241,90,34); fill-rule: nonzero; opacity: 1;" transform=" translate(-244.621, -209.2717)" d="M 416.321 171.943 c 0 -97.8 -82.2 -176.9 -181 -171.7 c -89.5 5.2 -160.3 79.1 -162.4 168.6 c 0 44.7 16.6 86.3 45.8 118.6 c 47.7 51.1 41.6 110.3 41.6 110.3 c 0 11.4 9.4 20.8 20.8 20.8 h 126.9 c 11.4 0 20.8 -9.4 21.8 -20.8 c 0 0 -7 -57.7 40.6 -109.2 C 399.621 257.243 416.321 215.643 416.321 171.943 z M 288.321 377.943 h -87.4 c -2.1 -42.7 -20.8 -84.3 -51 -116.5 c -22.9 -25 -34.3 -57.2 -34.3 -90.5 c 1 -68.7 54.1 -124.8 122.8 -129 c 74.9 -4.2 137.3 56.2 137.3 130 c 0 32.3 -12.5 64.5 -35.4 88.4 C 309.121 293.643 290.421 335.243 288.321 377.943 z" stroke-linecap="round"/>
</g>
		<g transform="matrix(1.6352 0 0 1.6352 -0.8983 365.9902)" id="Capa_1">
<path style="stroke: none; stroke-width: 1; stroke-dasharray: none; stroke-linecap: butt; stroke-dashoffset: 0; stroke-linejoin: miter; stroke-miterlimit: 4; is-custom-font: none; font-file-url: none; fill: rgb(241,90,34); fill-rule: nonzero; opacity: 1;" transform=" translate(-244.071, -468.443)" d="M 281.021 447.643 h -73.9 c -11.4 0 -20.8 9.4 -20.8 20.8 s 9.4 20.8 20.8 20.8 h 73.9 c 11.4 0 20.8 -9.4 20.8 -20.8 C 301.821 457.043 292.521 447.643 281.021 447.643 z" stroke-linecap="round"/>
</g>
</g>
</g>
</svg>