<svg xmlns="http://www.w3.org/2000/svg" xmlns:xlink="http://www.w3.org/1999/xlink" version="1.1" width="750" height="100" viewBox="0 0 750 100" xml:space="preserve">
<desc>Created with Fabric.js 3.5.0</desc>
<defs>
</defs>
<rect x="0" y="0" width="100%" height="100%" fill="rgba(255,255,255,0)"/>
<g transform="matrix(1 0 0 1 435.222 48.4991)" style="" id="508045">
		
<path xml:space="preserve" font-family="Roboto" font-size="41" font-weight="bold" style="stroke: none; stroke-width: 0; stroke-dasharray: none; stroke-linecap: butt; stroke-dashoffset: 0; stroke-linejoin: miter; stroke-miterlimit: 4; is-custom-font: none; font-file-url: none; fill: rgb(241,90,34); fill-rule: nonzero; opacity: 1; white-space: pre;" d="M-240.90 3.17L-234.90 3.17Q-235.24 7.87-238.37 10.58Q-241.51 13.28-246.63 13.28L-246.63 13.28Q-252.24 13.28-255.45 9.51Q-258.66 5.73-258.66-0.85L-258.66-0.85L-258.66-2.64Q-258.66-6.84-257.18-10.04Q-255.70-13.25-252.95-14.96Q-250.19-16.67-246.55-16.67L-246.55-16.67Q-241.51-16.67-238.42-13.97Q-235.34-11.26-234.86-6.38L-234.86-6.38L-240.86-6.38Q-241.09-9.20-242.44-10.47Q-243.79-11.74-246.55-11.74L-246.55-11.74Q-249.55-11.74-251.04-9.59Q-252.54-7.44-252.58-2.92L-252.58-2.92L-252.58-0.71Q-252.58 4.01-251.14 6.19Q-249.71 8.38-246.63 8.38L-246.63 8.38Q-243.85 8.38-242.48 7.10Q-241.11 5.83-240.90 3.17L-240.90 3.17Z"/><path xml:space="preserve" font-family="Roboto" font-size="41" font-weight="bold" style="stroke: none; stroke-width: 0; stroke-dasharray: none; stroke-linecap: butt; stroke-dashoffset: 0; stroke-linejoin: miter; stroke-miterlimit: 4; is-custom-font: none; font-file-url: none; fill: rgb(12,35,64); fill-rule: nonzero; opacity: 1; white-space: pre;" d="M-232.24 2.11L-232.24 1.85Q-232.24-1.37-231.00-3.90Q-229.75-6.42-227.42-7.80Q-225.09-9.18-222.01-9.18L-222.01-9.18Q-217.62-9.18-214.85-6.50Q-212.08-3.82-211.76 0.79L-211.76 0.79L-211.72 2.27Q-211.72 7.25-214.50 10.27Q-217.28 13.28-221.97 13.28Q-226.65 13.28-229.44 10.28Q-232.24 7.27-232.24 2.11L-232.24 2.11ZM-226.45 2.27L-226.45 2.27Q-226.45 5.35-225.29 6.98Q-224.13 8.62-221.97 8.62L-221.97 8.62Q-219.86 8.62-218.68 7.00Q-217.50 5.39-217.50 1.85L-217.50 1.85Q-217.50-1.17-218.68-2.84Q-219.86-4.50-222.01-4.50L-222.01-4.50Q-224.13-4.50-225.29-2.85Q-226.45-1.19-226.45 2.27ZM-202.51-17.87L-202.51-6.42Q-200.21-9.18-196.72-9.18L-196.72-9.18Q-189.68-9.18-189.57-0.99L-189.57-0.99L-189.57 12.88L-195.36 12.88L-195.36-0.83Q-195.36-2.70-196.16-3.59Q-196.96-4.48-198.82-4.48L-198.82-4.48Q-201.37-4.48-202.51-2.52L-202.51-2.52L-202.51 12.88L-208.29 12.88L-208.29-17.87L-202.51-17.87ZM-186.11 2.11L-186.11 1.85Q-186.11-1.37-184.87-3.90Q-183.63-6.42-181.30-7.80Q-178.96-9.18-175.88-9.18L-175.88-9.18Q-171.50-9.18-168.72-6.50Q-165.95-3.82-165.63 0.79L-165.63 0.79L-165.59 2.27Q-165.59 7.25-168.37 10.27Q-171.16 13.28-175.84 13.28Q-180.53 13.28-183.32 10.28Q-186.11 7.27-186.11 2.11L-186.11 2.11ZM-180.33 2.27L-180.33 2.27Q-180.33 5.35-179.16 6.98Q-178.00 8.62-175.84 8.62L-175.84 8.62Q-173.74 8.62-172.56 7.00Q-171.38 5.39-171.38 1.85L-171.38 1.85Q-171.38-1.17-172.56-2.84Q-173.74-4.50-175.88-4.50L-175.88-4.50Q-178.00-4.50-179.16-2.85Q-180.33-1.19-180.33 2.27ZM-149.78-8.92L-149.86-3.36Q-151.04-3.52-151.94-3.52L-151.94-3.52Q-155.22-3.52-156.24-1.29L-156.24-1.29L-156.24 12.88L-162.03 12.88L-162.03-8.78L-156.56-8.78L-156.40-6.20Q-154.66-9.18-151.58-9.18L-151.58-9.18Q-150.62-9.18-149.78-8.92L-149.78-8.92ZM-144.93-14.11L-139.15-14.11L-139.15-8.78L-135.44-8.78L-135.44-4.54L-139.15-4.54L-139.15 6.27Q-139.15 7.47-138.69 7.99Q-138.22 8.52-136.92 8.52L-136.92 8.52Q-135.96 8.52-135.22 8.38L-135.22 8.38L-135.22 12.76Q-136.92 13.28-138.73 13.28L-138.73 13.28Q-144.81 13.28-144.93 7.13L-144.93 7.13L-144.93-4.54L-148.09-4.54L-148.09-8.78L-144.93-8.78L-144.93-14.11ZM-114.62 12.88L-120.43 12.88L-120.43-4.54L-123.65-4.54L-123.65-8.78L-120.43-8.78L-120.43-10.62Q-120.43-14.27-118.34-16.28Q-116.24-18.29-112.48-18.29L-112.48-18.29Q-111.28-18.29-109.54-17.89L-109.54-17.89L-109.60-13.41Q-110.32-13.59-111.36-13.59L-111.36-13.59Q-114.62-13.59-114.62-10.52L-114.62-10.52L-114.62-8.78L-110.32-8.78L-110.32-4.54L-114.62-4.54L-114.62 12.88ZM-108.22 2.11L-108.22 1.85Q-108.22-1.37-106.97-3.90Q-105.73-6.42-103.40-7.80Q-101.07-9.18-97.99-9.18L-97.99-9.18Q-93.60-9.18-90.83-6.50Q-88.06-3.82-87.74 0.79L-87.74 0.79L-87.70 2.27Q-87.70 7.25-90.48 10.27Q-93.26 13.28-97.95 13.28Q-102.63 13.28-105.42 10.28Q-108.22 7.27-108.22 2.11L-108.22 2.11ZM-102.43 2.27L-102.43 2.27Q-102.43 5.35-101.27 6.98Q-100.11 8.62-97.95 8.62L-97.95 8.62Q-95.84 8.62-94.66 7.00Q-93.48 5.39-93.48 1.85L-93.48 1.85Q-93.48-1.17-94.66-2.84Q-95.84-4.50-97.99-4.50L-97.99-4.50Q-100.11-4.50-101.27-2.85Q-102.43-1.19-102.43 2.27ZM-71.88-8.92L-71.96-3.36Q-73.14-3.52-74.04-3.52L-74.04-3.52Q-77.33-3.52-78.35-1.29L-78.35-1.29L-78.35 12.88L-84.13 12.88L-84.13-8.78L-78.67-8.78L-78.51-6.20Q-76.76-9.18-73.68-9.18L-73.68-9.18Q-72.72-9.18-71.88-8.92L-71.88-8.92Z"/><path xml:space="preserve" font-family="Roboto" font-size="41" font-weight="bold" style="stroke: none; stroke-width: 0; stroke-dasharray: none; stroke-linecap: butt; stroke-dashoffset: 0; stroke-linejoin: miter; stroke-miterlimit: 4; is-custom-font: none; font-file-url: none; fill: rgb(241,90,34); fill-rule: nonzero; opacity: 1; white-space: pre;" d="M-40.11 12.88L-42.13 6.87L-52.66 6.87L-54.66 12.88L-61.05 12.88L-50.20-16.27L-44.63-16.27L-33.72 12.88L-40.11 12.88ZM-47.42-8.90L-51.04 2.01L-43.75 2.01L-47.42-8.90Z"/><path xml:space="preserve" font-family="Roboto" font-size="41" font-weight="bold" style="stroke: none; stroke-width: 0; stroke-dasharray: none; stroke-linecap: butt; stroke-dashoffset: 0; stroke-linejoin: miter; stroke-miterlimit: 4; is-custom-font: none; font-file-url: none; fill: rgb(12,35,64); fill-rule: nonzero; opacity: 1; white-space: pre;" d="M-24.61-16.27L-24.61 12.88L-30.62 12.88L-30.62-16.27L-24.61-16.27Z"/><path xml:space="preserve" font-family="Roboto" font-size="41" font-weight="bold" style="stroke: none; stroke-width: 0; stroke-dasharray: none; stroke-linecap: butt; stroke-dashoffset: 0; stroke-linejoin: miter; stroke-miterlimit: 4; is-custom-font: none; font-file-url: none; fill: rgb(241,90,34); fill-rule: nonzero; opacity: 1; white-space: pre;" d="M7.42 12.88L1.95 2.21L-2.83 2.21L-2.83 12.88L-8.84 12.88L-8.84-16.27L1.99-16.27Q7.16-16.27 9.96-13.97Q12.76-11.66 12.76-7.46L12.76-7.46Q12.76-4.48 11.47-2.49Q10.18-0.49 7.56 0.69L7.56 0.69L13.86 12.60L13.86 12.88L7.42 12.88ZM-2.83-11.40L-2.83-2.66L2.01-2.66Q4.27-2.66 5.52-3.81Q6.76-4.96 6.76-6.98L6.76-6.98Q6.76-9.04 5.59-10.22Q4.41-11.40 1.99-11.40L1.99-11.40L-2.83-11.40ZM34.86-4.46L34.86 0.25L23.33 0.25L23.33 8.05L36.87 8.05L36.87 12.88L17.33 12.88L17.33-16.27L36.83-16.27L36.83-11.40L23.33-11.40L23.33-4.46L34.86-4.46Z"/><path xml:space="preserve" font-family="Roboto" font-size="41" font-weight="bold" style="stroke: none; stroke-width: 0; stroke-dasharray: none; stroke-linecap: butt; stroke-dashoffset: 0; stroke-linejoin: miter; stroke-miterlimit: 4; is-custom-font: none; font-file-url: none; fill: rgb(12,35,64); fill-rule: nonzero; opacity: 1; white-space: pre;" d="M51.74 6.89L51.74 6.89Q51.74 5.83 50.69 5.22Q49.64 4.61 47.32 4.13L47.32 4.13Q39.59 2.51 39.59-2.44L39.59-2.44Q39.59-5.32 41.98-7.25Q44.37-9.18 48.24-9.18L48.24-9.18Q52.36-9.18 54.83-7.24Q57.31-5.30 57.31-2.20L57.31-2.20L51.52-2.20Q51.52-3.44 50.72-4.25Q49.92-5.06 48.22-5.06L48.22-5.06Q46.76-5.06 45.95-4.40Q45.15-3.74 45.15-2.72L45.15-2.72Q45.15-1.75 46.06-1.16Q46.98-0.57 49.14-0.14Q51.30 0.29 52.78 0.83L52.78 0.83Q57.37 2.51 57.37 6.65L57.37 6.65Q57.37 9.62 54.82 11.45Q52.28 13.28 48.26 13.28L48.26 13.28Q45.53 13.28 43.42 12.31Q41.31 11.34 40.11 9.65Q38.91 7.95 38.91 5.99L38.91 5.99L44.39 5.99Q44.47 7.53 45.53 8.36Q46.60 9.18 48.38 9.18L48.38 9.18Q50.04 9.18 50.89 8.55Q51.74 7.91 51.74 6.89ZM80.59 1.95L80.59 2.25Q80.59 7.25 78.32 10.27Q76.04 13.28 72.18 13.28L72.18 13.28Q68.90 13.28 66.88 11.00L66.88 11.00L66.88 21.21L61.09 21.21L61.09-8.78L66.45-8.78L66.66-6.66Q68.76-9.18 72.14-9.18L72.14-9.18Q76.14-9.18 78.37-6.22Q80.59-3.26 80.59 1.95L80.59 1.95ZM74.80 1.83L74.80 1.83Q74.80-1.19 73.73-2.84Q72.66-4.48 70.62-4.48L70.62-4.48Q67.90-4.48 66.88-2.40L66.88-2.40L66.88 6.47Q67.94 8.62 70.66 8.62L70.66 8.62Q74.80 8.62 74.80 1.83ZM83.27 2.11L83.27 1.85Q83.27-1.37 84.51-3.90Q85.75-6.42 88.09-7.80Q90.42-9.18 93.50-9.18L93.50-9.18Q97.89-9.18 100.66-6.50Q103.43-3.82 103.75 0.79L103.75 0.79L103.79 2.27Q103.79 7.25 101.01 10.27Q98.23 13.28 93.54 13.28Q88.86 13.28 86.06 10.28Q83.27 7.27 83.27 2.11L83.27 2.11ZM89.06 2.27L89.06 2.27Q89.06 5.35 90.22 6.98Q91.38 8.62 93.54 8.62L93.54 8.62Q95.64 8.62 96.82 7.00Q98.01 5.39 98.01 1.85L98.01 1.85Q98.01-1.17 96.82-2.84Q95.64-4.50 93.50-4.50L93.50-4.50Q91.38-4.50 90.22-2.85Q89.06-1.19 89.06 2.27ZM107.23-8.78L112.68-8.78L112.86-6.28Q115.18-9.18 119.09-9.18L119.09-9.18Q122.53-9.18 124.21-7.16Q125.89-5.14 125.93-1.11L125.93-1.11L125.93 12.88L120.15 12.88L120.15-0.97Q120.15-2.82 119.35-3.65Q118.55-4.48 116.68-4.48L116.68-4.48Q114.24-4.48 113.02-2.40L113.02-2.40L113.02 12.88L107.23 12.88L107.23-8.78ZM142.05 6.89L142.05 6.89Q142.05 5.83 141.00 5.22Q139.95 4.61 137.62 4.13L137.62 4.13Q129.90 2.51 129.90-2.44L129.90-2.44Q129.90-5.32 132.29-7.25Q134.68-9.18 138.55-9.18L138.55-9.18Q142.67-9.18 145.14-7.24Q147.61-5.30 147.61-2.20L147.61-2.20L141.83-2.20Q141.83-3.44 141.03-4.25Q140.23-5.06 138.53-5.06L138.53-5.06Q137.06-5.06 136.26-4.40Q135.46-3.74 135.46-2.72L135.46-2.72Q135.46-1.75 136.37-1.16Q137.28-0.57 139.45-0.14Q141.61 0.29 143.09 0.83L143.09 0.83Q147.67 2.51 147.67 6.65L147.67 6.65Q147.67 9.62 145.13 11.45Q142.59 13.28 138.57 13.28L138.57 13.28Q135.84 13.28 133.73 12.31Q131.62 11.34 130.42 9.65Q129.22 7.95 129.22 5.99L129.22 5.99L134.70 5.99Q134.78 7.53 135.84 8.36Q136.90 9.18 138.69 9.18L138.69 9.18Q140.35 9.18 141.20 8.55Q142.05 7.91 142.05 6.89ZM157.50-8.78L157.50 12.88L151.70 12.88L151.70-8.78L157.50-8.78ZM151.36-14.39L151.36-14.39Q151.36-15.69 152.23-16.53Q153.10-17.37 154.60-17.37L154.60-17.37Q156.08-17.37 156.96-16.53Q157.84-15.69 157.84-14.39L157.84-14.39Q157.84-13.07 156.95-12.22Q156.06-11.38 154.60-11.38Q153.14-11.38 152.25-12.22Q151.36-13.07 151.36-14.39ZM181.79 1.93L181.79 2.25Q181.79 7.45 179.57 10.37Q177.34 13.28 173.36 13.28L173.36 13.28Q169.84 13.28 167.73 10.58L167.73 10.58L167.47 12.88L162.27 12.88L162.27-17.87L168.05-17.87L168.05-6.84Q170.06-9.18 173.32-9.18L173.32-9.18Q177.28-9.18 179.54-6.27Q181.79-3.36 181.79 1.93L181.79 1.93ZM176.00 1.83L176.00 1.83Q176.00-1.45 174.96-2.97Q173.92-4.48 171.86-4.48L171.86-4.48Q169.10-4.48 168.05-2.22L168.05-2.22L168.05 6.33Q169.12 8.62 171.90 8.62L171.90 8.62Q174.70 8.62 175.58 5.85L175.58 5.85Q176.00 4.53 176.00 1.83ZM191.46-8.78L191.46 12.88L185.65 12.88L185.65-8.78L191.46-8.78ZM185.31-14.39L185.31-14.39Q185.31-15.69 186.18-16.53Q187.05-17.37 188.55-17.37L188.55-17.37Q190.04-17.37 190.92-16.53Q191.80-15.69 191.80-14.39L191.80-14.39Q191.80-13.07 190.91-12.22Q190.02-11.38 188.55-11.38Q187.09-11.38 186.20-12.22Q185.31-13.07 185.31-14.39ZM202.33-17.87L202.33 12.88L196.52 12.88L196.52-17.87L202.33-17.87ZM213.20-8.78L213.20 12.88L207.39 12.88L207.39-8.78L213.20-8.78ZM207.05-14.39L207.05-14.39Q207.05-15.69 207.92-16.53Q208.79-17.37 210.30-17.37L210.30-17.37Q211.78-17.37 212.66-16.53Q213.54-15.69 213.54-14.39L213.54-14.39Q213.54-13.07 212.65-12.22Q211.76-11.38 210.30-11.38Q208.83-11.38 207.94-12.22Q207.05-13.07 207.05-14.39ZM219.10-14.11L224.89-14.11L224.89-8.78L228.59-8.78L228.59-4.54L224.89-4.54L224.89 6.27Q224.89 7.47 225.35 7.99Q225.81 8.52 227.11 8.52L227.11 8.52Q228.07 8.52 228.81 8.38L228.81 8.38L228.81 12.76Q227.11 13.28 225.31 13.28L225.31 13.28Q219.22 13.28 219.10 7.13L219.10 7.13L219.10-4.54L215.94-4.54L215.94-8.78L219.10-8.78L219.10-14.11ZM235.88-8.78L239.90 4.69L243.91-8.78L250.11-8.78L241.41 16.24L240.93 17.38Q238.98 21.63 234.52 21.63L234.52 21.63Q233.26 21.63 231.96 21.25L231.96 21.25L231.96 16.86L232.84 16.88Q234.48 16.88 235.29 16.38Q236.10 15.88 236.56 14.72L236.56 14.72L237.24 12.94L229.65-8.78L235.88-8.78Z"/><path xml:space="preserve" font-family="Roboto" font-size="41" font-weight="bold" style="stroke: none; stroke-width: 0; stroke-dasharray: none; stroke-linecap: butt; stroke-dashoffset: 0; stroke-linejoin: miter; stroke-miterlimit: 4; is-custom-font: none; font-file-url: none; fill: rgb(241,90,34); fill-rule: nonzero; opacity: 1; white-space: pre;" d=""/></g>
<g transform="matrix(0.4127 0 0 0.4127 724.1452 49.9982)" id="94909">
<g style="" vector-effect="non-scaling-stroke">
		<g transform="matrix(1 0 0 1 -4 -4)" id="639764">
<rect style="stroke: none; stroke-width: 1; stroke-dasharray: none; stroke-linecap: butt; stroke-dashoffset: 0; stroke-linejoin: miter; stroke-miterlimit: 4; is-custom-font: none; font-file-url: none; fill: rgb(255,255,255); fill-opacity: 0; fill-rule: nonzero; opacity: 1;" x="-50" y="-50" rx="0" ry="0" width="100" height="100"/>
</g>
		<g transform="matrix(4.6863 0 0 4.6863 -1.4507 -1.4507)" id="63846">
<path style="stroke: none; stroke-width: 2; stroke-dasharray: none; stroke-linecap: butt; stroke-dashoffset: 0; stroke-linejoin: miter; stroke-miterlimit: 4; is-custom-font: none; font-file-url: none; fill: rgb(12,35,64); fill-rule: nonzero; opacity: 1;" vector-effect="non-scaling-stroke" transform=" translate(-15, -15)" d="M 8.2441406 4 L 10.244141 6 L 23 6 C 23.571297 6 24 6.4287 24 7 L 24 19.755859 L 26 21.755859 L 26 7 C 26 5.3553 24.644703 4 23 4 L 8.2441406 4 z M 4 8.2441406 L 4 23 C 4 24.6447 5.3552972 26 7 26 L 21.755859 26 L 19.755859 24 L 7 24 C 6.4287028 24 6 23.5713 6 23 L 6 10.244141 L 4 8.2441406 z" stroke-linecap="round"/>
</g>
		<g transform="matrix(2.2094 0 0 2.2094 0.9999 -3.6639)" id="262754">
<path style="stroke: none; stroke-width: 0; stroke-dasharray: none; stroke-linecap: butt; stroke-dashoffset: 0; stroke-linejoin: miter; stroke-miterlimit: 4; is-custom-font: none; font-file-url: none; fill: rgb(12,35,64); fill-rule: nonzero; opacity: 1;" vector-effect="non-scaling-stroke" transform=" translate(-25.2705, -24.5935)" d="M 20.921 31.898 c 2.758 0 5.367 -0.956 7.458 -2.704 l 1.077 1.077 l -0.358 0.358 c -0.188 0.188 -0.293 0.442 -0.293 0.707 s 0.105 0.52 0.293 0.707 l 8.257 8.256 c 0.195 0.195 0.451 0.293 0.707 0.293 s 0.512 -0.098 0.707 -0.293 l 2.208 -2.208 c 0.188 -0.188 0.293 -0.442 0.293 -0.707 s -0.105 -0.52 -0.293 -0.707 l -8.257 -8.256 c -0.391 -0.391 -1.023 -0.391 -1.414 0 l -0.436 0.436 l -1.073 -1.073 c 1.793 -2.104 2.777 -4.743 2.777 -7.537 c 0 -3.112 -1.212 -6.038 -3.413 -8.239 s -5.127 -3.413 -8.239 -3.413 s -6.038 1.212 -8.238 3.413 c -2.201 2.201 -3.413 5.126 -3.413 8.239 c 0 3.112 1.212 6.038 3.413 8.238 C 14.883 30.687 17.809 31.898 20.921 31.898 z M 38.855 37.385 l -0.794 0.793 l -6.843 -6.842 l 0.794 -0.793 L 38.855 37.385 z M 14.097 13.423 c 1.823 -1.823 4.246 -2.827 6.824 -2.827 s 5.002 1.004 6.825 2.827 c 1.823 1.823 2.827 4.247 2.827 6.825 c 0 2.578 -1.004 5.001 -2.827 6.824 c -1.823 1.823 -4.247 2.827 -6.825 2.827 s -5.001 -1.004 -6.824 -2.827 c -1.823 -1.823 -2.827 -4.247 -2.827 -6.824 C 11.27 17.669 12.273 15.246 14.097 13.423 z" stroke-linecap="round"/>
</g>
		<g transform="matrix(1 0 0 1 -11.9291 28.6311)" id="170633">
<path style="stroke: none; stroke-width: 0; stroke-dasharray: none; stroke-linecap: butt; stroke-dashoffset: 0; stroke-linejoin: miter; stroke-miterlimit: 4; is-custom-font: none; font-file-url: none; fill: rgb(241,90,34); fill-rule: nonzero; opacity: 1;" transform=" translate(0.1, 0.76)" d="M -16.38 2.3 L -16.38 2.3 Q -16.2 2.3 -16.07 2.43 L -16.07 2.43 L -15.22 3.35 Q -15.93 4.23 -16.96 4.69 Q -17.98 5.15 -19.42 5.15 L -19.42 5.15 Q -20.71 5.15 -21.74 4.71 Q -22.77 4.27 -23.5 3.49 Q -24.22 2.71 -24.61 1.62 Q -25 0.53 -25 -0.76 L -25 -0.76 Q -25 -2.06 -24.57 -3.15 Q -24.14 -4.23 -23.35 -5.01 Q -22.57 -5.8 -21.48 -6.23 Q -20.38 -6.67 -19.06 -6.67 L -19.06 -6.67 Q -17.78 -6.67 -16.81 -6.26 Q -15.85 -5.85 -15.16 -5.17 L -15.16 -5.17 L -15.88 -4.17 Q -15.94 -4.07 -16.04 -4 Q -16.14 -3.93 -16.32 -3.93 L -16.32 -3.93 Q -16.5 -3.93 -16.7 -4.07 Q -16.89 -4.21 -17.18 -4.38 Q -17.48 -4.55 -17.93 -4.69 Q -18.38 -4.84 -19.08 -4.84 L -19.08 -4.84 Q -19.9 -4.84 -20.58 -4.55 Q -21.26 -4.27 -21.76 -3.74 Q -22.25 -3.21 -22.52 -2.46 Q -22.8 -1.7 -22.8 -0.76 L -22.8 -0.76 Q -22.8 0.22 -22.52 0.98 Q -22.25 1.74 -21.78 2.26 Q -21.3 2.78 -20.66 3.05 Q -20.02 3.33 -19.29 3.33 L -19.29 3.33 Q -18.85 3.33 -18.49 3.28 Q -18.14 3.23 -17.84 3.13 Q -17.54 3.03 -17.27 2.86 Q -17 2.7 -16.74 2.46 L -16.74 2.46 Q -16.66 2.39 -16.57 2.34 Q -16.48 2.3 -16.38 2.3 Z M -4.89 -6.54 L -0.34 5.03 L -2.01 5.03 Q -2.29 5.03 -2.47 4.89 Q -2.65 4.75 -2.73 4.54 L -2.73 4.54 L -3.59 2.18 L -8.38 2.18 L -9.25 4.54 Q -9.31 4.72 -9.5 4.87 Q -9.69 5.03 -9.96 5.03 L -9.96 5.03 L -11.63 5.03 L -7.09 -6.54 L -4.89 -6.54 Z M -6.42 -3.17 L -7.83 0.66 L -4.14 0.66 L -5.55 -3.19 Q -5.65 -3.45 -5.76 -3.79 Q -5.88 -4.14 -5.99 -4.55 L -5.99 -4.55 Q -6.1 -4.14 -6.21 -3.79 Q -6.32 -3.44 -6.42 -3.17 L -6.42 -3.17 Z M 7.08 0.51 L 6.16 0.51 L 6.16 5.03 L 4.01 5.03 L 4.01 -6.54 L 7.54 -6.54 Q 8.72 -6.54 9.56 -6.3 Q 10.41 -6.05 10.95 -5.61 Q 11.49 -5.17 11.74 -4.56 Q 11.99 -3.95 11.99 -3.21 L 11.99 -3.21 Q 11.99 -2.63 11.82 -2.11 Q 11.65 -1.59 11.32 -1.17 Q 11 -0.74 10.52 -0.42 Q 10.05 -0.1 9.44 0.09 L 9.44 0.09 Q 9.85 0.32 10.14 0.75 L 10.14 0.75 L 13.04 5.03 L 11.1 5.03 Q 10.82 5.03 10.63 4.91 Q 10.43 4.8 10.3 4.59 L 10.3 4.59 L 7.86 0.89 Q 7.73 0.68 7.56 0.59 Q 7.4 0.51 7.08 0.51 L 7.08 0.51 Z M 6.16 -4.88 L 6.16 -1.04 L 7.5 -1.04 Q 8.11 -1.04 8.56 -1.19 Q 9.02 -1.34 9.31 -1.61 Q 9.6 -1.88 9.74 -2.25 Q 9.89 -2.61 9.89 -3.05 L 9.89 -3.05 Q 9.89 -3.93 9.31 -4.41 Q 8.73 -4.88 7.54 -4.88 L 7.54 -4.88 L 6.16 -4.88 Z M 17.5 -6.54 L 24.8 -6.54 L 24.8 -4.83 L 19.67 -4.83 L 19.67 -1.62 L 23.71 -1.62 L 23.71 0.03 L 19.67 0.03 L 19.67 3.31 L 24.8 3.31 L 24.8 5.03 L 17.5 5.03 L 17.5 -6.54 Z" stroke-linecap="round"/>
</g>
		<g transform="matrix(-0.4946 0 0 0.4946 -5.311 -25.0076)" id="420365">
<path style="stroke: none; stroke-width: 0; stroke-dasharray: none; stroke-linecap: butt; stroke-dashoffset: 0; stroke-linejoin: miter; stroke-miterlimit: 4; is-custom-font: none; font-file-url: none; fill: rgb(241,90,34); fill-rule: nonzero; opacity: 1;" vector-effect="non-scaling-stroke" transform=" translate(-27.1, -13.6)" d="M 27.1 22.6 c 5 0 9 -4 9 -9 s -4 -9 -9 -9 s -9 4 -9 9 S 22.1 22.6 27.1 22.6 z M 27.1 7.5 c 3.3 0 6 2.7 6 6 s -2.7 6 -6 6 s -6 -2.7 -6 -6 S 23.8 7.5 27.1 7.5 z" stroke-linecap="round"/>
</g>
		<g transform="matrix(-0.4946 0 0 0.4946 -6.2703 -9.1506)" id="78580">
<path style="stroke: none; stroke-width: 0; stroke-dasharray: none; stroke-linecap: butt; stroke-dashoffset: 0; stroke-linejoin: miter; stroke-miterlimit: 4; is-custom-font: none; font-file-url: none; fill: rgb(241,90,34); fill-rule: nonzero; opacity: 1;" vector-effect="non-scaling-stroke" transform=" translate(-29.0395, -45.6605)" d="M 40.8 29.8 C 28.6 22.3 12.7 26 5.1 38.1 l 2.6 1.6 c 6.6 -10.8 20.6 -14.3 31.4 -7.7 s 14.3 20.6 7.7 31.4 c -0.1 0.1 -0.2 0.3 -0.3 0.4 l 2.6 1.6 C 56.6 53.3 52.9 37.4 40.8 29.8 z" stroke-linecap="round"/>
</g>
		<g transform="matrix(-0.4946 0 0 0.4946 -17.7749 -20.6552)" id="11648">
<polygon style="stroke: none; stroke-width: 0; stroke-dasharray: none; stroke-linecap: butt; stroke-dashoffset: 0; stroke-linejoin: miter; stroke-miterlimit: 4; is-custom-font: none; font-file-url: none; fill: rgb(241,90,34); fill-rule: nonzero; opacity: 1;" vector-effect="non-scaling-stroke" points="7.6,-1.5 1.5,-1.5 1.5,-7.6 -1.5,-7.6 -1.5,-1.5 -7.6,-1.5 -7.6,1.5 -1.5,1.5 -1.5,7.6 1.5,7.6 1.5,1.5 7.6,1.5 "/>
</g>
</g>
</g>
<g transform="matrix(0.3966 0 0 0.3966 142.6582 56.4709)" id="985733">
<g style="" vector-effect="non-scaling-stroke">
		<g transform="matrix(1 0 0 1 -109.565 -20.3)" id="Group_-_Casual_Rowdy">
<polygon style="stroke: none; stroke-width: 1; stroke-dasharray: none; stroke-linecap: butt; stroke-dashoffset: 0; stroke-linejoin: miter; stroke-miterlimit: 4; is-custom-font: none; font-file-url: none; fill: rgb(0,41,80); fill-rule: nonzero; opacity: 1;" points="-0.405,1.555 0.405,1.555 0.405,-0.875 1.075,-0.875 1.075,-1.555 -1.075,-1.555 -1.075,-0.875 -0.405,-0.875 "/>
</g>
		<g transform="matrix(1 0 0 1 -106.35 -20.3)" id="Group_-_Casual_Rowdy">
<polygon style="stroke: none; stroke-width: 1; stroke-dasharray: none; stroke-linecap: butt; stroke-dashoffset: 0; stroke-linejoin: miter; stroke-miterlimit: 4; is-custom-font: none; font-file-url: none; fill: rgb(0,41,80); fill-rule: nonzero; opacity: 1;" points="-0.88,-0.235 -0.17,1.555 0.15,1.555 0.9,-0.235 0.91,-0.235 1.14,1.555 1.95,1.555 1.47,-1.555 0.67,-1.555 0,0.105 -0.63,-1.555 -1.43,-1.555 -1.95,1.555 -1.15,1.555 -0.89,-0.235 "/>
</g>
		<g transform="matrix(1 0 0 1 -45.115 -25.0305)" id="Group_-_Casual_Rowdy">
<path style="stroke: none; stroke-width: 1; stroke-dasharray: none; stroke-linecap: butt; stroke-dashoffset: 0; stroke-linejoin: miter; stroke-miterlimit: 4; is-custom-font: none; font-file-url: none; fill: rgb(0,41,80); fill-rule: nonzero; opacity: 1;" transform=" translate(-309.545, -39.3745)" d="M 340.75 35.41 l 0.83 -5.5 l -4.27 1.95 c -4.75 -9.91 -21.46 -33.84 -71.57 -31.73 c 0 0 17.72 6.89 23.69 15.17 c 0 0 -14.78 -11.42 -43.63 -4.59 c 0 0 21.92 4.86 27.87 13.72 c 0 0 -15 -9.44 -38.41 -2.85 c 0 0 16.66 1.47 24.55 9.93 c 0 0 -16.58 -3.72 -33.42 1.49 c 0 0 20.7 1.95 28.21 12.67 l -18.11 5.9 c 33.48 4.19 58.52 21.09 66.78 27.18 c 29.23 -13.46 61.8 -22.53 89.43 -18.37 C 383.25 41.83 359.88 37.91 340.75 35.41 z M 324.71 29.18 l 2.62 -5.28 l 3.45 16.36 c 0 0 -8.01 -12.09 -35.81 -17.38 C 294.97 22.88 313.24 20.72 324.71 29.18 z M 319.25 43.85 c 2.22 0.58 4.81 -0.37 6.15 -2.18 l 1.53 0.93 c -3.06 2.64 -8.63 5.53 -14.09 1.73 c -4.43 -3.08 -2.42 -8.35 0.49 -9.98 l 4.7 2.85 c -0.49 0.42 -0.89 0.92 -1.19 1.48 C 315.69 40.88 316.76 43.2 319.25 43.85 z M 294.22 40.7 c -4.66 0.06 -16.68 0.97 -31.5 9.55 c 9.45 -12.93 30.05 -21.33 45.49 -17.76 c -2 1.57 -3.57 3.44 -4 5.05 c -1.97 7.4 3.62 11.16 11.17 11.99 c -3.92 2 -12.81 3.04 -18.54 -1.38 C 293.99 45.96 293.71 41.66 294.22 40.7 z M 305.75 56.87 l 4.61 2.64 l -13.64 8.17 L 305.75 56.87 z M 301.76 72.52 l 11.12 -11.22 l 7.76 4.66 L 301.76 72.52 z M 328.87 62.7 c -5.46 -1.45 -8.97 -3.99 -10.65 -5.45 l 34.6 -0.01 C 344.49 58.47 337.21 60.35 328.87 62.7 z M 318.41 53.81 c 3.02 -2.47 10.95 -8.06 25.74 -13.04 c 16.79 2.25 31.34 6.04 39.04 14.18 C 383.18 54.95 344.37 50.55 318.41 53.81 z" stroke-linecap="round"/>
</g>
		<g transform="matrix(1 0 0 1 -9.195 -19.2639)" id="Group_-_Casual_Rowdy">
<path style="stroke: none; stroke-width: 1; stroke-dasharray: none; stroke-linecap: butt; stroke-dashoffset: 0; stroke-linejoin: miter; stroke-miterlimit: 4; is-custom-font: none; font-file-url: none; fill: rgb(0,41,80); fill-rule: nonzero; opacity: 1;" transform=" translate(-345.465, -45.141)" d="M 343.64 43.27 c -1.77 0.47 -7.31 3.18 -8.32 3.76 c 0 0 10.87 -1.91 20.29 -1.41 C 352.53 44.16 347.76 43.1 343.64 43.27 z" stroke-linecap="round"/>
</g>
		<g transform="matrix(1 0 0 1 -41.79 -32.9484)" id="Group_-_Casual_Rowdy">
<path style="stroke: none; stroke-width: 1; stroke-dasharray: none; stroke-linecap: butt; stroke-dashoffset: 0; stroke-linejoin: miter; stroke-miterlimit: 4; is-custom-font: none; font-file-url: none; fill: rgb(241,90,34); fill-rule: nonzero; opacity: 1;" transform=" translate(-312.87, -31.4566)" d="M 330.78 40.27 l -3.45 -16.36 l -2.62 5.28 c -11.48 -8.46 -29.75 -6.3 -29.75 -6.3 C 322.76 28.18 330.78 40.27 330.78 40.27 z" stroke-linecap="round"/>
</g>
		<g transform="matrix(1 0 0 1 -65.61 -22.9454)" id="Group_-_Casual_Rowdy">
<path style="stroke: none; stroke-width: 1; stroke-dasharray: none; stroke-linecap: butt; stroke-dashoffset: 0; stroke-linejoin: miter; stroke-miterlimit: 4; is-custom-font: none; font-file-url: none; fill: rgb(241,90,34); fill-rule: nonzero; opacity: 1;" transform=" translate(-289.05, -41.4595)" d="M 315.38 49.53 c -7.55 -0.83 -13.15 -4.58 -11.17 -11.99 c 0.43 -1.62 2 -3.48 4 -5.05 c -15.44 -3.57 -36.04 4.83 -45.49 17.76 c 14.82 -8.58 26.84 -9.49 31.5 -9.55 c -0.51 0.96 -0.24 5.26 2.62 7.46 C 302.56 52.57 311.46 51.54 315.38 49.53 z" stroke-linecap="round"/>
</g>
		<g transform="matrix(1 0 0 1 -51.13 -2.125)" id="Group_-_Casual_Rowdy">
<polygon style="stroke: none; stroke-width: 1; stroke-dasharray: none; stroke-linecap: butt; stroke-dashoffset: 0; stroke-linejoin: miter; stroke-miterlimit: 4; is-custom-font: none; font-file-url: none; fill: rgb(241,90,34); fill-rule: nonzero; opacity: 1;" points="2.22,-5.41 -6.82,5.41 6.82,-2.76 "/>
</g>
		<g transform="matrix(1 0 0 1 -43.46 2.5)" id="Group_-_Casual_Rowdy">
<polygon style="stroke: none; stroke-width: 1; stroke-dasharray: none; stroke-linecap: butt; stroke-dashoffset: 0; stroke-linejoin: miter; stroke-miterlimit: 4; is-custom-font: none; font-file-url: none; fill: rgb(241,90,34); fill-rule: nonzero; opacity: 1;" points="-9.44,5.615 9.44,-0.955 1.68,-5.615 "/>
</g>
		<g transform="matrix(1 0 0 1 -36.0671 -24.1504)" id="Group_-_Casual_Rowdy">
<path style="stroke: none; stroke-width: 1; stroke-dasharray: none; stroke-linecap: butt; stroke-dashoffset: 0; stroke-linejoin: miter; stroke-miterlimit: 4; is-custom-font: none; font-file-url: none; fill: rgb(255,255,255); fill-rule: nonzero; opacity: 1;" transform=" translate(-318.5929, -40.2546)" d="M 318.03 37.2 l -4.7 -2.85 c -2.91 1.62 -4.92 6.9 -0.49 9.98 c 5.46 3.8 11.02 0.91 14.09 -1.73 l -1.53 -0.93 c -1.34 1.8 -3.94 2.76 -6.15 2.18 c -2.48 -0.64 -3.55 -2.96 -2.4 -5.17 C 317.14 38.12 317.54 37.63 318.03 37.2 z" stroke-linecap="round"/>
</g>
		<g transform="matrix(1 0 0 1 -3.87 -16.545)" id="Group_-_Casual_Rowdy">
<path style="stroke: none; stroke-width: 1; stroke-dasharray: none; stroke-linecap: butt; stroke-dashoffset: 0; stroke-linejoin: miter; stroke-miterlimit: 4; is-custom-font: none; font-file-url: none; fill: rgb(255,255,255); fill-rule: nonzero; opacity: 1;" transform=" translate(-350.79, -47.86)" d="M 344.14 40.77 c -14.79 4.98 -22.72 10.58 -25.74 13.04 c 25.97 -3.26 64.78 1.14 64.78 1.14 C 375.48 46.81 360.93 43.02 344.14 40.77 z M 335.32 47.03 c 1.01 -0.57 6.55 -3.29 8.32 -3.76 c 4.11 -0.17 8.88 0.9 11.97 2.35 C 346.2 45.12 335.32 47.03 335.32 47.03 z" stroke-linecap="round"/>
</g>
		<g transform="matrix(1 0 0 1 -19.14 -4.44)" id="Group_-_Casual_Rowdy">
<path style="stroke: none; stroke-width: 1; stroke-dasharray: none; stroke-linecap: butt; stroke-dashoffset: 0; stroke-linejoin: miter; stroke-miterlimit: 4; is-custom-font: none; font-file-url: none; fill: rgb(255,255,255); fill-rule: nonzero; opacity: 1;" transform=" translate(-335.52, -59.965)" d="M 328.87 62.7 c 8.34 -2.35 15.62 -4.23 23.95 -5.47 l -34.6 0.01 C 319.9 58.71 323.41 61.25 328.87 62.7 z" stroke-linecap="round"/>
</g>
		<g transform="matrix(1 0 0 1 -239.355 -24.97)" id="Group_-_Casual_Rowdy">
<path style="stroke: none; stroke-width: 1; stroke-dasharray: none; stroke-linecap: butt; stroke-dashoffset: 0; stroke-linejoin: miter; stroke-miterlimit: 4; is-custom-font: none; font-file-url: none; fill: rgb(241,90,34); fill-rule: nonzero; opacity: 1;" transform=" translate(-115.305, -39.435)" d="M 181.1 1.98 l -20.53 53.38 c 0.11 -1.23 0.16 -2.47 0.16 -3.7 c 0 -12.12 -8.04 -17.39 -18.48 -20.46 l -4.96 -1.49 c -3.38 -1.09 -8.65 -2.78 -8.65 -7.15 c 0 -4.17 4.77 -6.25 8.35 -6.25 c 4.77 0 9.35 1.98 12.92 4.96 l 7.75 -15.1 C 150.99 2.38 141.76 0 134.21 0 c -9.34 0 -17.06 3.86 -21.56 10.43 V 1.98 H 65.37 h -4.37 h -15.1 v 39.44 c 0 9.74 -0.7 20.37 -13.21 20.37 c -12.52 0 -13.21 -10.62 -13.21 -20.37 V 1.98 H 0 v 42.12 c 0 9.63 0.4 19.17 7.85 26.42 c 6.26 6.16 16.1 8.35 24.84 8.35 c 8.75 0 18.58 -2.18 24.84 -8.35 c 7.45 -7.25 7.85 -16.79 7.85 -26.42 V 18.48 h 11.73 v 58.41 h 19.47 V 18.48 h 12.61 c -0.5 2.08 -0.78 4.3 -0.78 6.65 c 0 14.51 8.05 17.69 20.26 21.16 c 4.18 1.2 11.83 3.09 11.83 8.55 c 0 5.25 -4.87 7.54 -9.44 7.54 c -6.65 0 -12.42 -3.48 -17.29 -7.75 l -8.34 15.7 c 7.65 5.36 16.89 8.54 26.32 8.54 c 7.54 0 15.4 -2.08 21.26 -7.05 c 0.73 -0.62 1.41 -1.29 2.02 -1.99 l -2.71 7.05 h 20.67 l 5.17 -13.01 h 26.83 l 4.86 13.01 h 20.76 L 202.36 1.98 H 181.1 z M 183.49 48.97 l 8.04 -23.84 h 0.21 l 7.94 23.84 H 183.49 z" stroke-linecap="round"/>
</g>
		<g transform="matrix(1 0 0 1 -118.465 7.835)" id="Group_-_Casual_Rowdy">
<path style="stroke: none; stroke-width: 1; stroke-dasharray: none; stroke-linecap: butt; stroke-dashoffset: 0; stroke-linejoin: miter; stroke-miterlimit: 4; is-custom-font: none; font-file-url: none; fill: rgb(241,90,34); fill-rule: nonzero; opacity: 1;" transform=" translate(-236.195, -72.24)" d="M 236.24 67.2 h -0.03 c -2.88 0 -5.18 2.24 -5.18 5.03 c 0 2.85 2.3 5.05 5.18 5.05 c 2.92 0 5.15 -2.21 5.15 -5.05 C 241.36 69.44 239.12 67.2 236.24 67.2 z M 236.24 76.24 c -2.27 0 -3.93 -1.78 -3.93 -4.01 c 0 -2.2 1.65 -4.01 3.86 -4.01 h 0.03 c 2.24 0 3.87 1.81 3.87 4.01 C 240.08 74.46 238.45 76.26 236.24 76.24 z" stroke-linecap="round"/>
</g>
		<g transform="matrix(1 0 0 1 -118.19 7.845)" id="Group_-_Casual_Rowdy">
<path style="stroke: none; stroke-width: 1; stroke-dasharray: none; stroke-linecap: butt; stroke-dashoffset: 0; stroke-linejoin: miter; stroke-miterlimit: 4; is-custom-font: none; font-file-url: none; fill: rgb(241,90,34); fill-rule: nonzero; opacity: 1;" transform=" translate(-236.47, -72.25)" d="M 237.38 72.38 v -0.06 c 0.61 -0.18 1.04 -0.61 1.04 -1.19 c 0 -0.47 -0.21 -0.87 -0.49 -1.07 c -0.37 -0.25 -0.8 -0.4 -1.75 -0.4 c -0.82 0 -1.46 0.1 -1.92 0.19 v 4.99 h 1.16 v -1.99 h 0.56 c 0.64 0 0.95 0.25 1.04 0.8 c 0.15 0.59 0.25 1.01 0.4 1.19 h 1.26 c -0.12 -0.16 -0.21 -0.46 -0.36 -1.23 C 238.14 72.93 237.86 72.53 237.38 72.38 z M 236 72.02 h -0.55 v -1.45 c 0.12 -0.03 0.34 -0.06 0.64 -0.06 c 0.74 0 1.07 0.31 1.07 0.77 C 237.16 71.79 236.64 72.02 236 72.02 z" stroke-linecap="round"/>
</g>
		<g transform="matrix(1 0 0 1 -343.55 43.395)" id="Group_-_Casual_Rowdy">
<path style="stroke: none; stroke-width: 1; stroke-dasharray: none; stroke-linecap: butt; stroke-dashoffset: 0; stroke-linejoin: miter; stroke-miterlimit: 4; is-custom-font: none; font-file-url: none; fill: rgb(0,41,80); fill-rule: nonzero; opacity: 1;" transform=" translate(-11.11, -107.8)" d="M 9.23 121.56 V 97.28 H 0 v -3.24 h 22.22 v 3.24 H 13 v 24.28 H 9.23 z" stroke-linecap="round"/>
</g>
		<g transform="matrix(1 0 0 1 -320.565 43.42)" id="Group_-_Casual_Rowdy">
<path style="stroke: none; stroke-width: 1; stroke-dasharray: none; stroke-linecap: butt; stroke-dashoffset: 0; stroke-linejoin: miter; stroke-miterlimit: 4; is-custom-font: none; font-file-url: none; fill: rgb(0,41,80); fill-rule: nonzero; opacity: 1;" transform=" translate(-34.095, -107.825)" d="M 25.85 94.08 h 3.62 v 11.17 c 1.18 -2.02 3.55 -3.16 6.21 -3.16 c 2.02 0 4.92 0.72 6.02 3.05 c 0.38 0.76 0.65 1.68 0.65 4.46 v 11.97 h -3.66 v -11.32 c 0 -1.71 0 -5.41 -4.12 -5.41 c -2.67 0 -4 1.64 -4.5 2.55 c -0.61 1.07 -0.61 2.86 -0.61 4.04 v 10.14 h -3.62 V 94.08 z" stroke-linecap="round"/>
</g>
		<g transform="matrix(1 0 0 1 -298.2207 47.63)" id="Group_-_Casual_Rowdy">
<path style="stroke: none; stroke-width: 1; stroke-dasharray: none; stroke-linecap: butt; stroke-dashoffset: 0; stroke-linejoin: miter; stroke-miterlimit: 4; is-custom-font: none; font-file-url: none; fill: rgb(0,41,80); fill-rule: nonzero; opacity: 1;" transform=" translate(-56.4393, -112.035)" d="M 51.32 112.64 c -0.08 3.97 1.56 6.9 5.49 6.9 c 2.33 0 4.19 -1.22 4.5 -3.96 h 3.58 c -0.12 0.95 -0.27 2.51 -1.64 4 c -0.84 0.95 -2.74 2.56 -6.59 2.56 c -6.02 0 -8.88 -3.74 -8.88 -9.8 c 0 -3.78 0.76 -6.9 3.77 -9 c 1.83 -1.3 4.12 -1.41 5.22 -1.41 c 8.58 0 8.39 7.59 8.31 10.71 H 51.32 z M 61.42 110.13 c 0.04 -1.83 -0.31 -5.64 -4.73 -5.64 c -2.33 0 -5.15 1.41 -5.22 5.64 H 61.42 z" stroke-linecap="round"/>
</g>
		<g transform="matrix(1 0 0 1 -262.305 43.68)" id="Group_-_Casual_Rowdy">
<path style="stroke: none; stroke-width: 1; stroke-dasharray: none; stroke-linecap: butt; stroke-dashoffset: 0; stroke-linejoin: miter; stroke-miterlimit: 4; is-custom-font: none; font-file-url: none; fill: rgb(0,41,80); fill-rule: nonzero; opacity: 1;" transform=" translate(-92.355, -108.085)" d="M 84.94 94.04 v 17.04 c 0 2.94 0.65 4.15 1.22 4.95 c 1.72 2.29 4.38 2.71 6.29 2.71 c 7.43 0 7.43 -5.83 7.43 -7.81 V 94.04 h 3.7 V 111 c 0 1.49 -0.04 4.58 -2.25 7.32 c -2.71 3.39 -6.9 3.81 -8.88 3.81 c -2.59 0 -7.17 -0.73 -9.72 -4.38 c -0.84 -1.22 -1.6 -2.82 -1.6 -6.94 V 94.04 H 84.94 z" stroke-linecap="round"/>
</g>
		<g transform="matrix(1 0 0 1 -235.63 47.405)" id="Group_-_Casual_Rowdy">
<path style="stroke: none; stroke-width: 1; stroke-dasharray: none; stroke-linecap: butt; stroke-dashoffset: 0; stroke-linejoin: miter; stroke-miterlimit: 4; is-custom-font: none; font-file-url: none; fill: rgb(0,41,80); fill-rule: nonzero; opacity: 1;" transform=" translate(-119.03, -111.81)" d="M 110.72 104.64 l -0.04 -2.21 h 3.58 l 0.04 3.09 c 0.42 -0.8 1.79 -3.47 6.14 -3.47 c 1.72 0 6.94 0.65 6.94 6.52 v 13 h -3.66 V 109.4 c 0 -1.26 -0.15 -2.4 -1.03 -3.28 c -0.92 -0.88 -2.17 -1.3 -3.39 -1.3 c -2.59 0 -4.99 1.87 -4.99 5.72 v 11.02 h -3.58 V 104.64 z" stroke-linecap="round"/>
</g>
		<g transform="matrix(1 0 0 1 -218.955 43.435)" id="Group_-_Casual_Rowdy">
<path style="stroke: none; stroke-width: 1; stroke-dasharray: none; stroke-linecap: butt; stroke-dashoffset: 0; stroke-linejoin: miter; stroke-miterlimit: 4; is-custom-font: none; font-file-url: none; fill: rgb(0,41,80); fill-rule: nonzero; opacity: 1;" transform=" translate(-135.705, -107.84)" d="M 133.55 94.12 h 4.31 v 3.93 h -4.31 V 94.12 z M 133.93 102.42 h 3.58 v 19.14 h -3.58 V 102.42 z" stroke-linecap="round"/>
</g>
		<g transform="matrix(1 0 0 1 -202.305 47.585)" id="Group_-_Casual_Rowdy">
<path style="stroke: none; stroke-width: 1; stroke-dasharray: none; stroke-linecap: butt; stroke-dashoffset: 0; stroke-linejoin: miter; stroke-miterlimit: 4; is-custom-font: none; font-file-url: none; fill: rgb(0,41,80); fill-rule: nonzero; opacity: 1;" transform=" translate(-152.355, -111.99)" d="M 142.35 102.42 h 4 l 6.1 15.17 l 5.95 -15.17 h 3.96 l -8.39 19.14 h -3.62 L 142.35 102.42 z" stroke-linecap="round"/>
</g>
		<g transform="matrix(1 0 0 1 -180.9207 47.63)" id="Group_-_Casual_Rowdy">
<path style="stroke: none; stroke-width: 1; stroke-dasharray: none; stroke-linecap: butt; stroke-dashoffset: 0; stroke-linejoin: miter; stroke-miterlimit: 4; is-custom-font: none; font-file-url: none; fill: rgb(0,41,80); fill-rule: nonzero; opacity: 1;" transform=" translate(-173.7393, -112.035)" d="M 168.62 112.64 c -0.08 3.97 1.56 6.9 5.49 6.9 c 2.33 0 4.19 -1.22 4.5 -3.96 h 3.58 c -0.12 0.95 -0.27 2.51 -1.64 4 c -0.84 0.95 -2.74 2.56 -6.59 2.56 c -6.02 0 -8.88 -3.74 -8.88 -9.8 c 0 -3.78 0.76 -6.9 3.77 -9 c 1.83 -1.3 4.12 -1.41 5.22 -1.41 c 8.58 0 8.39 7.59 8.31 10.71 H 168.62 z M 178.72 110.13 c 0.04 -1.83 -0.31 -5.64 -4.73 -5.64 c -2.33 0 -5.15 1.41 -5.22 5.64 H 178.72 z" stroke-linecap="round"/>
</g>
		<g transform="matrix(1 0 0 1 -161.635 47.4958)" id="Group_-_Casual_Rowdy">
<path style="stroke: none; stroke-width: 1; stroke-dasharray: none; stroke-linecap: butt; stroke-dashoffset: 0; stroke-linejoin: miter; stroke-miterlimit: 4; is-custom-font: none; font-file-url: none; fill: rgb(0,41,80); fill-rule: nonzero; opacity: 1;" transform=" translate(-193.025, -111.9008)" d="M 187.84 106.31 c 0 -1.3 -0.08 -2.63 -0.19 -3.89 h 3.62 l 0.08 3.7 c 0.69 -2.67 2.97 -3.54 4.57 -3.77 c 1.07 -0.15 1.87 -0.11 2.48 -0.08 v 3.51 c -0.19 -0.08 -0.42 -0.11 -0.69 -0.15 c -0.27 -0.04 -0.61 -0.04 -1.03 -0.04 c -4.23 0 -5.22 2.52 -5.22 5.79 v 10.18 h -3.62 V 106.31 z" stroke-linecap="round"/>
</g>
		<g transform="matrix(1 0 0 1 -145.2701 47.63)" id="Group_-_Casual_Rowdy">
<path style="stroke: none; stroke-width: 1; stroke-dasharray: none; stroke-linecap: butt; stroke-dashoffset: 0; stroke-linejoin: miter; stroke-miterlimit: 4; is-custom-font: none; font-file-url: none; fill: rgb(0,41,80); fill-rule: nonzero; opacity: 1;" transform=" translate(-209.3898, -112.035)" d="M 205.29 115.88 c -0.04 1.45 0.72 3.47 4.19 3.47 c 1.49 0 2.59 -0.27 3.35 -1.22 c 0.38 -0.5 0.61 -1.14 0.61 -1.79 c 0 -1.87 -1.34 -2.21 -4.19 -2.86 c -4 -0.92 -7.36 -1.72 -7.36 -5.72 c 0 -3.51 3.05 -5.79 7.47 -5.79 c 2.4 0 5.76 0.68 6.9 2.97 c 0.5 1.07 0.5 1.98 0.5 2.78 h -3.66 c 0.11 -2.9 -2.4 -3.13 -3.7 -3.13 c -0.53 0 -3.89 0 -3.89 2.75 c 0 1.75 1.71 2.17 2.71 2.44 c 5.3 1.26 6.44 1.56 7.59 2.63 c 1.07 0.99 1.45 2.33 1.45 3.55 c 0 2.13 -1.18 3.96 -2.59 4.84 c -1.68 1.03 -3.7 1.3 -5.68 1.3 c -3.89 0 -7.51 -1.6 -7.47 -6.21 H 205.29 z" stroke-linecap="round"/>
</g>
		<g transform="matrix(1 0 0 1 -130.555 43.435)" id="Group_-_Casual_Rowdy">
<path style="stroke: none; stroke-width: 1; stroke-dasharray: none; stroke-linecap: butt; stroke-dashoffset: 0; stroke-linejoin: miter; stroke-miterlimit: 4; is-custom-font: none; font-file-url: none; fill: rgb(0,41,80); fill-rule: nonzero; opacity: 1;" transform=" translate(-224.105, -107.84)" d="M 221.95 94.12 h 4.31 v 3.93 h -4.31 V 94.12 z M 222.33 102.42 h 3.58 v 19.14 h -3.58 V 102.42 z" stroke-linecap="round"/>
</g>
		<g transform="matrix(1 0 0 1 -119.105 45.12)" id="Group_-_Casual_Rowdy">
<path style="stroke: none; stroke-width: 1; stroke-dasharray: none; stroke-linecap: butt; stroke-dashoffset: 0; stroke-linejoin: miter; stroke-miterlimit: 4; is-custom-font: none; font-file-url: none; fill: rgb(0,41,80); fill-rule: nonzero; opacity: 1;" transform=" translate(-235.555, -109.525)" d="M 229.95 102.35 h 3.39 v -4 l 3.54 -1.14 v 5.15 h 4.27 v 2.63 h -4.27 v 11.48 c 0 0.95 0 2.55 2.56 2.55 c 0.72 0 1.41 -0.11 1.72 -0.19 v 2.78 c -0.65 0.11 -1.68 0.23 -2.97 0.23 c -3.28 0 -4.84 -0.95 -4.84 -4.08 v -12.77 h -3.39 V 102.35 z" stroke-linecap="round"/>
</g>
		<g transform="matrix(1 0 0 1 -101.97 51.215)" id="Group_-_Casual_Rowdy">
<path style="stroke: none; stroke-width: 1; stroke-dasharray: none; stroke-linecap: butt; stroke-dashoffset: 0; stroke-linejoin: miter; stroke-miterlimit: 4; is-custom-font: none; font-file-url: none; fill: rgb(0,41,80); fill-rule: nonzero; opacity: 1;" transform=" translate(-252.69, -115.62)" d="M 254.2 121.68 l -2.75 7.13 h -3.7 l 2.9 -7.32 l -7.97 -19.06 h 4.04 l 5.99 15.09 l 6.1 -15.09 h 3.89 L 254.2 121.68 z" stroke-linecap="round"/>
</g>
		<g transform="matrix(1 0 0 1 -73.29 47.665)" id="Group_-_Casual_Rowdy">
<path style="stroke: none; stroke-width: 1; stroke-dasharray: none; stroke-linecap: butt; stroke-dashoffset: 0; stroke-linejoin: miter; stroke-miterlimit: 4; is-custom-font: none; font-file-url: none; fill: rgb(0,41,80); fill-rule: nonzero; opacity: 1;" transform=" translate(-281.37, -112.07)" d="M 281.54 101.93 c 7.66 0 9.38 6.02 9.38 10.03 c 0 5.6 -3.16 10.25 -9.68 10.25 c -6.33 0 -9.42 -4.38 -9.42 -9.99 C 271.82 107.5 274.03 101.93 281.54 101.93 z M 281.31 119.54 c 2.71 0 5.79 -1.94 5.79 -7.7 c 0 -4.77 -2.21 -7.28 -5.57 -7.28 c -2.29 0 -5.98 1.45 -5.98 7.44 C 275.56 115.92 277.23 119.54 281.31 119.54 z" stroke-linecap="round"/>
</g>
		<g transform="matrix(1 0 0 1 -54.73 43.16)" id="Group_-_Casual_Rowdy">
<path style="stroke: none; stroke-width: 1; stroke-dasharray: none; stroke-linecap: butt; stroke-dashoffset: 0; stroke-linejoin: miter; stroke-miterlimit: 4; is-custom-font: none; font-file-url: none; fill: rgb(0,41,80); fill-rule: nonzero; opacity: 1;" transform=" translate(-299.93, -107.565)" d="M 306.09 96.71 c -0.61 -0.04 -1.37 -0.08 -2.1 -0.08 c -2.9 0 -2.9 1.45 -2.9 2.78 v 3.01 h 4.46 v 2.59 h -4.46 v 16.54 h -3.54 v -16.54 h -3.78 v -2.59 h 3.78 v -2.17 c 0 -2.63 0.15 -3.58 0.8 -4.57 c 0.8 -1.22 2.33 -2.1 4.8 -2.1 c 1.03 0 2.17 0.15 2.94 0.27 V 96.71 z" stroke-linecap="round"/>
</g>
		<g transform="matrix(1 0 0 1 -28.99 43.395)" id="Group_-_Casual_Rowdy">
<path style="stroke: none; stroke-width: 1; stroke-dasharray: none; stroke-linecap: butt; stroke-dashoffset: 0; stroke-linejoin: miter; stroke-miterlimit: 4; is-custom-font: none; font-file-url: none; fill: rgb(0,41,80); fill-rule: nonzero; opacity: 1;" transform=" translate(-325.67, -107.8)" d="M 323.78 121.56 V 97.28 h -9.22 v -3.24 h 22.22 v 3.24 h -9.22 v 24.28 H 323.78 z" stroke-linecap="round"/>
</g>
		<g transform="matrix(1 0 0 1 -11.3407 47.63)" id="Group_-_Casual_Rowdy">
<path style="stroke: none; stroke-width: 1; stroke-dasharray: none; stroke-linecap: butt; stroke-dashoffset: 0; stroke-linejoin: miter; stroke-miterlimit: 4; is-custom-font: none; font-file-url: none; fill: rgb(0,41,80); fill-rule: nonzero; opacity: 1;" transform=" translate(-343.3193, -112.035)" d="M 338.2 112.64 c -0.08 3.97 1.56 6.9 5.49 6.9 c 2.33 0 4.19 -1.22 4.5 -3.96 h 3.58 c -0.12 0.95 -0.27 2.51 -1.64 4 c -0.84 0.95 -2.74 2.56 -6.59 2.56 c -6.02 0 -8.88 -3.74 -8.88 -9.8 c 0 -3.78 0.76 -6.9 3.77 -9 c 1.83 -1.3 4.12 -1.41 5.22 -1.41 c 8.58 0 8.39 7.59 8.31 10.71 H 338.2 z M 348.3 110.13 c 0.04 -1.83 -0.31 -5.64 -4.73 -5.64 c -2.33 0 -5.15 1.41 -5.22 5.64 H 348.3 z" stroke-linecap="round"/>
</g>
		<g transform="matrix(1 0 0 1 9.565 47.585)" id="Group_-_Casual_Rowdy">
<path style="stroke: none; stroke-width: 1; stroke-dasharray: none; stroke-linecap: butt; stroke-dashoffset: 0; stroke-linejoin: miter; stroke-miterlimit: 4; is-custom-font: none; font-file-url: none; fill: rgb(0,41,80); fill-rule: nonzero; opacity: 1;" transform=" translate(-364.225, -111.99)" d="M 374.11 121.56 h -4.73 l -5.45 -7.66 l -5.41 7.66 h -4.19 l 7.59 -10.03 l -7.17 -9.11 h 4.69 l 5.11 7.21 l 5.34 -7.21 h 4.23 l -7.47 9.34 L 374.11 121.56 z" stroke-linecap="round"/>
</g>
		<g transform="matrix(1 0 0 1 30.55 47.605)" id="Group_-_Casual_Rowdy">
<path style="stroke: none; stroke-width: 1; stroke-dasharray: none; stroke-linecap: butt; stroke-dashoffset: 0; stroke-linejoin: miter; stroke-miterlimit: 4; is-custom-font: none; font-file-url: none; fill: rgb(0,41,80); fill-rule: nonzero; opacity: 1;" transform=" translate(-385.21, -112.01)" d="M 390.08 121.56 c -0.27 -0.95 -0.34 -1.87 -0.34 -2.86 c -1.72 3.17 -4.31 3.47 -5.91 3.47 c -4.38 0 -6.75 -2.48 -6.75 -5.64 c 0 -1.52 0.53 -3.96 3.35 -5.6 c 2.06 -1.14 5.11 -1.26 6.63 -1.26 c 0.92 0 1.49 0.04 2.59 0.11 c 0 -2.36 0 -3.39 -0.68 -4.23 c -0.73 -0.95 -2.29 -1.26 -3.32 -1.26 c -3.62 0 -3.81 2.48 -3.85 3.24 h -3.58 c 0.11 -0.99 0.23 -2.33 1.34 -3.62 c 1.45 -1.6 4.16 -2.06 6.18 -2.06 c 2.78 0 5.76 0.88 6.79 2.82 c 0.61 1.14 0.65 2.06 0.65 2.94 l -0.15 9.15 c 0 0.31 0.04 2.86 0.31 4.8 H 390.08 z M 387.6 112.15 c -1.45 0 -6.9 0 -6.9 3.89 c 0 1.22 0.76 3.32 3.96 3.32 c 1.83 0 3.2 -0.72 4.08 -2.06 c 0.8 -1.3 0.84 -2.36 0.92 -5.03 C 389.01 112.18 388.48 112.15 387.6 112.15 z" stroke-linecap="round"/>
</g>
		<g transform="matrix(1 0 0 1 51.1099 47.63)" id="Group_-_Casual_Rowdy">
<path style="stroke: none; stroke-width: 1; stroke-dasharray: none; stroke-linecap: butt; stroke-dashoffset: 0; stroke-linejoin: miter; stroke-miterlimit: 4; is-custom-font: none; font-file-url: none; fill: rgb(0,41,80); fill-rule: nonzero; opacity: 1;" transform=" translate(-405.7698, -112.035)" d="M 401.67 115.88 c -0.04 1.45 0.72 3.47 4.19 3.47 c 1.49 0 2.59 -0.27 3.35 -1.22 c 0.38 -0.5 0.61 -1.14 0.61 -1.79 c 0 -1.87 -1.33 -2.21 -4.19 -2.86 c -4 -0.92 -7.36 -1.72 -7.36 -5.72 c 0 -3.51 3.05 -5.79 7.47 -5.79 c 2.4 0 5.76 0.68 6.9 2.97 c 0.5 1.07 0.5 1.98 0.5 2.78 h -3.66 c 0.11 -2.9 -2.4 -3.13 -3.7 -3.13 c -0.53 0 -3.89 0 -3.89 2.75 c 0 1.75 1.72 2.17 2.71 2.44 c 5.3 1.26 6.44 1.56 7.59 2.63 c 1.07 0.99 1.45 2.33 1.45 3.55 c 0 2.13 -1.18 3.96 -2.59 4.84 c -1.68 1.03 -3.7 1.3 -5.68 1.3 c -3.89 0 -7.51 -1.6 -7.47 -6.21 H 401.67 z" stroke-linecap="round"/>
</g>
		<g transform="matrix(1 0 0 1 81.41 47.605)" id="Group_-_Casual_Rowdy">
<path style="stroke: none; stroke-width: 1; stroke-dasharray: none; stroke-linecap: butt; stroke-dashoffset: 0; stroke-linejoin: miter; stroke-miterlimit: 4; is-custom-font: none; font-file-url: none; fill: rgb(0,41,80); fill-rule: nonzero; opacity: 1;" transform=" translate(-436.07, -112.01)" d="M 440.94 121.56 c -0.27 -0.95 -0.34 -1.87 -0.34 -2.86 c -1.72 3.17 -4.31 3.47 -5.91 3.47 c -4.38 0 -6.75 -2.48 -6.75 -5.64 c 0 -1.52 0.53 -3.96 3.35 -5.6 c 2.06 -1.14 5.11 -1.26 6.63 -1.26 c 0.92 0 1.49 0.04 2.59 0.11 c 0 -2.36 0 -3.39 -0.68 -4.23 c -0.73 -0.95 -2.29 -1.26 -3.32 -1.26 c -3.62 0 -3.81 2.48 -3.85 3.24 h -3.58 c 0.11 -0.99 0.23 -2.33 1.34 -3.62 c 1.45 -1.6 4.16 -2.06 6.18 -2.06 c 2.78 0 5.76 0.88 6.79 2.82 c 0.61 1.14 0.65 2.06 0.65 2.94 l -0.15 9.15 c 0 0.31 0.04 2.86 0.31 4.8 H 440.94 z M 438.47 112.15 c -1.45 0 -6.9 0 -6.9 3.89 c 0 1.22 0.76 3.32 3.96 3.32 c 1.83 0 3.2 -0.72 4.08 -2.06 c 0.8 -1.3 0.84 -2.36 0.92 -5.03 C 439.88 112.18 439.34 112.15 438.47 112.15 z" stroke-linecap="round"/>
</g>
		<g transform="matrix(1 0 0 1 98.485 45.12)" id="Group_-_Casual_Rowdy">
<path style="stroke: none; stroke-width: 1; stroke-dasharray: none; stroke-linecap: butt; stroke-dashoffset: 0; stroke-linejoin: miter; stroke-miterlimit: 4; is-custom-font: none; font-file-url: none; fill: rgb(0,41,80); fill-rule: nonzero; opacity: 1;" transform=" translate(-453.145, -109.525)" d="M 447.54 102.35 h 3.39 v -4 l 3.55 -1.14 v 5.15 h 4.27 v 2.63 h -4.27 v 11.48 c 0 0.95 0 2.55 2.55 2.55 c 0.72 0 1.41 -0.11 1.71 -0.19 v 2.78 c -0.65 0.11 -1.67 0.23 -2.97 0.23 c -3.28 0 -4.84 -0.95 -4.84 -4.08 v -12.77 h -3.39 V 102.35 z" stroke-linecap="round"/>
</g>
		<g transform="matrix(1 0 0 1 128.395 43.46)" id="Group_-_Casual_Rowdy">
<path style="stroke: none; stroke-width: 1; stroke-dasharray: none; stroke-linecap: butt; stroke-dashoffset: 0; stroke-linejoin: miter; stroke-miterlimit: 4; is-custom-font: none; font-file-url: none; fill: rgb(0,41,80); fill-rule: nonzero; opacity: 1;" transform=" translate(-483.055, -107.865)" d="M 476.52 113.52 c 0.08 1.91 0.31 5.45 6.63 5.45 c 5.72 0 6.44 -3.54 6.44 -4.92 c 0 -3.09 -2.48 -3.7 -6.33 -4.65 c -4.19 -1.03 -6.06 -1.49 -7.47 -2.44 c -2.25 -1.52 -2.86 -3.58 -2.86 -5.41 c 0 -5.61 5.3 -8.04 10.48 -8.04 c 1.83 0 5.53 0.3 7.74 2.7 c 1.53 1.68 1.6 3.55 1.68 4.69 h -3.96 c -0.19 -3.43 -3.09 -4.19 -5.79 -4.19 c -3.81 0 -6.1 1.71 -6.1 4.46 c 0 2.44 1.6 3.28 4.95 4.08 c 6.56 1.68 7.28 1.83 8.88 2.9 c 2.55 1.67 2.75 4.35 2.75 5.49 c 0 4.88 -3.81 8.58 -10.87 8.58 c -2.1 0 -6.37 -0.34 -8.54 -3.13 c -1.56 -2.02 -1.6 -4.23 -1.6 -5.56 H 476.52 z" stroke-linecap="round"/>
</g>
		<g transform="matrix(1 0 0 1 150.58 47.605)" id="Group_-_Casual_Rowdy">
<path style="stroke: none; stroke-width: 1; stroke-dasharray: none; stroke-linecap: butt; stroke-dashoffset: 0; stroke-linejoin: miter; stroke-miterlimit: 4; is-custom-font: none; font-file-url: none; fill: rgb(0,41,80); fill-rule: nonzero; opacity: 1;" transform=" translate(-505.24, -112.01)" d="M 510.11 121.56 c -0.27 -0.95 -0.34 -1.87 -0.34 -2.86 c -1.72 3.17 -4.31 3.47 -5.91 3.47 c -4.38 0 -6.75 -2.48 -6.75 -5.64 c 0 -1.52 0.53 -3.96 3.35 -5.6 c 2.06 -1.14 5.11 -1.26 6.63 -1.26 c 0.92 0 1.49 0.04 2.59 0.11 c 0 -2.36 0 -3.39 -0.68 -4.23 c -0.73 -0.95 -2.29 -1.26 -3.32 -1.26 c -3.62 0 -3.81 2.48 -3.85 3.24 h -3.58 c 0.11 -0.99 0.23 -2.33 1.34 -3.62 c 1.45 -1.6 4.16 -2.06 6.18 -2.06 c 2.78 0 5.76 0.88 6.79 2.82 c 0.61 1.14 0.65 2.06 0.65 2.94 l -0.15 9.15 c 0 0.31 0.04 2.86 0.31 4.8 H 510.11 z M 507.64 112.15 c -1.45 0 -6.9 0 -6.9 3.89 c 0 1.22 0.76 3.32 3.96 3.32 c 1.83 0 3.2 -0.72 4.08 -2.06 c 0.8 -1.3 0.84 -2.36 0.92 -5.03 C 509.05 112.18 508.51 112.15 507.64 112.15 z" stroke-linecap="round"/>
</g>
		<g transform="matrix(1 0 0 1 173.41 47.405)" id="Group_-_Casual_Rowdy">
<path style="stroke: none; stroke-width: 1; stroke-dasharray: none; stroke-linecap: butt; stroke-dashoffset: 0; stroke-linejoin: miter; stroke-miterlimit: 4; is-custom-font: none; font-file-url: none; fill: rgb(0,41,80); fill-rule: nonzero; opacity: 1;" transform=" translate(-528.07, -111.81)" d="M 519.76 104.64 l -0.04 -2.21 h 3.58 l 0.04 3.09 c 0.42 -0.8 1.79 -3.47 6.14 -3.47 c 1.72 0 6.94 0.65 6.94 6.52 v 13 h -3.66 V 109.4 c 0 -1.26 -0.15 -2.4 -1.03 -3.28 c -0.92 -0.88 -2.17 -1.3 -3.39 -1.3 c -2.59 0 -4.99 1.87 -4.99 5.72 v 11.02 h -3.58 V 104.64 z" stroke-linecap="round"/>
</g>
		<g transform="matrix(1 0 0 1 207.37 43.395)" id="Group_-_Casual_Rowdy">
<path style="stroke: none; stroke-width: 1; stroke-dasharray: none; stroke-linecap: butt; stroke-dashoffset: 0; stroke-linejoin: miter; stroke-miterlimit: 4; is-custom-font: none; font-file-url: none; fill: rgb(0,41,80); fill-rule: nonzero; opacity: 1;" transform=" translate(-562.03, -107.8)" d="M 560.22 94.04 h 4.08 l 11.13 27.52 h -4.16 l -2.97 -7.17 h -12.77 l -2.97 7.17 h -3.93 L 560.22 94.04 z M 556.75 111.31 h 10.41 l -5.07 -13.5 L 556.75 111.31 z" stroke-linecap="round"/>
</g>
		<g transform="matrix(1 0 0 1 232.93 47.405)" id="Group_-_Casual_Rowdy">
<path style="stroke: none; stroke-width: 1; stroke-dasharray: none; stroke-linecap: butt; stroke-dashoffset: 0; stroke-linejoin: miter; stroke-miterlimit: 4; is-custom-font: none; font-file-url: none; fill: rgb(0,41,80); fill-rule: nonzero; opacity: 1;" transform=" translate(-587.59, -111.81)" d="M 579.28 104.64 l -0.04 -2.21 h 3.58 l 0.04 3.09 c 0.42 -0.8 1.79 -3.47 6.14 -3.47 c 1.72 0 6.94 0.65 6.94 6.52 v 13 h -3.66 V 109.4 c 0 -1.26 -0.15 -2.4 -1.03 -3.28 c -0.92 -0.88 -2.17 -1.3 -3.39 -1.3 c -2.59 0 -4.99 1.87 -4.99 5.72 v 11.02 h -3.58 V 104.64 z" stroke-linecap="round"/>
</g>
		<g transform="matrix(1 0 0 1 250.475 45.12)" id="Group_-_Casual_Rowdy">
<path style="stroke: none; stroke-width: 1; stroke-dasharray: none; stroke-linecap: butt; stroke-dashoffset: 0; stroke-linejoin: miter; stroke-miterlimit: 4; is-custom-font: none; font-file-url: none; fill: rgb(0,41,80); fill-rule: nonzero; opacity: 1;" transform=" translate(-605.135, -109.525)" d="M 599.53 102.35 h 3.39 v -4 l 3.55 -1.14 v 5.15 h 4.27 v 2.63 h -4.27 v 11.48 c 0 0.95 0 2.55 2.55 2.55 c 0.72 0 1.41 -0.11 1.71 -0.19 v 2.78 c -0.65 0.11 -1.68 0.23 -2.97 0.23 c -3.28 0 -4.84 -0.95 -4.84 -4.08 v -12.77 h -3.39 V 102.35 z" stroke-linecap="round"/>
</g>
		<g transform="matrix(1 0 0 1 268.64 47.665)" id="Group_-_Casual_Rowdy">
<path style="stroke: none; stroke-width: 1; stroke-dasharray: none; stroke-linecap: butt; stroke-dashoffset: 0; stroke-linejoin: miter; stroke-miterlimit: 4; is-custom-font: none; font-file-url: none; fill: rgb(0,41,80); fill-rule: nonzero; opacity: 1;" transform=" translate(-623.3, -112.07)" d="M 623.47 101.93 c 7.66 0 9.38 6.02 9.38 10.03 c 0 5.6 -3.16 10.25 -9.68 10.25 c -6.33 0 -9.42 -4.38 -9.42 -9.99 C 613.75 107.5 615.96 101.93 623.47 101.93 z M 623.24 119.54 c 2.71 0 5.79 -1.94 5.79 -7.7 c 0 -4.77 -2.21 -7.28 -5.57 -7.28 c -2.29 0 -5.98 1.45 -5.98 7.44 C 617.49 115.92 619.17 119.54 623.24 119.54 z" stroke-linecap="round"/>
</g>
		<g transform="matrix(1 0 0 1 292.22 47.405)" id="Group_-_Casual_Rowdy">
<path style="stroke: none; stroke-width: 1; stroke-dasharray: none; stroke-linecap: butt; stroke-dashoffset: 0; stroke-linejoin: miter; stroke-miterlimit: 4; is-custom-font: none; font-file-url: none; fill: rgb(0,41,80); fill-rule: nonzero; opacity: 1;" transform=" translate(-646.88, -111.81)" d="M 638.57 104.64 l -0.04 -2.21 h 3.58 l 0.04 3.09 c 0.42 -0.8 1.79 -3.47 6.14 -3.47 c 1.72 0 6.94 0.65 6.94 6.52 v 13 h -3.66 V 109.4 c 0 -1.26 -0.15 -2.4 -1.03 -3.28 c -0.92 -0.88 -2.17 -1.3 -3.39 -1.3 c -2.59 0 -4.99 1.87 -4.99 5.72 v 11.02 h -3.58 V 104.64 z" stroke-linecap="round"/>
</g>
		<g transform="matrix(1 0 0 1 308.905 43.435)" id="Group_-_Casual_Rowdy">
<path style="stroke: none; stroke-width: 1; stroke-dasharray: none; stroke-linecap: butt; stroke-dashoffset: 0; stroke-linejoin: miter; stroke-miterlimit: 4; is-custom-font: none; font-file-url: none; fill: rgb(0,41,80); fill-rule: nonzero; opacity: 1;" transform=" translate(-663.565, -107.84)" d="M 661.41 94.12 h 4.31 v 3.93 h -4.31 V 94.12 z M 661.79 102.42 h 3.58 v 19.14 h -3.58 V 102.42 z" stroke-linecap="round"/>
</g>
		<g transform="matrix(1 0 0 1 325.83 47.665)" id="Group_-_Casual_Rowdy">
<path style="stroke: none; stroke-width: 1; stroke-dasharray: none; stroke-linecap: butt; stroke-dashoffset: 0; stroke-linejoin: miter; stroke-miterlimit: 4; is-custom-font: none; font-file-url: none; fill: rgb(0,41,80); fill-rule: nonzero; opacity: 1;" transform=" translate(-680.49, -112.07)" d="M 680.66 101.93 c 7.66 0 9.38 6.02 9.38 10.03 c 0 5.6 -3.16 10.25 -9.68 10.25 c -6.33 0 -9.42 -4.38 -9.42 -9.99 C 670.94 107.5 673.15 101.93 680.66 101.93 z M 680.43 119.54 c 2.71 0 5.79 -1.94 5.79 -7.7 c 0 -4.77 -2.21 -7.28 -5.57 -7.28 c -2.29 0 -5.98 1.45 -5.98 7.44 C 674.68 115.92 676.35 119.54 680.43 119.54 z" stroke-linecap="round"/>
</g>
		<g transform="matrix(1 0 0 1 347.185 32.425)" id="Group_-_Casual_Rowdy">
<path style="stroke: none; stroke-width: 1; stroke-dasharray: none; stroke-linecap: butt; stroke-dashoffset: 0; stroke-linejoin: miter; stroke-miterlimit: 4; is-custom-font: none; font-file-url: none; fill: rgb(0,41,80); fill-rule: nonzero; opacity: 1;" transform=" translate(-701.845, -96.83)" d="M 696.63 100.84 v -7.07 h -2.26 v -0.96 h 5.58 v 0.96 h -2.34 v 7.07 H 696.63 z M 701.38 92.82 h 1.85 l 2.16 6.6 l 2.2 -6.6 h 1.73 v 8.03 h -1.02 v -7.2 l -2.49 7.2 h -1 l -2.4 -7.2 v 7.2 h -1.02 V 92.82 z" stroke-linecap="round"/>
</g>
</g>
</g>
</svg>