<svg xmlns="http://www.w3.org/2000/svg" xmlns:xlink="http://www.w3.org/1999/xlink" version="1.1" width="750" height="100" viewBox="0 0 750 100" xml:space="preserve">
<desc>Created with Fabric.js 3.5.0</desc>
<defs>
</defs>
<rect x="0" y="0" width="100%" height="100%" fill="rgba(255,255,255,0)"/>
<g transform="matrix(1 0 0 1 266.2826 50)" style="" id="220583">
		
<path xml:space="preserve" font-family="Roboto" font-size="42" font-weight="bold" style="stroke: none; stroke-width: 0; stroke-dasharray: none; stroke-linecap: butt; stroke-dashoffset: 0; stroke-linejoin: miter; stroke-miterlimit: 4; is-custom-font: none; font-file-url: none; fill: rgb(241,90,34); fill-rule: nonzero; opacity: 1; white-space: pre;" d="M-246.78 3.25L-240.63 3.25Q-240.98 8.07-244.19 10.84Q-247.40 13.60-252.65 13.60L-252.65 13.60Q-258.39 13.60-261.68 9.74Q-264.97 5.87-264.97-0.87L-264.97-0.87L-264.97-2.70Q-264.97-7.01-263.45-10.29Q-261.94-13.57-259.12-15.32Q-256.30-17.08-252.56-17.08L-252.56-17.08Q-247.40-17.08-244.24-14.31Q-241.08-11.54-240.59-6.53L-240.59-6.53L-246.74-6.53Q-246.97-9.43-248.35-10.73Q-249.73-12.03-252.56-12.03L-252.56-12.03Q-255.64-12.03-257.17-9.83Q-258.70-7.62-258.74-2.99L-258.74-2.99L-258.74-0.73Q-258.74 4.11-257.27 6.34Q-255.80 8.58-252.65 8.58L-252.65 8.58Q-249.80 8.58-248.39 7.28Q-246.99 5.98-246.78 3.25L-246.78 3.25Z"/><path xml:space="preserve" font-family="Roboto" font-size="42" font-weight="bold" style="stroke: none; stroke-width: 0; stroke-dasharray: none; stroke-linecap: butt; stroke-dashoffset: 0; stroke-linejoin: miter; stroke-miterlimit: 4; is-custom-font: none; font-file-url: none; fill: rgb(12,35,64); fill-rule: nonzero; opacity: 1; white-space: pre;" d="M-237.90 2.16L-237.90 1.89Q-237.90-1.41-236.63-3.99Q-235.36-6.58-232.97-7.99Q-230.58-9.41-227.42-9.41L-227.42-9.41Q-222.93-9.41-220.09-6.66Q-217.25-3.91-216.92 0.81L-216.92 0.81L-216.88 2.32Q-216.88 7.43-219.73 10.52Q-222.58 13.60-227.38 13.60Q-232.18 13.60-235.04 10.53Q-237.90 7.45-237.90 2.16L-237.90 2.16ZM-231.97 2.32L-231.97 2.32Q-231.97 5.48-230.78 7.15Q-229.60 8.83-227.38 8.83L-227.38 8.83Q-225.23 8.83-224.02 7.17Q-222.81 5.52-222.81 1.89L-222.81 1.89Q-222.81-1.20-224.02-2.90Q-225.23-4.61-227.42-4.61L-227.42-4.61Q-229.60-4.61-230.78-2.91Q-231.97-1.22-231.97 2.32ZM-207.45-18.31L-207.45-6.58Q-205.09-9.41-201.52-9.41L-201.52-9.41Q-194.30-9.41-194.20-1.02L-194.20-1.02L-194.20 13.19L-200.13 13.19L-200.13-0.85Q-200.13-2.76-200.95-3.67Q-201.77-4.59-203.67-4.59L-203.67-4.59Q-206.28-4.59-207.45-2.58L-207.45-2.58L-207.45 13.19L-213.37 13.19L-213.37-18.31L-207.45-18.31ZM-190.65 2.16L-190.65 1.89Q-190.65-1.41-189.38-3.99Q-188.11-6.58-185.72-7.99Q-183.33-9.41-180.17-9.41L-180.17-9.41Q-175.68-9.41-172.84-6.66Q-170.00-3.91-169.67 0.81L-169.67 0.81L-169.63 2.32Q-169.63 7.43-172.48 10.52Q-175.33 13.60-180.13 13.60Q-184.93 13.60-187.79 10.53Q-190.65 7.45-190.65 2.16L-190.65 2.16ZM-184.72 2.32L-184.72 2.32Q-184.72 5.48-183.53 7.15Q-182.35 8.83-180.13 8.83L-180.13 8.83Q-177.98 8.83-176.77 7.17Q-175.56 5.52-175.56 1.89L-175.56 1.89Q-175.56-1.20-176.77-2.90Q-177.98-4.61-180.17-4.61L-180.17-4.61Q-182.35-4.61-183.53-2.91Q-184.72-1.22-184.72 2.32ZM-153.43-9.14L-153.51-3.44Q-154.72-3.60-155.64-3.60L-155.64-3.60Q-159.01-3.60-160.05-1.33L-160.05-1.33L-160.05 13.19L-165.98 13.19L-165.98-9.00L-160.38-9.00L-160.22-6.35Q-158.43-9.41-155.27-9.41L-155.27-9.41Q-154.29-9.41-153.43-9.14L-153.43-9.14ZM-148.47-14.45L-142.54-14.45L-142.54-9.00L-138.75-9.00L-138.75-4.65L-142.54-4.65L-142.54 6.43Q-142.54 7.66-142.07 8.19Q-141.60 8.72-140.26 8.72L-140.26 8.72Q-139.28 8.72-138.52 8.58L-138.52 8.58L-138.52 13.07Q-140.26 13.60-142.11 13.60L-142.11 13.60Q-148.34 13.60-148.47 7.31L-148.47 7.31L-148.47-4.65L-151.71-4.65L-151.71-9.00L-148.47-9.00L-148.47-14.45ZM-117.42 13.19L-123.36 13.19L-123.36-4.65L-126.67-4.65L-126.67-9.00L-123.36-9.00L-123.36-10.88Q-123.36-14.61-121.22-16.68Q-119.08-18.74-115.22-18.74L-115.22-18.74Q-113.99-18.74-112.21-18.33L-112.21-18.33L-112.27-13.73Q-113.01-13.92-114.07-13.92L-114.07-13.92Q-117.42-13.92-117.42-10.78L-117.42-10.78L-117.42-9.00L-113.01-9.00L-113.01-4.65L-117.42-4.65L-117.42 13.19ZM-110.85 2.16L-110.85 1.89Q-110.85-1.41-109.58-3.99Q-108.31-6.58-105.92-7.99Q-103.53-9.41-100.38-9.41L-100.38-9.41Q-95.88-9.41-93.04-6.66Q-90.20-3.91-89.88 0.81L-89.88 0.81L-89.83 2.32Q-89.83 7.43-92.69 10.52Q-95.54 13.60-100.33 13.60Q-105.13 13.60-107.99 10.53Q-110.85 7.45-110.85 2.16L-110.85 2.16ZM-104.93 2.32L-104.93 2.32Q-104.93 5.48-103.74 7.15Q-102.55 8.83-100.33 8.83L-100.33 8.83Q-98.18 8.83-96.97 7.17Q-95.76 5.52-95.76 1.89L-95.76 1.89Q-95.76-1.20-96.97-2.90Q-98.18-4.61-100.38-4.61L-100.38-4.61Q-102.55-4.61-103.74-2.91Q-104.93-1.22-104.93 2.32ZM-73.63-9.14L-73.72-3.44Q-74.93-3.60-75.85-3.60L-75.85-3.60Q-79.21-3.60-80.26-1.33L-80.26-1.33L-80.26 13.19L-86.18 13.19L-86.18-9.00L-80.59-9.00L-80.42-6.35Q-78.64-9.41-75.48-9.41L-75.48-9.41Q-74.49-9.41-73.63-9.14L-73.63-9.14Z"/><path xml:space="preserve" font-family="Roboto" font-size="42" font-weight="bold" style="stroke: none; stroke-width: 0; stroke-dasharray: none; stroke-linecap: butt; stroke-dashoffset: 0; stroke-linejoin: miter; stroke-miterlimit: 4; is-custom-font: none; font-file-url: none; fill: rgb(241,90,34); fill-rule: nonzero; opacity: 1; white-space: pre;" d="M-41.09 13.19L-43.16 7.04L-53.95 7.04L-56.00 13.19L-62.54 13.19L-51.42-16.67L-45.72-16.67L-34.55 13.19L-41.09 13.19ZM-48.57-9.12L-52.28 2.06L-44.82 2.06L-48.57-9.12Z"/><path xml:space="preserve" font-family="Roboto" font-size="42" font-weight="bold" style="stroke: none; stroke-width: 0; stroke-dasharray: none; stroke-linecap: butt; stroke-dashoffset: 0; stroke-linejoin: miter; stroke-miterlimit: 4; is-custom-font: none; font-file-url: none; fill: rgb(12,35,64); fill-rule: nonzero; opacity: 1; white-space: pre;" d="M-25.21-16.67L-25.21 13.19L-31.37 13.19L-31.37-16.67L-25.21-16.67Z"/><path xml:space="preserve" font-family="Roboto" font-size="42" font-weight="bold" style="stroke: none; stroke-width: 0; stroke-dasharray: none; stroke-linecap: butt; stroke-dashoffset: 0; stroke-linejoin: miter; stroke-miterlimit: 4; is-custom-font: none; font-file-url: none; fill: rgb(241,90,34); fill-rule: nonzero; opacity: 1; white-space: pre;" d="M7.60 13.19L2.00 2.26L-2.90 2.26L-2.90 13.19L-9.05 13.19L-9.05-16.67L2.04-16.67Q7.33-16.67 10.20-14.31Q13.07-11.95 13.07-7.64L13.07-7.64Q13.07-4.59 11.75-2.55Q10.43-0.51 7.74 0.70L7.74 0.70L14.20 12.91L14.20 13.19L7.60 13.19ZM-2.90-11.68L-2.90-2.72L2.06-2.72Q4.38-2.72 5.65-3.90Q6.92-5.08 6.92-7.15L6.92-7.15Q6.92-9.26 5.72-10.47Q4.52-11.68 2.04-11.68L2.04-11.68L-2.90-11.68ZM35.71-4.57L35.71 0.25L23.90 0.25L23.90 8.25L37.77 8.25L37.77 13.19L17.75 13.19L17.75-16.67L37.72-16.67L37.72-11.68L23.90-11.68L23.90-4.57L35.71-4.57Z"/><path xml:space="preserve" font-family="Roboto" font-size="42" font-weight="bold" style="stroke: none; stroke-width: 0; stroke-dasharray: none; stroke-linecap: butt; stroke-dashoffset: 0; stroke-linejoin: miter; stroke-miterlimit: 4; is-custom-font: none; font-file-url: none; fill: rgb(12,35,64); fill-rule: nonzero; opacity: 1; white-space: pre;" d="M53.00 7.06L53.00 7.06Q53.00 5.98 51.93 5.35Q50.85 4.72 48.47 4.23L48.47 4.23Q40.55 2.57 40.55-2.49L40.55-2.49Q40.55-5.45 43.00-7.43Q45.46-9.41 49.41-9.41L49.41-9.41Q53.64-9.41 56.17-7.42Q58.70-5.43 58.70-2.25L58.70-2.25L52.78-2.25Q52.78-3.52 51.96-4.35Q51.14-5.18 49.39-5.18L49.39-5.18Q47.90-5.18 47.08-4.50Q46.26-3.83 46.26-2.78L46.26-2.78Q46.26-1.80 47.19-1.19Q48.12-0.59 50.34-0.15Q52.55 0.29 54.07 0.85L54.07 0.85Q58.77 2.57 58.77 6.82L58.77 6.82Q58.77 9.85 56.16 11.73Q53.56 13.60 49.43 13.60L49.43 13.60Q46.65 13.60 44.48 12.61Q42.32 11.61 41.09 9.88Q39.86 8.15 39.86 6.14L39.86 6.14L45.48 6.14Q45.56 7.72 46.65 8.56Q47.73 9.40 49.56 9.40L49.56 9.40Q51.26 9.40 52.13 8.75Q53.00 8.11 53.00 7.06ZM82.55 2.00L82.55 2.30Q82.55 7.43 80.23 10.52Q77.90 13.60 73.94 13.60L73.94 13.60Q70.58 13.60 68.51 11.27L68.51 11.27L68.51 21.73L62.58 21.73L62.58-9.00L68.08-9.00L68.28-6.82Q70.43-9.41 73.90-9.41L73.90-9.41Q78.00-9.41 80.28-6.37Q82.55-3.34 82.55 2.00L82.55 2.00ZM76.63 1.87L76.63 1.87Q76.63-1.22 75.53-2.90Q74.43-4.59 72.34-4.59L72.34-4.59Q69.55-4.59 68.51-2.45L68.51-2.45L68.51 6.63Q69.59 8.83 72.38 8.83L72.38 8.83Q76.63 8.83 76.63 1.87ZM85.30 2.16L85.30 1.89Q85.30-1.41 86.57-3.99Q87.85-6.58 90.23-7.99Q92.62-9.41 95.78-9.41L95.78-9.41Q100.27-9.41 103.11-6.66Q105.95-3.91 106.28 0.81L106.28 0.81L106.32 2.32Q106.32 7.43 103.47 10.52Q100.62 13.60 95.82 13.60Q91.02 13.60 88.16 10.53Q85.30 7.45 85.30 2.16L85.30 2.16ZM91.23 2.32L91.23 2.32Q91.23 5.48 92.42 7.15Q93.61 8.83 95.82 8.83L95.82 8.83Q97.98 8.83 99.19 7.17Q100.40 5.52 100.40 1.89L100.40 1.89Q100.40-1.20 99.19-2.90Q97.98-4.61 95.78-4.61L95.78-4.61Q93.61-4.61 92.42-2.91Q91.23-1.22 91.23 2.32ZM109.85-9.00L115.43-9.00L115.61-6.43Q117.99-9.41 121.99-9.41L121.99-9.41Q125.52-9.41 127.24-7.33Q128.96-5.26 129.00-1.14L129.00-1.14L129.00 13.19L123.08 13.19L123.08-1.00Q123.08-2.88 122.26-3.74Q121.44-4.59 119.53-4.59L119.53-4.59Q117.03-4.59 115.78-2.45L115.78-2.45L115.78 13.19L109.85 13.19L109.85-9.00ZM145.51 7.06L145.51 7.06Q145.51 5.98 144.44 5.35Q143.36 4.72 140.98 4.23L140.98 4.23Q133.06 2.57 133.06-2.49L133.06-2.49Q133.06-5.45 135.52-7.43Q137.97-9.41 141.92-9.41L141.92-9.41Q146.15-9.41 148.68-7.42Q151.21-5.43 151.21-2.25L151.21-2.25L145.29-2.25Q145.29-3.52 144.47-4.35Q143.65-5.18 141.90-5.18L141.90-5.18Q140.41-5.18 139.59-4.50Q138.77-3.83 138.77-2.78L138.77-2.78Q138.77-1.80 139.70-1.19Q140.63-0.59 142.85-0.15Q145.06 0.29 146.58 0.85L146.58 0.85Q151.28 2.57 151.28 6.82L151.28 6.82Q151.28 9.85 148.67 11.73Q146.07 13.60 141.94 13.60L141.94 13.60Q139.16 13.60 136.99 12.61Q134.83 11.61 133.60 9.88Q132.37 8.15 132.37 6.14L132.37 6.14L137.99 6.14Q138.07 7.72 139.16 8.56Q140.24 9.40 142.07 9.40L142.07 9.40Q143.77 9.40 144.64 8.75Q145.51 8.11 145.51 7.06ZM161.35-9.00L161.35 13.19L155.40 13.19L155.40-9.00L161.35-9.00ZM155.05-14.74L155.05-14.74Q155.05-16.07 155.94-16.93Q156.83-17.79 158.37-17.79L158.37-17.79Q159.89-17.79 160.79-16.93Q161.69-16.07 161.69-14.74L161.69-14.74Q161.69-13.38 160.78-12.52Q159.87-11.66 158.37-11.66Q156.87-11.66 155.96-12.52Q155.05-13.38 155.05-14.74ZM186.22 1.98L186.22 2.30Q186.22 7.64 183.94 10.62Q181.67 13.60 177.59 13.60L177.59 13.60Q173.98 13.60 171.82 10.84L171.82 10.84L171.56 13.19L166.23 13.19L166.23-18.31L172.15-18.31L172.15-7.01Q174.20-9.41 177.55-9.41L177.55-9.41Q181.61-9.41 183.91-6.42Q186.22-3.44 186.22 1.98L186.22 1.98ZM180.29 1.87L180.29 1.87Q180.29-1.49 179.23-3.04Q178.16-4.59 176.05-4.59L176.05-4.59Q173.22-4.59 172.15-2.27L172.15-2.27L172.15 6.49Q173.24 8.83 176.09 8.83L176.09 8.83Q178.96 8.83 179.86 6.00L179.86 6.00Q180.29 4.64 180.29 1.87ZM196.13-9.00L196.13 13.19L190.18 13.19L190.18-9.00L196.13-9.00ZM189.83-14.74L189.83-14.74Q189.83-16.07 190.72-16.93Q191.61-17.79 193.15-17.79L193.15-17.79Q194.67-17.79 195.57-16.93Q196.48-16.07 196.48-14.74L196.48-14.74Q196.48-13.38 195.56-12.52Q194.65-11.66 193.15-11.66Q191.66-11.66 190.74-12.52Q189.83-13.38 189.83-14.74ZM207.26-18.31L207.26 13.19L201.31 13.19L201.31-18.31L207.26-18.31ZM218.40-9.00L218.40 13.19L212.45 13.19L212.45-9.00L218.40-9.00ZM212.10-14.74L212.10-14.74Q212.10-16.07 212.99-16.93Q213.89-17.79 215.42-17.79L215.42-17.79Q216.94-17.79 217.84-16.93Q218.75-16.07 218.75-14.74L218.75-14.74Q218.75-13.38 217.83-12.52Q216.92-11.66 215.42-11.66Q213.93-11.66 213.01-12.52Q212.10-13.38 212.10-14.74ZM224.45-14.45L230.37-14.45L230.37-9.00L234.17-9.00L234.17-4.65L230.37-4.65L230.37 6.43Q230.37 7.66 230.85 8.19Q231.32 8.72 232.65 8.72L232.65 8.72Q233.64 8.72 234.39 8.58L234.39 8.58L234.39 13.07Q232.65 13.60 230.81 13.60L230.81 13.60Q224.57 13.60 224.45 7.31L224.45 7.31L224.45-4.65L221.21-4.65L221.21-9.00L224.45-9.00L224.45-14.45ZM241.63-9.00L245.76 4.81L249.86-9.00L256.21-9.00L247.29 16.64L246.80 17.81Q244.81 22.16 240.24 22.16L240.24 22.16Q238.95 22.16 237.61 21.77L237.61 21.77L237.61 17.27L238.52 17.30Q240.20 17.30 241.03 16.78Q241.86 16.27 242.33 15.08L242.33 15.08L243.03 13.26L235.26-9.00L241.63-9.00Z"/><path xml:space="preserve" font-family="Roboto" font-size="42" font-weight="bold" style="stroke: none; stroke-width: 0; stroke-dasharray: none; stroke-linecap: butt; stroke-dashoffset: 0; stroke-linejoin: miter; stroke-miterlimit: 4; is-custom-font: none; font-file-url: none; fill: rgb(241,90,34); fill-rule: nonzero; opacity: 1; white-space: pre;" d=""/></g>
<g transform="matrix(0.4812 0 0 0.4812 586.7343 50.001)" id="193493">
<g style="" vector-effect="non-scaling-stroke">
		<g transform="matrix(1 0 0 1 -4 -4)" id="45490">
<rect style="stroke: none; stroke-width: 1; stroke-dasharray: none; stroke-linecap: butt; stroke-dashoffset: 0; stroke-linejoin: miter; stroke-miterlimit: 4; is-custom-font: none; font-file-url: none; fill: rgb(255,255,255); fill-opacity: 0; fill-rule: nonzero; opacity: 1;" x="-50" y="-50" rx="0" ry="0" width="100" height="100"/>
</g>
		<g transform="matrix(4.6863 0 0 4.6863 -1.4507 -1.4507)" id="19717">
<path style="stroke: none; stroke-width: 2; stroke-dasharray: none; stroke-linecap: butt; stroke-dashoffset: 0; stroke-linejoin: miter; stroke-miterlimit: 4; is-custom-font: none; font-file-url: none; fill: rgb(12,35,64); fill-rule: nonzero; opacity: 1;" vector-effect="non-scaling-stroke" transform=" translate(-15, -15)" d="M 8.2441406 4 L 10.244141 6 L 23 6 C 23.571297 6 24 6.4287 24 7 L 24 19.755859 L 26 21.755859 L 26 7 C 26 5.3553 24.644703 4 23 4 L 8.2441406 4 z M 4 8.2441406 L 4 23 C 4 24.6447 5.3552972 26 7 26 L 21.755859 26 L 19.755859 24 L 7 24 C 6.4287028 24 6 23.5713 6 23 L 6 10.244141 L 4 8.2441406 z" stroke-linecap="round"/>
</g>
		<g transform="matrix(2.2094 0 0 2.2094 0.9999 -3.6639)" id="838798">
<path style="stroke: none; stroke-width: 0; stroke-dasharray: none; stroke-linecap: butt; stroke-dashoffset: 0; stroke-linejoin: miter; stroke-miterlimit: 4; is-custom-font: none; font-file-url: none; fill: rgb(12,35,64); fill-rule: nonzero; opacity: 1;" vector-effect="non-scaling-stroke" transform=" translate(-25.2705, -24.5935)" d="M 20.921 31.898 c 2.758 0 5.367 -0.956 7.458 -2.704 l 1.077 1.077 l -0.358 0.358 c -0.188 0.188 -0.293 0.442 -0.293 0.707 s 0.105 0.52 0.293 0.707 l 8.257 8.256 c 0.195 0.195 0.451 0.293 0.707 0.293 s 0.512 -0.098 0.707 -0.293 l 2.208 -2.208 c 0.188 -0.188 0.293 -0.442 0.293 -0.707 s -0.105 -0.52 -0.293 -0.707 l -8.257 -8.256 c -0.391 -0.391 -1.023 -0.391 -1.414 0 l -0.436 0.436 l -1.073 -1.073 c 1.793 -2.104 2.777 -4.743 2.777 -7.537 c 0 -3.112 -1.212 -6.038 -3.413 -8.239 s -5.127 -3.413 -8.239 -3.413 s -6.038 1.212 -8.238 3.413 c -2.201 2.201 -3.413 5.126 -3.413 8.239 c 0 3.112 1.212 6.038 3.413 8.238 C 14.883 30.687 17.809 31.898 20.921 31.898 z M 38.855 37.385 l -0.794 0.793 l -6.843 -6.842 l 0.794 -0.793 L 38.855 37.385 z M 14.097 13.423 c 1.823 -1.823 4.246 -2.827 6.824 -2.827 s 5.002 1.004 6.825 2.827 c 1.823 1.823 2.827 4.247 2.827 6.825 c 0 2.578 -1.004 5.001 -2.827 6.824 c -1.823 1.823 -4.247 2.827 -6.825 2.827 s -5.001 -1.004 -6.824 -2.827 c -1.823 -1.823 -2.827 -4.247 -2.827 -6.824 C 11.27 17.669 12.273 15.246 14.097 13.423 z" stroke-linecap="round"/>
</g>
		<g transform="matrix(1 0 0 1 -11.9291 28.6311)" id="719311">
<path style="stroke: none; stroke-width: 0; stroke-dasharray: none; stroke-linecap: butt; stroke-dashoffset: 0; stroke-linejoin: miter; stroke-miterlimit: 4; is-custom-font: none; font-file-url: none; fill: rgb(241,90,34); fill-rule: nonzero; opacity: 1;" transform=" translate(0.1, 0.76)" d="M -16.38 2.3 L -16.38 2.3 Q -16.2 2.3 -16.07 2.43 L -16.07 2.43 L -15.22 3.35 Q -15.93 4.23 -16.96 4.69 Q -17.98 5.15 -19.42 5.15 L -19.42 5.15 Q -20.71 5.15 -21.74 4.71 Q -22.77 4.27 -23.5 3.49 Q -24.22 2.71 -24.61 1.62 Q -25 0.53 -25 -0.76 L -25 -0.76 Q -25 -2.06 -24.57 -3.15 Q -24.14 -4.23 -23.35 -5.01 Q -22.57 -5.8 -21.48 -6.23 Q -20.38 -6.67 -19.06 -6.67 L -19.06 -6.67 Q -17.78 -6.67 -16.81 -6.26 Q -15.85 -5.85 -15.16 -5.17 L -15.16 -5.17 L -15.88 -4.17 Q -15.94 -4.07 -16.04 -4 Q -16.14 -3.93 -16.32 -3.93 L -16.32 -3.93 Q -16.5 -3.93 -16.7 -4.07 Q -16.89 -4.21 -17.18 -4.38 Q -17.48 -4.55 -17.93 -4.69 Q -18.38 -4.84 -19.08 -4.84 L -19.08 -4.84 Q -19.9 -4.84 -20.58 -4.55 Q -21.26 -4.27 -21.76 -3.74 Q -22.25 -3.21 -22.52 -2.46 Q -22.8 -1.7 -22.8 -0.76 L -22.8 -0.76 Q -22.8 0.22 -22.52 0.98 Q -22.25 1.74 -21.78 2.26 Q -21.3 2.78 -20.66 3.05 Q -20.02 3.33 -19.29 3.33 L -19.29 3.33 Q -18.85 3.33 -18.49 3.28 Q -18.14 3.23 -17.84 3.13 Q -17.54 3.03 -17.27 2.86 Q -17 2.7 -16.74 2.46 L -16.74 2.46 Q -16.66 2.39 -16.57 2.34 Q -16.48 2.3 -16.38 2.3 Z M -4.89 -6.54 L -0.34 5.03 L -2.01 5.03 Q -2.29 5.03 -2.47 4.89 Q -2.65 4.75 -2.73 4.54 L -2.73 4.54 L -3.59 2.18 L -8.38 2.18 L -9.25 4.54 Q -9.31 4.72 -9.5 4.87 Q -9.69 5.03 -9.96 5.03 L -9.96 5.03 L -11.63 5.03 L -7.09 -6.54 L -4.89 -6.54 Z M -6.42 -3.17 L -7.83 0.66 L -4.14 0.66 L -5.55 -3.19 Q -5.65 -3.45 -5.76 -3.79 Q -5.88 -4.14 -5.99 -4.55 L -5.99 -4.55 Q -6.1 -4.14 -6.21 -3.79 Q -6.32 -3.44 -6.42 -3.17 L -6.42 -3.17 Z M 7.08 0.51 L 6.16 0.51 L 6.16 5.03 L 4.01 5.03 L 4.01 -6.54 L 7.54 -6.54 Q 8.72 -6.54 9.56 -6.3 Q 10.41 -6.05 10.95 -5.61 Q 11.49 -5.17 11.74 -4.56 Q 11.99 -3.95 11.99 -3.21 L 11.99 -3.21 Q 11.99 -2.63 11.82 -2.11 Q 11.65 -1.59 11.32 -1.17 Q 11 -0.74 10.52 -0.42 Q 10.05 -0.1 9.44 0.09 L 9.44 0.09 Q 9.85 0.32 10.14 0.75 L 10.14 0.75 L 13.04 5.03 L 11.1 5.03 Q 10.82 5.03 10.63 4.91 Q 10.43 4.8 10.3 4.59 L 10.3 4.59 L 7.86 0.89 Q 7.73 0.68 7.56 0.59 Q 7.4 0.51 7.08 0.51 L 7.08 0.51 Z M 6.16 -4.88 L 6.16 -1.04 L 7.5 -1.04 Q 8.11 -1.04 8.56 -1.19 Q 9.02 -1.34 9.31 -1.61 Q 9.6 -1.88 9.74 -2.25 Q 9.89 -2.61 9.89 -3.05 L 9.89 -3.05 Q 9.89 -3.93 9.31 -4.41 Q 8.73 -4.88 7.54 -4.88 L 7.54 -4.88 L 6.16 -4.88 Z M 17.5 -6.54 L 24.8 -6.54 L 24.8 -4.83 L 19.67 -4.83 L 19.67 -1.62 L 23.71 -1.62 L 23.71 0.03 L 19.67 0.03 L 19.67 3.31 L 24.8 3.31 L 24.8 5.03 L 17.5 5.03 L 17.5 -6.54 Z" stroke-linecap="round"/>
</g>
		<g transform="matrix(-0.4946 0 0 0.4946 -5.311 -25.0076)" id="801572">
<path style="stroke: none; stroke-width: 0; stroke-dasharray: none; stroke-linecap: butt; stroke-dashoffset: 0; stroke-linejoin: miter; stroke-miterlimit: 4; is-custom-font: none; font-file-url: none; fill: rgb(241,90,34); fill-rule: nonzero; opacity: 1;" vector-effect="non-scaling-stroke" transform=" translate(-27.1, -13.6)" d="M 27.1 22.6 c 5 0 9 -4 9 -9 s -4 -9 -9 -9 s -9 4 -9 9 S 22.1 22.6 27.1 22.6 z M 27.1 7.5 c 3.3 0 6 2.7 6 6 s -2.7 6 -6 6 s -6 -2.7 -6 -6 S 23.8 7.5 27.1 7.5 z" stroke-linecap="round"/>
</g>
		<g transform="matrix(-0.4946 0 0 0.4946 -6.2703 -9.1506)" id="856067">
<path style="stroke: none; stroke-width: 0; stroke-dasharray: none; stroke-linecap: butt; stroke-dashoffset: 0; stroke-linejoin: miter; stroke-miterlimit: 4; is-custom-font: none; font-file-url: none; fill: rgb(241,90,34); fill-rule: nonzero; opacity: 1;" vector-effect="non-scaling-stroke" transform=" translate(-29.0395, -45.6605)" d="M 40.8 29.8 C 28.6 22.3 12.7 26 5.1 38.1 l 2.6 1.6 c 6.6 -10.8 20.6 -14.3 31.4 -7.7 s 14.3 20.6 7.7 31.4 c -0.1 0.1 -0.2 0.3 -0.3 0.4 l 2.6 1.6 C 56.6 53.3 52.9 37.4 40.8 29.8 z" stroke-linecap="round"/>
</g>
		<g transform="matrix(-0.4946 0 0 0.4946 -17.7749 -20.6552)" id="356989">
<polygon style="stroke: none; stroke-width: 0; stroke-dasharray: none; stroke-linecap: butt; stroke-dashoffset: 0; stroke-linejoin: miter; stroke-miterlimit: 4; is-custom-font: none; font-file-url: none; fill: rgb(241,90,34); fill-rule: nonzero; opacity: 1;" vector-effect="non-scaling-stroke" points="7.6,-1.5 1.5,-1.5 1.5,-7.6 -1.5,-7.6 -1.5,-1.5 -7.6,-1.5 -7.6,1.5 -1.5,1.5 -1.5,7.6 1.5,7.6 1.5,1.5 7.6,1.5 "/>
</g>
</g>
</g>
</svg>