<svg xmlns="http://www.w3.org/2000/svg" xmlns:xlink="http://www.w3.org/1999/xlink" version="1.1" width="750" height="100" viewBox="0 0 750 100" xml:space="preserve">
<desc>Created with Fabric.js 3.5.0</desc>
<defs>
</defs>
<rect x="0" y="0" width="100%" height="100%" fill="rgba(255,255,255,0)"/>
<g transform="matrix(1 0 0 1 266.2826 50)" style="" id="152139">
		
<path xml:space="preserve" font-family="Roboto" font-size="42" font-weight="bold" style="stroke: none; stroke-width: 0; stroke-dasharray: none; stroke-linecap: butt; stroke-dashoffset: 0; stroke-linejoin: miter; stroke-miterlimit: 4; is-custom-font: none; font-file-url: none; fill: rgb(241,90,34); fill-rule: nonzero; opacity: 1; white-space: pre;" d="M-244.88 3.25L-238.73 3.25Q-239.08 8.07-242.29 10.84Q-245.50 13.60-250.75 13.60L-250.75 13.60Q-256.49 13.60-259.78 9.74Q-263.07 5.87-263.07-0.87L-263.07-0.87L-263.07-2.70Q-263.07-7.01-261.56-10.29Q-260.04-13.57-257.22-15.32Q-254.40-17.08-250.67-17.08L-250.67-17.08Q-245.50-17.08-242.34-14.31Q-239.18-11.54-238.69-6.53L-238.69-6.53L-244.84-6.53Q-245.07-9.43-246.45-10.73Q-247.84-12.03-250.67-12.03L-250.67-12.03Q-253.74-12.03-255.27-9.83Q-256.80-7.62-256.84-2.99L-256.84-2.99L-256.84-0.73Q-256.84 4.11-255.37 6.34Q-253.91 8.58-250.75 8.58L-250.75 8.58Q-247.90 8.58-246.49 7.28Q-245.09 5.98-244.88 3.25L-244.88 3.25Z"/><path xml:space="preserve" font-family="Roboto" font-size="42" font-weight="bold" style="stroke: none; stroke-width: 0; stroke-dasharray: none; stroke-linecap: butt; stroke-dashoffset: 0; stroke-linejoin: miter; stroke-miterlimit: 4; is-custom-font: none; font-file-url: none; fill: rgb(12,35,64); fill-rule: nonzero; opacity: 1; white-space: pre;" d="M-222.02 13.60L-222.02 13.60Q-226.90 13.60-229.96 10.61Q-233.03 7.62-233.03 2.63L-233.03 2.63L-233.03 2.06Q-233.03-1.28-231.74-3.92Q-230.45-6.56-228.08-7.98Q-225.71-9.41-222.67-9.41L-222.67-9.41Q-218.12-9.41-215.51-6.53Q-212.89-3.66-212.89 1.61L-212.89 1.61L-212.89 4.03L-227.02 4.03Q-226.73 6.20-225.29 7.51Q-223.84 8.83-221.63 8.83L-221.63 8.83Q-218.20 8.83-216.28 6.34L-216.28 6.34L-213.36 9.61Q-214.70 11.49-216.97 12.55Q-219.25 13.60-222.02 13.60ZM-222.69-4.61L-222.69-4.61Q-224.46-4.61-225.56-3.42Q-226.65-2.23-226.96-0.01L-226.96-0.01L-218.72-0.01L-218.72-0.48Q-218.76-2.45-219.78-3.53Q-220.81-4.61-222.69-4.61ZM-209.65-9.00L-204.07-9.00L-203.89-6.43Q-201.51-9.41-197.51-9.41L-197.51-9.41Q-193.98-9.41-192.26-7.33Q-190.54-5.26-190.50-1.14L-190.50-1.14L-190.50 13.19L-196.42 13.19L-196.42-1.00Q-196.42-2.88-197.24-3.74Q-198.06-4.59-199.97-4.59L-199.97-4.59Q-202.47-4.59-203.72-2.45L-203.72-2.45L-203.72 13.19L-209.65 13.19L-209.65-9.00ZM-184.84-14.45L-178.91-14.45L-178.91-9.00L-175.12-9.00L-175.12-4.65L-178.91-4.65L-178.91 6.43Q-178.91 7.66-178.44 8.19Q-177.97 8.72-176.63 8.72L-176.63 8.72Q-175.65 8.72-174.89 8.58L-174.89 8.58L-174.89 13.07Q-176.63 13.60-178.48 13.60L-178.48 13.60Q-184.71 13.60-184.84 7.31L-184.84 7.31L-184.84-4.65L-188.08-4.65L-188.08-9.00L-184.84-9.00L-184.84-14.45ZM-161.60 13.60L-161.60 13.60Q-166.48 13.60-169.55 10.61Q-172.61 7.62-172.61 2.63L-172.61 2.63L-172.61 2.06Q-172.61-1.28-171.32-3.92Q-170.03-6.56-167.66-7.98Q-165.29-9.41-162.26-9.41L-162.26-9.41Q-157.71-9.41-155.09-6.53Q-152.48-3.66-152.48 1.61L-152.48 1.61L-152.48 4.03L-166.61 4.03Q-166.32 6.20-164.87 7.51Q-163.43 8.83-161.21 8.83L-161.21 8.83Q-157.79 8.83-155.86 6.34L-155.86 6.34L-152.95 9.61Q-154.28 11.49-156.56 12.55Q-158.83 13.60-161.60 13.60ZM-162.28-4.61L-162.28-4.61Q-164.04-4.61-165.14-3.42Q-166.24-2.23-166.54-0.01L-166.54-0.01L-158.30-0.01L-158.30-0.48Q-158.34-2.45-159.37-3.53Q-160.39-4.61-162.28-4.61ZM-136.56-9.14L-136.64-3.44Q-137.85-3.60-138.78-3.60L-138.78-3.60Q-142.14-3.60-143.19-1.33L-143.19-1.33L-143.19 13.19L-149.11 13.19L-149.11-9.00L-143.51-9.00L-143.35-6.35Q-141.57-9.41-138.41-9.41L-138.41-9.41Q-137.42-9.41-136.56-9.14L-136.56-9.14ZM-115.77 13.19L-121.71 13.19L-121.71-4.65L-125.02-4.65L-125.02-9.00L-121.71-9.00L-121.71-10.88Q-121.71-14.61-119.57-16.68Q-117.43-18.74-113.57-18.74L-113.57-18.74Q-112.34-18.74-110.56-18.33L-110.56-18.33L-110.62-13.73Q-111.36-13.92-112.42-13.92L-112.42-13.92Q-115.77-13.92-115.77-10.78L-115.77-10.78L-115.77-9.00L-111.36-9.00L-111.36-4.65L-115.77-4.65L-115.77 13.19ZM-109.20 2.16L-109.20 1.89Q-109.20-1.41-107.93-3.99Q-106.66-6.58-104.27-7.99Q-101.88-9.41-98.72-9.41L-98.72-9.41Q-94.23-9.41-91.39-6.66Q-88.55-3.91-88.22 0.81L-88.22 0.81L-88.18 2.32Q-88.18 7.43-91.03 10.52Q-93.88 13.60-98.68 13.60Q-103.48 13.60-106.34 10.53Q-109.20 7.45-109.20 2.16L-109.20 2.16ZM-103.28 2.32L-103.28 2.32Q-103.28 5.48-102.09 7.15Q-100.90 8.83-98.68 8.83L-98.68 8.83Q-96.53 8.83-95.32 7.17Q-94.11 5.52-94.11 1.89L-94.11 1.89Q-94.11-1.20-95.32-2.90Q-96.53-4.61-98.72-4.61L-98.72-4.61Q-100.90-4.61-102.09-2.91Q-103.28-1.22-103.28 2.32ZM-71.98-9.14L-72.06-3.44Q-73.27-3.60-74.20-3.60L-74.20-3.60Q-77.56-3.60-78.61-1.33L-78.61-1.33L-78.61 13.19L-84.53 13.19L-84.53-9.00L-78.93-9.00L-78.77-6.35Q-76.99-9.41-73.83-9.41L-73.83-9.41Q-72.84-9.41-71.98-9.14L-71.98-9.14Z"/><path xml:space="preserve" font-family="Roboto" font-size="42" font-weight="bold" style="stroke: none; stroke-width: 0; stroke-dasharray: none; stroke-linecap: butt; stroke-dashoffset: 0; stroke-linejoin: miter; stroke-miterlimit: 4; is-custom-font: none; font-file-url: none; fill: rgb(241,90,34); fill-rule: nonzero; opacity: 1; white-space: pre;" d="M-45.06 13.19L-47.13 7.04L-57.91 7.04L-59.96 13.19L-66.51 13.19L-55.39-16.67L-49.69-16.67L-38.51 13.19L-45.06 13.19ZM-52.54-9.12L-56.25 2.06L-48.79 2.06L-52.54-9.12Z"/><path xml:space="preserve" font-family="Roboto" font-size="42" font-weight="bold" style="stroke: none; stroke-width: 0; stroke-dasharray: none; stroke-linecap: butt; stroke-dashoffset: 0; stroke-linejoin: miter; stroke-miterlimit: 4; is-custom-font: none; font-file-url: none; fill: rgb(12,35,64); fill-rule: nonzero; opacity: 1; white-space: pre;" d="M-27.07-16.67L-27.07 13.19L-33.22 13.19L-33.22-16.67L-27.07-16.67Z"/><path xml:space="preserve" font-family="Roboto" font-size="42" font-weight="bold" style="stroke: none; stroke-width: 0; stroke-dasharray: none; stroke-linecap: butt; stroke-dashoffset: 0; stroke-linejoin: miter; stroke-miterlimit: 4; is-custom-font: none; font-file-url: none; fill: rgb(241,90,34); fill-rule: nonzero; opacity: 1; white-space: pre;" d="M9.84 13.19L4.25 2.26L-0.66 2.26L-0.66 13.19L-6.81 13.19L-6.81-16.67L4.29-16.67Q9.58-16.67 12.45-14.31Q15.32-11.95 15.32-7.64L15.32-7.64Q15.32-4.59 14.00-2.55Q12.67-0.51 9.99 0.70L9.99 0.70L16.45 12.91L16.45 13.19L9.84 13.19ZM-0.66-11.68L-0.66-2.72L4.31-2.72Q6.62-2.72 7.90-3.90Q9.17-5.08 9.17-7.15L9.17-7.15Q9.17-9.26 7.97-10.47Q6.77-11.68 4.29-11.68L4.29-11.68L-0.66-11.68ZM37.96-4.57L37.96 0.25L26.15 0.25L26.15 8.25L40.01 8.25L40.01 13.19L20.00 13.19L20.00-16.67L39.97-16.67L39.97-11.68L26.15-11.68L26.15-4.57L37.96-4.57Z"/><path xml:space="preserve" font-family="Roboto" font-size="42" font-weight="bold" style="stroke: none; stroke-width: 0; stroke-dasharray: none; stroke-linecap: butt; stroke-dashoffset: 0; stroke-linejoin: miter; stroke-miterlimit: 4; is-custom-font: none; font-file-url: none; fill: rgb(12,35,64); fill-rule: nonzero; opacity: 1; white-space: pre;" d="M63.21 7.06L63.21 7.06Q63.21 5.98 62.13 5.35Q61.05 4.72 58.67 4.23L58.67 4.23Q50.76 2.57 50.76-2.49L50.76-2.49Q50.76-5.45 53.21-7.43Q55.66-9.41 59.62-9.41L59.62-9.41Q63.84-9.41 66.37-7.42Q68.91-5.43 68.91-2.25L68.91-2.25L62.98-2.25Q62.98-3.52 62.16-4.35Q61.34-5.18 59.60-5.18L59.60-5.18Q58.10-5.18 57.28-4.50Q56.46-3.83 56.46-2.78L56.46-2.78Q56.46-1.80 57.39-1.19Q58.32-0.59 60.54-0.15Q62.75 0.29 64.27 0.85L64.27 0.85Q68.97 2.57 68.97 6.82L68.97 6.82Q68.97 9.85 66.36 11.73Q63.76 13.60 59.64 13.60L59.64 13.60Q56.85 13.60 54.68 12.61Q52.52 11.61 51.29 9.88Q50.06 8.15 50.06 6.14L50.06 6.14L55.68 6.14Q55.76 7.72 56.85 8.56Q57.93 9.40 59.76 9.40L59.76 9.40Q61.46 9.40 62.33 8.75Q63.21 8.11 63.21 7.06ZM92.76 2.00L92.76 2.30Q92.76 7.43 90.43 10.52Q88.10 13.60 84.14 13.60L84.14 13.60Q80.78 13.60 78.71 11.27L78.71 11.27L78.71 21.73L72.78 21.73L72.78-9.00L78.28-9.00L78.48-6.82Q80.64-9.41 84.10-9.41L84.10-9.41Q88.20-9.41 90.48-6.37Q92.76-3.34 92.76 2.00L92.76 2.00ZM86.83 1.87L86.83 1.87Q86.83-1.22 85.73-2.90Q84.64-4.59 82.54-4.59L82.54-4.59Q79.75-4.59 78.71-2.45L78.71-2.45L78.71 6.63Q79.80 8.83 82.58 8.83L82.58 8.83Q86.83 8.83 86.83 1.87ZM95.50 2.16L95.50 1.89Q95.50-1.41 96.78-3.99Q98.05-6.58 100.44-7.99Q102.83-9.41 105.98-9.41L105.98-9.41Q110.48-9.41 113.32-6.66Q116.16-3.91 116.48 0.81L116.48 0.81L116.53 2.32Q116.53 7.43 113.67 10.52Q110.82 13.60 106.03 13.60Q101.23 13.60 98.37 10.53Q95.50 7.45 95.50 2.16L95.50 2.16ZM101.43 2.32L101.43 2.32Q101.43 5.48 102.62 7.15Q103.81 8.83 106.03 8.83L106.03 8.83Q108.18 8.83 109.39 7.17Q110.60 5.52 110.60 1.89L110.60 1.89Q110.60-1.20 109.39-2.90Q108.18-4.61 105.98-4.61L105.98-4.61Q103.81-4.61 102.62-2.91Q101.43-1.22 101.43 2.32ZM120.05-9.00L125.63-9.00L125.82-6.43Q128.19-9.41 132.19-9.41L132.19-9.41Q135.72-9.41 137.44-7.33Q139.17-5.26 139.21-1.14L139.21-1.14L139.21 13.19L133.28 13.19L133.28-1.00Q133.28-2.88 132.46-3.74Q131.64-4.59 129.73-4.59L129.73-4.59Q127.23-4.59 125.98-2.45L125.98-2.45L125.98 13.19L120.05 13.19L120.05-9.00ZM155.72 7.06L155.72 7.06Q155.72 5.98 154.64 5.35Q153.56 4.72 151.18 4.23L151.18 4.23Q143.27 2.57 143.27-2.49L143.27-2.49Q143.27-5.45 145.72-7.43Q148.17-9.41 152.13-9.41L152.13-9.41Q156.35-9.41 158.88-7.42Q161.42-5.43 161.42-2.25L161.42-2.25L155.49-2.25Q155.49-3.52 154.67-4.35Q153.85-5.18 152.11-5.18L152.11-5.18Q150.61-5.18 149.79-4.50Q148.97-3.83 148.97-2.78L148.97-2.78Q148.97-1.80 149.90-1.19Q150.83-0.59 153.05-0.15Q155.26 0.29 156.78 0.85L156.78 0.85Q161.48 2.57 161.48 6.82L161.48 6.82Q161.48 9.85 158.87 11.73Q156.27 13.60 152.15 13.60L152.15 13.60Q149.36 13.60 147.19 12.61Q145.03 11.61 143.80 9.88Q142.57 8.15 142.57 6.14L142.57 6.14L148.19 6.14Q148.27 7.72 149.36 8.56Q150.45 9.40 152.27 9.40L152.27 9.40Q153.97 9.40 154.84 8.75Q155.72 8.11 155.72 7.06ZM171.55-9.00L171.55 13.19L165.60 13.19L165.60-9.00L171.55-9.00ZM165.25-14.74L165.25-14.74Q165.25-16.07 166.14-16.93Q167.04-17.79 168.57-17.79L168.57-17.79Q170.09-17.79 170.99-16.93Q171.90-16.07 171.90-14.74L171.90-14.74Q171.90-13.38 170.98-12.52Q170.07-11.66 168.57-11.66Q167.08-11.66 166.16-12.52Q165.25-13.38 165.25-14.74ZM196.42 1.98L196.42 2.30Q196.42 7.64 194.15 10.62Q191.87 13.60 187.79 13.60L187.79 13.60Q184.18 13.60 182.03 10.84L182.03 10.84L181.76 13.19L176.43 13.19L176.43-18.31L182.36-18.31L182.36-7.01Q184.41-9.41 187.75-9.41L187.75-9.41Q191.81-9.41 194.12-6.42Q196.42-3.44 196.42 1.98L196.42 1.98ZM190.50 1.87L190.50 1.87Q190.50-1.49 189.43-3.04Q188.36-4.59 186.25-4.59L186.25-4.59Q183.42-4.59 182.36-2.27L182.36-2.27L182.36 6.49Q183.44 8.83 186.29 8.83L186.29 8.83Q189.16 8.83 190.07 6.00L190.07 6.00Q190.50 4.64 190.50 1.87ZM206.33-9.00L206.33 13.19L200.38 13.19L200.38-9.00L206.33-9.00ZM200.03-14.74L200.03-14.74Q200.03-16.07 200.93-16.93Q201.82-17.79 203.36-17.79L203.36-17.79Q204.87-17.79 205.78-16.93Q206.68-16.07 206.68-14.74L206.68-14.74Q206.68-13.38 205.77-12.52Q204.85-11.66 203.36-11.66Q201.86-11.66 200.95-12.52Q200.03-13.38 200.03-14.74ZM217.46-18.31L217.46 13.19L211.52 13.19L211.52-18.31L217.46-18.31ZM228.60-9.00L228.60 13.19L222.65 13.19L222.65-9.00L228.60-9.00ZM222.30-14.74L222.30-14.74Q222.30-16.07 223.20-16.93Q224.09-17.79 225.63-17.79L225.63-17.79Q227.14-17.79 228.05-16.93Q228.95-16.07 228.95-14.74L228.95-14.74Q228.95-13.38 228.04-12.52Q227.12-11.66 225.63-11.66Q224.13-11.66 223.22-12.52Q222.30-13.38 222.30-14.74ZM234.65-14.45L240.58-14.45L240.58-9.00L244.37-9.00L244.37-4.65L240.58-4.65L240.58 6.43Q240.58 7.66 241.05 8.19Q241.52 8.72 242.85 8.72L242.85 8.72Q243.84 8.72 244.60 8.58L244.60 8.58L244.60 13.07Q242.85 13.60 241.01 13.60L241.01 13.60Q234.77 13.60 234.65 7.31L234.65 7.31L234.65-4.65L231.41-4.65L231.41-9.00L234.65-9.00L234.65-14.45ZM251.84-9.00L255.96 4.81L260.06-9.00L266.42-9.00L257.50 16.64L257.00 17.81Q255.01 22.16 250.44 22.16L250.44 22.16Q249.15 22.16 247.82 21.77L247.82 21.77L247.82 17.27L248.72 17.30Q250.40 17.30 251.23 16.78Q252.06 16.27 252.53 15.08L252.53 15.08L253.23 13.26L245.46-9.00L251.84-9.00Z"/><path xml:space="preserve" font-family="Roboto" font-size="42" font-weight="bold" style="stroke: none; stroke-width: 0; stroke-dasharray: none; stroke-linecap: butt; stroke-dashoffset: 0; stroke-linejoin: miter; stroke-miterlimit: 4; is-custom-font: none; font-file-url: none; fill: rgb(241,90,34); fill-rule: nonzero; opacity: 1; white-space: pre;" d=""/></g>
<g transform="matrix(0.4812 0 0 0.4812 586.7343 50.001)" id="282890">
<g style="" vector-effect="non-scaling-stroke">
		<g transform="matrix(1 0 0 1 -4 -4)">
<rect style="stroke: none; stroke-width: 1; stroke-dasharray: none; stroke-linecap: butt; stroke-dashoffset: 0; stroke-linejoin: miter; stroke-miterlimit: 4; is-custom-font: none; font-file-url: none; fill: rgb(255,255,255); fill-opacity: 0; fill-rule: nonzero; opacity: 1;" x="-50" y="-50" rx="0" ry="0" width="100" height="100"/>
</g>
		<g transform="matrix(4.6863 0 0 4.6863 -1.4507 -1.4507)" id="577921">
<path style="stroke: none; stroke-width: 2; stroke-dasharray: none; stroke-linecap: butt; stroke-dashoffset: 0; stroke-linejoin: miter; stroke-miterlimit: 4; is-custom-font: none; font-file-url: none; fill: rgb(12,35,64); fill-rule: nonzero; opacity: 1;" vector-effect="non-scaling-stroke" transform=" translate(-15, -15)" d="M 8.2441406 4 L 10.244141 6 L 23 6 C 23.571297 6 24 6.4287 24 7 L 24 19.755859 L 26 21.755859 L 26 7 C 26 5.3553 24.644703 4 23 4 L 8.2441406 4 z M 4 8.2441406 L 4 23 C 4 24.6447 5.3552972 26 7 26 L 21.755859 26 L 19.755859 24 L 7 24 C 6.4287028 24 6 23.5713 6 23 L 6 10.244141 L 4 8.2441406 z" stroke-linecap="round"/>
</g>
		<g transform="matrix(2.2094 0 0 2.2094 0.9999 -3.6639)" id="735865">
<path style="stroke: none; stroke-width: 0; stroke-dasharray: none; stroke-linecap: butt; stroke-dashoffset: 0; stroke-linejoin: miter; stroke-miterlimit: 4; is-custom-font: none; font-file-url: none; fill: rgb(12,35,64); fill-rule: nonzero; opacity: 1;" vector-effect="non-scaling-stroke" transform=" translate(-25.2705, -24.5935)" d="M 20.921 31.898 c 2.758 0 5.367 -0.956 7.458 -2.704 l 1.077 1.077 l -0.358 0.358 c -0.188 0.188 -0.293 0.442 -0.293 0.707 s 0.105 0.52 0.293 0.707 l 8.257 8.256 c 0.195 0.195 0.451 0.293 0.707 0.293 s 0.512 -0.098 0.707 -0.293 l 2.208 -2.208 c 0.188 -0.188 0.293 -0.442 0.293 -0.707 s -0.105 -0.52 -0.293 -0.707 l -8.257 -8.256 c -0.391 -0.391 -1.023 -0.391 -1.414 0 l -0.436 0.436 l -1.073 -1.073 c 1.793 -2.104 2.777 -4.743 2.777 -7.537 c 0 -3.112 -1.212 -6.038 -3.413 -8.239 s -5.127 -3.413 -8.239 -3.413 s -6.038 1.212 -8.238 3.413 c -2.201 2.201 -3.413 5.126 -3.413 8.239 c 0 3.112 1.212 6.038 3.413 8.238 C 14.883 30.687 17.809 31.898 20.921 31.898 z M 38.855 37.385 l -0.794 0.793 l -6.843 -6.842 l 0.794 -0.793 L 38.855 37.385 z M 14.097 13.423 c 1.823 -1.823 4.246 -2.827 6.824 -2.827 s 5.002 1.004 6.825 2.827 c 1.823 1.823 2.827 4.247 2.827 6.825 c 0 2.578 -1.004 5.001 -2.827 6.824 c -1.823 1.823 -4.247 2.827 -6.825 2.827 s -5.001 -1.004 -6.824 -2.827 c -1.823 -1.823 -2.827 -4.247 -2.827 -6.824 C 11.27 17.669 12.273 15.246 14.097 13.423 z" stroke-linecap="round"/>
</g>
		<g transform="matrix(1 0 0 1 -11.9291 28.6311)" id="851961">
<path style="stroke: none; stroke-width: 0; stroke-dasharray: none; stroke-linecap: butt; stroke-dashoffset: 0; stroke-linejoin: miter; stroke-miterlimit: 4; is-custom-font: none; font-file-url: none; fill: rgb(241,90,34); fill-rule: nonzero; opacity: 1;" transform=" translate(0.1, 0.76)" d="M -16.38 2.3 L -16.38 2.3 Q -16.2 2.3 -16.07 2.43 L -16.07 2.43 L -15.22 3.35 Q -15.93 4.23 -16.96 4.69 Q -17.98 5.15 -19.42 5.15 L -19.42 5.15 Q -20.71 5.15 -21.74 4.71 Q -22.77 4.27 -23.5 3.49 Q -24.22 2.71 -24.61 1.62 Q -25 0.53 -25 -0.76 L -25 -0.76 Q -25 -2.06 -24.57 -3.15 Q -24.14 -4.23 -23.35 -5.01 Q -22.57 -5.8 -21.48 -6.23 Q -20.38 -6.67 -19.06 -6.67 L -19.06 -6.67 Q -17.78 -6.67 -16.81 -6.26 Q -15.85 -5.85 -15.16 -5.17 L -15.16 -5.17 L -15.88 -4.17 Q -15.94 -4.07 -16.04 -4 Q -16.14 -3.93 -16.32 -3.93 L -16.32 -3.93 Q -16.5 -3.93 -16.7 -4.07 Q -16.89 -4.21 -17.18 -4.38 Q -17.48 -4.55 -17.93 -4.69 Q -18.38 -4.84 -19.08 -4.84 L -19.08 -4.84 Q -19.9 -4.84 -20.58 -4.55 Q -21.26 -4.27 -21.76 -3.74 Q -22.25 -3.21 -22.52 -2.46 Q -22.8 -1.7 -22.8 -0.76 L -22.8 -0.76 Q -22.8 0.22 -22.52 0.98 Q -22.25 1.74 -21.78 2.26 Q -21.3 2.78 -20.66 3.05 Q -20.02 3.33 -19.29 3.33 L -19.29 3.33 Q -18.85 3.33 -18.49 3.28 Q -18.14 3.23 -17.84 3.13 Q -17.54 3.03 -17.27 2.86 Q -17 2.7 -16.74 2.46 L -16.74 2.46 Q -16.66 2.39 -16.57 2.34 Q -16.48 2.3 -16.38 2.3 Z M -4.89 -6.54 L -0.34 5.03 L -2.01 5.03 Q -2.29 5.03 -2.47 4.89 Q -2.65 4.75 -2.73 4.54 L -2.73 4.54 L -3.59 2.18 L -8.38 2.18 L -9.25 4.54 Q -9.31 4.72 -9.5 4.87 Q -9.69 5.03 -9.96 5.03 L -9.96 5.03 L -11.63 5.03 L -7.09 -6.54 L -4.89 -6.54 Z M -6.42 -3.17 L -7.83 0.66 L -4.14 0.66 L -5.55 -3.19 Q -5.65 -3.45 -5.76 -3.79 Q -5.88 -4.14 -5.99 -4.55 L -5.99 -4.55 Q -6.1 -4.14 -6.21 -3.79 Q -6.32 -3.44 -6.42 -3.17 L -6.42 -3.17 Z M 7.08 0.51 L 6.16 0.51 L 6.16 5.03 L 4.01 5.03 L 4.01 -6.54 L 7.54 -6.54 Q 8.72 -6.54 9.56 -6.3 Q 10.41 -6.05 10.95 -5.61 Q 11.49 -5.17 11.74 -4.56 Q 11.99 -3.95 11.99 -3.21 L 11.99 -3.21 Q 11.99 -2.63 11.82 -2.11 Q 11.65 -1.59 11.32 -1.17 Q 11 -0.74 10.52 -0.42 Q 10.05 -0.1 9.44 0.09 L 9.44 0.09 Q 9.85 0.32 10.14 0.75 L 10.14 0.75 L 13.04 5.03 L 11.1 5.03 Q 10.82 5.03 10.63 4.91 Q 10.43 4.8 10.3 4.59 L 10.3 4.59 L 7.86 0.89 Q 7.73 0.68 7.56 0.59 Q 7.4 0.51 7.08 0.51 L 7.08 0.51 Z M 6.16 -4.88 L 6.16 -1.04 L 7.5 -1.04 Q 8.11 -1.04 8.56 -1.19 Q 9.02 -1.34 9.31 -1.61 Q 9.6 -1.88 9.74 -2.25 Q 9.89 -2.61 9.89 -3.05 L 9.89 -3.05 Q 9.89 -3.93 9.31 -4.41 Q 8.73 -4.88 7.54 -4.88 L 7.54 -4.88 L 6.16 -4.88 Z M 17.5 -6.54 L 24.8 -6.54 L 24.8 -4.83 L 19.67 -4.83 L 19.67 -1.62 L 23.71 -1.62 L 23.71 0.03 L 19.67 0.03 L 19.67 3.31 L 24.8 3.31 L 24.8 5.03 L 17.5 5.03 L 17.5 -6.54 Z" stroke-linecap="round"/>
</g>
		<g transform="matrix(-0.4946 0 0 0.4946 -5.311 -25.0076)" id="29451">
<path style="stroke: none; stroke-width: 0; stroke-dasharray: none; stroke-linecap: butt; stroke-dashoffset: 0; stroke-linejoin: miter; stroke-miterlimit: 4; is-custom-font: none; font-file-url: none; fill: rgb(241,90,34); fill-rule: nonzero; opacity: 1;" vector-effect="non-scaling-stroke" transform=" translate(-27.1, -13.6)" d="M 27.1 22.6 c 5 0 9 -4 9 -9 s -4 -9 -9 -9 s -9 4 -9 9 S 22.1 22.6 27.1 22.6 z M 27.1 7.5 c 3.3 0 6 2.7 6 6 s -2.7 6 -6 6 s -6 -2.7 -6 -6 S 23.8 7.5 27.1 7.5 z" stroke-linecap="round"/>
</g>
		<g transform="matrix(-0.4946 0 0 0.4946 -6.2703 -9.1506)" id="988089">
<path style="stroke: none; stroke-width: 0; stroke-dasharray: none; stroke-linecap: butt; stroke-dashoffset: 0; stroke-linejoin: miter; stroke-miterlimit: 4; is-custom-font: none; font-file-url: none; fill: rgb(241,90,34); fill-rule: nonzero; opacity: 1;" vector-effect="non-scaling-stroke" transform=" translate(-29.0395, -45.6605)" d="M 40.8 29.8 C 28.6 22.3 12.7 26 5.1 38.1 l 2.6 1.6 c 6.6 -10.8 20.6 -14.3 31.4 -7.7 s 14.3 20.6 7.7 31.4 c -0.1 0.1 -0.2 0.3 -0.3 0.4 l 2.6 1.6 C 56.6 53.3 52.9 37.4 40.8 29.8 z" stroke-linecap="round"/>
</g>
		<g transform="matrix(-0.4946 0 0 0.4946 -17.7749 -20.6552)" id="337689">
<polygon style="stroke: none; stroke-width: 0; stroke-dasharray: none; stroke-linecap: butt; stroke-dashoffset: 0; stroke-linejoin: miter; stroke-miterlimit: 4; is-custom-font: none; font-file-url: none; fill: rgb(241,90,34); fill-rule: nonzero; opacity: 1;" vector-effect="non-scaling-stroke" points="7.6,-1.5 1.5,-1.5 1.5,-7.6 -1.5,-7.6 -1.5,-1.5 -7.6,-1.5 -7.6,1.5 -1.5,1.5 -1.5,7.6 1.5,7.6 1.5,1.5 7.6,1.5 "/>
</g>
</g>
</g>
</svg>