<svg xmlns="http://www.w3.org/2000/svg" xmlns:xlink="http://www.w3.org/1999/xlink" version="1.1" width="210" height="210" viewBox="0 0 210 210" xml:space="preserve">
<desc>Created with Fabric.js 3.5.0</desc>
<defs>
</defs>
<rect x="0" y="0" width="100%" height="100%" fill="#ffffff"/>
<g transform="matrix(1.2735 0 0 1.2735 104.5007 104.5007)" id="93639">
<path style="stroke: rgb(252,191,73); stroke-width: 4; stroke-dasharray: none; stroke-linecap: butt; stroke-dashoffset: 0; stroke-linejoin: miter; stroke-miterlimit: 4; is-custom-font: none; font-file-url: none; fill: none; fill-rule: nonzero; opacity: 1;" vector-effect="non-scaling-stroke" transform=" translate(-67.5, -67.5)" d="M 132.5 67.5 C 132.5 103.399 103.399 132.5 67.5 132.5 C 31.6015 132.5 2.5 103.399 2.5 67.5 C 2.5 31.6015 31.6015 2.5 67.5 2.5 C 103.399 2.5 132.5 31.6015 132.5 67.5 Z" stroke-linecap="round"/>
</g>
<g transform="matrix(0.4687 0 0 0.4687 66.7921 85.1651)" id="8438">
<g style="">
		<g transform="matrix(0.375 0.7757 -0.7757 0.375 17.0203 -13.6898)" id="680160">
<path style="stroke: none; stroke-width: 0; stroke-dasharray: none; stroke-linecap: butt; stroke-dashoffset: 0; stroke-linejoin: miter; stroke-miterlimit: 4; is-custom-font: none; font-file-url: none; fill: rgb(252,191,73); fill-rule: nonzero; opacity: 1;" vector-effect="non-scaling-stroke" transform=" translate(-50, -1.25)" d="M 0.00000430082 2.5 L 100 2.5 V 5.98372e-8 L 0.00000430082 5.98372e-8 V 2.5 Z" stroke-linecap="round"/>
</g>
		<g transform="matrix(-0.3402 0.7916 -0.7916 -0.3402 -18.1081 -14.4408)" id="425517">
<path style="stroke: none; stroke-width: 0; stroke-dasharray: none; stroke-linecap: butt; stroke-dashoffset: 0; stroke-linejoin: miter; stroke-miterlimit: 4; is-custom-font: none; font-file-url: none; fill: rgb(252,191,73); fill-rule: nonzero; opacity: 1;" vector-effect="non-scaling-stroke" transform=" translate(-50, -1.25)" d="M 0.00000430082 2.5 L 100 2.5 V 5.98372e-8 L 0.00000430082 5.98372e-8 V 2.5 Z" stroke-linecap="round"/>
</g>
		<g transform="matrix(0.4904 0 0 0.3463 -0.9991 38.2814)" id="481056">
<path style="stroke: none; stroke-width: 0; stroke-dasharray: none; stroke-linecap: butt; stroke-dashoffset: 0; stroke-linejoin: miter; stroke-miterlimit: 4; is-custom-font: none; font-file-url: none; fill: rgb(252,191,73); fill-rule: nonzero; opacity: 1;" vector-effect="non-scaling-stroke" transform=" translate(-79, -78.5002)" d="M 154.666 37.5934 H 3.33409 C 1.49273 37.5934 0 39.0767 0 40.9067 C 0.0749556 84.2303 35.4007 119.332 79 119.407 C 122.615 119.369 157.962 84.2455 158 40.9067 C 158 39.0767 156.507 37.5934 154.666 37.5934 Z" stroke-linecap="round"/>
</g>
</g>
</g>
<g transform="matrix(0.4687 0 0 0.4687 145.8265 85.1651)" id="613560">
<g style="">
		<g transform="matrix(0.375 0.7757 -0.7757 0.375 17.0203 -13.6898)" id="831251">
<path style="stroke: none; stroke-width: 0; stroke-dasharray: none; stroke-linecap: butt; stroke-dashoffset: 0; stroke-linejoin: miter; stroke-miterlimit: 4; is-custom-font: none; font-file-url: none; fill: rgb(252,191,73); fill-rule: nonzero; opacity: 1;" vector-effect="non-scaling-stroke" transform=" translate(-50, -1.25)" d="M 0.00000430082 2.5 L 100 2.5 V 5.98372e-8 L 0.00000430082 5.98372e-8 V 2.5 Z" stroke-linecap="round"/>
</g>
		<g transform="matrix(-0.3402 0.7916 -0.7916 -0.3402 -18.1081 -14.4408)" id="970241">
<path style="stroke: none; stroke-width: 0; stroke-dasharray: none; stroke-linecap: butt; stroke-dashoffset: 0; stroke-linejoin: miter; stroke-miterlimit: 4; is-custom-font: none; font-file-url: none; fill: rgb(252,191,73); fill-rule: nonzero; opacity: 1;" vector-effect="non-scaling-stroke" transform=" translate(-50, -1.25)" d="M 0.00000430082 2.5 L 100 2.5 V 5.98372e-8 L 0.00000430082 5.98372e-8 V 2.5 Z" stroke-linecap="round"/>
</g>
		<g transform="matrix(0.4904 0 0 0.3463 -0.9991 38.2814)" id="27550">
<path style="stroke: none; stroke-width: 0; stroke-dasharray: none; stroke-linecap: butt; stroke-dashoffset: 0; stroke-linejoin: miter; stroke-miterlimit: 4; is-custom-font: none; font-file-url: none; fill: rgb(252,191,73); fill-rule: nonzero; opacity: 1;" vector-effect="non-scaling-stroke" transform=" translate(-79, -78.5002)" d="M 154.666 37.5934 H 3.33409 C 1.49273 37.5934 0 39.0767 0 40.9067 C 0.0749556 84.2303 35.4007 119.332 79 119.407 C 122.615 119.369 157.962 84.2455 158 40.9067 C 158 39.0767 156.507 37.5934 154.666 37.5934 Z" stroke-linecap="round"/>
</g>
</g>
</g>
<g transform="matrix(0.8244 0 0 2.1906 105.0045 59.3576)" id="578109">
<path style="stroke: rgb(0,0,0); stroke-width: 0; stroke-dasharray: none; stroke-linecap: butt; stroke-dashoffset: 0; stroke-linejoin: miter; stroke-miterlimit: 4; is-custom-font: none; font-file-url: none; fill: rgb(252,191,73); fill-rule: nonzero; opacity: 1;" vector-effect="non-scaling-stroke" transform=" translate(-50, -1.25)" d="M 0.00000430082 2.5 L 100 2.5 V 5.98372e-8 L 0.00000430082 5.98372e-8 V 2.5 Z" stroke-linecap="round"/>
</g>
<g transform="matrix(0.9425 0 0 0.9425 105.6788 92.1497)" id="196991">
<path style="stroke: rgb(252,191,73); stroke-width: 4; stroke-dasharray: none; stroke-linecap: butt; stroke-dashoffset: 0; stroke-linejoin: miter; stroke-miterlimit: 4; is-custom-font: none; font-file-url: none; fill: rgb(252,191,73); fill-rule: nonzero; opacity: 1;" vector-effect="non-scaling-stroke" transform=" translate(-2.3418, -50.0001)" d="M 4.09812 2.06733 C 4.0341 -0.557557 -0.0632792 -0.749622 0.000742485 1.87527 C 0.640959 33.8861 0.769002 65.8969 0.320851 97.9078 C 0.256829 100.533 4.41823 100.789 4.41823 98.0998 C 4.86638 66.089 4.73834 34.0782 4.09812 2.06733 Z" stroke-linecap="round"/>
</g>
<g transform="matrix(0.9825 0 0 2.6107 104.9674 141.9668)" id="383744">
<path style="stroke: none; stroke-width: 0; stroke-dasharray: none; stroke-linecap: butt; stroke-dashoffset: 0; stroke-linejoin: miter; stroke-miterlimit: 4; is-custom-font: none; font-file-url: none; fill: rgb(252,191,73); fill-rule: nonzero; opacity: 1;" vector-effect="non-scaling-stroke" transform=" translate(-50, -1.25)" d="M 0.00000430082 2.5 L 100 2.5 V 5.98372e-8 L 0.00000430082 5.98372e-8 V 2.5 Z" stroke-linecap="round"/>
</g>
</svg>