<svg xmlns="http://www.w3.org/2000/svg" xmlns:xlink="http://www.w3.org/1999/xlink" version="1.1" width="210" height="210" viewBox="0 0 210 210" xml:space="preserve">
<desc>Created with Fabric.js 3.5.0</desc>
<defs>
</defs>
<rect x="0" y="0" width="100%" height="100%" fill="#ffffff"/>
<g transform="matrix(1.2692 0 0 1.2692 105.0028 100.4638)" id="990667">
<path style="stroke: rgb(234,226,183); stroke-width: 5; stroke-dasharray: none; stroke-linecap: butt; stroke-dashoffset: 0; stroke-linejoin: miter; stroke-miterlimit: 4; is-custom-font: none; font-file-url: none; fill: none; fill-rule: nonzero; opacity: 1;" vector-effect="non-scaling-stroke" transform=" translate(-67.5, -67.5)" d="M 132.5 67.5 C 132.5 103.399 103.399 132.5 67.5 132.5 C 31.6015 132.5 2.5 103.399 2.5 67.5 C 2.5 31.6015 31.6015 2.5 67.5 2.5 C 103.399 2.5 132.5 31.6015 132.5 67.5 Z" stroke-linecap="round"/>
</g>
<g transform="matrix(1.9523 0 0 1.9523 109.319 105)" id="422023">
<g style="" vector-effect="non-scaling-stroke">
		<g transform="matrix(1 0 0 1 -5 -4)" id="623961">
<path style="stroke: none; stroke-width: 1; stroke-dasharray: none; stroke-linecap: butt; stroke-dashoffset: 0; stroke-linejoin: miter; stroke-miterlimit: 4; is-custom-font: none; font-file-url: none; fill: rgb(234,226,183); fill-rule: nonzero; opacity: 1;" transform=" translate(-11, -12)" d="M 11 22 A 10 10 0 1 1 21 12 A 10 10 0 0 1 11 22 Z M 11 4 a 8 8 0 1 0 8 8 A 8 8 0 0 0 11 4 Z" stroke-linecap="round"/>
</g>
		<g transform="matrix(1 0 0 1 8.9357 8.1687)" id="141924">
<path style="stroke: none; stroke-width: 1; stroke-dasharray: none; stroke-linecap: butt; stroke-dashoffset: 0; stroke-linejoin: miter; stroke-miterlimit: 4; is-custom-font: none; font-file-url: none; fill: rgb(234,226,183); fill-rule: nonzero; opacity: 1;" transform=" translate(-24.9357, -24.1687)" d="M 28 29.74 a 3 3 0 0 1 -1.93 -0.7 L 19.94 23.9 a 3 3 0 0 1 3.86 -4.6 l 6.13 5.14 A 3 3 0 0 1 28 29.74 Z M 21.87 20.6 h -0.09 a 1 1 0 0 0 -0.55 1.77 l 6.13 5.14 a 1 1 0 0 0 1.41 -0.12 a 1 1 0 0 0 0.23 -0.73 a 1 1 0 0 0 -0.36 -0.68 l -6.13 -5.15 A 1 1 0 0 0 21.87 20.6 Z" stroke-linecap="round"/>
</g>
		<g transform="matrix(1 0 0 1 2.8102 3.0243)" id="38566">
<path style="stroke: none; stroke-width: 1; stroke-dasharray: none; stroke-linecap: butt; stroke-dashoffset: 0; stroke-linejoin: miter; stroke-miterlimit: 4; is-custom-font: none; font-file-url: none; fill: rgb(234,226,183); fill-rule: nonzero; opacity: 1;" transform=" translate(-18.8102, -19.0244)" d="M 20 21 a 1 1 0 0 1 -0.64 -0.23 L 17 18.82 a 1 1 0 0 1 1.28 -1.54 l 2.34 1.95 a 1 1 0 0 1 0.13 1.41 A 1 1 0 0 1 20 21 Z" stroke-linecap="round"/>
</g>
</g>
</g>
<g transform="matrix(0.4143 0 0 0.4143 99.999 97.5845)" id="892597">
<g style="" vector-effect="non-scaling-stroke">
		<g transform="matrix(1 0 0 1 0 0)" id="429469">
<rect style="stroke: none; stroke-width: 1; stroke-dasharray: none; stroke-linecap: butt; stroke-dashoffset: 0; stroke-linejoin: miter; stroke-miterlimit: 4; is-custom-font: none; font-file-url: none; fill: none; fill-rule: nonzero; opacity: 1;" x="-25" y="-25" rx="0" ry="0" width="50" height="50"/>
</g>
		<g transform="matrix(1 0 0 1 0 0)" id="621723">
<line style="stroke: rgb(234,226,183); stroke-width: 4; stroke-dasharray: none; stroke-linecap: butt; stroke-dashoffset: 0; stroke-linejoin: miter; stroke-miterlimit: 10; is-custom-font: none; font-file-url: none; fill: none; fill-rule: nonzero; opacity: 1;" x1="-16" y1="0" x2="16" y2="0"/>
</g>
		<g transform="matrix(1 0 0 1 0 0)" id="262223">
<line style="stroke: rgb(234,226,183); stroke-width: 4; stroke-dasharray: none; stroke-linecap: butt; stroke-dashoffset: 0; stroke-linejoin: miter; stroke-miterlimit: 10; is-custom-font: none; font-file-url: none; fill: none; fill-rule: nonzero; opacity: 1;" x1="0" y1="-16" x2="0" y2="16"/>
</g>
</g>
</g>
<g transform="matrix(0.9595 0 0 1.5506 105.0017 145.1565)" id="792763">
<path style="stroke: rgb(234,226,183); stroke-width: 2; stroke-dasharray: none; stroke-linecap: butt; stroke-dashoffset: 0; stroke-linejoin: miter; stroke-miterlimit: 4; is-custom-font: none; font-file-url: none; fill: rgb(234,226,183); fill-rule: nonzero; opacity: 1;" vector-effect="non-scaling-stroke" transform=" translate(-50, -1.25)" d="M 0.00000430082 2.5 L 100 2.5 V 5.98372e-8 L 0.00000430082 5.98372e-8 V 2.5 Z" stroke-linecap="round"/>
</g>
<g transform="matrix(0.9595 0 0 1.5506 105 59.4426)" id="966246">
<path style="stroke: rgb(234,226,183); stroke-width: 2; stroke-dasharray: none; stroke-linecap: butt; stroke-dashoffset: 0; stroke-linejoin: miter; stroke-miterlimit: 4; is-custom-font: none; font-file-url: none; fill: rgb(234,226,183); fill-rule: nonzero; opacity: 1;" vector-effect="non-scaling-stroke" transform=" translate(-50, -1.25)" d="M 0.00000430082 2.5 L 100 2.5 V 5.98372e-8 L 0.00000430082 5.98372e-8 V 2.5 Z" stroke-linecap="round"/>
</g>
</svg>