<svg xmlns="http://www.w3.org/2000/svg" xmlns:xlink="http://www.w3.org/1999/xlink" version="1.1" width="210" height="210" viewBox="0 0 210 210" xml:space="preserve">
<desc>Created with Fabric.js 3.5.0</desc>
<defs>
</defs>
<rect x="0" y="0" width="100%" height="100%" fill="#ffffff"/>
<g transform="matrix(1.2666 0 0 1.2666 105.0006 105.3407)" id="780102">
<path style="stroke: rgb(168,218,220); stroke-width: 5; stroke-dasharray: none; stroke-linecap: butt; stroke-dashoffset: 0; stroke-linejoin: miter; stroke-miterlimit: 4; is-custom-font: none; font-file-url: none; fill: none; fill-rule: nonzero; opacity: 1;" vector-effect="non-scaling-stroke" transform=" translate(-67.5, -67.5)" d="M 132.5 67.5 C 132.5 103.399 103.399 132.5 67.5 132.5 C 31.6015 132.5 2.5 103.399 2.5 67.5 C 2.5 31.6015 31.6015 2.5 67.5 2.5 C 103.399 2.5 132.5 31.6015 132.5 67.5 Z" stroke-linecap="round"/>
</g>
<g transform="matrix(0.9618 0 0 1.7694 105 54.778)" id="444879">
<path style="stroke: rgb(168,218,220); stroke-width: 2; stroke-dasharray: none; stroke-linecap: butt; stroke-dashoffset: 0; stroke-linejoin: miter; stroke-miterlimit: 4; is-custom-font: none; font-file-url: none; fill: rgb(168,218,220); fill-rule: nonzero; opacity: 1;" vector-effect="non-scaling-stroke" transform=" translate(-50, -1.25)" d="M 0.00000430082 2.5 L 100 2.5 V 5.98372e-8 L 0.00000430082 5.98372e-8 V 2.5 Z" stroke-linecap="round"/>
</g>
<g transform="matrix(0.9595 0 0 1.5506 105 153.9044)" id="797201">
<path style="stroke: rgb(168,218,220); stroke-width: 2; stroke-dasharray: none; stroke-linecap: butt; stroke-dashoffset: 0; stroke-linejoin: miter; stroke-miterlimit: 4; is-custom-font: none; font-file-url: none; fill: rgb(168,218,220); fill-rule: nonzero; opacity: 1;" vector-effect="non-scaling-stroke" transform=" translate(-50, -1.25)" d="M 0.00000430082 2.5 L 100 2.5 V 5.98372e-8 L 0.00000430082 5.98372e-8 V 2.5 Z" stroke-linecap="round"/>
</g>
<g transform="matrix(1.2627 0 0 1.2627 105 80.3871)" id="882552">
<g style="" vector-effect="non-scaling-stroke">
		<g transform="matrix(1 0 0 1 0 6.4447)" id="647441">
<path style="stroke: none; stroke-width: 1; stroke-dasharray: none; stroke-linecap: butt; stroke-dashoffset: 0; stroke-linejoin: miter; stroke-miterlimit: 4; is-custom-font: none; font-file-url: none; fill: rgb(168,218,220); fill-rule: nonzero; opacity: 1;" transform=" translate(-16, -22.4447)" d="M 23.74 16.18 a 1 1 0 1 0 -1.41 1.42 A 9 9 0 0 1 25 24 c 0 1.22 -3.51 3 -9 3 s -9 -1.78 -9 -3 a 9 9 0 0 1 2.63 -6.37 a 1 1 0 0 0 0 -1.41 a 1 1 0 0 0 -1.41 0 A 10.92 10.92 0 0 0 5 24 c 0 3.25 5.67 5 11 5 s 11 -1.75 11 -5 A 10.94 10.94 0 0 0 23.74 16.18 Z" stroke-linecap="round"/>
</g>
		<g transform="matrix(1 0 0 1 0 -6)" id="633432">
<path style="stroke: none; stroke-width: 1; stroke-dasharray: none; stroke-linecap: butt; stroke-dashoffset: 0; stroke-linejoin: miter; stroke-miterlimit: 4; is-custom-font: none; font-file-url: none; fill: rgb(168,218,220); fill-rule: nonzero; opacity: 1;" transform=" translate(-16, -10)" d="M 16 17 a 7 7 0 1 0 -7 -7 A 7 7 0 0 0 16 17 Z M 16 5 a 5 5 0 1 1 -5 5 A 5 5 0 0 1 16 5 Z" stroke-linecap="round"/>
</g>
</g>
</g>
<g transform="matrix(1.2627 0 0 1.2627 76.1132 113.8296)" id="667662">
<g style="" vector-effect="non-scaling-stroke">
		<g transform="matrix(1 0 0 1 0 6.4447)" id="925738">
<path style="stroke: none; stroke-width: 1; stroke-dasharray: none; stroke-linecap: butt; stroke-dashoffset: 0; stroke-linejoin: miter; stroke-miterlimit: 4; is-custom-font: none; font-file-url: none; fill: rgb(168,218,220); fill-rule: nonzero; opacity: 1;" transform=" translate(-16, -22.4447)" d="M 23.74 16.18 a 1 1 0 1 0 -1.41 1.42 A 9 9 0 0 1 25 24 c 0 1.22 -3.51 3 -9 3 s -9 -1.78 -9 -3 a 9 9 0 0 1 2.63 -6.37 a 1 1 0 0 0 0 -1.41 a 1 1 0 0 0 -1.41 0 A 10.92 10.92 0 0 0 5 24 c 0 3.25 5.67 5 11 5 s 11 -1.75 11 -5 A 10.94 10.94 0 0 0 23.74 16.18 Z" stroke-linecap="round"/>
</g>
		<g transform="matrix(1 0 0 1 0 -6)" id="745191">
<path style="stroke: none; stroke-width: 1; stroke-dasharray: none; stroke-linecap: butt; stroke-dashoffset: 0; stroke-linejoin: miter; stroke-miterlimit: 4; is-custom-font: none; font-file-url: none; fill: rgb(168,218,220); fill-rule: nonzero; opacity: 1;" transform=" translate(-16, -10)" d="M 16 17 a 7 7 0 1 0 -7 -7 A 7 7 0 0 0 16 17 Z M 16 5 a 5 5 0 1 1 -5 5 A 5 5 0 0 1 16 5 Z" stroke-linecap="round"/>
</g>
</g>
</g>
<g transform="matrix(1.2627 0 0 1.2627 133.8868 113.6381)" id="370834">
<g style="" vector-effect="non-scaling-stroke">
		<g transform="matrix(1 0 0 1 0 6.4447)" id="421088">
<path style="stroke: none; stroke-width: 1; stroke-dasharray: none; stroke-linecap: butt; stroke-dashoffset: 0; stroke-linejoin: miter; stroke-miterlimit: 4; is-custom-font: none; font-file-url: none; fill: rgb(168,218,220); fill-rule: nonzero; opacity: 1;" transform=" translate(-16, -22.4447)" d="M 23.74 16.18 a 1 1 0 1 0 -1.41 1.42 A 9 9 0 0 1 25 24 c 0 1.22 -3.51 3 -9 3 s -9 -1.78 -9 -3 a 9 9 0 0 1 2.63 -6.37 a 1 1 0 0 0 0 -1.41 a 1 1 0 0 0 -1.41 0 A 10.92 10.92 0 0 0 5 24 c 0 3.25 5.67 5 11 5 s 11 -1.75 11 -5 A 10.94 10.94 0 0 0 23.74 16.18 Z" stroke-linecap="round"/>
</g>
		<g transform="matrix(1 0 0 1 0 -6)" id="361117">
<path style="stroke: none; stroke-width: 1; stroke-dasharray: none; stroke-linecap: butt; stroke-dashoffset: 0; stroke-linejoin: miter; stroke-miterlimit: 4; is-custom-font: none; font-file-url: none; fill: rgb(168,218,220); fill-rule: nonzero; opacity: 1;" transform=" translate(-16, -10)" d="M 16 17 a 7 7 0 1 0 -7 -7 A 7 7 0 0 0 16 17 Z M 16 5 a 5 5 0 1 1 -5 5 A 5 5 0 0 1 16 5 Z" stroke-linecap="round"/>
</g>
</g>
</g>
</svg>