<svg xmlns="http://www.w3.org/2000/svg" xmlns:xlink="http://www.w3.org/1999/xlink" version="1.1" width="210" height="210" viewBox="0 0 210 210" xml:space="preserve">
<desc>Created with Fabric.js 3.5.0</desc>
<defs>
</defs>
<rect x="0" y="0" width="100%" height="100%" fill="#ffffff"/>
<g transform="matrix(1.2701 0 0 1.2701 104.9983 104.9983)" id="752902">
<path style="stroke: rgb(6,214,160); stroke-width: 5; stroke-dasharray: none; stroke-linecap: butt; stroke-dashoffset: 0; stroke-linejoin: miter; stroke-miterlimit: 4; is-custom-font: none; font-file-url: none; fill: none; fill-rule: nonzero; opacity: 1;" vector-effect="non-scaling-stroke" transform=" translate(-67.5, -67.5)" d="M 132.5 67.5 C 132.5 103.399 103.399 132.5 67.5 132.5 C 31.6015 132.5 2.5 103.399 2.5 67.5 C 2.5 31.6015 31.6015 2.5 67.5 2.5 C 103.399 2.5 132.5 31.6015 132.5 67.5 Z" stroke-linecap="round"/>
</g>
<g transform="matrix(1.2383 0 0 1.2383 105.3519 100.3276)" id="218345">
<g style="" vector-effect="non-scaling-stroke">
		<g transform="matrix(1 0 0 1 0.5 6.5)" id="986714">
<circle style="stroke: rgb(6,214,160); stroke-width: 2; stroke-dasharray: none; stroke-linecap: butt; stroke-dashoffset: 0; stroke-linejoin: miter; stroke-miterlimit: 4; is-custom-font: none; font-file-url: none; fill: rgb(6,214,160); fill-rule: nonzero; opacity: 1;" cx="0" cy="0" r="2"/>
</g>
		<g transform="matrix(1 0 0 1 0.5 10.5)" id="717028">
<path style="stroke: rgb(6,214,160); stroke-width: 2; stroke-dasharray: none; stroke-linecap: butt; stroke-dashoffset: 0; stroke-linejoin: miter; stroke-miterlimit: 4; is-custom-font: none; font-file-url: none; fill: rgb(6,214,160); fill-rule: nonzero; opacity: 1;" transform=" translate(-24, -34)" d="M 24 38 c -0.553 0 -1 -0.447 -1 -1 v -6 c 0 -0.553 0.447 -1 1 -1 s 1 0.447 1 1 v 6 C 25 37.553 24.553 38 24 38 z" stroke-linecap="round"/>
</g>
		<g transform="matrix(1 0 0 1 0.5 9.5)" id="985066">
<path style="stroke: rgb(6,214,160); stroke-width: 2; stroke-dasharray: none; stroke-linecap: butt; stroke-dashoffset: 0; stroke-linejoin: miter; stroke-miterlimit: 4; is-custom-font: none; font-file-url: none; fill: rgb(6,214,160); fill-rule: nonzero; opacity: 1;" transform=" translate(-24, -33)" d="M 42 48 H 6 V 18 h 36 V 48 z M 8 46 h 32 V 20 H 8 V 46 z" stroke-linecap="round"/>
</g>
		<g transform="matrix(1 0 0 1 0.5 -14)" id="684952">
<path style="stroke: rgb(6,214,160); stroke-width: 2; stroke-dasharray: none; stroke-linecap: butt; stroke-dashoffset: 0; stroke-linejoin: miter; stroke-miterlimit: 4; is-custom-font: none; font-file-url: none; fill: rgb(6,214,160); fill-rule: nonzero; opacity: 1;" transform=" translate(-24, -9.5)" d="M 36 19 h -2 v -7 c 0 -5.514 -4.486 -10 -10 -10 S 14 6.486 14 12 v 7 h -2 v -7 c 0 -6.617 5.383 -12 12 -12 s 12 5.383 12 12 V 19 z" stroke-linecap="round"/>
</g>
</g>
</g>
<g transform="matrix(0.9595 0 0 1.5506 105 151.6328)" id="406533">
<path style="stroke: rgb(6,214,160); stroke-width: 2; stroke-dasharray: none; stroke-linecap: butt; stroke-dashoffset: 0; stroke-linejoin: miter; stroke-miterlimit: 4; is-custom-font: none; font-file-url: none; fill: rgb(6,214,160); fill-rule: nonzero; opacity: 1;" vector-effect="non-scaling-stroke" transform=" translate(-50, -1.25)" d="M 0.00000430082 2.5 L 100 2.5 V 5.98372e-8 L 0.00000430082 5.98372e-8 V 2.5 Z" stroke-linecap="round"/>
</g>
<g transform="matrix(0.9595 0 0 1.5506 105 55.6749)" id="541971">
<path style="stroke: rgb(6,214,160); stroke-width: 2; stroke-dasharray: none; stroke-linecap: butt; stroke-dashoffset: 0; stroke-linejoin: miter; stroke-miterlimit: 4; is-custom-font: none; font-file-url: none; fill: rgb(6,214,160); fill-rule: nonzero; opacity: 1;" vector-effect="non-scaling-stroke" transform=" translate(-50, -1.25)" d="M 0.00000430082 2.5 L 100 2.5 V 5.98372e-8 L 0.00000430082 5.98372e-8 V 2.5 Z" stroke-linecap="round"/>
</g>
</svg>